<svg id="Original" xmlns="http://www.w3.org/2000/svg" viewBox="0 0 182 182"><defs><style>.cls-1{fill:#fff;}.cls-2{fill:#1f3a6a;}.cls-3{fill:#5dc4e9;}</style></defs><rect class="cls-1" width="182" height="182" rx="4.673"/><polygon class="cls-2" points="110.746 46.522 104.773 46.522 104.773 48.12 109.475 48.12 121.332 96.348 60.668 96.348 72.526 48.12 77.227 48.12 77.227 46.522 71.253 46.522 58.12 98.314 123.881 98.314 110.746 46.522"/><path class="cls-3" d="M102.535,24.7608h-23.07a2.3465,2.3465,0,0,0-2.3436,2.3436V49.7309H78.857V27.1044a.6166.6166,0,0,1,.6083-.6083h4.3V42.8166H79.2463l6.4747,6.9145H96.2783l6.4748-6.9145H98.2342V26.4961h4.3008a.6159.6159,0,0,1,.6075.6083V49.7309h1.7353V27.1044A2.3458,2.3458,0,0,0,102.535,24.7608Z"/><path class="cls-2" d="M85.9144,77.9646H96.0855a1.1493,1.1493,0,0,0,1.1579-1.2277l-.3894-6.6643a1.3236,1.3236,0,0,0-1.3015-1.2276H86.4473a1.3235,1.3235,0,0,0-1.3014,1.2276l-.3895,6.6643A1.1493,1.1493,0,0,0,85.9144,77.9646Z"/><path class="cls-2" d="M81.5655,68.845H72.3783a1.5692,1.5692,0,0,0-1.4723,1.2056l-1.35,6.7083a.97.97,0,0,0,.9872,1.2057H80.7851A1.3675,1.3675,0,0,0,82.12,76.7393L82.69,70.07A1.1123,1.1123,0,0,0,81.5655,68.845Z"/><path class="cls-2" d="M86.3244,66.741h9.3511a.9194.9194,0,0,0,.9264-.9821L96.29,60.4275a1.0588,1.0588,0,0,0-1.0411-.9821H86.7508a1.0588,1.0588,0,0,0-1.0411.9821l-.3116,5.3314A.9193.9193,0,0,0,86.3244,66.741Z"/><path class="cls-2" d="M82.6159,59.4454H74.0235a1.2554,1.2554,0,0,0-1.1779.9644l-1.08,5.3668a.7757.7757,0,0,0,.79.9644h9.436a1.094,1.094,0,0,0,1.0676-.98l.4566-5.3352A.89.89,0,0,0,82.6159,59.4454Z"/><path class="cls-2" d="M109.42,66.741a.7747.7747,0,0,0,.7889-.9642l-1.085-5.3672a1.2568,1.2568,0,0,0-1.1788-.9642H99.384a.89.89,0,0,0-.9.98l.4565,5.3352a1.094,1.094,0,0,0,1.0677.98Z"/><path class="cls-2" d="M86.7323,57.657h8.5353a.8045.8045,0,0,0,.8106-.8593l-.2406-4.1163a.9265.9265,0,0,0-.911-.8593H87.0733a.9266.9266,0,0,0-.9111.8593l-.24,4.1163A.8044.8044,0,0,0,86.7323,57.657Z"/><path class="cls-2" d="M107.7061,57.657a.6778.6778,0,0,0,.69-.8437l-.8384-4.1475a1.1,1.1,0,0,0-1.0315-.8437H98.6085a.7785.7785,0,0,0-.7873.8577l.3526,4.12a.9571.9571,0,0,0,.9341.8576Z"/><path class="cls-2" d="M83.3913,51.8221H75.4344a1.0985,1.0985,0,0,0-1.0307.8439l-.8344,4.1471a.6787.6787,0,0,0,.6911.8439h8.6315a.9572.9572,0,0,0,.9342-.8576l.3526-4.12A.7786.7786,0,0,0,83.3913,51.8221Z"/><path class="cls-2" d="M111.4428,77.9646a.9683.9683,0,0,0,.986-1.2053L111.0725,70.05a1.571,1.571,0,0,0-1.4734-1.2054h-9.1648A1.1122,1.1122,0,0,0,99.3094,70.07l.5707,6.6691a1.3676,1.3676,0,0,0,1.3346,1.2253Z"/><path class="cls-2" d="M95.9842,80.44H86.0156a1.5882,1.5882,0,0,0-1.5616,1.4732L83.96,90.3661a1.379,1.379,0,0,0,1.3895,1.4731H96.65a1.3791,1.3791,0,0,0,1.39-1.4731l-.4941-8.4533A1.5883,1.5883,0,0,0,95.9842,80.44Z"/><path class="cls-2" d="M80.3274,80.44H70.2914a1.8829,1.8829,0,0,0-1.7667,1.4467l-1.7115,8.5062a1.1635,1.1635,0,0,0,1.1847,1.4467h11.354a1.641,1.641,0,0,0,1.6015-1.47l.7238-8.459A1.3347,1.3347,0,0,0,80.3274,80.44Z"/><path class="cls-2" d="M113.4654,81.8861a1.8853,1.8853,0,0,0-1.7681-1.4465H101.6725a1.3349,1.3349,0,0,0-1.35,1.47l.7238,8.459a1.641,1.641,0,0,0,1.6016,1.47h11.354a1.162,1.162,0,0,0,1.1832-1.4463Z"/><path class="cls-2" d="M51.2679,124.0267H47.17V147.331h4.0984ZM37.95,135.8325a9.3953,9.3953,0,0,1-1.3471,5.0028,6.4962,6.4962,0,0,1-5.3135,3.2461,6.4617,6.4617,0,0,1-4.2755-1.7081c-1.6422-1.6265-2.1213-4.2355-2.1213-6.7265.0295-3.517,1.0433-5.4959,2.7063-7.0183a5.2823,5.2823,0,0,1,3.6505-1.4893,6.4,6.4,0,0,1,3.8659,1.4321c2.9683,2.4806,2.8347,7.0355,2.8347,7.2612m2.09,18.022c1.7359-2.2931,1.873-4.673,1.998-9.5561l-.0521-20.2717H38.0838v3.6a9.6471,9.6471,0,0,0-1.8817-2.1959A8.2837,8.2837,0,0,0,30.63,123.57a9.4635,9.4635,0,0,0-7.8306,4.1644,13.6706,13.6706,0,0,0-2.31,8.0979,16.1256,16.1256,0,0,0,.6908,4.9143,10.8936,10.8936,0,0,0,3.2635,5.1313,8.7335,8.7335,0,0,0,6.1867,1.9372,9.7086,9.7086,0,0,0,5.5722-2.0223,8.6225,8.6225,0,0,0,1.5693-1.7567l-.033,3.1975a11.0462,11.0462,0,0,1-.5416,3.1038,5.0379,5.0379,0,0,1-1.045,1.7671c-1.12,1.295-2.5518,1.9685-5.3,2.0657a18.6824,18.6824,0,0,1-5.93-.9894,13.7218,13.7218,0,0,1-2.3018-1.1214l-.434,4.0585c.6562.2639,1.1388.4427,1.8383.6822a22.5016,22.5016,0,0,0,6.5635.9843,13.4643,13.4643,0,0,0,6.6623-1.4912,8.3309,8.3309,0,0,0,2.79-2.4389m6.855-35.3722h4.4873v-4.6H46.8952Zm19.593,9.004a7.8857,7.8857,0,0,1,2.8243.5573V123.95c-.2066,0-1.4634-.1944-2.5084-.1944a6.793,6.793,0,0,0-5.4889,2.39,16.0262,16.0262,0,0,0-1.1387,1.7654l-.21-3.8849h-3.92c.125,2.9215.2309,4.9577.2309,7.8358,0,3.3763-.0642,5.758-.0642,9.1013v6.3638h4.2321V135.921c.1267-2.21.2551-5.1347,2.52-7.1223a5.1175,5.1175,0,0,1,3.5221-1.3124m21.4226,7.9678c0,2.5465-.7915,6.2769-3.92,8.0423a6.7177,6.7177,0,0,1-6.0531.1841,8.1785,8.1785,0,0,1-1.1422-.7361,7.5271,7.5271,0,0,1-2.2132-3.0621,10.7261,10.7261,0,0,1-.7743-4.5063,8.955,8.955,0,0,1,2.8243-6.7075A6.9323,6.9323,0,0,1,81.21,127.002c3.6072.0434,5.2059,2.5205,5.9975,4.4144a12.0413,12.0413,0,0,1,.703,4.0377m.9114,9.3095a12.9873,12.9873,0,0,0,3.4283-9.3876c-.1267-5.725-3.1246-9.1412-5.9627-10.6358a12.1741,12.1741,0,0,0-15.2689,4.3761,13.9063,13.9063,0,0,0-1.6213,6.6311c-.0434,4.6783,1.6213,7.4331,3.6158,9.3721a11.5348,11.5348,0,0,0,1.4842,1.0849,10.915,10.915,0,0,0,6.2613,1.5675,11.5866,11.5866,0,0,0,4.9248-.91,10.2942,10.2942,0,0,0,3.1385-2.0987"/><path class="cls-2" d="M95.8635,128.9808c.125,4.5046.125,7.7073.125,12.2345,0,5.6469-.0938,11.2972-.125,16.9371h4.1609V144.1785a12.2444,12.2444,0,0,0,1.3159,1.4825,8.53,8.53,0,0,0,5.7422,2.1142,9.9614,9.9614,0,0,0,7.3585-3.194c3.48-3.7374,3.1923-8.7923,3.1923-9.5473a15.2628,15.2628,0,0,0-.9339-5.1088,9.5178,9.5178,0,0,0-9.2645-6.44,8.9389,8.9389,0,0,0-6.22,2.4007,8.6654,8.6654,0,0,0-1.4408,1.6994l-.18-3.5585H95.6725C95.78,125.8857,95.7976,127.139,95.8635,128.9808Zm4.0881,6.4974a11.5049,11.5049,0,0,1,.479-3.2479c1.0885-3.293,3.5534-5.0913,6.303-5.0913a6.2155,6.2155,0,0,1,5.6677,3.838,10.0943,10.0943,0,0,1,.8593,4.77,10.833,10.833,0,0,1-.6058,3.5932c-1.5172,4.3294-4.9578,4.753-6.0982,4.753-2.6473,0-5.0776-1.7777-6.126-4.9977A12.0282,12.0282,0,0,1,99.9516,135.4782Z"/><path class="cls-2" d="M160.5672,124.0243l-5.197,12.6131-2.35,6.1087-.1617.3293c-.5906-1.7486-1.4044-3.93-2.1474-6.0036l-4.8176-13.0475h-4.4719l9.36,23.3-4.5608,10.8285h4.1728l14.588-34.1281Z"/><path class="cls-2" d="M138.3605,127.0451c-1.2151-2.0343-4.3489-3.4667-8.008-3.4667a12.5934,12.5934,0,0,0-7.3079,1.969V129.21a13.4579,13.4579,0,0,1,6.5235-2.208c2.8275,0,5.0481,1.6266,5.6313,3.1488a9.646,9.646,0,0,1,.42,3.0742c-1.0782-.0534-2.2275-.0974-3.3472-.0974-2.2978,0-5.5274.0974-7.8274,1.2239a6.6168,6.6168,0,0,0-4.232,6.2442,7.0821,7.0821,0,0,0,2.3521,5.41,8.1311,8.1311,0,0,0,4.8414,1.646,10.665,10.665,0,0,0,6.0915-1.5485,16.1,16.1,0,0,0,2.4687-2.475v3.6989h3.56V132.284A10.4074,10.4074,0,0,0,138.3605,127.0451Zm-2.6386,9.7854a10.5636,10.5636,0,0,1-.3539,3.1488,6.0669,6.0669,0,0,1-1.0434,1.991,6.5953,6.5953,0,0,1-5.2757,2.4682c-1.9164,0-4.4664-.9976-4.4664-3.7336,0-2.7166,3.17-4.15,4.9281-4.4426a18.0984,18.0984,0,0,1,3.08-.19c1.0434,0,2.0884.0314,3.1314.1195Z"/></svg>