<svg width="50" height="40" viewBox="0 0 50 40" fill="none" xmlns="http://www.w3.org/2000/svg">
	<path d="M10.6397 27.6065H9.22212V35.6709H10.6397V27.6065ZM6.03251 31.6905C6.04261 32.2997 5.88139 32.8995 5.5672 33.4216C5.26023 34.0074 4.69496 34.4141 4.04197 34.5189C3.38899 34.6238 2.72478 34.4146 2.24981 33.9544C1.71684 33.3016 1.45759 32.4677 1.52655 31.6279C1.45497 30.7188 1.7989 29.8261 2.46197 29.2001C2.80066 28.8714 3.25336 28.6866 3.72528 28.6842C4.21387 28.6976 4.6843 28.8722 5.06333 29.1808C6.09037 30.0391 6.04456 31.6158 6.04456 31.693M6.76783 37.9299C7.36814 37.1368 7.41636 36.3122 7.45976 34.6222L7.44288 27.6065H6.09278V28.8626C5.91513 28.5782 5.69569 28.3222 5.44184 28.1031C4.89919 27.6601 4.21309 27.4311 3.51312 27.4594C2.42566 27.4616 1.41027 28.0037 0.803277 28.906C0.248359 29.7323 -0.0317383 30.7126 0.00285942 31.7074C-0.00495089 32.283 0.0763749 32.8564 0.243949 33.4071C0.444058 34.0937 0.835396 34.7091 1.37225 35.1815C1.97351 35.6712 2.73995 35.9112 3.51312 35.8517C4.21318 35.8254 4.88752 35.581 5.44184 35.1526C5.64957 34.9758 5.83208 34.7714 5.98429 34.545V35.6516C5.97312 36.0164 5.9098 36.3777 5.79624 36.7245C5.71906 36.9513 5.59595 37.1598 5.43461 37.3369C4.96633 37.8466 4.29004 38.1132 3.59991 38.0601C2.90203 38.0575 2.20917 37.9419 1.54824 37.7178C1.27153 37.6135 1.00518 37.4835 0.752648 37.3296L0.603172 38.7328C0.829796 38.8244 0.996148 38.8871 1.23965 38.9739C1.97571 39.1988 2.74105 39.3133 3.51071 39.3138C4.31055 39.3427 5.10434 39.165 5.81553 38.7979C6.19601 38.5922 6.52555 38.3039 6.77989 37.954M9.15221 25.7139H10.7048V24.1227H9.15221V25.7139ZM15.9316 28.8288C16.2662 28.8327 16.5972 28.8981 16.9081 29.0217V27.6041C16.8357 27.6041 16.4018 27.5366 16.0401 27.5366C15.313 27.5032 14.6114 27.8086 14.1403 28.3635C13.9962 28.558 13.8649 28.7618 13.7474 28.9735L13.675 27.6282H12.3032C12.3466 28.6383 12.3828 29.3447 12.3828 30.3404C12.3828 31.5097 12.3611 32.3318 12.3611 33.4891V35.6902H13.8245V31.7219C13.8679 30.9576 13.9137 29.9451 14.6973 29.2579C15.0317 28.9576 15.4678 28.7956 15.9172 28.8047M23.3307 31.5628C23.3307 32.4427 23.0558 33.7326 21.9733 34.3449C21.3246 34.6974 20.5469 34.7207 19.8783 34.4076C19.7396 34.3336 19.6074 34.2481 19.4829 34.1521C19.1415 33.8702 18.8776 33.5059 18.7162 33.0937C18.516 32.599 18.4247 32.067 18.4486 31.5338C18.4306 30.6566 18.7855 29.8128 19.425 29.2121C19.8665 28.8358 20.4289 28.6312 21.009 28.6359C21.9576 28.6461 22.7935 29.2616 23.0848 30.1644C23.2445 30.6133 23.326 31.0863 23.3259 31.5628M23.6417 34.7837C24.4543 33.9027 24.8813 32.7336 24.8278 31.5362C24.8764 30.0212 24.0819 28.6039 22.7641 27.8548C20.8713 26.9833 18.6256 27.6269 17.4818 29.3688C17.1071 30.0755 16.9141 30.8642 16.9201 31.664C16.8429 32.8759 17.3001 34.0608 18.1714 34.9067C18.3322 35.0455 18.504 35.1713 18.6849 35.2828C19.3368 35.6785 20.0932 35.8676 20.8547 35.8252C21.4391 35.8455 22.0209 35.7377 22.5592 35.5094C22.9622 35.3371 23.33 35.0919 23.6441 34.7861" fill="#1F3A6A"/>
	<path d="M26.0695 29.3206C26.1129 30.8805 26.1129 31.9871 26.1129 33.5542C26.1129 35.507 26.0816 37.4622 26.0695 39.415H27.5161V34.5788C27.6538 34.762 27.8062 34.9338 27.9717 35.0923C28.5219 35.5705 29.2295 35.8281 29.9583 35.8156C30.9241 35.8204 31.8477 35.4198 32.5042 34.7114C33.28 33.7915 33.675 32.61 33.6084 31.4085C33.6024 30.8053 33.4932 30.2076 33.2853 29.6413C32.8194 28.2769 31.5201 27.3742 30.0788 27.4136C29.2808 27.4027 28.5094 27.7007 27.9259 28.2454C27.7349 28.4192 27.5672 28.6169 27.4269 28.8336L27.3642 27.6017H26.0068C26.0526 28.2502 26.0695 28.6841 26.0695 29.3206ZM27.4847 31.57C27.4862 31.1895 27.5422 30.8111 27.6511 30.4465C27.9015 29.4416 28.786 28.7232 29.8209 28.6841C30.6811 28.695 31.4521 29.2176 31.7809 30.0126C32.0125 30.5308 32.1143 31.0976 32.0775 31.664C32.0783 32.0876 32.0074 32.5082 31.8677 32.908C31.6084 33.8642 30.7488 34.5343 29.7582 34.5523C28.7455 34.5128 27.8811 33.8078 27.639 32.8237C27.5282 32.4154 27.4802 31.9927 27.4968 31.57H27.4847Z" fill="#1F3A6A"/>
	<path d="M48.4692 27.6065L46.6706 31.9702L45.8582 34.0846L45.8027 34.1979C45.5978 33.5927 45.3205 32.8381 45.0602 32.1197L43.3942 27.6041H41.8464L45.0843 35.6661L43.5051 39.4126H44.9517L50.0001 27.5992L48.4692 27.6065Z" fill="#1F3A6A"/>
	<path d="M40.7756 28.6504C40.3561 27.9464 39.2712 27.445 38.0055 27.445C37.1144 27.4133 36.2351 27.6556 35.4861 28.1393V29.4074C36.1593 28.9613 36.937 28.698 37.7427 28.6432C38.547 28.6038 39.3033 29.0269 39.6907 29.7329C39.796 30.0772 39.8448 30.4362 39.8353 30.7961C39.4617 30.7768 39.0639 30.7623 38.6781 30.7623C37.7559 30.7121 36.8334 30.8567 35.9707 31.1867C35.077 31.5326 34.4931 32.3983 34.5073 33.3565C34.4938 34.0689 34.7913 34.7519 35.3222 35.2273C35.8049 35.5923 36.3925 35.7918 36.9977 35.7963C37.7379 35.8335 38.4721 35.647 39.1048 35.2611C39.4195 35.0076 39.7057 34.7206 39.9583 34.4052V35.6854H41.1903V30.4634C41.2131 29.8332 41.0702 29.208 40.7756 28.6504ZM39.8619 32.0257C39.8759 32.393 39.8345 32.7604 39.7389 33.1154C39.6625 33.3658 39.5398 33.5996 39.3773 33.8049C38.9341 34.3569 38.26 34.6722 37.5522 34.6583C36.8892 34.6583 36.0068 34.3136 36.0068 33.3661C36.0068 32.4186 37.1038 31.9196 37.7113 31.828C38.0641 31.776 38.4206 31.7542 38.777 31.7629C39.1386 31.7629 39.5002 31.7629 39.8595 31.8038L39.8619 32.0257Z" fill="#1F3A6A"/>
	<path d="M31.0028 6.37041H29.1903V6.86003H30.6168L34.1712 21.4731H15.8296L19.3792 6.86003H20.8104V6.37041H18.9932L15.001 22.1227H34.9997L31.0028 6.37041Z" fill="#1F3A6A"/>
	<path d="M28.4974 0.000704456H21.5016C21.0752 0.000704456 20.7295 0.346376 20.7295 0.772784V7.63676H21.3792V0.772784C21.3792 0.705183 21.434 0.650381 21.5016 0.650381H22.9139V5.63595H21.6051L23.4883 7.63676H26.5389L28.422 5.63595H27.118V0.650381H28.5303C28.5979 0.650381 28.6527 0.705183 28.6527 0.772784V7.63676H29.3024V0.772784C29.3026 0.562176 29.2167 0.36063 29.0647 0.214852C28.9127 0.0690728 28.7078 -0.008285 28.4974 0.000704456Z" fill="#5DC4E9"/>
	<path d="M23.5319 16.1156H26.4742C26.657 16.1156 26.8059 15.9688 26.8085 15.786C26.8085 15.786 26.8085 15.786 26.8085 15.7578L26.6955 13.8323C26.6808 13.6346 26.5171 13.4811 26.3189 13.4792H23.6872C23.489 13.4811 23.3253 13.6346 23.3106 13.8323L23.1976 15.7578C23.1868 15.9407 23.3255 16.0983 23.5083 16.1108L23.5319 16.1156Z" fill="#1F3A6A"/>
	<path d="M22.0623 13.4792H19.4024C19.2011 13.4926 19.0307 13.6327 18.9787 13.8276L18.5879 15.7672C18.5521 15.9164 18.642 16.0669 18.7904 16.1062H18.8704H21.8316C22.0309 16.1026 22.1963 15.9512 22.2176 15.7531L22.3824 13.8229C22.3916 13.7379 22.3665 13.6527 22.3125 13.5864C22.2586 13.5201 22.1803 13.4781 22.0952 13.4698L22.0623 13.4792Z" fill="#1F3A6A"/>
	<path d="M23.6489 12.7118H26.3512C26.422 12.7131 26.4902 12.6859 26.5407 12.6363C26.5912 12.5867 26.6196 12.5189 26.6196 12.4482L26.5301 10.9088C26.5179 10.7508 26.3872 10.6283 26.2288 10.6263H23.7713C23.6129 10.6283 23.4822 10.7508 23.4701 10.9088L23.3806 12.4482C23.3754 12.5182 23.3983 12.5873 23.4443 12.6403C23.4902 12.6933 23.5554 12.7259 23.6254 12.7307L23.6489 12.7118Z" fill="#1F3A6A"/>
	<path d="M22.3919 10.6027H19.9062C19.7437 10.6088 19.6052 10.7224 19.5673 10.8805L19.2565 12.4341C19.2269 12.5549 19.3006 12.677 19.4213 12.7071H22.2131C22.3734 12.7056 22.507 12.5841 22.5238 12.4247L22.6556 10.8805C22.6693 10.739 22.5663 10.6129 22.4249 10.598L22.3919 10.6027Z" fill="#1F3A6A"/>
	<path d="M30.5094 12.7118C30.5795 12.7136 30.6465 12.6829 30.6908 12.6285C30.735 12.5741 30.7515 12.5022 30.7354 12.434L30.42 10.8804C30.3821 10.7223 30.2435 10.6087 30.081 10.6027H27.6047C27.5318 10.6024 27.4621 10.6328 27.4128 10.6866C27.3635 10.7404 27.3392 10.8125 27.3458 10.8851L27.4776 12.4293C27.4944 12.5887 27.628 12.7102 27.7883 12.7118H30.5094Z" fill="#1F3A6A"/>
	<path d="M23.7674 9.92481H26.2343C26.2963 9.92608 26.3562 9.90233 26.4005 9.85893C26.4448 9.81553 26.4697 9.75613 26.4697 9.69413L26.3991 8.50305C26.3893 8.36405 26.2748 8.25564 26.1355 8.25354H23.8663C23.727 8.25564 23.6124 8.36405 23.6027 8.50305L23.5321 9.69413C23.5269 9.75612 23.5469 9.81757 23.5877 9.86455C23.6285 9.91153 23.6865 9.94005 23.7486 9.94364L23.7674 9.92481Z" fill="#1F3A6A"/>
	<path d="M29.985 9.92479C30.0467 9.92657 30.1057 9.89942 30.1445 9.85138C30.1833 9.80335 30.1975 9.73995 30.1827 9.67998L29.9379 8.47949C29.9046 8.34098 29.7837 8.2412 29.6413 8.23468H27.3581C27.2938 8.23434 27.2325 8.26135 27.1893 8.30897C27.1462 8.35658 27.1254 8.42031 27.1321 8.4842L27.2357 9.67527C27.2498 9.81402 27.3646 9.92078 27.504 9.92479H29.985Z" fill="#1F3A6A"/>
	<path d="M22.6514 8.23935H20.3493C20.2063 8.24428 20.0846 8.34475 20.0527 8.48415L19.8126 9.68465C19.7857 9.78988 19.8488 9.89708 19.9538 9.92474H22.5054C22.6448 9.92073 22.7597 9.81397 22.7738 9.67523L22.8774 8.48415C22.8883 8.36089 22.7981 8.25176 22.6749 8.23935H22.6514Z" fill="#1F3A6A"/>
	<path d="M31.1254 16.1155C31.2147 16.1215 31.3015 16.0841 31.3584 16.015C31.4154 15.946 31.4356 15.8537 31.4126 15.7671L31.0218 13.8275C30.9698 13.6326 30.7994 13.4925 30.5981 13.4791H27.9476C27.8559 13.4773 27.7678 13.5149 27.7056 13.5824C27.6435 13.65 27.6133 13.7409 27.6228 13.8322L27.7876 15.7624C27.8089 15.9606 27.9743 16.1119 28.1736 16.1155H31.1254Z" fill="#1F3A6A"/>
	<path d="M26.4168 16.9865H23.5356C23.293 16.9852 23.0891 17.1687 23.0648 17.4102L22.9236 19.8535C22.9102 20.0729 23.0762 20.2621 23.2955 20.2772H26.591C26.6971 20.2785 26.7994 20.2375 26.8753 20.1633C26.9513 20.0892 26.9946 19.9879 26.9959 19.8818C26.9959 19.8818 26.9959 19.8818 26.9959 19.8488L26.8546 17.4055C26.8299 17.1779 26.6452 17.0011 26.4168 16.9865Z" fill="#1F3A6A"/>
	<path d="M21.6766 16.9865H18.7765C18.5324 16.9966 18.3248 17.1678 18.2681 17.4054L17.7738 19.8629C17.7464 19.9667 17.7705 20.0773 17.8385 20.1603C17.9066 20.2432 18.0103 20.2885 18.1175 20.2819H21.4129C21.6556 20.2831 21.8594 20.0997 21.8837 19.8582L22.0908 17.4102C22.1128 17.1983 21.959 17.0087 21.7472 16.9865H21.6766Z" fill="#1F3A6A"/>
	<path d="M31.7318 17.4055C31.6747 17.1662 31.4646 16.9946 31.2187 16.9865H28.2998C28.1898 16.9846 28.0841 17.0298 28.0095 17.1108C27.9349 17.1917 27.8983 17.3006 27.9091 17.4102L28.1162 19.8582C28.1405 20.0997 28.3443 20.2832 28.587 20.2819H31.8825C31.9896 20.2885 32.0933 20.2433 32.1614 20.1603C32.2295 20.0773 32.2535 19.9667 32.2261 19.863L31.7318 17.4055Z" fill="#1F3A6A"/>
</svg>
