<svg width="50" height="45" viewBox="0 0 50 45" fill="none" xmlns="http://www.w3.org/2000/svg">
	<path d="M0 3.26691V40.8037C0 42.6005 1.47011 44.0706 3.26691 44.0706H25.6942C42.6495 44.0706 50 34.5802 50 21.9863C50 9.45769 42.6495 0 25.6942 0H3.26691C1.47011 0 0 1.47011 0 3.26691Z" fill="white"/>
	<path d="M15.0115 9.21268V36.9487H27.0827C38.0432 36.9487 42.7965 30.7579 42.7965 22.0026C42.7965 13.623 38.0432 7.12186 27.0827 7.12186H17.1023C15.9425 7.12186 15.0115 8.06926 15.0115 9.21268Z" fill="#CC0066"/>
	<path d="M25.6943 41.0813H6.19092C4.45946 41.0813 3.05469 39.6766 3.05469 37.9451V6.14178C3.05469 4.41032 4.45946 3.00555 6.19092 3.00555H25.6943C44.2014 3.00555 46.9619 14.9134 46.9619 22.0026C46.9619 34.3025 39.399 41.0813 25.6943 41.0813ZM6.19092 4.05096C5.03117 4.05096 4.1001 4.98203 4.1001 6.14178V37.9451C4.1001 39.1049 5.03117 40.0359 6.19092 40.0359H25.6943C38.7293 40.0359 45.9165 33.6328 45.9165 22.0026C45.9165 6.3868 33.2409 4.05096 25.6943 4.05096H6.19092Z" fill="black"/>
	<path d="M19.2582 18.262C19.6829 18.262 20.075 18.3273 20.4507 18.458C20.8264 18.5887 21.1367 18.801 21.4144 19.0624C21.6758 19.3401 21.8881 19.6831 22.0515 20.0751C22.1985 20.4835 22.2801 20.9572 22.2801 21.5126C22.2801 22.0026 22.2148 22.4436 22.1005 22.852C21.9698 23.2604 21.7901 23.6197 21.5451 23.9137C21.3001 24.2078 20.9897 24.4365 20.614 24.6161C20.2383 24.7795 19.7973 24.8775 19.2909 24.8775H16.4324V18.2457H19.2582V18.262ZM19.1602 23.6687C19.3726 23.6687 19.5686 23.6361 19.781 23.5707C19.977 23.5054 20.1566 23.391 20.3037 23.2277C20.4507 23.0644 20.5813 22.8683 20.6794 22.607C20.7774 22.3456 20.8264 22.0516 20.8264 21.6759C20.8264 21.3492 20.7937 21.0389 20.7284 20.7775C20.663 20.5162 20.5487 20.2711 20.4017 20.0915C20.2547 19.9118 20.0586 19.7484 19.8136 19.6504C19.5686 19.5524 19.2746 19.5034 18.9152 19.5034H17.8698V23.6851H19.1602V23.6687Z" fill="white"/>
	<path d="M28.1767 18.262V19.4871H24.6811V20.9082H27.899V22.0353H24.6811V23.6524H28.2583V24.8775H23.2273V18.2457H28.1767V18.262Z" fill="white"/>
	<path d="M33.1753 18.262L35.6581 24.8938H34.139L33.6326 23.4237H31.1498L30.6271 24.8938H29.157L31.6562 18.262H33.1753ZM33.257 22.3293L32.4239 19.8954H32.4076L31.5418 22.3293H33.257Z" fill="white"/>
	<path d="M38.0265 18.262V23.6687H41.2608V24.8938H36.5728V18.262H38.0265Z" fill="white"/>
	<path d="M9.55578 24.6325C11.2428 24.6325 12.6103 23.2649 12.6103 21.5779C12.6103 19.8909 11.2428 18.5233 9.55578 18.5233C7.86879 18.5233 6.50122 19.8909 6.50122 21.5779C6.50122 23.2649 7.86879 24.6325 9.55578 24.6325Z" fill="black"/>
	<path d="M11.8588 36.9487C9.29423 36.9487 7.23608 34.8742 7.23608 32.326V28.7161C7.23608 27.442 8.26516 26.3966 9.55559 26.3966C10.8297 26.3966 11.8751 27.4257 11.8751 28.7161V36.9487H11.8588Z" fill="black"/>
</svg>
