<svg xmlns="http://www.w3.org/2000/svg" viewBox="-4.064 -4.064 164.952 143.597"><path style="fill:#fff" d="M112.393 7.558 87.467 5.467 3.726 4.207v128.855h89.388l29.787-8.101 20.277-17.577 9.918-27.648V47.794L138.264 22.13z"/><path d="M6.37 6.37v122.727h74.565c45.026 0 69.52-20.974 69.52-61.52 0-41.669-26.55-61.208-69.52-61.208H6.37zM80.936 0c66.03 0 75.89 42.342 75.89 67.576 0 43.782-26.95 67.893-75.89 67.893H0V0h80.935Z" style="fill:#0a0b09"/><path d="M52.373 48.548v13.849h4.25c2.946 0 5.666-.852 5.666-7.033 0-6.041-3.027-6.815-5.665-6.815h-4.25zm70.906-6.887h6.876v20.736h10.189c-2.795-37.626-32.394-45.755-59.29-45.755H52.38v25.033h4.245c7.738 0 12.546 5.248 12.546 13.689 0 8.71-4.692 13.908-12.546 13.908h-4.245v50.09h28.676c43.729 0 58.947-20.308 59.484-50.09h-17.26V41.66zm-19.157 15.406h4.974l-2.274-7.805h-.413l-2.287 7.805zM93.392 69.28l8.327-27.62h9.782l8.324 27.62h-7.158l-1.56-5.343h-8.994l-1.565 5.343h-7.156zm-3.302-6.883v6.875H73.08V41.67h16.461v6.873h-9.584v3.2h9.064v6.87h-9.064v3.783H90.09z" style="fill:#d50172"/><path d="M43.375 55.46c0 8.194-6.64 14.837-14.834 14.837-8.19 0-14.836-6.643-14.836-14.837 0-8.188 6.646-14.834 14.836-14.834 8.195 0 14.834 6.646 14.834 14.834m-26.733 63.879h23.87V76.847h-23.87z"/></svg>