<?xml version="1.0" encoding="UTF-8" standalone="no"?>
<svg
   width="107"
   height="22"
   viewBox="0 0 107 22"
   version="1.1"
   id="svg5"
   xml:space="preserve"
   xmlns:xlink="http://www.w3.org/1999/xlink"
   xmlns="http://www.w3.org/2000/svg"
   xmlns:svg="http://www.w3.org/2000/svg"><title
     id="title1">Frise couleur</title><defs
     id="defs1"><rect
       id="path-1"
       x="0"
       y="0"
       width="33"
       height="22"
       rx="2" /></defs><g
     id="Page-1"
     stroke="none"
     stroke-width="1"
     fill="none"
     fill-rule="evenodd"><g
       id="Frise-couleur"><g
         id="Visa"><rect
           id="Rectangle"
           stroke="#909192"
           stroke-width="0.5"
           fill="#ffffff"
           x="0.25"
           y="0.25"
           width="32.5"
           height="21.5"
           rx="2" /><g
           id="Visa_Inc._logo"
           transform="translate(3.08,6.7733)"
           fill-rule="nonzero"><polygon
             id="polygon9"
             fill="#00579f"
             points="10.774088,0 12.976271,0 11.598913,8.4533898 9.3966102,8.4533898 " /><path
             d="M 19.240678,0.34838704 C 18.828768,0.18281352 18.175446,0 17.367614,0 c -2.062289,0 -3.514536,1.1142368 -3.523443,2.70726 -0.01713,1.175329 1.039766,1.8281352 1.83024,2.2200272 0.807946,0.4004542 1.08259,0.6618313 1.08259,1.0187805 -0.0082,0.5482091 -0.652866,0.8009083 -1.254115,0.8009083 -0.833754,0 -1.280494,-0.1302835 -1.959397,-0.4352813 L 13.268502,6.1809483 12.976271,8.0178771 c 0.489792,0.2260871 1.392179,0.4267192 2.329054,0.4355127 2.191218,0 3.61777,-1.0969968 3.634671,-2.7946171 0.0083,-0.931539 -0.549745,-1.6453217 -1.752928,-2.2285894 -0.730406,-0.3744206 -1.177717,-0.6268883 -1.177717,-1.0099868 0.0086,-0.3482713 0.378336,-0.7049891 1.20284,-0.7049891 0.678903,-0.017471 1.177717,0.1478707 1.555596,0.3133285 l 0.188882,0.086894 0.284009,-1.76704306 z"
             id="path11"
             fill="#00579f" /><path
             d="m 22.073042,5.4587314 c 0.174581,-0.4856429 0.846357,-2.3652232 0.846357,-2.3652232 -0.0088,0.018049 0.174233,-0.4946075 0.278912,-0.8093251 l 0.14815,0.7284046 c 0,0 0.401443,2.0234921 0.488617,2.4461437 -0.331309,0 -1.343321,0 -1.762036,0 z M 24.689782,0 H 23.050045 C 22.544387,0 22.160216,0.15275698 21.942048,0.70139122 L 18.79322,8.4533898 h 2.224339 c 0,0 0.366202,-1.0433613 0.444914,-1.2680742 0.244019,0 2.407846,0 2.721766,0 0.06086,0.2967884 0.252945,1.2680742 0.252945,1.2680742 H 26.4 L 24.689782,0 Z"
             id="path13"
             fill="#00579f" /><path
             d="M 7.563072,0.44491525 5.4505232,5.9117259 5.2196752,4.8029927 C 4.829109,3.523659 3.6042106,2.1336901 2.2372881,1.4425597 L 4.1723068,8.4533898 H 6.4534206 L 9.8440678,0.44491525 H 7.563072 Z"
             id="path15"
             fill="#00579f" /><path
             d="M 3.5948598,0 H 0.03640456 L 0,0.16535772 C 2.7758176,0.8444931 4.6141876,2.481523 5.3694915,4.4491525 L 4.5959248,0.68792977 C 4.4685693,0.165242 4.07719,0.01724164 3.5948598,0 Z"
             id="path17"
             fill="#faa61a" /></g></g><g
         id="Mastercard"
         transform="translate(37)"><rect
           id="Rectangle-Copy"
           stroke="#909192"
           stroke-width="0.5"
           fill="#ffffff"
           x="0.25"
           y="0.25"
           width="32.5"
           height="21.5"
           rx="2" /><g
           id="ma_symbol"
           transform="translate(5.0182,3.9117)"
           fill-rule="nonzero"><g
             id="Group"><rect
               id="rect1"
               fill="#ff5f00"
               x="8.3715954"
               y="1.5173866"
               width="6.2007875"
               height="11.141732" /><path
               d="m 8.7652966,7.0882527 c 0,-2.1653543 1.003937,-4.2322835 2.6968504,-5.5708662 -3.0708662,-2.42125979 -7.5393701,-1.88976373 -9.9606299,1.2007875 -2.40157483,3.0708661 -1.87007877,7.519685 1.2204724,9.940945 2.5787402,2.027559 6.1811024,2.027559 8.7598425,0 C 9.7692336,11.320536 8.7652966,9.253607 8.7652966,7.0882527 Z"
               id="Path"
               fill="#eb001b" /><path
               d="m 22.938525,7.0882527 c 0,3.9173233 -3.169291,7.0866143 -7.086614,7.0866143 -1.594488,0 -3.129922,-0.531496 -4.370079,-1.515748 3.070866,-2.42126 3.602362,-6.8700789 1.181102,-9.9606301 -0.35433,-0.4330708 -0.748031,-0.8464567 -1.181102,-1.1811024 3.070866,-2.42125979 7.53937,-1.88976373 9.940945,1.2007875 0.984252,1.2401574 1.515748,2.7755905 1.515748,4.3700787 z"
               id="path1"
               fill="#f79e1b" /></g></g></g><g
         id="CB"
         transform="translate(74)"><mask
           id="mask-2"
           fill="#ffffff"><use
             xlink:href="#path-1"
             id="use1" /></mask><rect
           stroke="#909192"
           stroke-width="0.5"
           x="0.25"
           y="0.25"
           width="32.5"
           height="21.5"
           rx="2"
           id="rect2" /><g
           style="fill:none"
           id="g6"
           transform="matrix(0.41975013,0,0,0.41975013,4.4708505,2.4519405)"><rect
             x="0.5"
             y="0.5"
             width="57"
             height="39"
             rx="3.5"
             fill="#fbe200"
             stroke="#f3f3f3"
             id="rect1-8" /><path
             fill-rule="evenodd"
             clip-rule="evenodd"
             d="m 7.4319,16.8005 c -0.00111,4e-4 -0.00221,9e-4 -0.0033,0.0013 v 0.6643 c -0.16395,0.0465 -0.3311,0.1416 -0.495,0.2366 -0.3102,0.2145 -0.5709,0.5214 -0.759,0.9042 -0.2145,0.3795 -0.3795,0.8316 -0.4983,1.3299 -0.1188,0.5214 -0.1419,0.9273 -0.1188,1.2606 0.0231,0.3795 0.165,0.6666 0.4026,0.9042 0.2376,0.2145 0.5478,0.3333 0.9273,0.3333 0.1889,0 0.37458,-0.0225 0.5412,-0.0706 v 0.9484 H 7.2207 C 6.7686,23.3127 6.4122,23.217 6.0789,23.052 5.7687,22.887 5.4849,22.623 5.2473,22.293 l -0.759,3.3033 H 3.2244 V 25.593 L 4.8645,18.3924 C 4.8876,18.2505 4.91152,18.1136 4.93545,17.9766 4.95937,17.8397 4.9833,17.7027 5.0064,17.5608 5.0295,17.277 5.0526,17.013 5.079,16.7292 h 1.1418 l -0.0957,0.9735 c 0.3564,-0.3564 0.7128,-0.6402 1.0692,-0.8085 0.06527,-0.0415 0.14655,-0.067 0.21506,-0.0885 0.00768,-0.0025 0.01521,-0.0048 0.02254,-0.0072 z m 0.0033,6.5116 v 6e-4 H 7.4286 c 0.0022,-2e-4 0.0044,-4e-4 0.0066,-6e-4 z m 0,0 v -0.9498 c -0.0022,7e-4 -0.0044,0.0013 -0.0066,0.002 v -0.002 c 0.165,-0.0462 0.3333,-0.1188 0.4752,-0.1914 0.3102,-0.1914 0.5709,-0.4752 0.7854,-0.8547 0.2145,-0.3795 0.3795,-0.7854 0.4983,-1.2342 0.1188,-0.4521 0.1419,-0.8778 0.1188,-1.2837 -0.0462,-0.429 -0.1914,-0.759 -0.429,-1.023 -0.2607,-0.2607 -0.594,-0.3795 -0.9735,-0.3795 -0.165,0 -0.3333,0.0231 -0.4752,0.0726 v -0.0023 c 0.0011,-3e-4 0.0022,-7e-4 0.0033,-0.001 v -0.6646 c 0.28308,-0.1178 0.615,-0.1637 0.924,-0.1637 0.6171,0 1.1418,0.1914 1.5213,0.5709 0.4026,0.3795 0.6171,0.9273 0.6897,1.5906 0.0462,0.4752 0,0.9966 -0.1419,1.5444 -0.1188,0.5478 -0.3102,1.023 -0.5709,1.4256 -0.2838,0.4983 -0.6666,0.8778 -1.1418,1.1418 -0.37775,0.2365 -0.80453,0.3553 -1.2771,0.402 z"
             fill="#004a99"
             id="path1-0" /><path
             fill-rule="evenodd"
             clip-rule="evenodd"
             d="m 37.5635,17.7898 c 0.1198,-0.0199 0.2263,-0.0376 0.3505,-0.0376 0.3102,0 0.5478,0.0957 0.7326,0.2805 0.1683,0.1683 0.2871,0.429 0.3102,0.7854 0.0231,0.3069 0,0.6633 -0.0957,1.0923 -0.0924,0.429 -0.2376,0.8316 -0.4026,1.188 -0.1683,0.3333 -0.3333,0.5709 -0.5478,0.7359 -0.1188,0.0957 -0.2607,0.1683 -0.4026,0.1914 v 0.0074 c -0.0914,0.0229 -0.186,0.0454 -0.2805,0.0454 -0.3333,0 -0.594,-0.1188 -0.7854,-0.3333 -0.2145,-0.2145 -0.3102,-0.5247 -0.3564,-0.9273 -0.0693,-0.7854 0.0726,-1.4982 0.4521,-2.1384 0.2607,-0.4488 0.594,-0.759 0.9735,-0.8778 v -0.0033 c 0.0177,-0.0029 0.035,-0.0057 0.0521,-0.0086 z m -0.0521,-0.9121 v -0.0066 c 0.0726,-0.0231 0.1188,-0.0462 0.165,-0.0726 0.3333,-0.165 0.7128,-0.2376 1.1154,-0.2376 0.6171,0 1.1154,0.1914 1.4718,0.5478 0.3564,0.3564 0.5709,0.8778 0.6171,1.5675 0.1188,1.2837 -0.1188,2.376 -0.7359,3.2538 -0.594,0.9042 -1.4025,1.353 -2.3991,1.353 -0.0363,0 -0.0776,-0.0058 -0.1188,-0.0115 -0.04,-0.0056 -0.08,-0.0112 -0.1155,-0.0116 v -1.2276 c -0.0011,3e-4 -0.0022,6e-4 -0.0033,8e-4 v 1.2268 c 0.0011,0 0.0022,0 0.0033,0 v 0.0066 c -0.3564,-0.0231 -0.6666,-0.1188 -0.9273,-0.2607 -0.3333,-0.165 -0.594,-0.4521 -0.7854,-0.8085 l -0.759,3.399 h -1.9734 l 1.5213,-6.8904 c 0.1914,-0.8778 0.3102,-1.5444 0.3564,-1.9734 h 1.782 l -0.0462,0.7854 c 0.2838,-0.2607 0.5478,-0.4752 0.8316,-0.6402 z"
             fill="#004a99"
             id="path2" /><path
             fill-rule="evenodd"
             clip-rule="evenodd"
             d="M 45.3258,20.1051 C 45.2796,20.082 45.2301,20.082 45.1839,20.082 h -0.2145 c -0.3102,0 -0.594,0.0231 -0.8316,0.0957 -0.2607,0.0726 -0.4752,0.165 -0.6666,0.3102 -0.4026,0.2607 -0.5709,0.594 -0.5214,0.9735 0,0.2145 0.0726,0.3795 0.2145,0.4983 0.1188,0.1188 0.2838,0.165 0.4983,0.165 0.165,0 0.3333,-0.0231 0.4752,-0.0957 v -0.0033 c 0.1914,-0.0957 0.3795,-0.2376 0.5709,-0.4521 0.3102,-0.3762 0.5247,-0.8745 0.6171,-1.4685 z m -1.188,-0.9768 v 0.0033 c 0.2607,-0.0231 0.5709,-0.0231 0.8778,-0.0231 h 0.3333 0.2145 c 0.0137,-0.0707 0.0278,-0.135 0.0407,-0.1943 0.0306,-0.1398 0.055,-0.2515 0.055,-0.3535 0.0231,-0.1188 0.0231,-0.2145 0.0231,-0.3102 -0.0231,-0.1914 -0.0957,-0.3333 -0.2376,-0.429 -0.1188,-0.0957 -0.3102,-0.1419 -0.5478,-0.1419 -0.2838,0 -0.4983,0.0726 -0.6402,0.1914 -0.0118,0.0119 -0.0239,0.0224 -0.0356,0.0327 v 0 c -0.0342,0.0299 -0.066,0.0577 -0.0832,0.1092 -0.0957,0.1188 -0.1419,0.2838 -0.1914,0.4752 h -1.8777 c 0.0462,-0.594 0.3333,-1.0461 0.8085,-1.3794 0.3597,-0.2112 0.7623,-0.3531 1.2606,-0.4257 0.2376,-0.0462 0.4983,-0.0462 0.759,-0.0462 0.8316,0 1.4487,0.1188 1.9008,0.4026 0.429,0.2838 0.6666,0.6897 0.7128,1.2342 0.0231,0.165 0.0231,0.3333 0,0.5214 -0.0191,0.1362 -0.0561,0.3062 -0.0945,0.482 l -0.0243,0.112 -0.4983,2.1846 c -0.0522,0.1875 -0.0788,0.3749 -0.1068,0.5721 v 10e-5 c -0.011,0.0771 -0.0221,0.1557 -0.0351,0.2363 -0.0231,0.2838 -0.0231,0.5478 -0.0231,0.8316 h -1.8051 v -0.4521 c 0,-0.0845 0.0058,-0.1624 0.0116,-0.2399 v 0 c 0.0058,-0.0768 0.0115,-0.1532 0.0115,-0.2353 -0.2376,0.3333 -0.5214,0.594 -0.8085,0.7359 v 0.0033 l -0.0462,0.0231 c -0.3102,0.165 -0.6402,0.2607 -1.0461,0.2607 -0.5709,0 -1.023,-0.165 -1.3794,-0.4752 -0.3564,-0.3102 -0.5478,-0.7128 -0.594,-1.2342 -0.0726,-0.8085 0.2376,-1.4256 0.9042,-1.8546 0.5214,-0.3333 1.2342,-0.5478 2.1615,-0.6171 z"
             fill="#004a99"
             id="path3-2" /><path
             d="m 47.847,25.5699 1.5675,-2.376 -1.1418,-6.5109 h 1.9503 l 0.5445,4.4682 2.5179,-4.4682 H 55.14 l -4.0392,6.7716 -1.1649,2.1153 z"
             fill="#004a99"
             id="path4-4" /><path
             fill-rule="evenodd"
             clip-rule="evenodd"
             d="m 13.8273,17.4202 c 0.1623,-0.0481 0.3058,-0.0706 0.4686,-0.0706 0.4521,0 0.7854,0.1188 1.0197,0.3597 0.2376,0.2145 0.3828,0.5709 0.429,1.0692 0.0231,0.3795 -0.0231,0.8085 -0.1419,1.3299 -0.1188,0.4983 -0.2838,0.9504 -0.5214,1.353 -0.2145,0.3564 -0.4521,0.6204 -0.7359,0.7854 -0.1411,0.0952 -0.3278,0.1675 -0.5181,0.2137 V 22.458 c -0.1419,0.0231 -0.2871,0.0462 -0.4521,0.0462 -0.429,0 -0.7623,-0.1188 -1.023,-0.3564 -0.2376,-0.2376 -0.4059,-0.5445 -0.429,-0.9735 -0.0231,-0.3795 0,-0.8316 0.1188,-1.353 0.1188,-0.5214 0.2838,-0.9504 0.4983,-1.3068 0.2112,-0.3795 0.4752,-0.6633 0.759,-0.8778 0.165,-0.0957 0.3564,-0.1683 0.5214,-0.2145 h 0.0066 z m 0,-0.8304 c 0.1896,-0.0223 0.3985,-0.0223 0.6105,-0.0223 0.759,0 1.353,0.1914 1.8051,0.5478 0.4752,0.3795 0.7128,0.9042 0.7854,1.5675 0.0462,0.5214 0,1.0923 -0.165,1.6863 -0.1419,0.594 -0.3564,1.1154 -0.6402,1.5444 -0.3333,0.4983 -0.7128,0.8547 -1.188,1.0692 -0.3333,0.165 -0.7359,0.2607 -1.2111,0.3102 v -0.0033 c 0.0011,0 0.0022,0 0.0033,0 v -0.8291 c -0.0011,3e-4 -0.0022,5e-4 -0.0033,8e-4 v 0.8283 c -0.0785,2e-4 -0.1629,0.0054 -0.2504,0.0109 -0.0956,0.006 -0.1949,0.0122 -0.2941,0.0122 -0.759,0 -1.3794,-0.1914 -1.8282,-0.594 -0.4752,-0.3795 -0.7359,-0.9273 -0.7854,-1.617 -0.0462,-0.5709 0,-1.1418 0.1914,-1.7589 0.165,-0.6171 0.4026,-1.1418 0.7359,-1.5906 0.3102,-0.4026 0.6897,-0.6897 1.1649,-0.9042 0.3102,-0.1188 0.6897,-0.2145 1.0692,-0.2607 z m 0,0 c -0.0022,3e-4 -0.0044,5e-4 -0.0066,8e-4 v 0.8316 c 0.0022,-7e-4 0.0044,-0.0013 0.0066,-0.002 z"
             fill="#004a99"
             id="path5-8" /><path
             d="m 18.3351,21.0786 c -0.0462,0.1188 -0.0726,0.2145 -0.0726,0.3102 -0.0231,0.0957 -0.0231,0.165 0,0.2376 0.0231,0.2607 0.1188,0.4521 0.3102,0.5709 0.1914,0.1419 0.4521,0.1914 0.8316,0.1914 0.4983,0 0.8778,-0.0957 1.1649,-0.2838 0.2838,-0.2145 0.4026,-0.4752 0.3795,-0.7854 0,-0.1914 -0.0957,-0.3564 -0.2607,-0.4983 -0.165,-0.1419 -0.4983,-0.3333 -1.023,-0.5709 -0.6666,-0.3102 -1.1418,-0.594 -1.4025,-0.8547 -0.2838,-0.2376 -0.429,-0.5478 -0.4521,-0.8778 -0.0462,-0.5709 0.165,-1.023 0.6171,-1.4025 0.4752,-0.3564 1.1154,-0.5478 1.9239,-0.5478 0.7359,0 1.2837,0.1188 1.6401,0.3333 0.3795,0.2145 0.5709,0.5214 0.6171,0.9735 0,0.0726 0,0.1419 0,0.2376 0,0.0726 0,0.1914 -0.0231,0.3564 h -1.1649 c 0,-0.0726 0,-0.1419 0,-0.1914 0,-0.0495 0,-0.1188 0,-0.165 -0.0231,-0.2376 -0.1188,-0.429 -0.3102,-0.5478 -0.165,-0.1188 -0.429,-0.1914 -0.7854,-0.1914 -0.4026,0 -0.7128,0.0957 -0.9273,0.2607 -0.2376,0.165 -0.3333,0.4026 -0.3102,0.6897 0.0231,0.165 0.0957,0.3333 0.2607,0.4521 0.1419,0.1419 0.4983,0.3333 1.0461,0.594 0.759,0.3564 1.2837,0.6666 1.4982,0.9042 0.2145,0.2376 0.3564,0.5478 0.3795,0.9042 0.0462,0.594 -0.1914,1.1154 -0.759,1.5213 -0.5478,0.4026 -1.2837,0.6171 -2.1846,0.6171 -0.7128,0 -1.2606,-0.1419 -1.6863,-0.3795 -0.4026,-0.2607 -0.6171,-0.6171 -0.6666,-1.0923 -0.0231,-0.0957 -0.0231,-0.2145 0,-0.3564 0.0231,-0.1188 0.0462,-0.2607 0.0726,-0.4026 h 1.287 z"
             fill="#004a99"
             id="path6" /><path
             d="m 26.1528,23.217 c -0.2376,0.0231 -0.4521,0.0462 -0.6402,0.0726 -0.1914,0 -0.3795,0.0231 -0.5478,0.0231 -0.4752,0 -0.8316,-0.0726 -1.0461,-0.2376 -0.2376,-0.1419 -0.3564,-0.4026 -0.3795,-0.759 -0.0231,-0.1188 0,-0.3333 0.0231,-0.594 0.0231,-0.2838 0.0957,-0.5709 0.1419,-0.8778 l 0.7359,-3.2307 h -1.188 l 0.2145,-0.8316 h 1.1649 L 24.9648,15.3102 26.2254,15 25.8459,16.782 h 1.4025 l -0.1914,0.8316 h -1.4025 l -0.7128,3.3726 c -0.0726,0.2607 -0.1188,0.4521 -0.1188,0.5709 -0.0231,0.1419 -0.0462,0.2376 -0.0231,0.3102 0,0.1914 0.0726,0.3102 0.1914,0.3795 0.1188,0.0957 0.3333,0.1419 0.6171,0.1419 0.0957,0 0.2376,-0.0231 0.3795,-0.0462 0.1188,0 0.2607,-0.0462 0.3795,-0.0726 z"
             fill="#004a99"
             id="path7" /><path
             fill-rule="evenodd"
             clip-rule="evenodd"
             d="m 30.2646,19.2273 h 1.617 c 0.0055,-0.0515 0.0111,-0.1002 0.0163,-0.1461 0.0166,-0.145 0.0299,-0.2619 0.0299,-0.3522 0.0231,-0.1188 0.0231,-0.2145 0,-0.3102 -0.0231,-0.3564 -0.165,-0.6171 -0.4026,-0.8085 -0.2607,-0.1914 -0.594,-0.3102 -1.023,-0.3102 -0.0363,0 -0.0776,0.0058 -0.1188,0.0116 -0.0413,0.0058 -0.0825,0.0115 -0.1188,0.0115 v 0.0033 c -0.3795,0.0462 -0.7128,0.1914 -0.9735,0.4752 -0.3333,0.3069 -0.5709,0.7821 -0.6897,1.4256 z m 0,0.8745 v 0.0033 h -1.8777 c -0.0726,0.1914 -0.0957,0.3564 -0.1188,0.5478 -0.0231,0.165 -0.0231,0.3333 -0.0231,0.4752 0.0462,0.4026 0.1914,0.7128 0.429,0.9273 0.2607,0.2145 0.594,0.3333 1.0461,0.3333 0.1901,0 0.377,-0.0228 0.5445,-0.0942 v 0.972 c 0.0011,-10e-5 0.0022,-3e-4 0.0033,-4e-4 v 4e-4 c -0.2145,0.0231 -0.4521,0.0462 -0.6897,0.0462 -0.759,0 -1.353,-0.1914 -1.8051,-0.5478 -0.429,-0.3564 -0.6897,-0.8778 -0.7359,-1.5444 -0.0462,-0.4983 0,-1.0692 0.165,-1.7094 0.1419,-0.6171 0.3795,-1.1649 0.6402,-1.617 0.2838,-0.429 0.6666,-0.7854 1.1154,-0.9966 0.3795,-0.2145 0.8085,-0.3102 1.3068,-0.3564 v -0.0033 h 0.2607 c 0.8316,0 1.4718,0.165 1.9008,0.4752 0.4026,0.3102 0.6666,0.8085 0.7128,1.4982 0.0231,0.2376 0.0231,0.4983 0,0.759 0,0.2607 -0.0462,0.5478 -0.1188,0.8316 z m 0.0033,3.1643 c 0.52,-0.0729 0.971,-0.2377 1.3497,-0.4979 0.5478,-0.3564 0.9042,-0.858 1.0692,-1.4982 h -1.4025 c -0.1188,0.3564 -0.3333,0.6402 -0.6171,0.8316 -0.1188,0.0726 -0.2607,0.1452 -0.4026,0.1914 v 0.0015 c 0.0011,-5e-4 0.0022,-10e-4 0.0033,-0.0015 z"
             fill="#004a99"
             id="path8" /></g></g></g></g></svg>
