<svg width="51" height="36" viewBox="0 0 51 36" fill="none" xmlns="http://www.w3.org/2000/svg">
	<path d="M35.1226 15.1708C33.1615 15.1509 32.2358 16.2857 32.2358 16.2857C31.6385 16.9228 32.0267 17.7789 32.6041 17.8386C33.4403 17.9282 33.4403 17.2214 34.7244 16.9128C35.8592 16.6341 35.909 17.6893 35.909 17.6893C31.081 17.5698 31.31 21.6213 32.9525 22.4774C34.5253 23.3036 35.9986 22.2584 35.9986 22.2584C35.9986 22.2584 36.0583 22.8159 36.8348 22.8159C37.7307 22.8159 37.7307 21.9299 37.7307 21.9299V17.9879C37.671 15.0911 35.1226 15.1708 35.1226 15.1708ZM34.7443 20.8747C34.7443 20.8747 33.4801 21.1335 33.4901 20.2277C33.5 19.3218 35.7896 19.3815 36.0285 19.4512C36.0285 19.4512 36.0981 20.4765 34.7443 20.8747Z" fill="#334B66"/>
	<path d="M50.7117 21.2231L48.7407 18.2566L50.1841 16.8929C50.1841 16.8929 50.8511 16.2757 50.3036 15.6585C49.6964 14.9816 48.9697 15.6485 48.9697 15.6485L47.148 17.3408V13.9563C47.148 13.4685 46.7498 13.0803 46.272 13.0803C45.7842 13.0803 45.396 13.4784 45.396 13.9563V21.9299C45.396 22.4176 45.7942 22.8059 46.272 22.8059C46.7598 22.8059 47.148 22.4077 47.148 21.9299V19.7996L47.4765 19.4711L49.2584 22.2584C49.2584 22.2584 49.8357 23.224 50.6918 22.6068C51.3488 22.1489 50.7117 21.2231 50.7117 21.2231Z" fill="#334B66"/>
	<path d="M44.4301 17.9779C44.4301 15.1011 42.0311 14.6929 40.3985 15.6088C40.3985 15.6088 40.3985 15.6088 40.3985 15.6187C40.2393 15.1508 39.7316 14.902 39.2637 15.0613C38.8954 15.1907 38.6565 15.5291 38.6565 15.9173V21.9199C38.6565 22.4177 39.0547 22.8159 39.5524 22.8159C40.0501 22.8159 40.4483 22.4177 40.4483 21.9199L40.4384 17.8684C40.6076 17.6793 40.7967 17.5101 41.0058 17.3608C41.8519 16.7635 42.6483 16.9725 42.6483 17.9879L42.6682 21.9399C42.6881 22.4276 43.0962 22.8159 43.584 22.7959C44.0519 22.776 44.4202 22.4077 44.4401 21.9399L44.4301 17.9779Z" fill="#334B66"/>
	<path d="M18.5878 22.9253C18.7072 22.7462 18.7869 22.5471 18.8267 22.338L16.7959 17.0322C16.7959 17.0322 16.4276 16.0069 17.2439 15.6983C18.1 15.3798 18.4185 16.1961 18.4783 16.3653L19.7624 19.7797L20.937 16.3752C20.937 16.3752 21.2755 15.3201 22.2112 15.6884C22.9877 15.997 22.5895 17.0422 22.5895 17.0422C22.5895 17.0422 21.385 20.596 20.3796 23.1642C19.7823 24.7072 19.2647 24.8565 18.6774 24.9959C17.8909 25.185 16.4077 25.0954 16.4077 24.1199C16.4077 23.3534 17.1941 23.3036 17.5525 23.3136C17.5724 23.3335 18.309 23.3932 18.5878 22.9253Z" fill="#2ABAEA"/>
	<path d="M13.8697 14.006L12.0182 19.1227L9.99739 14.0359C9.99739 14.0359 9.69875 13.0703 8.85261 13.0703C7.87707 13.0703 7.90693 13.8468 7.88702 14.0359C7.86711 14.225 7.88702 21.9896 7.88702 21.9896C7.88702 21.9896 7.87707 22.8059 8.77298 22.8059C9.6888 22.8059 9.64898 21.9796 9.64898 21.9796V17.8784L11.1422 21.9796C11.1422 21.9796 11.3612 22.786 12.048 22.776C12.7349 22.7661 12.934 21.9796 12.934 21.9796L14.1783 17.8883V21.9796C14.1783 21.9796 14.1783 22.8059 15.0842 22.8059C15.9602 22.8059 15.9602 21.9796 15.9602 21.9796V14.0359C15.9602 14.0359 15.9602 13.0604 15.0145 13.0703C14.2281 13.0803 13.9294 13.8368 13.8697 14.006C13.8697 14.026 13.8697 14.0359 13.8697 14.0359Z" fill="#2ABAEA"/>
	<path d="M51 25.9416H35.3415H23.844L23.8539 25.9515C19.4142 31.1578 11.5899 31.775 6.38366 27.3352C1.17743 22.8955 0.550294 15.0812 4.99003 9.87493C9.42976 4.6687 17.254 4.04156 22.4603 8.49125C22.968 8.92925 23.4458 9.39711 23.8738 9.91475H26.3625C21.9526 3.30492 13.0034 1.52306 6.39362 5.94288C-0.216207 10.3627 -1.98812 19.3119 2.43171 25.9217C6.85153 32.5315 15.7907 34.3034 22.4005 29.8836C23.3363 29.2565 24.1924 28.5298 24.9589 27.7035L49.8154 27.6836L51 25.9416Z" fill="#2ABAEA"/>
	<path d="M30.1646 17.5897C30.2143 17.52 30.8116 17.0422 30.7618 15.7481C30.6623 13.14 28.4026 13.1699 27.8949 13.15C27.0886 13.1301 26.6008 13.14 25.1176 13.15C23.8633 13.1599 23.8733 14.3047 23.8733 14.3047V22.8059H28.094C30.3537 22.8059 31.1899 21.5616 31.1899 19.8195C31.1899 18.0775 30.1646 17.5897 30.1646 17.5897ZM25.695 14.9517H28.0243C28.4922 14.9617 28.98 15.2106 28.98 15.9074C28.98 16.6341 28.5519 16.863 28.0243 16.863H25.695V14.9517ZM28.1936 21.0738H25.695V18.6847H28.1936C28.8008 18.7146 29.3881 19.0232 29.3881 19.8793C29.3881 20.7553 28.8506 21.0738 28.1936 21.0738Z" fill="#334B66"/>
</svg>
