<svg version="1.1" id="layer" xmlns="http://www.w3.org/2000/svg" x="0" y="0" viewBox="-153 -46 652 652" style="enable-background:new -153 -46 652 652" xml:space="preserve"><path style="fill:#204866" d="M281 243.3c-23.1-.2-33.9 13.1-33.9 13.1-7 7.5-2.5 17.5 4.4 18.3 9.9 1.1 9.8-7.2 25-10.9 13.3-3.2 13.9 9.1 13.9 9.1-56.8-1.4-54.1 46.3-34.8 56.4 18.5 9.7 35.9-2.5 35.9-2.5s.6 6.6 9.8 6.6c10.5 0 10.5-10.5 10.5-10.5v-46.4c-.8-34-30.8-33.2-30.8-33.2m-4.5 67.2s-14.9 3-14.7-7.6c.1-10.6 27.1-10 29.8-9.1 0-.1.9 12-15.1 16.7M464.5 314.6l-23.2-34.9 17-16.1s7.9-7.3 1.4-14.5c-7.1-8-15.7-.1-15.7-.1l-21.4 19.9V229c0-5.7-4.6-10.4-10.4-10.4-5.7 0-10.4 4.6-10.4 10.4v93.9c0 5.7 4.6 10.4 10.4 10.4 5.7 0 10.4-4.6 10.4-10.4v-25l3.9-3.9 21 32.9s6.8 11.4 16.9 4.1c7.6-5.5.1-16.4.1-16.4M390.6 276.4c0-33.9-28.3-38.7-47.5-27.9v.1c-1.4-4.1-5.3-7.1-9.9-7.1-5.8 0-10.6 4.7-10.6 10.6v70.7c0 5.8 4.7 10.6 10.6 10.6 5.8 0 10.6-4.7 10.6-10.6l-.1-47.7s2.6-3 6.7-6c9.9-7 19.3-4.6 19.3 7.4l.3 46.5c0 5.8 4.7 10.4 10.4 10.4s10.4-4.7 10.4-10.4l-.2-46.6z"/><path style="fill:#27bced" d="M86.3 334.7c2.4-4 2.8-6.9 2.8-6.9l-23.9-62.5s-4.3-12.1 5.2-15.7c10.1-3.8 13.8 5.9 14.5 7.9.8 2 15.1 40.2 15.1 40.2l13.8-40.1s4-12.5 15-8c9.1 3.7 4.4 15.9 4.4 15.9s-14.1 41.8-26 72.1c-7.1 18.1-13.1 19.9-20 21.6-9.2 2.3-26.7 1.1-26.7-10.3 0-9.1 9.3-9.6 13.5-9.5.4 0 9 .8 12.3-4.7M30.8 229.7 9 290l-23.8-60s-3.5-11.3-13.5-11.3c-11.5 0-11.1 9.1-11.4 11.3-.3 2.2 0 93.7 0 93.7s-.1 9.6 10.4 9.6c10.8 0 10.3-9.7 10.4-9.7.1 0 0-48.3 0-48.3l17.5 48.3s2.6 9.5 10.7 9.3c8.1-.2 10.4-9.3 10.4-9.3l14.7-48.2v48.2s0 9.7 10.6 9.7c10.3 0 10.3-9.7 10.3-9.7v-93.5s0-11.4-11.2-11.4c-9.2.1-12.7 9-13.3 11-.1.2-.1.4-.1.4"/><path style="fill:#27bced" d="M467.9 370.2H148.1l.1.1c-26.8 31.3-66.5 51.3-111 51.3-80.6 0-145.9-65.3-145.9-145.9 0-80.6 65.3-145.9 145.9-145.9 44.6 0 84.6 20.1 111.3 51.6h29.3c-30.4-45.3-82-75.1-140.6-75.1-93.6 0-169.4 75.9-169.4 169.4s75.8 169.4 169.4 169.4c49.1 0 93.2-21 124.1-54.3l292.6-.3 14-20.3z"/><path style="fill:#204866" d="M222.6 271.9c.6-.8 7.6-6.5 7-21.7-1.1-30.7-27.8-30.4-33.7-30.5-9.5-.3-15.2-.2-32.7 0-14.8.1-14.6 13.5-14.6 13.5v100.1h49.7c26.6 0 36.5-14.6 36.5-35.1 0-20.6-12.2-26.3-12.2-26.3m-52.6-31h27.5c5.5.1 11.3 3.1 11.3 11.3 0 8.6-5 11.3-11.3 11.3H170v-22.6zm29.4 72H170v-28.1h29.4c7.1.4 14 4 14 14 0 10.3-6.3 14.1-14 14.1"/></svg>
