<svg xmlns="http://www.w3.org/2000/svg" xml:space="preserve" viewBox="0 0 938.64 220.91"><g transform="matrix(5.0835 0 0 -5.0835 -1748.86 2009.305)"><path style="fill:#ef373f;fill-opacity:1;fill-rule:nonzero;stroke:none" d="M0 0h.323c1.891-.402 3.582-.684 5.232-.684 2.496 0 4.307.604 4.307 2.737 0 3.944-9.781 2.375-9.781 8.895 0 3.542 3.3 5.434 7.446 5.434a16.13 16.13 0 0 0 4.83-.724V12.68h-.322c-1.731.562-3.22.804-4.548.804-1.972 0-4.025-.443-4.025-2.536 0-3.742 9.78-2.253 9.78-8.572 0-4.59-3.702-5.958-7.808-5.958-2.013 0-4.025.282-5.434.605z" transform="translate(398.498 366.92)"/><path style="fill:#ef373f;fill-opacity:1;fill-rule:nonzero;stroke:none" d="M0 0c-1.127-.403-2.415-.724-4.025-.724-1.973 0-5.071.443-5.071 4.991v11.592h-2.497v2.817h2.497v4.508l2.857.604h.322v-5.112h6.2v-2.817h-6.2V4.347c0-2.052 1.731-2.214 2.535-2.214.806 0 2.093.282 3.1.604z" transform="translate(444.663 364.063)"/><path style="fill:#ef373f;fill-opacity:1;fill-rule:nonzero;stroke:none" d="M0 0h.322c1.892-.402 3.583-.684 5.233-.684 2.496 0 4.307.604 4.307 2.737 0 3.944-9.781 2.375-9.781 8.895 0 3.542 3.3 5.434 7.446 5.434 1.65 0 3.301-.241 4.83-.724V12.68h-.322c-1.731.562-3.221.804-4.548.804-1.972 0-4.026-.443-4.026-2.536 0-3.742 9.781-2.253 9.781-8.572 0-4.59-3.702-5.958-7.808-5.958-2.013 0-4.025.282-5.434.605z" transform="translate(456.453 366.92)"/><path style="fill:#ef373f;fill-opacity:1;fill-rule:nonzero;stroke:none" d="M0 0c1.249-.201 2.576-.403 4.267-.403 3.944 0 6.44 2.496 6.44 7.367 0 4.508-1.49 6.801-4.709 6.801-1.893 0-3.986-.804-5.998-2.576zm-3.22 16.06 2.817.604H0v-2.456c1.892 1.409 3.945 2.456 6.722 2.456 4.146 0 7.365-2.939 7.365-9.218 0-6.158-3.219-10.746-9.941-10.746-1.57 0-2.818.201-4.146.483v-9.378l-2.817-.604h-.403Z" transform="translate(477.18 366.64)"/><path style="fill:#ef373f;fill-opacity:1;fill-rule:nonzero;stroke:none" d="m0 0-6.49 18.635h3.702L1.771 3.984h.281l5.007 14.651h3.663L3.623-.926c-1.691-4.83-3.785-7.165-7.246-9.338l-1.811 2.335C-1.932-5.434-1.047-4.025.281-.765" transform="translate(517.95 364.105)"/><path style="fill:#ef373f;fill-opacity:1;fill-rule:nonzero;stroke:none" d="m0 0-5.192-.765C-6.56-.966-8.091-1.53-8.091-3.702c0-1.571 1.089-2.658 2.738-2.658 1.771 0 3.784 1.128 5.353 2.254zm3.22-8.694L.604-9.218H.161v2.657H.08c-1.69-1.288-3.743-2.617-6.52-2.617-2.455 0-5.031 1.772-5.031 5.234 0 4.667 4.186 5.312 6.44 5.635L0 2.375v1.287c0 3.221-1.529 4.106-4.306 4.106-1.047 0-3.663-.322-5.796-1.288l-.363 2.978c1.772.685 4.549 1.208 6.763 1.208 3.983 0 6.922-1.65 6.922-7.004z" transform="translate(505.432 372.637)"/><path style="fill:#ef373f;fill-opacity:1;fill-rule:nonzero;stroke:none" d="M0 0c-1.569-1.126-3.582-2.254-5.353-2.254-1.65 0-2.738 1.086-2.738 2.657 0 2.173 1.531 2.737 2.899 2.938L0 4.106Zm3.22 7.768c0 5.354-2.939 7.004-6.923 7.004-2.213 0-4.991-.524-6.762-1.208l.363-2.978c2.133.966 4.749 1.288 5.796 1.288 2.777 0 4.306-.886 4.306-4.106V6.48l-5.031-.684c-2.254-.322-6.44-.967-6.44-5.634 0-3.462 2.576-5.234 5.031-5.234 2.777 0 4.83 1.329 6.52 2.617h.081v-2.657h.443l2.616.524z" transform="translate(426.148 368.531)"/><path style="fill:#ef373f;fill-opacity:1;fill-rule:nonzero;stroke:none" d="M0 0h.013L0 .014Z" transform="translate(448.606 363.42)"/><path style="fill:#ef373f;fill-opacity:1;fill-rule:nonzero;stroke:none" d="m0 0-2.817-.604V-19.87l.012-.013h.403l2.805.6V0Z" transform="translate(451.423 383.303)"/><path style="fill:#ef373f;fill-opacity:1;fill-rule:nonzero;stroke:none" d="m0 0-2.817-.604v-3.409l.012-.014h.403l2.805.601V0Z" transform="translate(451.423 389.832)"/><path style="fill:#ef373f;fill-opacity:1;fill-rule:nonzero;stroke:none" d="M0 0a1.61 1.61 0 1 0-3.22 0A1.61 1.61 0 0 0 0 0" transform="translate(477.18 374.743)"/><path style="fill:#ef373f;fill-opacity:1;fill-rule:nonzero;stroke:none" d="M0 0a.68.68 0 0 1-.481 1.16h-10.083l5.863-5.861z" transform="translate(378.747 394.1)"/><path style="fill:#ef373f;fill-opacity:1;fill-rule:nonzero;stroke:none" d="m0 0-7.211 7.211L-13.7.721l-6.73-6.73a.678.678 0 0 1 0-.961l6.73-6.731 6.489-6.489L0-12.979-6.009-6.97l-.481.48.481.481z" transform="translate(364.656 380.01)"/><path style="fill:#ef373f;fill-opacity:1;fill-rule:nonzero;stroke:none" d="m0 0-5.838-5.838H4.197a.68.68 0 0 1 .481 1.16z" transform="translate(374.046 357.641)"/><path style="fill:#ef373f;fill-opacity:1;fill-rule:nonzero;stroke:none" d="m0 0-6.73 6.73-7.579 7.579-6.752 6.752a.68.68 0 0 1-.459.195c-.007 0-.014.004-.022.004h-12.499a.68.68 0 0 1-.48-1.16l5.791-5.791 7.21-7.211L-14.421 0l.48-.481-.48-.48-7.099-7.098-7.21-7.211-5.767-5.767a.68.68 0 0 1 .48-1.16h12.5a.68.68 0 0 1 .48.199l6.728 6.728 7.579 7.578L0-.961A.678.678 0 0 1 0 0" transform="translate(387.265 374)"/></g></svg>
