<svg width="54" height="37" viewBox="0 0 54 37" fill="none" xmlns="http://www.w3.org/2000/svg">
<path fill-rule="evenodd" clip-rule="evenodd" d="M0 30.6378H0.133756C0.918511 30.8043 1.61986 30.9215 2.30417 30.9215C3.33965 30.9215 4.09084 30.6711 4.09084 29.7859C4.09084 28.1497 0.0335644 28.801 0.0335644 26.0963C0.0335644 24.6267 1.40269 23.842 3.12224 23.842C3.80705 23.842 4.49161 23.9417 5.12608 24.1423V25.3779H4.99232C4.27445 25.1442 3.65651 25.0443 3.10571 25.0443C2.28764 25.0443 1.43575 25.2276 1.43575 26.0963C1.43575 27.6485 5.49328 27.0308 5.49328 29.6521C5.49328 31.556 3.95734 32.1236 2.25432 32.1236C1.41922 32.1236 0.584621 32.0066 0 31.8729V30.6378Z" fill="#DD443E"/>
<path fill-rule="evenodd" clip-rule="evenodd" d="M19.1505 31.823C18.6831 31.99 18.1488 32.1235 17.4808 32.1235C16.6625 32.1235 15.3773 31.9397 15.3773 30.0531V25.2443H14.3418V24.0756H15.3773V22.2055L16.5626 21.955H16.6963V24.0756H19.2677V25.2443H16.6963V30.0197C16.6963 30.8711 17.4139 30.938 17.7478 30.938C18.082 30.938 18.6162 30.8213 19.0338 30.6875L19.1505 31.823Z" fill="#DD443E"/>
<path fill-rule="evenodd" clip-rule="evenodd" d="M24.0417 30.6377H24.1755C24.9605 30.8043 25.6616 30.9215 26.3459 30.9215C27.3814 30.9215 28.1326 30.671 28.1326 29.7858C28.1326 28.1497 24.0753 28.801 24.0753 26.0963C24.0753 24.6267 25.4447 23.8419 27.164 23.8419C27.849 23.8419 28.5334 23.9416 29.1678 24.1423V25.3779H29.0341C28.3162 25.1442 27.6983 25.0443 27.1475 25.0443C26.3294 25.0443 25.4775 25.2276 25.4775 26.0963C25.4775 27.6485 29.535 27.0308 29.535 29.6521C29.535 31.556 27.9991 32.1236 26.2961 32.1236C25.461 32.1236 24.6266 32.0066 24.0417 31.8728V30.6377Z" fill="#DD443E"/>
<path fill-rule="evenodd" clip-rule="evenodd" d="M32.6387 30.7544C33.1564 30.8378 33.7072 30.9215 34.4086 30.9215C36.0444 30.9215 37.0802 29.886 37.0802 27.8653C37.0802 25.9955 36.462 25.0442 35.1264 25.0442C34.3414 25.0442 33.4733 25.3778 32.6387 26.1125V30.7544ZM31.3029 24.0924L32.4716 23.8416H32.6387V24.8603C33.4232 24.2757 34.2748 23.8416 35.4268 23.8416C37.1471 23.8416 38.4824 25.0607 38.4824 27.6655C38.4824 30.2201 37.1471 32.1233 34.3582 32.1233C33.7072 32.1233 33.1895 32.0398 32.6387 31.9231V35.8133L31.4699 36.0638H31.3029V24.0924Z" fill="#DD443E"/>
<path fill-rule="evenodd" clip-rule="evenodd" d="M49.5522 31.8059L46.8595 24.0758H48.3957L50.2868 30.1532H50.4038L52.4805 24.0758H53.9999L51.055 32.1901C50.3534 34.1937 49.4853 35.1621 48.0493 36.0636L47.2978 35.0952C48.7506 34.0602 49.1181 33.4756 49.6689 32.1235" fill="#DD443E"/>
<path fill-rule="evenodd" clip-rule="evenodd" d="M44.3599 28.2665L42.2061 28.5839C41.6382 28.6673 41.0035 28.901 41.0035 29.8027C41.0035 30.454 41.4549 30.9048 42.1389 30.9048C42.8738 30.9048 43.7089 30.4369 44.3599 29.9698V28.2665ZM45.6957 31.8732L44.6104 32.0903H44.4266V30.9882H44.393C43.6922 31.5225 42.8403 32.0736 41.6886 32.0736C40.6699 32.0736 39.6016 31.3389 39.6016 29.9027C39.6016 27.9664 41.3376 27.6989 42.2729 27.5652L44.3599 27.2814V26.7474C44.3599 25.4115 43.7252 25.0443 42.5735 25.0443C42.1389 25.0443 41.0538 25.1776 40.1689 25.5786L40.0186 24.3427C40.7533 24.0589 41.9057 23.8418 42.824 23.8418C44.4764 23.8418 45.6957 24.5266 45.6957 26.7474V31.8732Z" fill="#DD443E"/>
<path fill-rule="evenodd" clip-rule="evenodd" d="M11.4696 29.9697C10.8186 30.4369 9.98346 30.9048 9.2488 30.9048C8.56448 30.9048 8.11337 30.4539 8.11337 29.8027C8.11337 28.9009 8.74809 28.6672 9.31568 28.5838L11.4696 28.2665V29.9697ZM12.8056 26.7473C12.8056 24.5265 11.5863 23.842 9.93361 23.842C9.01535 23.842 7.86314 24.0589 7.12848 24.3429L7.27877 25.5786C8.16372 25.1775 9.2488 25.0443 9.68313 25.0443C10.8351 25.0443 11.4696 25.4115 11.4696 26.7473V27.2813L9.38255 27.5651C8.44751 27.6989 6.71118 27.9664 6.71118 29.9026C6.71118 31.3386 7.77973 32.0735 8.79843 32.0735C9.95014 32.0735 10.802 31.5224 11.5029 30.9882H11.5364V32.0903H11.7203L12.8056 31.8731V26.7473Z" fill="#DD443E"/>
<path fill-rule="evenodd" clip-rule="evenodd" d="M20.7853 32.0898H20.7901L20.7853 32.0843V32.0898Z" fill="#DD443E"/>
<path fill-rule="evenodd" clip-rule="evenodd" d="M21.954 23.8418L20.7853 24.0923V32.0843L20.7905 32.0903H20.9576L22.1211 31.8411V23.8418H21.954Z" fill="#DD443E"/>
<path fill-rule="evenodd" clip-rule="evenodd" d="M21.954 21.1332L20.7853 21.3837V22.7982L20.7905 22.8037H20.9576L22.1211 22.5545V21.1332H21.954Z" fill="#DD443E"/>
<path fill-rule="evenodd" clip-rule="evenodd" d="M32.6401 27.3928C32.6401 27.7617 32.3408 28.0606 31.9724 28.0606C31.6034 28.0606 31.3043 27.7617 31.3043 27.3928C31.3043 27.0238 31.6034 26.725 31.9724 26.725C32.3408 26.725 32.6401 27.0238 32.6401 27.3928Z" fill="#DD443E"/>
<path fill-rule="evenodd" clip-rule="evenodd" d="M32.5413 0.481173C32.7189 0.303582 32.5932 0 32.342 0H28.1592L30.5911 2.43141L32.5413 0.481173Z" fill="#DD443E"/>
<path fill-rule="evenodd" clip-rule="evenodd" d="M26.6963 6.32643L23.7051 3.3352L18.2213 8.81921C18.1111 8.92917 18.1111 9.10777 18.2213 9.21798L23.7051 14.7017L26.6963 11.7105L24.0042 9.0186L24.2036 8.81921L26.6963 6.32643Z" fill="#DD443E"/>
<path fill-rule="evenodd" clip-rule="evenodd" d="M30.5907 15.6054L28.1691 18.027H32.3318C32.5828 18.027 32.7088 17.7235 32.5312 17.5459L30.5907 15.6054Z" fill="#DD443E"/>
<path fill-rule="evenodd" clip-rule="evenodd" d="M36.0754 8.81916L27.3387 0.082408C27.2881 0.031811 27.2197 0.00400769 27.1486 0.00175336C27.1453 0.00150288 27.1425 0 27.1393 0H21.9543C21.7034 0 21.5774 0.303582 21.755 0.481173L30.2923 9.01854L21.7652 17.5459C21.5874 17.7235 21.7134 18.0271 21.9644 18.0271H27.1493C27.2242 18.0271 27.2958 17.9975 27.3487 17.9447L36.0754 9.21793C36.1856 9.10771 36.1856 8.92937 36.0754 8.81916Z" fill="#DD443E"/>
</svg>
