<svg width="52" height="52" viewBox="0 0 52 52" fill="none" xmlns="http://www.w3.org/2000/svg">
	<path d="M49.3172 52H2.68284C1.19931 51.9792 0 50.1696 0 47.9336V4.0664C0 1.82 1.21317 0 2.71057 0H49.2894C50.7868 0 52 1.82 52 4.0664V47.944C51.9931 50.1696 50.8007 51.9792 49.3172 52Z" fill="#EF809F"/>
	<path d="M11.7719 45.232C13.3784 45.232 14.6069 44.1547 14.6069 42.5766C14.6069 41.1118 13.5674 40.4787 12.2917 40.1007C11.479 39.8644 10.9687 39.6849 10.9687 39.1084C10.9687 38.6265 11.3183 38.2485 11.8759 38.2485C12.3484 38.2485 12.698 38.5225 12.9532 38.9383L14.2856 38.0973C13.8698 37.1806 12.9343 36.7081 11.9231 36.7081C10.3166 36.7081 9.29603 37.861 9.29603 39.2029C9.29603 40.2708 9.93863 41.0929 11.5168 41.556C12.3767 41.8017 12.9248 41.9718 12.9248 42.6522C12.9248 43.2948 12.4618 43.6917 11.7908 43.6917C11.0726 43.6917 10.5245 43.2286 10.1938 42.8034L9.08813 43.909C9.68348 44.7217 10.6474 45.232 11.7719 45.232ZM18.2641 45.232C16.5631 45.232 15.1834 43.8712 15.1834 42.2175C15.1834 40.5637 16.5631 39.2029 18.2641 39.2029C19.9651 39.2029 21.3448 40.5637 21.3448 42.2175C21.3448 43.8712 19.9651 45.232 18.2641 45.232ZM18.2641 43.72C19.0862 43.72 19.7383 43.068 19.7383 42.2175C19.7383 41.367 19.0862 40.7149 18.2641 40.7149C17.4325 40.7149 16.7899 41.367 16.7899 42.2175C16.7899 43.0774 17.4419 43.72 18.2641 43.72ZM25.3232 38.3241V36.8121H25.087C23.1308 36.8121 22.1669 38.1162 22.1669 39.6471V45.0808H23.7734V42.6994C23.7734 41.9056 24.3877 41.3386 25.276 41.3197V39.7888C24.6428 39.7888 24.1325 39.9778 23.7734 40.3558V39.7416C23.7734 38.7399 24.4255 38.2863 25.3232 38.3241ZM28.8292 45.232C27.1282 45.232 25.7485 43.8712 25.7485 42.2175C25.7485 40.5637 27.1282 39.2029 28.8292 39.2029C30.5302 39.2029 31.9099 40.5637 31.9099 42.2175C31.9099 43.8712 30.5302 45.232 28.8292 45.232ZM28.8292 43.72C29.6608 43.72 30.3034 43.068 30.3034 42.2175C30.3034 41.367 29.6513 40.7149 28.8292 40.7149C28.007 40.7149 27.355 41.367 27.355 42.2175C27.355 43.0774 28.007 43.72 28.8292 43.72ZM34.3385 40.0156V39.3636H32.7793V45.0808H34.3858V42.4726C34.3858 41.5276 34.9433 40.9984 35.9072 40.9984V39.2785C35.1796 39.2502 34.6598 39.4959 34.3385 40.0156ZM38.4398 42.1608V40.7622C38.7989 41.1402 39.2998 41.3292 39.9424 41.3292V39.8077C39.073 39.7888 38.4398 39.2029 38.4398 38.428V37.5303H36.8333V42.2553C36.8333 43.7862 37.7878 45.0903 39.7534 45.0903H39.9896V43.5783C39.0919 43.6066 38.4398 43.1625 38.4398 42.1608ZM41.908 45.1753C42.4939 45.1753 42.9853 44.6934 42.9853 44.098C42.9853 43.5121 42.5033 43.0207 41.908 43.0207C41.3126 43.0207 40.8307 43.5027 40.8307 44.098C40.8307 44.6934 41.3126 45.1753 41.908 45.1753Z" fill="white"/>
	<path d="M23.3957 24.9618C23.8966 25.4532 23.906 26.2565 23.4146 26.7573L23.3201 26.8613C22.8287 27.3621 22.0255 27.3716 21.5246 26.8802L18.6896 24.0735C17.9053 23.2892 17.8013 22.3253 18.2927 21.815L18.3872 21.711C18.7936 21.2858 19.4645 21.248 19.9276 21.6071C20.1449 21.7772 20.4662 21.7394 20.6458 21.522C20.8159 21.3047 20.7781 20.9834 20.5607 20.8038C19.6819 20.114 18.425 20.199 17.6501 20.9928L17.5556 21.0968C16.639 22.0418 16.8185 23.6388 17.962 24.7823L20.8064 27.6173C21.7231 28.4961 23.1689 28.4772 24.0572 27.57L24.1612 27.4661C25.0306 26.5589 25.0117 25.1225 24.1139 24.2342C23.9155 24.0357 23.5942 24.0357 23.3957 24.2436C23.1878 24.4421 23.1878 24.7634 23.3957 24.9618ZM21.6947 9.73786L22.8571 19.2824C22.8854 19.5564 23.1406 19.7643 23.4241 19.7265C23.6981 19.6982 23.906 19.443 23.8682 19.1595L22.7059 9.57721L22.6964 9.52051C22.498 8.72671 22.9894 7.83841 23.6509 7.69666C24.0194 7.62106 24.4069 7.68721 24.7187 7.89511C25.0306 8.10301 25.2479 8.42431 25.3235 8.79286L27.3458 17.4302C27.412 17.7042 27.686 17.8743 27.9601 17.8082C28.2341 17.742 28.4042 17.468 28.3381 17.1939L26.3252 8.58496C26.2024 7.96126 25.8244 7.40371 25.2857 7.04461C24.7471 6.68551 24.0761 6.56266 23.443 6.69496C22.1956 6.95956 21.3829 8.41486 21.6947 9.73786Z" fill="white"/>
	<path d="M32.3541 20.9456L34.6505 9.51105C34.9151 8.28255 34.1874 7.0446 32.9684 6.6855C31.6076 6.3453 30.2373 7.1391 29.8877 8.481L27.3456 17.1845C27.27 17.4585 27.4212 17.742 27.6953 17.8176C27.9693 17.8932 28.2528 17.742 28.3284 17.468L30.8705 8.75505C31.0878 7.9518 31.9005 7.46985 32.6943 7.6683C33.3747 7.8762 33.8 8.58495 33.6488 9.30315L31.3524 20.7471C31.2957 21.0212 31.4753 21.2952 31.7493 21.3519C32.0328 21.3992 32.3069 21.2196 32.3541 20.9456ZM26.5802 31.9643C22.9419 31.9643 19.9085 29.2994 19.9085 25.5099C19.9085 25.2264 19.6817 24.9996 19.3982 24.9996C19.1147 24.9996 18.8879 25.2264 18.8879 25.5099C18.8879 29.8947 22.4127 32.9849 26.5802 32.9849C26.8637 32.9849 27.0905 32.7581 27.0905 32.4746C27.0905 32.1911 26.8637 31.9643 26.5802 31.9643ZM24.7847 23.0529C24.7091 23.3364 24.5295 23.5916 24.2838 23.7522L24.1704 23.8184C23.5845 24.2153 22.7907 24.0641 22.3938 23.4782L20.1636 20.1612C19.5588 19.2351 19.6344 18.2712 20.2203 17.8649L20.3243 17.7893C21.0803 17.3546 21.7134 17.6853 22.3655 18.6398L24.2271 21.4181C24.3878 21.6543 24.6996 21.711 24.9359 21.5598C25.1721 21.4086 25.2288 21.0873 25.0776 20.8511L23.216 18.0728C22.2899 16.7309 21.1559 16.1355 19.7856 16.9293L19.6439 17.0238C18.5477 17.7704 18.4154 19.3769 19.3131 20.7282L21.5433 24.0546C22.2615 25.1036 23.679 25.3776 24.728 24.6689L24.8414 24.5933C25.2855 24.2909 25.6068 23.8373 25.758 23.3175C25.8336 23.0435 25.673 22.7694 25.3989 22.6938C25.1343 22.6182 24.8603 22.7789 24.7847 23.0529Z" fill="white"/>
	<path d="M28.1589 24.735C27.1005 25.3304 26.439 26.436 26.3634 28.1276C26.3445 28.4111 26.5619 28.6473 26.8454 28.6662C27.1289 28.6757 27.3651 28.4678 27.384 28.1843C27.4596 26.6534 28.055 25.8312 29.0094 25.4721C29.5197 25.2831 30.0773 25.2453 30.5687 25.2926L30.6915 25.3115C31.3436 25.4343 31.5515 24.461 30.8994 24.3098L26.9777 23.4309C25.1444 22.9301 24.8609 22.2497 25.2011 21.1157C25.3523 20.6243 25.6452 20.3691 26.1083 20.2652C26.4107 20.199 26.7414 20.2085 27.0627 20.2652C27.1572 20.2841 27.2234 20.2935 27.2517 20.303L33.2052 21.6921L33.3186 21.7299C33.4131 21.7677 33.5171 21.8433 33.621 21.9473C34.0179 22.3725 34.2447 23.1758 34.1313 24.4988C33.7439 29.1293 31.5893 32.0021 26.4674 31.9548C26.1839 31.9548 25.9571 32.1816 25.9571 32.4557C25.9571 32.7392 26.1839 32.966 26.4579 32.966C32.2035 33.0132 34.7172 29.6774 35.1425 24.5744C35.2748 22.9868 34.9818 21.9 34.3676 21.248C34.0274 20.8889 33.6683 20.7188 33.3942 20.681L27.5069 19.3107C27.4691 19.3013 27.3746 19.2729 27.2423 19.254C26.7981 19.1784 26.3351 19.169 25.8815 19.2635C25.0877 19.443 24.4829 19.9439 24.2277 20.8133C23.7363 22.4481 24.2561 23.7333 26.732 24.4043L28.1589 24.735Z" fill="white"/>
</svg>
