<?xml version="1.0" encoding="utf-8"?>
<!-- Generator: Adobe Illustrator 28.1.0, SVG Export Plug-In . SVG Version: 6.00 Build 0)  -->
<svg version="1.1" id="Layer_1" xmlns="http://www.w3.org/2000/svg" xmlns:xlink="http://www.w3.org/1999/xlink" x="0px" y="0px"
	 viewBox="0 0 860 267" style="enable-background:new 0 0 860 267;" xml:space="preserve">
<style type="text/css">
	.st0{fill:#FFF48D;}
	.st1{fill:#1D1C1C;}
	.st2{fill:url(#SVGID_1_);}
	.st3{fill:url(#SVGID_00000144305398608912225590000002838080275818821271_);}
</style>
<g>
	<path class="st0" d="M0,15C0,6.7,6.7,0,15,0h830c8.3,0,15,6.7,15,15v237c0,8.3-6.7,15-15,15H15c-8.3,0-15-6.7-15-15V15z"/>
	<g>
		<path class="st1" d="M632.5,133.6c0-46.3,33.3-88.5,90.9-88.5c57.8,0,91.2,42.2,91.2,88.5s-33.3,88.5-91.2,88.5
			C665.8,222.1,632.5,179.9,632.5,133.6z M764,133.6c0-22.3-14.9-42.9-40.5-42.9c-25.4,0-40.5,20.6-40.5,42.9
			c0,22.3,15.1,42.9,40.5,42.9C749.1,176.5,764,155.9,764,133.6z"/>
		<path class="st1" d="M597,166.5c19.2-10.8,30.7-31.4,30.7-54.2c0-33.8-24.7-62.6-63.1-62.6H484v168h49.9v-42.9h9.4l28.5,42.9h58.8
			L597,166.5z M554.6,136h-20.6V88.5h20.9c13.4,0,22.1,10.8,22.1,23.8C576.9,125.2,568,136,554.6,136z"/>
		<polygon class="st1" points="256.2,49.4 226.2,149.5 197,49.4 157.3,49.4 127.8,149.5 98.1,49.4 45.4,49.4 105.8,217.1 
			149.1,217.1 177.1,125.8 204.9,217.1 248.5,217.1 308.9,49.4 		"/>
		<path class="st1" d="M384.4,176.1c0,0-0.1,0-0.1,0c-18.7,0-31.8-11.1-37.4-25.9h126.2h0.6c1-5.6,1.5-11.2,1.5-17
			c0-46.2-33.2-88.3-90.9-88.4v45.5c18.8,0.1,31.7,11.2,37.3,25.9H295c-1,5.6-1.5,11.2-1.5,17c0,46.2,33.3,88.4,90.8,88.4
			c0,0,0.1,0,0.1,0L384.4,176.1L384.4,176.1z"/>
		<g>
			
				<linearGradient id="SVGID_1_" gradientUnits="userSpaceOnUse" x1="446.3908" y1="145.1917" x2="368.6232" y2="48.8527" gradientTransform="matrix(1 0 0 -1 0 268)">
				<stop  offset="2.430000e-02" style="stop-color:#1D1C1C;stop-opacity:0"/>
				<stop  offset="0.676" style="stop-color:#1D1C1C"/>
			</linearGradient>
			<path class="st2" d="M384.3,221.6c2,0,3.9-0.1,5.8-0.1c11.7-0.6,22.3-2.9,31.7-6.7s17.8-9,24.8-15.3s12.9-13.7,17.4-21.8
				c4.1-7.4,7.1-15.4,9-23.7h-52.9c-1.1,2.2-2.3,4.4-3.8,6.4c-2,2.7-4.3,5.2-6.9,7.3s-5.6,3.9-8.8,5.3c-3.2,1.4-6.8,2.4-10.6,2.9
				c-1.9,0.2-3.8,0.4-5.8,0.4c-11.9,0-21.5-4.5-28.4-11.6l-34.4,34.4C336.8,212.8,358,221.6,384.3,221.6z"/>
			
				<linearGradient id="SVGID_00000148632347416780048260000004261628111036914816_" gradientUnits="userSpaceOnUse" x1="310.3092" y1="123.6153" x2="390.2205" y2="203.5267" gradientTransform="matrix(1 0 0 -1 0 268)">
				<stop  offset="2.430000e-02" style="stop-color:#1D1C1C;stop-opacity:0"/>
				<stop  offset="0.676" style="stop-color:#1D1C1C"/>
			</linearGradient>
			<path style="fill:url(#SVGID_00000148632347416780048260000004261628111036914816_);" d="M384.3,44.9
				c-48.8,0-80.1,30.3-88.5,67.7h52.7c6.3-12.9,18.7-22.2,35.8-22.2c13.6,0,24.2,5.8,31.1,14.6L450,70.3
				C434.6,54.8,412.3,44.9,384.3,44.9z"/>
		</g>
	</g>
</g>
</svg>
