<?xml version="1.0" encoding="UTF-8"?><svg version="1.1" width="150px" height="23px" viewBox="0 0 150.0 23.0" xmlns="http://www.w3.org/2000/svg" xmlns:xlink="http://www.w3.org/1999/xlink"><defs><clipPath id="i0"><path d="M150,0 L150,23 L0,23 L0,0 L150,0 Z"></path></clipPath><clipPath id="i1"><path d="M57.7690894,0.058650707 L62.8656649,12.5026766 L67.9352029,0.058650707 L71.3081355,0.058650707 L64.5487515,16.6123821 L62.8656649,20.7085688 L61.9193511,23 L58.573456,23 L61.1690595,16.6394197 L54.2406909,0.058650707 L57.7690894,0.058650707 Z M8.91226181,0.058650707 C11.272199,0.0457164378 13.5381473,0.982590771 15.1998925,2.65832159 C16.8616377,4.33405241 17.7794887,6.60777289 17.7467767,8.96751882 C17.8358847,12.1954573 16.1647094,15.2170719 13.3831391,16.8573138 C10.6015687,18.4975558 7.14860165,18.4975558 4.36703133,16.8573138 C1.58546101,15.2170719 -0.0857143574,12.1954573 0.00339369472,8.96751882 C-0.0296938895,6.5947514 0.898287465,4.30947058 2.57625052,2.63150753 C4.25421357,0.953544477 6.53949439,0.0255631227 8.91226181,0.058650707 Z M34.4762521,3.58704915 C35.2195699,4.85510451 35.5853952,6.30902552 35.530716,7.77786723 L35.530716,17.8561088 L32.2929711,17.8561088 L32.2929711,8.00768629 C32.2929711,4.68206936 30.7045158,3.00574213 27.5614023,3.00574213 L27.574921,3.00574213 C24.4385669,3.00574213 22.8433522,4.68206936 22.8433522,8.00768629 L22.8433522,17.8561088 L19.6056073,17.8561088 L19.6056073,7.77786723 C19.5583806,6.30806841 19.9286833,4.85498172 20.67359,3.58704915 C22.1902967,1.27556969 24.8130446,-0.0653455072 27.574921,0.058650707 C30.3364995,-0.0639744809 32.9586085,1.27661403 34.4762521,3.58704915 Z M41.469018,1.24575937 C44.1497362,-0.376329936 47.4992889,-0.417034026 50.2186333,1.1394332 C52.9379777,2.69590042 54.5993326,5.60469049 54.558382,8.73769976 L54.5719007,8.71066223 C54.5719007,9.16354095 54.5381038,9.83271997 54.5043069,10.1639298 L40.600254,10.1639298 C41.080088,12.8088467 43.3606401,14.747033 46.0483175,14.7941078 C47.720897,14.80521 49.3225915,14.1194692 50.4689546,12.9014803 L53.9838343,12.9014803 C53.9790082,12.942318 53.9651546,12.98157 53.943278,13.0163898 C52.3857857,16.0132719 49.2768982,17.8812169 45.899611,17.8493494 C43.5924554,17.8396287 41.3915049,16.878547 39.8161654,15.1929115 C38.2103643,13.5100957 37.3146703,11.2732815 37.3151934,8.94724067 C37.1981208,5.81615171 38.7882998,2.86784868 41.469018,1.24575937 Z M8.91226181,3.22204242 C5.73912281,3.22204242 3.16678541,5.79437982 3.16678541,8.96751882 C3.1433018,10.508976 3.73737886,11.9957826 4.81663416,13.096623 C5.89588945,14.1974634 7.37064188,14.8208628 8.91226181,14.8279047 L8.92578057,14.8279047 C10.4644776,14.8154591 11.9346821,14.1899074 13.0106205,13.089862 C14.0865589,11.9898165 14.679385,10.5061139 14.6577382,8.96751882 C14.6577382,5.79437982 12.0854008,3.22204242 8.91226181,3.22204242 Z M45.933408,3.09576838 C43.3985185,3.09576838 41.2101876,4.87147851 40.688126,7.35202604 L51.17869,7.35202604 C50.6566283,4.87147851 48.4682974,3.09576838 45.933408,3.09576838 Z"></path></clipPath><clipPath id="i2"><path d="M9.01100416,0.00037575165 C11.4114651,-0.0198531654 13.7188119,0.928045542 15.4117967,2.62993406 C17.1047814,4.33182259 18.0405642,6.64410973 18.0077443,9.04443154 C18.0387301,11.4435894 17.1021366,13.7541197 15.4093541,15.4545331 C13.7165715,17.1549465 11.4102771,18.1019227 9.01100416,18.0817279 C6.6099588,18.1037174 4.30124142,17.1577583 2.60592028,15.45735 C0.910599151,13.7569416 -0.0284381674,11.4454002 0.000745291335,9.04443154 C-0.0302713789,6.64229839 0.907955877,4.3290004 2.60347923,2.62711725 C4.29900258,0.925234096 6.60877172,-0.0216473477 9.01100416,0.00037575165 Z"></path></clipPath><clipPath id="i3"><path d="M2.67671606,0 C3.97451779,0 5.13037246,0.6759384 5.13037246,1.97374013 C5.15746773,2.66250445 4.74093794,3.29138276 4.0961867,3.53515783 C4.8090367,3.78742459 5.27291183,4.47637523 5.2385226,5.23176322 C5.2385226,6.58364002 4.04211163,7.34745041 2.7037536,7.34745041 C0.966591912,7.34745041 0,6.32002404 0,4.83295956 L1.62901154,4.83295956 C1.58563686,5.13734156 1.67727114,5.44549477 1.87991682,5.67671868 C2.08256249,5.90794259 2.37603389,6.03920484 2.68347545,6.03612991 C2.93418504,6.04963864 3.17898377,5.95689124 3.35780117,5.78064675 C3.53661857,5.60440226 3.63290385,5.36097333 3.62302982,5.1100943 C3.62302982,4.52878728 3.35265446,4.13674301 2.58884407,4.13674301 L1.95346198,4.13674301 L1.95346198,2.87949758 L2.58884407,2.87949758 C3.31209816,2.87949758 3.52163906,2.52800962 3.52163906,2.01429643 C3.54145195,1.79722738 3.46231094,1.58279961 3.30622701,1.43065057 C3.15014308,1.27850153 2.9337649,1.20486017 2.71727237,1.23020789 C2.04133397,1.23020789 1.8182743,1.64253031 1.8182743,2.25763426 L0.189262752,2.25763426 C0.189262752,1.0544639 0.932794992,0 2.67671606,0 Z"></path></clipPath><clipPath id="i4"><path d="M1.81151491,0 L2.5753253,1.36539557 L3.34589508,0 L5.12361307,0 L3.49460153,2.4063407 L5.15065061,4.84647833 L3.37293262,4.84647833 L2.5753253,3.44052646 L1.78447738,4.84647833 L0,4.84647833 L1.66956785,2.4063407 L0.03379692,0 L1.81151491,0 Z"></path></clipPath><clipPath id="i5"><path d="M2.24472794,0 C2.82096078,0 3.22518382,0.206411765 3.44879657,0.541830882 C3.64660784,0.842848039 3.70681127,1.17826716 3.70681127,1.72869853 L3.70681127,4.11103431 L2.76935784,4.11103431 L2.76935784,2.03831618 C2.76935784,1.35027696 2.57154657,0.825647059 1.90070833,0.825647059 C1.24707108,0.825647059 0.937453431,1.35027696 0.937453431,2.03831618 L0.937453431,4.11103431 L0,4.11103431 L0,0.103205882 L0.937453431,0.103205882 L0.937453431,0.662237745 C1.18686765,0.232213235 1.65129412,0 2.24472794,0 Z"></path></clipPath><clipPath id="i6"><path d="M1.97811275,0 C3.01877206,0 3.83581863,0.782644608 3.83581863,1.80610294 C3.83581863,1.94371078 3.83581863,2.13292157 3.79281618,2.39093627 L0.928852941,2.39093627 C0.971855392,2.96716912 1.22126961,3.43159559 2.00391422,3.43159559 C2.53714461,3.43159559 2.74355637,3.19078186 2.85536275,2.90696569 L3.80141667,2.90696569 C3.68961029,3.5950049 3.02737255,4.2142402 2.00391422,4.2142402 C0.653637255,4.2142402 0,3.28538725 0,2.1071201 C0,0.903051471 0.713840686,0 1.97811275,0 Z M1.95231127,0.705240196 C1.37607843,0.705240196 0.928852941,1.04065931 0.928852941,1.69429657 L2.92416667,1.69429657 C2.92416667,1.08366176 2.51994363,0.705240196 1.95231127,0.705240196 Z"></path></clipPath><clipPath id="i7"><path d="M1.64269363,0 C2.49414216,0 3.17358088,0.576232843 3.17358088,1.35887745 L2.26192892,1.35887745 C2.26192892,0.980455882 2.07271814,0.739642157 1.61689216,0.739642157 C1.29867402,0.739642157 1.04065931,0.89445098 1.04065931,1.17826716 C1.04065931,1.52228676 1.41048039,1.56528922 2.14152206,1.84910539 C2.70055392,2.06411765 3.23378431,2.26192892 3.23378431,2.99297059 C3.23378431,3.82721814 2.51134314,4.2142402 1.63409314,4.2142402 C0.774044118,4.2142402 0,3.70681127 0,2.76075735 L0.911651961,2.76075735 C0.911651961,3.28538725 1.23847059,3.47459804 1.68569608,3.47459804 C2.05551716,3.47459804 2.33933333,3.35419118 2.33933333,3.01017157 C2.33933333,2.63175 1.93511029,2.60594853 1.09226225,2.2791299 C0.533230392,2.06411765 0.137607843,1.85770588 0.137607843,1.16106618 C0.137607843,0.404223039 0.825647059,0 1.64269363,0 Z"></path></clipPath><clipPath id="i8"><path d="M1.64269363,0 C2.49414216,0 3.17358088,0.576232843 3.17358088,1.35887745 L2.26192892,1.35887745 C2.26192892,0.980455882 2.07271814,0.739642157 1.61689216,0.739642157 C1.29867402,0.739642157 1.04065931,0.89445098 1.04065931,1.17826716 C1.04065931,1.52228676 1.41048039,1.56528922 2.14152206,1.84910539 C2.70055392,2.06411765 3.23378431,2.26192892 3.23378431,2.99297059 C3.23378431,3.82721814 2.51134314,4.2142402 1.63409314,4.2142402 C0.774044118,4.2142402 0,3.70681127 0,2.76075735 L0.911651961,2.76075735 C0.911651961,3.28538725 1.23847059,3.47459804 1.68569608,3.47459804 C2.05551716,3.47459804 2.33933333,3.35419118 2.33933333,3.01017157 C2.33933333,2.63175 1.93511029,2.60594853 1.09226225,2.2791299 C0.533230392,2.06411765 0.137607843,1.85770588 0.137607843,1.16106618 C0.137607843,0.404223039 0.825647059,0 1.64269363,0 Z"></path></clipPath><clipPath id="i9"><path d="M0.937453431,0 L0.937453431,2.07271814 C0.937453431,2.76075735 1.13526471,3.28538725 1.80610294,3.28538725 C2.4597402,3.28538725 2.76935784,2.76075735 2.76935784,2.07271814 L2.76935784,0 L3.70681127,0 L3.70681127,4.00782843 L2.76935784,4.00782843 L2.76935784,3.44879657 C2.51994363,3.87882108 2.05551716,4.11103431 1.46208333,4.11103431 C0.88585049,4.11103431 0.481627451,3.90462255 0.258014706,3.56920343 C0.0602034314,3.26818627 0,2.93276716 0,2.38233578 L0,0 L0.937453431,0 Z"></path></clipPath><clipPath id="i10"><path d="M2.24472794,0 C2.82096078,0 3.22518382,0.206411765 3.44879657,0.541830882 C3.64660784,0.842848039 3.70681127,1.17826716 3.70681127,1.72869853 L3.70681127,4.11103431 L2.76935784,4.11103431 L2.76935784,2.03831618 C2.76935784,1.35027696 2.57154657,0.825647059 1.90070833,0.825647059 C1.24707108,0.825647059 0.937453431,1.35027696 0.937453431,2.03831618 L0.937453431,4.11103431 L0,4.11103431 L0,0.103205882 L0.937453431,0.103205882 L0.937453431,0.662237745 C1.18686765,0.232213235 1.65129412,0 2.24472794,0 Z"></path></clipPath><clipPath id="i11"><path d="M2.05551716,0 C2.51994363,0 3.04457353,0.240813725 3.29398775,0.645036765 L3.29398775,0.103205882 L4.23144118,0.103205882 L4.23144118,4.11103431 L3.29398775,4.11103431 L3.29398775,3.56920343 C3.04457353,3.97342647 2.51994363,4.2142402 2.05551716,4.2142402 C0.834247549,4.2142402 0,3.2423848 0,2.1071201 C0,0.971855392 0.834247549,0 2.05551716,0 Z M2.1071201,0.834247549 C1.4018799,0.834247549 0.937453431,1.41908088 0.937453431,2.1071201 C0.937453431,2.79515931 1.4018799,3.37999265 2.1071201,3.37999265 C2.82956127,3.37999265 3.29398775,2.79515931 3.29398775,2.1071201 C3.29398775,1.41908088 2.82956127,0.834247549 2.1071201,0.834247549 Z"></path></clipPath><clipPath id="i12"><path d="M1.99531373,0 C3.30258824,0 3.83581863,0.791245098 3.89602206,1.56528922 L2.95856863,1.56528922 C2.90696569,1.12666422 2.64895098,0.834247549 2.01251471,0.834247549 C1.29007353,0.834247549 0.937453431,1.42768137 0.937453431,2.1071201 C0.937453431,2.79515931 1.26427206,3.37999265 2.07271814,3.37999265 C2.62314951,3.37999265 2.84676225,3.13917892 2.96716912,2.73495588 L3.90462255,2.73495588 C3.7756152,3.56920343 3.16498039,4.2142402 2.00391422,4.2142402 C0.696639706,4.2142402 0,3.19938235 0,2.1071201 C0,1.02345833 0.696639706,0 1.99531373,0 Z"></path></clipPath><clipPath id="i13"><path d="M2.1071201,0 C3.39719363,0 4.23144118,0.971855392 4.23144118,2.1071201 C4.23144118,3.2423848 3.39719363,4.2142402 2.1071201,4.2142402 C0.834247549,4.2142402 0,3.2423848 0,2.1071201 C0,0.971855392 0.834247549,0 2.1071201,0 Z M2.1071201,0.834247549 C1.4018799,0.834247549 0.937453431,1.41908088 0.937453431,2.1071201 C0.937453431,2.79515931 1.4018799,3.37999265 2.1071201,3.37999265 C2.82956127,3.37999265 3.29398775,2.79515931 3.29398775,2.1071201 C3.29398775,1.41908088 2.82956127,0.834247549 2.1071201,0.834247549 Z"></path></clipPath><clipPath id="i14"><path d="M4.54965931,0 C5.75372794,0 5.99454167,0.825647059 5.99454167,1.57388971 L5.99454167,4.11103431 L5.05708824,4.11103431 L5.05708824,1.86630637 C5.05708824,1.2298701 4.83347549,0.825647059 4.30884559,0.825647059 C3.83581863,0.825647059 3.46599755,1.11806373 3.46599755,2.07271814 L3.46599755,4.11103431 L2.52854412,4.11103431 L2.52854412,1.85770588 C2.52854412,1.22126961 2.32213235,0.825647059 1.79750245,0.825647059 C1.32447549,0.825647059 0.937453431,1.11806373 0.937453431,2.07271814 L0.937453431,4.11103431 L0,4.11103431 L0,0.103205882 L0.937453431,0.103205882 L0.937453431,0.662237745 C1.10946324,0.292416667 1.53088725,0 2.05551716,0 C2.78655882,0 3.14777941,0.318218137 3.31978922,0.713840686 C3.509,0.309617647 3.98202696,0 4.54965931,0 Z"></path></clipPath><clipPath id="i15"><path d="M4.54965931,0 C5.75372794,0 5.99454167,0.825647059 5.99454167,1.57388971 L5.99454167,4.11103431 L5.05708824,4.11103431 L5.05708824,1.86630637 C5.05708824,1.2298701 4.83347549,0.825647059 4.30884559,0.825647059 C3.83581863,0.825647059 3.46599755,1.11806373 3.46599755,2.07271814 L3.46599755,4.11103431 L2.52854412,4.11103431 L2.52854412,1.85770588 C2.52854412,1.22126961 2.32213235,0.825647059 1.79750245,0.825647059 C1.32447549,0.825647059 0.937453431,1.11806373 0.937453431,2.07271814 L0.937453431,4.11103431 L0,4.11103431 L0,0.103205882 L0.937453431,0.103205882 L0.937453431,0.662237745 C1.10946324,0.292416667 1.53088725,0 2.05551716,0 C2.78655882,0 3.14777941,0.318218137 3.31978922,0.713840686 C3.509,0.309617647 3.98202696,0 4.54965931,0 Z"></path></clipPath><clipPath id="i16"><path d="M1.16106618,2.15872304 L1.16106618,6.16655147 L0.223612745,6.16655147 L0.223612745,2.15872304 L1.16106618,2.15872304 Z M0.688039216,0 C1.07506127,0 1.38467892,0.309617647 1.38467892,0.696639706 C1.38467892,1.07506127 1.07506127,1.38467892 0.688039216,1.38467892 C0.309617647,1.38467892 0,1.07506127 0,0.696639706 C0,0.309617647 0.309617647,0 0.688039216,0 Z"></path></clipPath><clipPath id="i17"><path d="M1.64269363,0 C2.49414216,0 3.17358088,0.576232843 3.17358088,1.35887745 L2.26192892,1.35887745 C2.26192892,0.980455882 2.07271814,0.739642157 1.61689216,0.739642157 C1.29867402,0.739642157 1.04065931,0.89445098 1.04065931,1.17826716 C1.04065931,1.52228676 1.41048039,1.56528922 2.14152206,1.84910539 C2.70055392,2.06411765 3.23378431,2.26192892 3.23378431,2.99297059 C3.23378431,3.82721814 2.51134314,4.2142402 1.63409314,4.2142402 C0.774044118,4.2142402 0,3.70681127 0,2.76075735 L0.911651961,2.76075735 C0.911651961,3.28538725 1.23847059,3.47459804 1.68569608,3.47459804 C2.05551716,3.47459804 2.33933333,3.35419118 2.33933333,3.01017157 C2.33933333,2.63175 1.93511029,2.60594853 1.09226225,2.2791299 C0.533230392,2.06411765 0.137607843,1.85770588 0.137607843,1.16106618 C0.137607843,0.404223039 0.825647059,0 1.64269363,0 Z"></path></clipPath><clipPath id="i18"><path d="M1.16106618,2.15872304 L1.16106618,6.16655147 L0.223612745,6.16655147 L0.223612745,2.15872304 L1.16106618,2.15872304 Z M0.688039216,0 C1.07506127,0 1.38467892,0.309617647 1.38467892,0.696639706 C1.38467892,1.07506127 1.07506127,1.38467892 0.688039216,1.38467892 C0.309617647,1.38467892 0,1.07506127 0,0.696639706 C0,0.309617647 0.309617647,0 0.688039216,0 Z"></path></clipPath><clipPath id="i19"><path d="M2.1071201,0 C3.39719363,0 4.23144118,0.971855392 4.23144118,2.1071201 C4.23144118,3.2423848 3.39719363,4.2142402 2.1071201,4.2142402 C0.834247549,4.2142402 0,3.2423848 0,2.1071201 C0,0.971855392 0.834247549,0 2.1071201,0 Z M2.1071201,0.834247549 C1.4018799,0.834247549 0.937453431,1.41908088 0.937453431,2.1071201 C0.937453431,2.79515931 1.4018799,3.37999265 2.1071201,3.37999265 C2.82956127,3.37999265 3.29398775,2.79515931 3.29398775,2.1071201 C3.29398775,1.41908088 2.82956127,0.834247549 2.1071201,0.834247549 Z"></path></clipPath><clipPath id="i20"><path d="M2.24472794,0 C2.82096078,0 3.22518382,0.206411765 3.44879657,0.541830882 C3.64660784,0.842848039 3.70681127,1.17826716 3.70681127,1.72869853 L3.70681127,4.11103431 L2.76935784,4.11103431 L2.76935784,2.03831618 C2.76935784,1.35027696 2.57154657,0.825647059 1.90070833,0.825647059 C1.24707108,0.825647059 0.937453431,1.35027696 0.937453431,2.03831618 L0.937453431,4.11103431 L0,4.11103431 L0,0.103205882 L0.937453431,0.103205882 L0.937453431,0.662237745 C1.18686765,0.232213235 1.65129412,0 2.24472794,0 Z"></path></clipPath><clipPath id="i21"><path d="M1.97811275,0 C3.01877206,0 3.83581863,0.782644608 3.83581863,1.80610294 C3.83581863,1.94371078 3.83581863,2.13292157 3.79281618,2.39093627 L0.928852941,2.39093627 C0.971855392,2.96716912 1.22126961,3.43159559 2.00391422,3.43159559 C2.53714461,3.43159559 2.74355637,3.19078186 2.85536275,2.90696569 L3.80141667,2.90696569 C3.68961029,3.5950049 3.02737255,4.2142402 2.00391422,4.2142402 C0.653637255,4.2142402 0,3.28538725 0,2.1071201 C0,0.903051471 0.713840686,0 1.97811275,0 Z M1.95231127,0.705240196 C1.37607843,0.705240196 0.928852941,1.04065931 0.928852941,1.69429657 L2.92416667,1.69429657 C2.92416667,1.08366176 2.51994363,0.705240196 1.95231127,0.705240196 Z"></path></clipPath><clipPath id="i22"><path d="M34.3933603,0 L34.3933603,0.726593137 L17.2697843,0.726593137 L4.89367892,0.726593137 L0,0.726593137 L0,0 L4.893,0 L17.2697843,0 L34.3933603,0 Z"></path></clipPath><clipPath id="i23"><path d="M23.8577598,0 L29.9555074,0 L36.0532549,0 L40.9383333,0 L50.0118505,0 L50.0118505,0.726593137 L40.9383333,0.726593137 L36.0532549,0.726593137 L29.9555074,0.726593137 L23.8577598,0.726593137 L16.66775,0.726593137 L9.4777402,0.726593137 L0,0.726593137 L0,0 L9.477,0 L16.66775,0 L23.8577598,0 Z"></path></clipPath></defs><g clip-path="url(#i0)"><g transform=""><g transform="translate(20.2755035939997 0.0)"><g clip-path="url(#i1)"><polygon points="0,0 71.3081355,0 71.3081355,23 0,23 0,0" stroke="none" fill="#81BC00"></polygon></g></g><g transform="translate(0.0 0.017718651319626133)"><g clip-path="url(#i2)"><polygon points="4.4408921e-16,-1.08420217e-19 18.0085793,-1.08420217e-19 18.0085793,18.0821029 4.4408921e-16,18.0821029 4.4408921e-16,-1.08420217e-19" stroke="none" fill="#81BC00"></polygon></g></g><g transform="translate(3.7184064908549317 4.979482258328688)"><g clip-path="url(#i3)"><polygon points="0,0 5.24031309,0 5.24031309,7.34745041 0,7.34745041 0,0" stroke="none" fill="#FFFFFF"></polygon></g></g><g transform="translate(9.450364122114252 7.324988506025534)"><g clip-path="url(#i4)"><polygon points="0,0 5.15065061,0 5.15065061,4.84647833 0,4.84647833 0,0" stroke="none" fill="#FFFFFF"></polygon></g></g></g><g transform="translate(95.58363909550077 4.065928921568625)"><g transform="translate(0.34401960784316543 0.0)"><g transform="translate(0.2838161764705658 0.0)"><g clip-path="url(#i5)"><polygon points="0,0 3.70681127,0 3.70681127,4.11103431 0,4.11103431 0,0" stroke="none" fill="#81BC00"></polygon></g></g><g transform="translate(4.893678921568664 0.0)"><g clip-path="url(#i6)"><polygon points="0,0 3.83581863,0 3.83581863,4.2142402 0,4.2142402 0,0" stroke="none" fill="#81BC00"></polygon></g></g><g transform="translate(9.426137254902017 0.0)"><g clip-path="url(#i7)"><polygon points="0,0 3.23378431,0 3.23378431,4.2142402 0,4.2142402 0,0" stroke="none" fill="#81BC00"></polygon></g></g><g transform="translate(13.33075980392158 0.0)"><g clip-path="url(#i8)"><polygon points="0,0 3.23378431,0 3.23378431,4.2142402 0,4.2142402 0,0" stroke="none" fill="#81BC00"></polygon></g></g><g transform="translate(17.48479656862747 0.10320588235302353)"><g clip-path="url(#i9)"><polygon points="0,0 3.70681127,0 3.70681127,4.11103431 0,4.11103431 0,0" stroke="none" fill="#81BC00"></polygon></g></g><g transform="translate(22.44727941176478 0.0)"><g clip-path="url(#i10)"><polygon points="0,0 3.70681127,0 3.70681127,4.11103431 0,4.11103431 0,0" stroke="none" fill="#81BC00"></polygon></g></g><g transform="translate(27.03994117647056 0.0)"><g clip-path="url(#i11)"><polygon points="0,0 4.23144118,0 4.23144118,4.2142402 0,4.2142402 0,0" stroke="none" fill="#81BC00"></polygon></g></g><g transform="translate(0.0 8.897058823529392)"><g clip-path="url(#i12)"><polygon points="0,0 3.90462255,0 3.90462255,4.2142402 0,4.2142402 0,0" stroke="none" fill="#81BC00"></polygon></g></g><g transform="translate(4.575460784313748 8.897058823529392)"><g clip-path="url(#i13)"><polygon points="0,0 4.23144118,0 4.23144118,4.2142402 0,4.2142402 0,0" stroke="none" fill="#81BC00"></polygon></g></g><g transform="translate(9.761556372549023 8.897058823529392)"><g clip-path="url(#i14)"><polygon points="0,0 5.99454167,0 5.99454167,4.11103431 0,4.11103431 0,0" stroke="none" fill="#81BC00"></polygon></g></g><g transform="translate(16.951566176470642 8.897058823529392)"><g clip-path="url(#i15)"><polygon points="0,0 5.99454167,0 5.99454167,4.11103431 0,4.11103431 0,0" stroke="none" fill="#81BC00"></polygon></g></g><g transform="translate(23.91796323529417 6.8415416666667)"><g clip-path="url(#i16)"><polygon points="0,0 1.38467892,0 1.38467892,6.16655147 0,6.16655147 0,0" stroke="none" fill="#81BC00"></polygon></g></g><g transform="translate(26.016482843137226 8.897058823529392)"><g clip-path="url(#i17)"><polygon points="0,0 3.23378431,0 3.23378431,4.2142402 0,4.2142402 0,0" stroke="none" fill="#81BC00"></polygon></g></g><g transform="translate(29.921105392156896 8.897058823529392)"><g clip-path="url(#i17)"><polygon points="0,0 3.23378431,0 3.23378431,4.2142402 0,4.2142402 0,0" stroke="none" fill="#81BC00"></polygon></g></g><g transform="translate(33.9203333333333 6.8415416666667)"><g clip-path="url(#i18)"><polygon points="0,0 1.38467892,0 1.38467892,6.16655147 0,6.16655147 0,0" stroke="none" fill="#81BC00"></polygon></g></g><g transform="translate(36.03605392156868 8.897058823529392)"><g clip-path="url(#i19)"><polygon points="0,0 4.23144118,0 4.23144118,4.2142402 0,4.2142402 0,0" stroke="none" fill="#81BC00"></polygon></g></g><g transform="translate(41.22214950980384 8.897058823529392)"><g clip-path="url(#i20)"><polygon points="0,0 3.70681127,0 3.70681127,4.11103431 0,4.11103431 0,0" stroke="none" fill="#81BC00"></polygon></g></g><g transform="translate(45.83201225490194 8.897058823529392)"><g clip-path="url(#i21)"><polygon points="0,0 3.83581863,0 3.83581863,4.2142402 0,4.2142402 0,0" stroke="none" fill="#81BC00"></polygon></g></g></g><g transform="translate(0.0 4.971083333333354)"><g clip-path="url(#i22)"><polygon points="0,0 34.3933603,0 34.3933603,0.726593137 0,0.726593137 0,0" stroke="none" fill="#81BC00"></polygon></g><g transform="translate(0.0 8.897058823529392)"><g clip-path="url(#i23)"><polygon points="0,0 50.0118505,0 50.0118505,0.726593137 0,0.726593137 0,0" stroke="none" fill="#81BC00"></polygon></g></g></g></g></g></svg>