<?xml version="1.0" encoding="UTF-8"?><svg version="1.1" height="23px" viewBox="0 0 240.0 60.0" xmlns="http://www.w3.org/2000/svg" xmlns:xlink="http://www.w3.org/1999/xlink"><defs><clipPath id="i0"><path d="M240,0 L240,60 L0,60 L0,0 L240,0 Z"></path></clipPath><clipPath id="i1"><path d="M150.701972,0.153001844 L163.997387,32.6156782 L177.222268,0.153001844 L186.021223,0.153001844 L168.388047,43.336649 L163.997387,54.0223535 L161.528742,60 L152.80032,60 L159.57146,43.4071817 L141.479821,0.153001844 L150.701972,0.153001844 Z M22.7968914,0.151152457 L23.2493786,0.153001844 C29.4057365,0.119260272 35.316906,2.56328027 39.6518935,6.93475197 C43.986881,11.3062237 46.3812748,17.2376684 46.2959392,23.3935274 C46.528395,31.8142364 42.1688071,39.6967092 34.9125367,43.9756013 C27.6562663,48.2544933 18.648526,48.2544933 11.3922556,43.9756013 C4.13598525,39.6967092 -0.223602672,31.8142364 0.00885311665,23.3935274 C-0.0774623205,17.2036993 2.3433586,11.2420972 6.72065353,6.86480225 C11.0979484,2.48750733 17.0595506,0.0666864071 23.2493786,0.153001844 Z M71.9345766,0.153001844 C79.1386944,-0.16688995 85.9789786,3.33029747 89.9380489,9.35751953 C91.8771389,12.66549 92.8314658,16.4583274 92.6888243,20.2900884 L92.6888243,46.5811533 L84.2425332,46.5811533 L84.2425332,20.8896164 C84.2425332,12.214094 80.0987369,7.84106643 71.8993102,7.84106643 L71.9345766,7.84106643 C63.7527831,7.84106643 59.5913536,12.214094 59.5913536,20.8896164 L59.5913536,46.5811533 L51.1450625,46.5811533 L51.1450625,20.2900884 C51.0218623,16.4558306 51.9878694,12.6651697 53.9311043,9.35751953 C57.8877304,3.32757309 64.7296815,-0.170466541 71.9345766,0.153001844 Z M108.180047,3.24980706 C115.173225,-0.981730268 123.911189,-1.08791485 131.00513,2.97243442 C138.099072,7.0327837 142.433042,14.6209317 142.326214,22.7939994 L142.36148,22.7234667 C142.36148,23.9048894 142.273314,25.6505738 142.185148,26.5145994 L105.913706,26.5145994 C107.159089,33.4180455 113.112123,38.477386 120.126046,38.5933248 C124.489297,38.622287 128.66763,36.833398 131.658143,33.6560356 L140.827394,33.6560356 C140.803987,33.7597549 140.768477,33.8603656 140.721595,33.9557996 C136.658571,41.7737527 128.54843,46.6466528 119.738116,46.5635202 C113.719449,46.5381619 107.977839,44.0309922 103.868258,39.6336821 C99.6792113,35.243728 97.3426182,29.4085604 97.3439827,23.3406278 C97.0385759,15.1725697 101.186869,7.48134438 108.180047,3.24980706 Z M23.2493786,8.40532805 C14.9716247,8.40532805 8.26117932,15.1157734 8.26117932,23.3935274 C8.19991773,27.4147199 9.74968398,31.2933459 12.5651326,34.1651035 C15.3805812,37.0368611 19.2277614,38.6631205 23.2493786,38.6814906 L23.284645,38.6814906 C27.2986373,38.6490237 31.1339533,37.0171499 33.9407491,34.147466 C36.7475448,31.2777821 38.2940478,27.4072537 38.2375779,23.3935274 C38.2375779,15.1157734 31.5271325,8.40532805 23.2493786,8.40532805 Z M119.826282,8.07591752 C113.213527,8.07591752 107.504837,12.7082048 106.142937,19.1791984 L133.509626,19.1791984 C132.147726,12.7082048 126.439037,8.07591752 119.826282,8.07591752 Z"></path></clipPath><clipPath id="i2"><path d="M23.5069674,0.000980221696 C29.7690394,-0.0517908663 35.788205,2.42098837 40.204687,6.86069756 C44.621169,11.3004067 47.0623414,17.3324602 46.9767242,23.5941692 C47.0575567,29.8528419 44.6142694,35.8803123 40.1983149,40.3161734 C35.7823605,44.7520345 29.7659403,47.222407 23.5069674,47.1697251 L23.0599956,47.1695357 C16.9574807,47.1084627 11.1153303,44.6537541 6.79805292,40.3235216 C2.37547605,35.8876737 -0.0741865237,29.8575658 0.00194423827,23.5941692 C-0.0789688146,17.3277349 2.36858055,11.2930445 6.79168494,6.85334935 C11.2147893,2.41365416 17.2402741,-0.0564713418 23.5069674,0.000980221696 Z"></path></clipPath><clipPath id="i3"><path d="M6.98273756,0 C10.3683073,0 13.3835803,1.76331756 13.3835803,5.14888729 C13.4542636,6.94566377 12.3676642,8.58621589 10.6857044,9.22215086 C12.5416162,9.88500256 13.749617,11.679134 13.6657111,13.648078 C13.6657111,17.1747131 10.544639,19.1672619 7.05327026,19.1672619 C2.52154412,19.1672619 0,16.4870192 0,12.6077206 L4.24959533,12.6077206 C4.13644397,13.4017606 4.37548993,14.2056385 4.90413083,14.8088313 C5.43277172,15.4120242 6.19834927,15.7544474 7.00037073,15.7464259 C7.65439575,15.781666 8.29300114,15.5397163 8.75948132,15.0799481 C9.2259615,14.6201798 9.47714048,13.9851478 9.45138215,13.3306808 C9.45138215,11.8142277 8.74605512,10.7915035 6.75350627,10.7915035 L5.09598776,10.7915035 L5.09598776,7.51173283 L6.75350627,7.51173283 C8.64025607,7.51173283 9.18688451,6.59480769 9.18688451,5.25468634 C9.23857032,4.68841926 9.03211549,4.12904247 8.62494003,3.73213193 C8.21776456,3.33522139 7.65329973,3.14311348 7.08853661,3.20923797 C5.32521905,3.20923797 4.74332425,4.28486168 4.74332425,5.88948067 L0.493728918,5.88948067 C0.493728918,2.7507754 2.43337824,0 6.98273756,0 Z"></path></clipPath><clipPath id="i4"><path d="M4.72569107,0 L6.71823992,3.56190148 L8.72842195,0 L13.3659471,0 L9.11635181,6.27741053 L13.4364798,12.6429869 L8.79895465,12.6429869 L6.71823992,8.97528641 L4.65515837,12.6429869 L0,12.6429869 L4.35539439,6.27741053 L0.0881658782,0 L4.72569107,0 Z"></path></clipPath></defs><g clip-path="url(#i0)"><g transform="translate(0.5430794406512973 0.0)"><g transform="translate(52.89261807130332 0.0)"><g clip-path="url(#i1)"><polygon points="1.420912e-14,0 186.021223,0 186.021223,60 1.420912e-14,60 1.420912e-14,0" stroke="none" fill="#81BC00"></polygon></g></g><g transform="translate(0.0 0.04622256865981811)"><g clip-path="url(#i2)"><polygon points="-8.8817842e-16,0 46.9789026,0 46.9789026,47.1707033 -8.8817842e-16,47.1707033 -8.8817842e-16,0" stroke="none" fill="#81BC00"></polygon></g></g><g transform="translate(9.700190845708555 12.98995371737919)"><g clip-path="url(#i3)"><polygon points="0,0 13.6698205,0 13.6698205,19.1672619 0,19.1672619 0,0" stroke="none" fill="#FFFFFF"></polygon></g></g><g transform="translate(24.65312379681975 19.10866566789281)"><g clip-path="url(#i4)"><polygon points="0,0 13.4364798,0 13.4364798,12.6429869 0,12.6429869 0,0" stroke="none" fill="#FFFFFF"></polygon></g></g></g></g></svg>
