<?xml version="1.0" encoding="UTF-8"?><svg version="1.1" width="150px" height="23px" viewBox="0 0 150.0 23.0" xmlns="http://www.w3.org/2000/svg" xmlns:xlink="http://www.w3.org/1999/xlink"><defs><clipPath id="i0"><path d="M150,0 L150,23 L0,23 L0,0 L150,0 Z"></path></clipPath><clipPath id="i1"><path d="M3.17872365,0.426059771 C3.51820967,0.727401295 3.72218323,1.15265527 3.74469874,1.60603207 L2.6631973,1.60603207 C2.67680947,1.40484356 2.59988648,1.20808369 2.45343053,1.0694736 C2.30697458,0.930863499 2.10628149,0.864879582 1.90614629,0.889537364 C1.52762078,0.889537364 1.23020789,1.07204073 1.23020789,1.41000993 C1.23020789,1.74797913 1.66956785,1.86288866 2.52800962,2.20085786 C3.18366986,2.44419568 3.81229258,2.68753351 3.81229258,3.54597528 C3.81229258,4.53284534 2.96061019,4.98572407 1.92642444,4.98572407 C1.43948201,5.03493547 0.954172244,4.8780666 0.588160583,4.55315099 C0.222148922,4.22823537 0.00885759439,3.76494257 0,3.27559992 L1.07474206,3.27559992 C1.07474206,3.89070386 1.46002694,4.11376353 1.9872589,4.11376353 C2.51449085,4.11376353 2.75782867,3.97181647 2.75782867,3.56625343 C2.75782867,3.16069039 2.28467179,3.09309655 1.29104234,2.70781166 C0.615103944,2.45095507 0.162225216,2.20761724 0.162225216,1.35593486 C0.162225216,0.504252476 0.973351296,0.00405806023 1.93994321,0.00405806023 C2.3927896,-0.0273682922 2.83923763,0.124718248 3.17872365,0.426059771 Z"></path></clipPath><clipPath id="i2"><path d="M2.3578299,1.32853809e-05 C2.94081382,-0.00224545328 3.48727783,0.283636181 3.81785684,0.763837121 L3.81785684,0.121695641 L4.89935828,0.121695641 L4.89935828,4.85326444 L3.7908193,4.85326444 L3.7908193,4.21788234 C3.46118729,4.68339131 2.92820097,4.96245491 2.3578299,4.96817397 C1.0362204,4.89921001 0,3.80750795 0,2.48410035 C0,1.16069274 1.0362204,0.0689906819 2.3578299,1.32853809e-05 Z M2.33407834,1.20492708 C1.58145227,1.24200654 0.994882383,1.8710815 1.0104604,2.62445936 C1.02603842,3.37783723 1.63811129,3.98212717 2.39162682,3.98806329 C2.77968211,3.98510187 3.14943209,3.82263989 3.41408032,3.53881425 C3.67872856,3.2549886 3.81496872,2.8747945 3.7908193,2.48748004 C3.73226863,1.7362193 3.08670441,1.16784762 2.33407834,1.20492708 Z"></path></clipPath><clipPath id="i3"><path d="M4.06238978,0.679953532 C4.30757177,1.10307948 4.4139497,1.59241798 4.36656206,2.07914602 L4.36656206,4.88429038 L3.23098555,4.88429038 L3.23098555,2.41711522 C3.23098555,1.60598914 2.99440711,0.984125812 2.20355918,0.984125812 C1.41271126,0.984125812 1.06798267,1.60598914 1.06798267,2.41711522 L1.06798267,4.85725284 L0,4.85725284 L0,0.112165276 L1.10177959,0.112165276 L1.10177959,0.788103676 C1.43274533,0.263801407 2.02426174,-0.0371455372 2.64291914,0.00401513196 C3.20196342,-0.0356691951 3.74082475,0.220931437 4.06238978,0.679953532 Z"></path></clipPath><clipPath id="i4"><path d="M3.16714029,0.424355916 C3.50706077,0.726083082 3.71049907,1.1524629 3.73117997,1.60650862 L2.6631973,1.60650862 C2.68110847,1.40306184 2.60607264,1.20242467 2.45905619,1.06065881 C2.31203973,0.918892937 2.1088075,0.851200185 1.90614629,0.876495144 C1.52762078,0.876495144 1.23020789,1.05899851 1.23020789,1.39696771 C1.23020789,1.73493691 1.66956785,1.84984644 2.52800962,2.18781564 C3.18366986,2.44467223 3.81229258,2.68801006 3.81229258,3.54645182 C3.81229258,4.53332189 2.96061019,4.98620062 1.92642444,4.98620062 C1.43948201,5.03541202 0.954172244,4.87854315 0.588160583,4.55362754 C0.222148922,4.22871192 0.00885759439,3.76541912 0,3.27607646 L1.07474206,3.27607646 C1.07474206,3.89118041 1.46002694,4.11424008 1.9872589,4.11424008 C2.51449085,4.11424008 2.75106929,3.97229302 2.75106929,3.56672998 C2.75106929,3.16116694 2.27115302,3.0935731 1.27752358,2.70828821 C0.601585176,2.45143162 0.155465832,2.20809379 0.155465832,1.35641141 C0.155465832,0.504729024 0.966591912,0.00453460812 1.92642444,0.00453460812 C2.37971739,-0.0287927469 2.82721982,0.122628751 3.16714029,0.424355916 Z"></path></clipPath><clipPath id="i5"><path d="M2.6631973,0.00154809702 C2.89476297,-0.00879327285 3.12571062,0.0327773036 3.3391357,0.123217009 L3.30533878,1.056012 C3.14667869,1.01272688 2.98311401,0.99000956 2.81866313,0.988418161 C2.47393454,0.988418161 2.0683715,0.988418161 2.0683715,1.72519102 L2.0683715,2.43492634 L3.30533878,2.43492634 L3.30533878,3.38799948 L2.0683715,3.38799948 L2.0683715,7.18677329 L0.959832528,7.18677329 L0.959832528,3.38799948 L0,3.38799948 L0,2.43492634 L0.959832528,2.43492634 L0.959832528,1.84685993 C0.959832528,0.042104401 2.11568719,0.00154809702 2.6631973,0.00154809702 Z"></path></clipPath><clipPath id="i6"><path d="M2.56180654,0.000965442959 C2.71185876,-0.00541895066 2.8615704,0.0199168653 3.0011665,0.0753186669 L3.0011665,1.10274503 C2.85785593,1.06481233 2.71003813,1.04661937 2.56180654,1.04866996 C1.62225216,1.04866996 1.10177959,1.58942068 1.10177959,2.7655535 L1.10177959,4.7933687 L0,4.7933687 L0,0.061799899 L1.10177959,0.061799899 L1.10177959,0.825610291 C1.41008755,0.313630153 1.96416335,0.000679934044 2.56180654,0.000965442959 Z"></path></clipPath><clipPath id="i7"><path d="M2.3578299,1.32853809e-05 C2.94081382,-0.00224545328 3.48727783,0.283636181 3.81785684,0.763837121 L3.81785684,0.121695641 L4.92639582,0.114936257 L4.92639582,4.84650506 L3.81785684,4.84650506 L3.81785684,4.21112296 C3.48418518,4.68695664 2.9389945,4.96964811 2.3578299,4.96817971 C1.0362204,4.89921001 0,3.80750795 0,2.48410035 C0,1.16069274 1.0362204,0.0689906819 2.3578299,1.32853809e-05 Z M2.36552018,1.1981307 C1.61455213,1.2327523 1.02665274,1.8572196 1.03735491,2.60890912 C1.04805708,3.36059864 1.65349627,3.9680758 2.40514558,3.98130656 C2.79555369,3.98205992 3.16886918,3.82122036 3.43648155,3.53696224 C3.70409392,3.25270412 3.84214138,2.87037348 3.81785684,2.48072066 C3.75935088,1.73123502 3.11648824,1.16350909 2.36552018,1.1981307 Z"></path></clipPath><clipPath id="i8"><path d="M1.36584459,2.54155292 L1.36584459,7.27312172 L0.264064999,7.27312172 L0.264064999,2.54155292 L1.36584459,2.54155292 Z M0.811575102,2.45392883e-05 C1.1454045,-0.0025523291 1.44729367,0.198019378 1.57428647,0.50676124 C1.70127927,0.815503102 1.62788324,1.17043845 1.38885422,1.40349174 C1.1498252,1.63654504 0.79314575,1.70093329 0.487717304,1.56616618 C0.182288859,1.43139907 -0.0105770434,1.12452968 0.000449022578,0.790872467 C0.0149398606,0.352368599 0.372844937,0.00341114901 0.811575102,2.45392883e-05 Z"></path></clipPath><clipPath id="i9"><path d="M3.17389968,0.424355916 C3.51382015,0.726083082 3.71725845,1.1524629 3.73793935,1.60650862 L2.6631973,1.60650862 C2.677164,1.40398395 2.59936704,1.20590573 2.4513077,1.06701821 C2.30324837,0.928130696 2.10060623,0.863142151 1.8993869,0.890013912 C1.5208614,0.890013912 1.2234485,1.07251728 1.2234485,1.41048648 C1.2234485,1.74845568 1.66280846,1.86336521 2.52125023,2.20133441 C3.18366986,2.44467223 3.81229258,2.68801006 3.81229258,3.54645182 C3.81229258,4.53332189 2.96061019,4.98620062 1.92642444,4.98620062 C1.43948201,5.03541202 0.954172244,4.87854315 0.588160583,4.55362754 C0.222148922,4.22871192 0.00885759439,3.76541912 0,3.27607646 L1.07474206,3.27607646 C1.07474206,3.89118041 1.46002694,4.11424008 1.9872589,4.11424008 C2.51449085,4.11424008 2.75782867,3.97229302 2.75782867,3.56672998 C2.75782867,3.16116694 2.27791241,3.0935731 1.28428296,2.70828821 C0.60834456,2.45143162 0.162225216,2.20809379 0.162225216,1.35641141 C0.162225216,0.504729024 0.973351296,0.00453460812 1.93318382,0.00453460812 C2.38647678,-0.0287927469 2.8339792,0.122628751 3.17389968,0.424355916 Z"></path></clipPath><clipPath id="i10"><path d="M44.2469277,0.0844923 L44.2469277,0.5914461 L0,0.5914461 L0,0.0844923 L44.2469277,0.0844923 Z"></path></clipPath><clipPath id="i11"><path d="M57.7690894,0.058650707 L62.8656649,12.5026766 L67.9352029,0.058650707 L71.3081355,0.058650707 L64.5487515,16.6123821 L62.8656649,20.7085688 L61.9193511,23 L58.573456,23 L61.1690595,16.6394197 L54.2406909,0.058650707 L57.7690894,0.058650707 Z M8.91226181,0.058650707 C11.272199,0.0457164378 13.5381473,0.982590771 15.1998925,2.65832159 C16.8616377,4.33405241 17.7794887,6.60777289 17.7467767,8.96751882 C17.8358847,12.1954573 16.1647094,15.2170719 13.3831391,16.8573138 C10.6015687,18.4975558 7.14860165,18.4975558 4.36703133,16.8573138 C1.58546101,15.2170719 -0.0857143574,12.1954573 0.00339369472,8.96751882 C-0.0296938895,6.5947514 0.898287465,4.30947058 2.57625052,2.63150753 C4.25421357,0.953544477 6.53949439,0.0255631227 8.91226181,0.058650707 Z M34.4762521,3.58704915 C35.2195699,4.85510451 35.5853952,6.30902552 35.530716,7.77786723 L35.530716,17.8561088 L32.2929711,17.8561088 L32.2929711,8.00768629 C32.2929711,4.68206936 30.7045158,3.00574213 27.5614023,3.00574213 L27.574921,3.00574213 C24.4385669,3.00574213 22.8433522,4.68206936 22.8433522,8.00768629 L22.8433522,17.8561088 L19.6056073,17.8561088 L19.6056073,7.77786723 C19.5583806,6.30806841 19.9286833,4.85498172 20.67359,3.58704915 C22.1902967,1.27556969 24.8130446,-0.0653455072 27.574921,0.058650707 C30.3364995,-0.0639744809 32.9586085,1.27661403 34.4762521,3.58704915 Z M41.469018,1.24575937 C44.1497362,-0.376329936 47.4992889,-0.417034026 50.2186333,1.1394332 C52.9379777,2.69590042 54.5993326,5.60469049 54.558382,8.73769976 L54.5719007,8.71066223 C54.5719007,9.16354095 54.5381038,9.83271997 54.5043069,10.1639298 L40.600254,10.1639298 C41.080088,12.8088467 43.3606401,14.747033 46.0483175,14.7941078 C47.720897,14.80521 49.3225915,14.1194692 50.4689546,12.9014803 L53.9838343,12.9014803 C53.9790082,12.942318 53.9651546,12.98157 53.943278,13.0163898 C52.3857857,16.0132719 49.2768982,17.8812169 45.899611,17.8493494 C43.5924554,17.8396287 41.3915049,16.878547 39.8161654,15.1929115 C38.2103643,13.5100957 37.3146703,11.2732815 37.3151934,8.94724067 C37.1981208,5.81615171 38.7882998,2.86784868 41.469018,1.24575937 Z M8.91226181,3.22204242 C5.73912281,3.22204242 3.16678541,5.79437982 3.16678541,8.96751882 C3.1433018,10.508976 3.73737886,11.9957826 4.81663416,13.096623 C5.89588945,14.1974634 7.37064188,14.8208628 8.91226181,14.8279047 L8.92578057,14.8279047 C10.4644776,14.8154591 11.9346821,14.1899074 13.0106205,13.089862 C14.0865589,11.9898165 14.679385,10.5061139 14.6577382,8.96751882 C14.6577382,5.79437982 12.0854008,3.22204242 8.91226181,3.22204242 Z M45.933408,3.09576838 C43.3985185,3.09576838 41.2101876,4.87147851 40.688126,7.35202604 L51.17869,7.35202604 C50.6566283,4.87147851 48.4682974,3.09576838 45.933408,3.09576838 Z"></path></clipPath><clipPath id="i12"><path d="M9.01100416,0.00037575165 C11.4114651,-0.0198531654 13.7188119,0.928045542 15.4117967,2.62993406 C17.1047814,4.33182259 18.0405642,6.64410973 18.0077443,9.04443154 C18.0387301,11.4435894 17.1021366,13.7541197 15.4093541,15.4545331 C13.7165715,17.1549465 11.4102771,18.1019227 9.01100416,18.0817279 C6.6099588,18.1037174 4.30124142,17.1577583 2.60592028,15.45735 C0.910599151,13.7569416 -0.0284381674,11.4454002 0.000745291335,9.04443154 C-0.0302713789,6.64229839 0.907955877,4.3290004 2.60347923,2.62711725 C4.29900258,0.925234096 6.60877172,-0.0216473477 9.01100416,0.00037575165 Z"></path></clipPath><clipPath id="i13"><path d="M2.67671606,0 C3.97451779,0 5.13037246,0.6759384 5.13037246,1.97374013 C5.15746773,2.66250445 4.74093794,3.29138276 4.0961867,3.53515783 C4.8090367,3.78742459 5.27291183,4.47637523 5.2385226,5.23176322 C5.2385226,6.58364002 4.04211163,7.34745041 2.7037536,7.34745041 C0.966591912,7.34745041 0,6.32002404 0,4.83295956 L1.62901154,4.83295956 C1.58563686,5.13734156 1.67727114,5.44549477 1.87991682,5.67671868 C2.08256249,5.90794259 2.37603389,6.03920484 2.68347545,6.03612991 C2.93418504,6.04963864 3.17898377,5.95689124 3.35780117,5.78064675 C3.53661857,5.60440226 3.63290385,5.36097333 3.62302982,5.1100943 C3.62302982,4.52878728 3.35265446,4.13674301 2.58884407,4.13674301 L1.95346198,4.13674301 L1.95346198,2.87949758 L2.58884407,2.87949758 C3.31209816,2.87949758 3.52163906,2.52800962 3.52163906,2.01429643 C3.54145195,1.79722738 3.46231094,1.58279961 3.30622701,1.43065057 C3.15014308,1.27850153 2.9337649,1.20486017 2.71727237,1.23020789 C2.04133397,1.23020789 1.8182743,1.64253031 1.8182743,2.25763426 L0.189262752,2.25763426 C0.189262752,1.0544639 0.932794992,0 2.67671606,0 Z"></path></clipPath><clipPath id="i14"><path d="M1.81151491,0 L2.5753253,1.36539557 L3.34589508,0 L5.12361307,0 L3.49460153,2.4063407 L5.15065061,4.84647833 L3.37293262,4.84647833 L2.5753253,3.44052646 L1.78447738,4.84647833 L0,4.84647833 L1.66956785,2.4063407 L0.03379692,0 L1.81151491,0 Z"></path></clipPath></defs><g clip-path="url(#i0)"><g transform="translate(96.58363909550076 7.189190584912922)"><g transform="translate(0.36500673595276134 2.40230718275069)"><g clip-path="url(#i1)"><polygon points="0,-1.79110199e-15 3.81229258,-1.79110199e-15 3.81229258,4.99460356 0,4.99460356 0,-1.79110199e-15" stroke="none" fill="#81BC00"></polygon></g></g><g transform="translate(5.077492502666246 2.4198572821939015)"><g clip-path="url(#i2)"><polygon points="0,-4.44306457e-14 4.89935828,-4.44306457e-14 4.89935828,4.96817397 0,4.96817397 0,-4.44306457e-14" stroke="none" fill="#81BC00"></polygon></g></g><g transform="translate(11.49095279851508 2.429387647015972)"><g clip-path="url(#i3)"><polygon points="0,-6.44449771e-16 4.37757041,-6.44449771e-16 4.37757041,4.88429038 0,4.88429038 0,-6.44449771e-16" stroke="none" fill="#81BC00"></polygon></g></g><g transform="translate(16.8511443098223 2.401830634858186)"><g clip-path="url(#i4)"><polygon points="0,-6.72205347e-16 3.81229258,-6.72205347e-16 3.81229258,4.99508011 0,4.99508011 0,-6.72205347e-16" stroke="none" fill="#81BC00"></polygon></g></g><g transform="translate(23.82682859692102 0.10662658625415133)"><g clip-path="url(#i5)"><polygon points="0,-6.50738144e-16 3.3391357,-6.50738144e-16 3.3391357,7.18677329 0,7.18677329 0,-6.50738144e-16" stroke="none" fill="#81BC00"></polygon></g></g><g transform="translate(28.00412790838118 2.4662342560100106)"><g clip-path="url(#i6)"><polygon points="0,-1.66988819e-15 3.0011665,-1.66988819e-15 3.0011665,4.7933687 0,4.7933687 0,-1.66988819e-15" stroke="none" fill="#81BC00"></polygon></g></g><g transform="translate(31.391774411265942 2.4266166661930133)"><g clip-path="url(#i7)"><polygon points="0,-4.44306406e-14 4.92639582,-4.44306406e-14 4.92639582,4.9681854 0,4.9681854 0,-4.44306406e-14" stroke="none" fill="#81BC00"></polygon></g></g><g transform="translate(37.53441032457147 0.0)"><g clip-path="url(#i8)"><polygon points="5.55111512e-17,6.77626358e-21 1.63580001,6.77626358e-21 1.63580001,7.27312172 5.55111512e-17,7.27312172 5.55111512e-17,6.77626358e-21" stroke="none" fill="#81BC00"></polygon></g></g><g transform="translate(40.00879389082991 2.401830634858186)"><g clip-path="url(#i9)"><polygon points="0,-7.81492926e-16 3.81229258,-7.81492926e-16 3.81229258,4.99508011 0,4.99508011 0,-7.81492926e-16" stroke="none" fill="#81BC00"></polygon></g></g><g transform="translate(0.0 7.945680430261518)"><g clip-path="url(#i10)"><polygon points="0,0.0844923 44.2469277,0.0844923 44.2469277,0.5914461 0,0.5914461 0,0.0844923" stroke="none" fill="#81BC00"></polygon></g></g></g><g transform="translate(20.2755035939997 0.0)"><g clip-path="url(#i11)"><polygon points="-1.73472348e-18,0 71.3081355,0 71.3081355,23 -1.73472348e-18,23 -1.73472348e-18,0" stroke="none" fill="#81BC00"></polygon></g></g><g transform="translate(0.0 0.017718651319682976)"><g clip-path="url(#i12)"><polygon points="4.4408921e-16,-1.62630326e-19 18.0085793,-1.62630326e-19 18.0085793,18.0821029 4.4408921e-16,18.0821029 4.4408921e-16,-1.62630326e-19" stroke="none" fill="#81BC00"></polygon></g></g><g transform="translate(3.7184064908549326 4.979482258328687)"><g clip-path="url(#i13)"><polygon points="0,0 5.24031309,0 5.24031309,7.34745041 0,7.34745041 0,0" stroke="none" fill="#FFFFFF"></polygon></g></g><g transform="translate(9.450364122114252 7.324988506025591)"><g clip-path="url(#i14)"><polygon points="0,0 5.15065061,0 5.15065061,4.84647833 0,4.84647833 0,0" stroke="none" fill="#FFFFFF"></polygon></g></g></g></svg>