<?xml version="1.0" encoding="UTF-8"?><svg version="1.1" width="150px" height="23px" viewBox="0 0 150.0 23.0" xmlns="http://www.w3.org/2000/svg" xmlns:xlink="http://www.w3.org/1999/xlink"><defs><clipPath id="i0"><path d="M150,0 L150,23 L0,23 L0,0 L150,0 Z"></path></clipPath><clipPath id="i1"><path d="M57.7840233,0.00762238869 L62.8642344,12.4612423 L67.95121,0.00762238869 L71.3267431,0.00762238869 L64.5621478,16.5741162 L62.8845282,20.673461 L61.9239556,22.9598942 L58.5822456,22.9598942 L61.1798501,16.59441 L54.24614,0.00762238869 L57.7840233,0.00762238869 Z M34.439405,3.53874113 C35.1856583,4.80706701 35.5541239,6.26215444 35.5014465,7.7327902 L35.5014465,17.8188018 L32.2814991,17.8188018 L32.2814991,7.96278644 C32.2814991,4.63460556 30.6985838,2.95698593 27.5462824,2.95698593 L27.5598116,2.95698593 C24.4210394,2.95698593 22.8245949,4.63460556 22.8245949,7.96278644 L22.8245949,17.8188018 L19.6114121,17.8188018 L19.6114121,7.7327902 C19.5580106,6.26382743 19.9215288,4.80975461 20.6599244,3.53874113 C22.1765477,1.22761341 24.7981716,-0.114041128 27.5598116,0.00762238869 C30.3149498,-0.109504297 32.9284164,1.23192105 34.439405,3.53874113 Z M8.88276402,0.00762238869 C11.2491961,-0.0126300626 13.5239154,0.921743459 15.1928353,2.5995745 C16.8617553,4.27740554 17.7840023,6.55706832 17.7511484,8.92335897 C17.7511484,13.8249684 13.7776089,17.798508 8.87599942,17.798508 C3.97438997,17.798508 0.000850410835,13.8249684 0.000850410835,8.92335897 C-0.0320703205,6.55469991 0.892020098,4.27293491 2.56389041,2.59469799 C4.23576073,0.916461075 6.51399694,-0.0162952523 8.88276402,0.00762238869 Z M45.8309834,0.136149699 C50.5980975,0.076373974 54.5110648,3.89242568 54.5708406,8.65953975 L54.5843697,8.63924597 C54.5843697,9.09923845 54.5167238,9.76893338 54.5167238,10.1003985 L40.5951867,10.1003985 C41.0753906,12.7473546 43.3577009,14.6870352 46.0474505,14.7341463 C47.7245236,14.7445688 49.3301061,14.0557616 50.4782604,12.833295 L53.99585,12.833295 C53.9858686,12.873768 53.9699091,12.9125267 53.9484978,12.9482932 C52.3903179,15.9470918 49.2778893,17.814549 45.8986294,17.7782142 C43.5908806,17.7694371 41.3886908,16.8102611 39.8104936,15.1264928 C38.2034545,13.4423797 37.3069006,11.2038409 37.3075934,8.8760068 C37.2478177,4.10889273 41.0638694,0.195925424 45.8309834,0.136149699 Z M8.88952861,3.17345298 C5.71394322,3.17345298 3.13962262,5.74777358 3.13962262,8.92335897 C3.11612937,10.464838 3.70974091,11.9517622 4.78836364,13.0532532 C5.86698638,14.1547443 7.34113135,14.779416 8.88276402,14.7882631 L8.9030578,14.7882631 C10.4429411,14.7758078 11.9142791,14.1497739 12.991047,13.0488803 C14.0678149,11.9479867 14.6610981,10.4631403 14.6394346,8.92335897 C14.6394346,5.74777358 12.065114,3.17345298 8.88952861,3.17345298 Z M45.9358347,3.05698178 C43.4016486,3.05698178 41.2122486,4.8282889 40.6831264,7.3066207 L51.1885429,7.3066207 C50.6594207,4.8282889 48.4700207,3.05698178 45.9358347,3.05698178 Z"></path></clipPath><clipPath id="i2"><path d="M9.01795138,0.000376041343 C11.420263,-0.0198684716 13.7293887,0.928761038 15.4236787,2.63196166 C17.1179687,4.33516229 18.054473,6.64923214 18.0216277,9.05140453 C18.0526374,11.4524121 17.1153218,13.7647237 15.4212342,15.4664481 C13.7271466,17.1681725 11.4190741,18.1158787 9.01795138,18.0956684 C6.61505488,18.1176748 4.30455755,17.1709864 2.60792937,15.4692671 C0.911301196,13.7675478 -0.0284600924,11.4542243 0.000745865933,9.05140453 C-0.0302947173,6.64741941 0.908655884,4.33233793 2.60548643,2.62914268 C4.30231698,0.925947424 6.61386689,-0.0216640372 9.01795138,0.000376041343 Z"></path></clipPath><clipPath id="i3"><path d="M1.81291154,0 L2.5773108,1.36644825 L3.34847466,0 L5.12756322,0 L3.49729576,2.40819592 L5.1546216,4.85021482 L3.37553305,4.85021482 L2.5773108,3.443179 L1.78585315,4.85021482 L0,4.85021482 L1.67085503,2.40819592 L0.0338229764,0 L1.81291154,0 Z"></path></clipPath><clipPath id="i4"><path d="M1.71144261,0 L1.71144261,3.90993607 L2.96289273,3.90993607 L2.96289273,1.88055749 L4.66080615,1.88055749 L4.66080615,3.90993607 L5.56049732,3.90993607 L5.56049732,5.35755946 L4.66080615,5.35755946 L4.66080615,7.38693805 L2.96289273,7.38693805 L2.96289273,5.35755946 L0,5.35755946 L0,0 L1.71144261,0 Z"></path></clipPath><clipPath id="i5"><path d="M3.45931122,0.463668287 C3.82876385,0.791609382 4.05074226,1.25440074 4.07524522,1.74779735 L2.89827909,1.74779735 C2.91309282,1.52884983 2.8293798,1.31472186 2.66999611,1.16387658 C2.51061241,1.0130313 2.29220404,0.941222948 2.0744028,0.968057285 C1.66246466,0.968057285 1.33879897,1.16667032 1.33879897,1.53447223 C1.33879897,1.82871377 1.64481017,1.96759577 2.24553368,2.19969349 L2.57040248,2.32466114 C2.62862308,2.34716735 2.6888772,2.37060859 2.75115833,2.39512872 C3.46469404,2.6599461 4.1488056,2.92476347 4.1488056,3.85898034 C4.1488056,4.93296193 3.22194478,5.4258165 2.09647092,5.4258165 C1.56654583,5.47937182 1.03839752,5.30865606 0.640077821,4.95505997 C0.241758122,4.60146389 0.00963945881,4.09727599 0,3.56473881 L1.16961009,3.56473881 C1.16961009,4.23413829 1.58890427,4.47688756 2.16267526,4.47688756 C2.73644625,4.47688756 3.00126363,4.32241075 3.00126363,3.88104845 C3.00126363,3.43968616 2.48634095,3.36612577 1.40500332,2.94683159 C0.669399486,2.66730213 0.176544919,2.40248476 0.176544919,1.47562393 C0.176544919,0.548763102 1.05926952,0.00441626729 2.11118299,0.00441626729 C2.60400237,-0.0297841054 3.08985859,0.135727192 3.45931122,0.463668287 Z"></path></clipPath><clipPath id="i6"><path d="M2.56595676,1.44580884e-05 C3.20040097,-0.0024436606 3.79510164,0.308672893 4.15486103,0.831261417 L4.15486103,0.132437778 L5.33182716,0.132437778 L5.33182716,5.28166459 L4.12543688,5.28166459 L4.12543688,4.59019699 C3.76670807,5.09679668 3.18667478,5.40049336 2.56595676,5.40671724 C1.12768811,5.33166581 0,4.14359864 0,2.70337317 C0,1.26314769 1.12768811,0.075080525 2.56595676,1.44580884e-05 Z M2.54010863,1.31128662 C1.72104788,1.3516391 1.08270116,2.03624282 1.09965426,2.85612174 C1.11660736,3.67600066 1.78270822,4.33363158 2.60273695,4.34009169 C3.02504609,4.33686887 3.42743408,4.16006628 3.71544295,3.8511872 C4.00345182,3.54230813 4.15171797,3.12855409 4.12543688,2.70705118 C4.0617179,1.88947627 3.35916939,1.27093413 2.54010863,1.31128662 Z"></path></clipPath><clipPath id="i7"><path d="M4.42097902,0.73997338 C4.68780335,1.20044888 4.80357132,1.73298153 4.75200075,2.26267331 L4.75200075,5.31542921 L3.51618631,5.31542921 L3.51618631,2.63047522 C3.51618631,1.74775063 3.25872497,1.0709951 2.39806849,1.0709951 C1.53741201,1.0709951 1.16225405,1.74775063 1.16225405,2.63047522 L1.16225405,5.28600505 L0,5.28600505 L0,0.122066163 L1.19903424,0.122066163 L1.19903424,0.857669993 C1.5592145,0.287087293 2.20294436,-0.0404243929 2.87621098,0.00436954972 C3.48460238,-0.0388177334 4.07102928,0.240433169 4.42097902,0.73997338 Z"></path></clipPath><clipPath id="i8"><path d="M3.4467054,0.461814032 C3.81663083,0.790174809 4.03802673,1.25419139 4.06053314,1.74831596 L2.89827909,1.74831596 C2.9177713,1.52691083 2.83611202,1.30856332 2.67611834,1.1542837 C2.54279028,1.02571395 2.36697751,0.953130147 2.18444359,0.948437344 L2.0744028,0.953863822 C1.66246466,0.953863822 1.33879897,1.15247686 1.33879897,1.52027877 C1.33879897,1.8145203 1.64481017,1.95340231 2.24553368,2.18550003 L2.57040248,2.31046768 C2.62862308,2.33297388 2.6888772,2.35641513 2.75115833,2.38093525 C3.46469404,2.66046471 4.1488056,2.92528209 4.1488056,3.85949895 C4.1488056,4.93348055 3.22194478,5.42633511 2.09647092,5.42633511 C1.56654583,5.47989044 1.03839752,5.30917467 0.640077821,4.95557859 C0.241758122,4.6019825 0.00963945881,4.09779461 0,3.56525742 L1.16961009,3.56525742 C1.16961009,4.23465691 1.58890427,4.47740617 2.16267526,4.47740617 C2.73644625,4.47740617 2.99390759,4.32292937 2.99390759,3.88156707 C2.99390759,3.44020477 2.47162887,3.36664439 1.39029124,2.9473502 C0.654687409,2.66782075 0.169188881,2.40300337 0.169188881,1.47614254 C0.169188881,0.549281715 1.05191348,0.00493488031 2.09647092,0.00493488031 C2.58977627,-0.0313342975 3.07677996,0.133453254 3.4467054,0.461814032 Z"></path></clipPath><clipPath id="i9"><path d="M3.63388292,0.134093438 L3.59710273,1.14922672 C3.42443764,1.1021208 3.24643502,1.07739821 3.06746797,1.07566634 C2.69231002,1.07566634 2.25094772,1.07566634 2.25094772,1.87747452 L2.25094772,2.64985854 L3.59710273,2.64985854 L3.59710273,3.68705994 L2.25094772,3.68705994 L2.25094772,7.82115347 L1.04455744,7.82115347 L1.04455744,3.68705994 L0,3.68705994 L0,2.64985854 L1.04455744,2.64985854 L1.04455744,2.00988321 C1.04455744,0.115966058 2.21419568,0.00728622139 2.83199332,0.00193908658 L2.89827909,0.00168474834 C3.15028519,-0.00956945958 3.4016187,0.0356705731 3.63388292,0.134093438 Z"></path></clipPath><clipPath id="i10"><path d="M2.78793852,0.00105066311 C2.95123593,-0.00589728423 3.11416269,0.0216749372 3.26608101,0.0819670845 L3.26608101,1.20008491 C3.11012034,1.15880386 2.94925459,1.139005 2.78793852,1.1412366 C1.76544919,1.1412366 1.19903424,1.72971967 1.19903424,3.00967033 L1.19903424,5.21648182 L0,5.21648182 L0,0.0672550079 L1.19903424,0.0672550079 L1.19903424,0.898487336 C1.53455671,0.341314448 2.13754106,0.000739952173 2.78793852,0.00105066311 Z"></path></clipPath><clipPath id="i11"><path d="M2.56595676,1.44580884e-05 C3.20040097,-0.0024436606 3.79510164,0.308672893 4.15486103,0.831261417 L4.15486103,0.132437778 L5.36125131,0.125081739 L5.36125131,5.27430855 L4.15486103,5.27430855 L4.15486103,4.58284095 C3.79173601,5.10067672 3.19842106,5.40832151 2.56595676,5.40672349 C1.12768811,5.33166581 0,4.14359864 0,2.70337317 C0,1.26314769 1.12768811,0.075080525 2.56595676,1.44580884e-05 Z M2.57432587,1.30389031 C1.75706948,1.34156798 1.1172759,2.02115734 1.12892276,2.83919888 C1.14056962,3.65724042 1.79945124,4.31833989 2.61744902,4.33273854 C3.04231865,4.3335584 3.44858689,4.15852145 3.73982155,3.84917172 C4.0310562,3.53982199 4.18128917,3.12374282 4.15486103,2.69969515 C4.09119072,1.88405202 3.39158226,1.26621264 2.57432587,1.30389031 Z"></path></clipPath><clipPath id="i12"><path d="M1.4864084,2.76589711 L1.4864084,7.91512392 L0.287374152,7.91512392 L0.287374152,2.76589711 L1.4864084,2.76589711 Z M0.883213255,2.6705384e-05 C1.24650995,-0.0027776245 1.57504703,0.21549865 1.71324955,0.551493316 C1.85145207,0.887487981 1.77157733,1.27375366 1.5114491,1.52737868 C1.25132087,1.78100371 0.863157134,1.85107554 0.530768362,1.70441247 C0.198379591,1.5577494 -0.0115106845,1.22379249 0.000488658032,0.860683187 C0.0162586098,0.383472356 0.405756152,0.00371225289 0.883213255,2.6705384e-05 Z"></path></clipPath><clipPath id="i13"><path d="M3.45406144,0.461814032 C3.82398687,0.790174809 4.04538277,1.25419139 4.06788918,1.74831596 L2.89827909,1.74831596 C2.91347864,1.52791433 2.82881451,1.31235165 2.6676859,1.16120446 C2.50655729,1.01005727 2.28602783,0.939332153 2.06704676,0.968575898 C1.65510862,0.968575898 1.33144293,1.16718893 1.33144293,1.53499085 C1.33144293,1.82923238 1.63745413,1.96811438 2.23817764,2.2002121 L2.56304645,2.32517975 C2.62126704,2.34768596 2.68152116,2.3711272 2.74380229,2.39564733 C3.46469404,2.66046471 4.1488056,2.92528209 4.1488056,3.85949895 C4.1488056,4.93348055 3.22194478,5.42633511 2.09647092,5.42633511 C1.56654583,5.47989044 1.03839752,5.30917467 0.640077821,4.95557859 C0.241758122,4.6019825 0.00963945881,4.09779461 0,3.56525742 L1.16961009,3.56525742 C1.16961009,4.23465691 1.58890427,4.47740617 2.16267526,4.47740617 C2.73644625,4.47740617 3.00126363,4.32292937 3.00126363,3.88156707 C3.00126363,3.44020477 2.47898491,3.36664439 1.39764728,2.9473502 C0.662043448,2.66782075 0.176544919,2.40300337 0.176544919,1.47614254 C0.176544919,0.549281715 1.05926952,0.00493488031 2.10382696,0.00493488031 C2.59713231,-0.0313342975 3.084136,0.133453254 3.45406144,0.461814032 Z"></path></clipPath><clipPath id="i14"><path d="M48.1526268,0.0919504788 L48.1526268,0.643653352 L0,0.643653352 L0,0.0919504788 L48.1526268,0.0919504788 Z"></path></clipPath></defs><g clip-path="url(#i0)"><g transform=""><g transform="translate(20.604852683941317 0.04010581962836568)"><g clip-path="url(#i1)"><polygon points="-4.4408921e-16,0 71.3267431,0 71.3267431,22.9598942 -4.4408921e-16,22.9598942 -4.4408921e-16,0" stroke="none" fill="#81BC00"></polygon></g></g><g clip-path="url(#i2)"><polygon points="0,5.42101086e-20 18.0224634,5.42101086e-20 18.0224634,18.0960437 0,18.0960437 0,5.42101086e-20" stroke="none" fill="#81BC00"></polygon></g><g transform="translate(9.457650070109594 7.31290354113986)"><g clip-path="url(#i3)"><polygon points="0,0 5.1546216,0 5.1546216,4.85021482 0,4.85021482 0,0" stroke="none" fill="#FFFFFF"></polygon></g></g><g transform="translate(3.416866483321428 4.952059787736574)"><g clip-path="url(#i4)"><polygon points="0,0 5.56049732,0 5.56049732,7.38693805 0,7.38693805 0,0" stroke="none" fill="#FFFFFF"></polygon></g></g></g><g transform="translate(96.16112956810632 6.808673217665976)"><g transform="translate(0.39722606852319586 2.614360075021779)"><g clip-path="url(#i5)"><polygon points="0,-1.95156391e-15 4.1488056,-1.95156391e-15 4.1488056,5.43547979 0,5.43547979 0,-1.95156391e-15" stroke="none" fill="#81BC00"></polygon></g></g><g transform="translate(5.52568538091532 2.6334593307816188)"><g clip-path="url(#i6)"><polygon points="0,-2.31323953e-14 5.33182716,-2.31323953e-14 5.33182716,5.40671724 0,5.40671724 0,-2.31323953e-14" stroke="none" fill="#81BC00"></polygon></g></g><g transform="translate(12.50526512017473 2.643830945814898)"><g clip-path="url(#i7)"><polygon points="0,-7.0343037e-16 4.7639808,-7.0343037e-16 4.7639808,5.31542921 0,5.31542921 0,-7.0343037e-16" stroke="none" fill="#81BC00"></polygon></g></g><g transform="translate(18.33860349682095 2.613841462001375)"><g clip-path="url(#i8)"><polygon points="0,-7.30318583e-16 4.1488056,-7.30318583e-16 4.1488056,5.4359984 0,5.4359984 0,-7.30318583e-16" stroke="none" fill="#81BC00"></polygon></g></g><g transform="translate(25.930035028597793 0.11603856993824024)"><g clip-path="url(#i9)"><polygon points="0,-7.07550338e-16 3.63388292,-7.07550338e-16 3.63388292,7.82115347 0,7.82115347 0,-7.07550338e-16" stroke="none" fill="#81BC00"></polygon></g></g><g transform="translate(30.47606670169671 2.6839300239618065)"><g clip-path="url(#i10)"><polygon points="0,-1.81755652e-15 3.26608101,-1.81755652e-15 3.26608101,5.21648182 0,5.21648182 0,-1.81755652e-15" stroke="none" fill="#81BC00"></polygon></g></g><g transform="translate(34.16274250611559 2.640815369087591)"><g clip-path="url(#i11)"><polygon points="0,-2.31323885e-14 5.36125131,-2.31323885e-14 5.36125131,5.40672968 0,5.40672968 0,-2.31323885e-14" stroke="none" fill="#81BC00"></polygon></g></g><g transform="translate(40.84759205510342 0.0)"><g clip-path="url(#i12)"><polygon points="0,0 1.78019292,0 1.78019292,7.91512392 0,7.91512392 0,0" stroke="none" fill="#81BC00"></polygon></g></g><g transform="translate(43.54039073312629 2.613841462001375)"><g clip-path="url(#i13)"><polygon points="0,-8.49147141e-16 4.1488056,-8.49147141e-16 4.1488056,5.4359984 0,5.4359984 0,-8.49147141e-16" stroke="none" fill="#81BC00"></polygon></g></g><g transform="translate(0.0 8.647049734069526)"><g clip-path="url(#i14)"><polygon points="0,0.0919504788 48.1526268,0.0919504788 48.1526268,0.643653352 0,0.643653352 0,0.0919504788" stroke="none" fill="#81BC00"></polygon></g></g></g></g></svg>