<?xml version="1.0" encoding="UTF-8"?><svg version="1.1" height="23px" viewBox="0 0 240.0 60.0" xmlns="http://www.w3.org/2000/svg" xmlns:xlink="http://www.w3.org/1999/xlink"><defs><clipPath id="i0"><path d="M240,0 L240,60 L0,60 L0,0 L240,0 Z"></path></clipPath><clipPath id="i1"><path d="M150.74093,0.0207466903 L163.993655,32.5084508 L177.264026,0.0207466903 L186.069765,0.0207466903 L168.422994,43.2376872 L164.046595,53.93163 L161.540754,59.8962383 L152.823249,59.8962383 L159.581962,43.2906275 L141.51167,0.0207466903 L150.74093,0.0207466903 Z M71.8951607,0.0207466903 C79.0824778,-0.284801185 85.9002168,3.21456927 89.8419261,9.23236079 C91.7886737,12.541037 92.7498885,16.3369173 92.612469,20.1733584 L92.612469,46.4846929 L84.2126063,46.4846929 L84.2126063,20.7733486 C84.2126063,12.0911376 80.0832621,7.71473854 71.8598671,7.71473854 L71.8951607,7.71473854 C63.7070592,7.71473854 59.5424215,12.0911376 59.5424215,20.7733486 L59.5424215,46.4846929 L51.1602056,46.4846929 L51.1602056,20.1733584 C51.0121195,16.3403676 51.9610304,12.5447239 53.895455,9.23236079 C57.8469621,3.19787446 64.6893227,-0.303804169 71.8951607,0.0207466903 Z M23.1724279,0.0207466903 C29.3457289,-0.0320857914 35.2797793,2.40541035 39.6334835,6.78236089 C43.9871877,11.1593114 46.3930494,17.1062578 46.3073437,23.2791899 C46.3073437,36.0659972 35.9415884,46.4317526 23.1547811,46.4317526 C10.3679738,46.4317526 0.00221846305,36.0659972 0.00221846305,23.2791899 C-0.0836617057,17.1000794 2.32700895,11.1476489 6.68840977,6.76963957 C11.0498106,2.39163022 16.9930355,-0.0416471559 23.1724279,0.0207466903 Z M119.559087,0.356035326 C131.995037,0.200098652 142.202778,10.1550162 142.358714,22.5909659 L142.394008,22.5380256 C142.394008,23.738006 142.21754,25.4850362 142.21754,26.349728 L105.900487,26.349728 C107.153193,33.2548307 113.107046,38.314867 120.123784,38.4377656 C124.498757,38.4649546 128.687233,36.6680663 131.682418,33.4790232 L140.858739,33.4790232 C140.832701,33.5846047 140.791067,33.6857144 140.735212,33.7790183 C136.670394,41.6019713 128.551016,46.4735986 119.735555,46.3788123 C113.715341,46.3559154 107.970498,43.8537171 103.853462,39.4612783 C99.6611856,35.0679396 97.3223494,29.2282733 97.3241567,23.1556626 C97.16822,10.7197128 107.123138,0.511972 119.559087,0.356035326 Z M23.1900746,8.27943519 C14.9059388,8.27943519 8.19031988,14.9950541 8.19031988,23.2791899 C8.12903315,27.3004396 9.67758497,31.1793722 12.4913834,34.0528272 C15.3051818,36.9262821 19.1507774,38.5558604 23.1724279,38.5789398 L23.2253682,38.5789398 C27.2424551,38.5464478 31.0807281,36.9133159 33.8896878,34.0414195 C36.6986475,31.1695232 38.2463428,27.2960108 38.1898294,23.2791899 C38.1898294,14.9950541 31.4742104,8.27943519 23.1900746,8.27943519 Z M119.832612,7.97559728 C113.221692,7.97559728 107.510214,12.5963985 106.129895,19.0616118 L133.535329,19.0616118 C132.155011,12.5963985 126.443532,7.97559728 119.832612,7.97559728 Z"></path></clipPath><clipPath id="i2"><path d="M23.5250905,0.000980977418 C29.7919905,-0.0518307955 35.8157966,2.42285488 40.2356836,6.86598695 C44.6555706,11.309119 47.0986251,17.345823 47.0129418,23.6123596 C47.0938367,29.8758576 44.6486657,35.9079749 40.2293066,40.3472559 C35.8099476,44.7865369 29.788889,47.2588141 23.5250905,47.2060915 C17.2566649,47.2634995 11.2292806,44.7938777 6.80329401,40.3546099 C2.37730747,35.915342 -0.0742437193,29.8805851 0.00194573722,23.6123596 C-0.0790296972,17.3410941 2.37040665,11.3017511 6.79692113,6.85863308 C11.2234356,2.41551502 17.2535658,-0.0565148795 23.5250905,0.000980977418 Z"></path></clipPath><clipPath id="i3"><path d="M4.72933444,0 L6.72341948,3.5646476 L8.7351513,0 L13.3762519,0 L9.12338025,6.28225023 L13.446839,12.6527343 L8.80573838,12.6527343 L6.72341948,8.98220608 L4.65874736,12.6527343 L0,12.6527343 L4.35875226,6.28225023 L0.0882338515,0 L4.72933444,0 Z"></path></clipPath><clipPath id="i4"><path d="M4.46463289,0 L4.46463289,10.1998332 L7.72928539,10.1998332 L7.72928539,4.90580214 L12.1586247,4.90580214 L12.1586247,10.1998332 L14.5056452,10.1998332 L14.5056452,13.9762421 L12.1586247,13.9762421 L12.1586247,19.2702732 L7.72928539,19.2702732 L7.72928539,13.9762421 L0,13.9762421 L0,0 L4.46463289,0 Z"></path></clipPath></defs><g clip-path="url(#i0)"><g transform=""><g transform="translate(53.75178961028179 0.10376167926574453)"><g clip-path="url(#i1)"><polygon points="0,0 186.069765,0 186.069765,59.8962383 0,59.8962383 0,0" stroke="none" fill="#81BC00"></polygon></g></g><g clip-path="url(#i2)"><polygon points="0,-2.16840434e-19 47.015122,-2.16840434e-19 47.015122,47.2070705 0,47.2070705 0,-2.16840434e-19" stroke="none" fill="#81BC00"></polygon></g><g transform="translate(24.67213061767779 19.07713967253875)"><g clip-path="url(#i3)"><polygon points="0,0 13.446839,0 13.446839,12.6527343 0,12.6527343 0,0" stroke="none" fill="#FFFFFF"></polygon></g></g><g transform="translate(8.913564739099456 12.918416837573721)"><g clip-path="url(#i4)"><polygon points="0,0 14.5056452,0 14.5056452,19.2702732 0,19.2702732 0,0" stroke="none" fill="#FFFFFF"></polygon></g></g></g></g></svg>
