<?xml version="1.0" encoding="UTF-8"?><svg version="1.1" width="150px" height="23px" viewBox="0 0 150.0 23.0" xmlns="http://www.w3.org/2000/svg" xmlns:xlink="http://www.w3.org/1999/xlink"><defs><clipPath id="i0"><path d="M150,0 L150,23 L0,23 L0,0 L150,0 Z"></path></clipPath><clipPath id="i1"><path d="M57.7840233,0.00762238869 L62.8642344,12.4612423 L67.95121,0.00762238869 L71.3267431,0.00762238869 L64.5621478,16.5741162 L62.8845282,20.673461 L61.9239556,22.9598942 L58.5822456,22.9598942 L61.1798501,16.59441 L54.24614,0.00762238869 L57.7840233,0.00762238869 Z M34.439405,3.53874113 C35.1856583,4.80706701 35.5541239,6.26215444 35.5014465,7.7327902 L35.5014465,17.8188018 L32.2814991,17.8188018 L32.2814991,7.96278644 C32.2814991,4.63460556 30.6985838,2.95698593 27.5462824,2.95698593 L27.5598116,2.95698593 C24.4210394,2.95698593 22.8245949,4.63460556 22.8245949,7.96278644 L22.8245949,17.8188018 L19.6114121,17.8188018 L19.6114121,7.7327902 C19.5580106,6.26382743 19.9215288,4.80975461 20.6599244,3.53874113 C22.1765477,1.22761341 24.7981716,-0.114041128 27.5598116,0.00762238869 C30.3149498,-0.109504297 32.9284164,1.23192105 34.439405,3.53874113 Z M8.88276402,0.00762238869 C11.2491961,-0.0126300626 13.5239154,0.921743459 15.1928353,2.5995745 C16.8617553,4.27740554 17.7840023,6.55706832 17.7511484,8.92335897 C17.7511484,13.8249684 13.7776089,17.798508 8.87599942,17.798508 C3.97438997,17.798508 0.000850410835,13.8249684 0.000850410835,8.92335897 C-0.0320703205,6.55469991 0.892020098,4.27293491 2.56389041,2.59469799 C4.23576073,0.916461075 6.51399694,-0.0162952523 8.88276402,0.00762238869 Z M45.8309834,0.136149699 C50.5980975,0.076373974 54.5110648,3.89242568 54.5708406,8.65953975 L54.5843697,8.63924597 C54.5843697,9.09923845 54.5167238,9.76893338 54.5167238,10.1003985 L40.5951867,10.1003985 C41.0753906,12.7473546 43.3577009,14.6870352 46.0474505,14.7341463 C47.7245236,14.7445688 49.3301061,14.0557616 50.4782604,12.833295 L53.99585,12.833295 C53.9858686,12.873768 53.9699091,12.9125267 53.9484978,12.9482932 C52.3903179,15.9470918 49.2778893,17.814549 45.8986294,17.7782142 C43.5908806,17.7694371 41.3886908,16.8102611 39.8104936,15.1264928 C38.2034545,13.4423797 37.3069006,11.2038409 37.3075934,8.8760068 C37.2478177,4.10889273 41.0638694,0.195925424 45.8309834,0.136149699 Z M8.88952861,3.17345298 C5.71394322,3.17345298 3.13962262,5.74777358 3.13962262,8.92335897 C3.11612937,10.464838 3.70974091,11.9517622 4.78836364,13.0532532 C5.86698638,14.1547443 7.34113135,14.779416 8.88276402,14.7882631 L8.9030578,14.7882631 C10.4429411,14.7758078 11.9142791,14.1497739 12.991047,13.0488803 C14.0678149,11.9479867 14.6610981,10.4631403 14.6394346,8.92335897 C14.6394346,5.74777358 12.065114,3.17345298 8.88952861,3.17345298 Z M45.9358347,3.05698178 C43.4016486,3.05698178 41.2122486,4.8282889 40.6831264,7.3066207 L51.1885429,7.3066207 C50.6594207,4.8282889 48.4700207,3.05698178 45.9358347,3.05698178 Z"></path></clipPath><clipPath id="i2"><path d="M9.01795138,0.000376041343 C11.420263,-0.0198684716 13.7293887,0.928761038 15.4236787,2.63196166 C17.1179687,4.33516229 18.054473,6.64923214 18.0216277,9.05140453 C18.0526374,11.4524121 17.1153218,13.7647237 15.4212342,15.4664481 C13.7271466,17.1681725 11.4190741,18.1158787 9.01795138,18.0956684 C6.61505488,18.1176748 4.30455755,17.1709864 2.60792937,15.4692671 C0.911301196,13.7675478 -0.0284600924,11.4542243 0.000745865933,9.05140453 C-0.0302947173,6.64741941 0.908655884,4.33233793 2.60548643,2.62914268 C4.30231698,0.925947424 6.61386689,-0.0216640372 9.01795138,0.000376041343 Z"></path></clipPath><clipPath id="i3"><path d="M1.81291154,0 L2.5773108,1.36644825 L3.34847466,0 L5.12756322,0 L3.49729576,2.40819592 L5.1546216,4.85021482 L3.37553305,4.85021482 L2.5773108,3.443179 L1.78585315,4.85021482 L0,4.85021482 L1.67085503,2.40819592 L0.0338229764,0 L1.81291154,0 Z"></path></clipPath><clipPath id="i4"><path d="M1.71144261,0 L1.71144261,3.90993607 L2.96289273,3.90993607 L2.96289273,1.88055749 L4.66080615,1.88055749 L4.66080615,3.90993607 L5.56049732,3.90993607 L5.56049732,5.35755946 L4.66080615,5.35755946 L4.66080615,7.38693805 L2.96289273,7.38693805 L2.96289273,5.35755946 L0,5.35755946 L0,0 L1.71144261,0 Z"></path></clipPath><clipPath id="i5"><path d="M2.24472794,0 C2.82096078,0 3.22518382,0.206411765 3.44879657,0.541830882 C3.64660784,0.842848039 3.70681127,1.17826716 3.70681127,1.72869853 L3.70681127,4.11103431 L2.76935784,4.11103431 L2.76935784,2.03831618 C2.76935784,1.35027696 2.57154657,0.825647059 1.90070833,0.825647059 C1.24707108,0.825647059 0.937453431,1.35027696 0.937453431,2.03831618 L0.937453431,4.11103431 L0,4.11103431 L0,0.103205882 L0.937453431,0.103205882 L0.937453431,0.662237745 C1.18686765,0.232213235 1.65129412,0 2.24472794,0 Z"></path></clipPath><clipPath id="i6"><path d="M1.97811275,0 C3.01877206,0 3.83581863,0.782644608 3.83581863,1.80610294 C3.83581863,1.94371078 3.83581863,2.13292157 3.79281618,2.39093627 L0.928852941,2.39093627 C0.971855392,2.96716912 1.22126961,3.43159559 2.00391422,3.43159559 C2.53714461,3.43159559 2.74355637,3.19078186 2.85536275,2.90696569 L3.80141667,2.90696569 C3.68961029,3.5950049 3.02737255,4.2142402 2.00391422,4.2142402 C0.653637255,4.2142402 0,3.28538725 0,2.1071201 C0,0.903051471 0.713840686,0 1.97811275,0 Z M1.95231127,0.705240196 C1.37607843,0.705240196 0.928852941,1.04065931 0.928852941,1.69429657 L2.92416667,1.69429657 C2.92416667,1.08366176 2.51994363,0.705240196 1.95231127,0.705240196 Z"></path></clipPath><clipPath id="i7"><path d="M1.64269363,0 C2.49414216,0 3.17358088,0.576232843 3.17358088,1.35887745 L2.26192892,1.35887745 C2.26192892,0.980455882 2.07271814,0.739642157 1.61689216,0.739642157 C1.29867402,0.739642157 1.04065931,0.89445098 1.04065931,1.17826716 C1.04065931,1.52228676 1.41048039,1.56528922 2.14152206,1.84910539 C2.70055392,2.06411765 3.23378431,2.26192892 3.23378431,2.99297059 C3.23378431,3.82721814 2.51134314,4.2142402 1.63409314,4.2142402 C0.774044118,4.2142402 0,3.70681127 0,2.76075735 L0.911651961,2.76075735 C0.911651961,3.28538725 1.23847059,3.47459804 1.68569608,3.47459804 C2.05551716,3.47459804 2.33933333,3.35419118 2.33933333,3.01017157 C2.33933333,2.63175 1.93511029,2.60594853 1.09226225,2.2791299 C0.533230392,2.06411765 0.137607843,1.85770588 0.137607843,1.16106618 C0.137607843,0.404223039 0.825647059,0 1.64269363,0 Z"></path></clipPath><clipPath id="i8"><path d="M1.64269363,0 C2.49414216,0 3.17358088,0.576232843 3.17358088,1.35887745 L2.26192892,1.35887745 C2.26192892,0.980455882 2.07271814,0.739642157 1.61689216,0.739642157 C1.29867402,0.739642157 1.04065931,0.89445098 1.04065931,1.17826716 C1.04065931,1.52228676 1.41048039,1.56528922 2.14152206,1.84910539 C2.70055392,2.06411765 3.23378431,2.26192892 3.23378431,2.99297059 C3.23378431,3.82721814 2.51134314,4.2142402 1.63409314,4.2142402 C0.774044118,4.2142402 0,3.70681127 0,2.76075735 L0.911651961,2.76075735 C0.911651961,3.28538725 1.23847059,3.47459804 1.68569608,3.47459804 C2.05551716,3.47459804 2.33933333,3.35419118 2.33933333,3.01017157 C2.33933333,2.63175 1.93511029,2.60594853 1.09226225,2.2791299 C0.533230392,2.06411765 0.137607843,1.85770588 0.137607843,1.16106618 C0.137607843,0.404223039 0.825647059,0 1.64269363,0 Z"></path></clipPath><clipPath id="i9"><path d="M0.937453431,0 L0.937453431,2.07271814 C0.937453431,2.76075735 1.13526471,3.28538725 1.80610294,3.28538725 C2.4597402,3.28538725 2.76935784,2.76075735 2.76935784,2.07271814 L2.76935784,0 L3.70681127,0 L3.70681127,4.00782843 L2.76935784,4.00782843 L2.76935784,3.44879657 C2.51994363,3.87882108 2.05551716,4.11103431 1.46208333,4.11103431 C0.88585049,4.11103431 0.481627451,3.90462255 0.258014706,3.56920343 C0.0602034314,3.26818627 0,2.93276716 0,2.38233578 L0,0 L0.937453431,0 Z"></path></clipPath><clipPath id="i10"><path d="M2.24472794,0 C2.82096078,0 3.22518382,0.206411765 3.44879657,0.541830882 C3.64660784,0.842848039 3.70681127,1.17826716 3.70681127,1.72869853 L3.70681127,4.11103431 L2.76935784,4.11103431 L2.76935784,2.03831618 C2.76935784,1.35027696 2.57154657,0.825647059 1.90070833,0.825647059 C1.24707108,0.825647059 0.937453431,1.35027696 0.937453431,2.03831618 L0.937453431,4.11103431 L0,4.11103431 L0,0.103205882 L0.937453431,0.103205882 L0.937453431,0.662237745 C1.18686765,0.232213235 1.65129412,0 2.24472794,0 Z"></path></clipPath><clipPath id="i11"><path d="M2.05551716,0 C2.51994363,0 3.04457353,0.240813725 3.29398775,0.645036765 L3.29398775,0.103205882 L4.23144118,0.103205882 L4.23144118,4.11103431 L3.29398775,4.11103431 L3.29398775,3.56920343 C3.04457353,3.97342647 2.51994363,4.2142402 2.05551716,4.2142402 C0.834247549,4.2142402 0,3.2423848 0,2.1071201 C0,0.971855392 0.834247549,0 2.05551716,0 Z M2.1071201,0.834247549 C1.4018799,0.834247549 0.937453431,1.41908088 0.937453431,2.1071201 C0.937453431,2.79515931 1.4018799,3.37999265 2.1071201,3.37999265 C2.82956127,3.37999265 3.29398775,2.79515931 3.29398775,2.1071201 C3.29398775,1.41908088 2.82956127,0.834247549 2.1071201,0.834247549 Z"></path></clipPath><clipPath id="i12"><path d="M1.99531373,0 C3.30258824,0 3.83581863,0.791245098 3.89602206,1.56528922 L2.95856863,1.56528922 C2.90696569,1.12666422 2.64895098,0.834247549 2.01251471,0.834247549 C1.29007353,0.834247549 0.937453431,1.42768137 0.937453431,2.1071201 C0.937453431,2.79515931 1.26427206,3.37999265 2.07271814,3.37999265 C2.62314951,3.37999265 2.84676225,3.13917892 2.96716912,2.73495588 L3.90462255,2.73495588 C3.7756152,3.56920343 3.16498039,4.2142402 2.00391422,4.2142402 C0.696639706,4.2142402 0,3.19938235 0,2.1071201 C0,1.02345833 0.696639706,0 1.99531373,0 Z"></path></clipPath><clipPath id="i13"><path d="M2.1071201,0 C3.39719363,0 4.23144118,0.971855392 4.23144118,2.1071201 C4.23144118,3.2423848 3.39719363,4.2142402 2.1071201,4.2142402 C0.834247549,4.2142402 0,3.2423848 0,2.1071201 C0,0.971855392 0.834247549,0 2.1071201,0 Z M2.1071201,0.834247549 C1.4018799,0.834247549 0.937453431,1.41908088 0.937453431,2.1071201 C0.937453431,2.79515931 1.4018799,3.37999265 2.1071201,3.37999265 C2.82956127,3.37999265 3.29398775,2.79515931 3.29398775,2.1071201 C3.29398775,1.41908088 2.82956127,0.834247549 2.1071201,0.834247549 Z"></path></clipPath><clipPath id="i14"><path d="M4.54965931,0 C5.75372794,0 5.99454167,0.825647059 5.99454167,1.57388971 L5.99454167,4.11103431 L5.05708824,4.11103431 L5.05708824,1.86630637 C5.05708824,1.2298701 4.83347549,0.825647059 4.30884559,0.825647059 C3.83581863,0.825647059 3.46599755,1.11806373 3.46599755,2.07271814 L3.46599755,4.11103431 L2.52854412,4.11103431 L2.52854412,1.85770588 C2.52854412,1.22126961 2.32213235,0.825647059 1.79750245,0.825647059 C1.32447549,0.825647059 0.937453431,1.11806373 0.937453431,2.07271814 L0.937453431,4.11103431 L0,4.11103431 L0,0.103205882 L0.937453431,0.103205882 L0.937453431,0.662237745 C1.10946324,0.292416667 1.53088725,0 2.05551716,0 C2.78655882,0 3.14777941,0.318218137 3.31978922,0.713840686 C3.509,0.309617647 3.98202696,0 4.54965931,0 Z"></path></clipPath><clipPath id="i15"><path d="M4.54965931,0 C5.75372794,0 5.99454167,0.825647059 5.99454167,1.57388971 L5.99454167,4.11103431 L5.05708824,4.11103431 L5.05708824,1.86630637 C5.05708824,1.2298701 4.83347549,0.825647059 4.30884559,0.825647059 C3.83581863,0.825647059 3.46599755,1.11806373 3.46599755,2.07271814 L3.46599755,4.11103431 L2.52854412,4.11103431 L2.52854412,1.85770588 C2.52854412,1.22126961 2.32213235,0.825647059 1.79750245,0.825647059 C1.32447549,0.825647059 0.937453431,1.11806373 0.937453431,2.07271814 L0.937453431,4.11103431 L0,4.11103431 L0,0.103205882 L0.937453431,0.103205882 L0.937453431,0.662237745 C1.10946324,0.292416667 1.53088725,0 2.05551716,0 C2.78655882,0 3.14777941,0.318218137 3.31978922,0.713840686 C3.509,0.309617647 3.98202696,0 4.54965931,0 Z"></path></clipPath><clipPath id="i16"><path d="M1.16106618,2.15872304 L1.16106618,6.16655147 L0.223612745,6.16655147 L0.223612745,2.15872304 L1.16106618,2.15872304 Z M0.688039216,0 C1.07506127,0 1.38467892,0.309617647 1.38467892,0.696639706 C1.38467892,1.07506127 1.07506127,1.38467892 0.688039216,1.38467892 C0.309617647,1.38467892 0,1.07506127 0,0.696639706 C0,0.309617647 0.309617647,0 0.688039216,0 Z"></path></clipPath><clipPath id="i17"><path d="M1.64269363,0 C2.49414216,0 3.17358088,0.576232843 3.17358088,1.35887745 L2.26192892,1.35887745 C2.26192892,0.980455882 2.07271814,0.739642157 1.61689216,0.739642157 C1.29867402,0.739642157 1.04065931,0.89445098 1.04065931,1.17826716 C1.04065931,1.52228676 1.41048039,1.56528922 2.14152206,1.84910539 C2.70055392,2.06411765 3.23378431,2.26192892 3.23378431,2.99297059 C3.23378431,3.82721814 2.51134314,4.2142402 1.63409314,4.2142402 C0.774044118,4.2142402 0,3.70681127 0,2.76075735 L0.911651961,2.76075735 C0.911651961,3.28538725 1.23847059,3.47459804 1.68569608,3.47459804 C2.05551716,3.47459804 2.33933333,3.35419118 2.33933333,3.01017157 C2.33933333,2.63175 1.93511029,2.60594853 1.09226225,2.2791299 C0.533230392,2.06411765 0.137607843,1.85770588 0.137607843,1.16106618 C0.137607843,0.404223039 0.825647059,0 1.64269363,0 Z"></path></clipPath><clipPath id="i18"><path d="M1.16106618,2.15872304 L1.16106618,6.16655147 L0.223612745,6.16655147 L0.223612745,2.15872304 L1.16106618,2.15872304 Z M0.688039216,0 C1.07506127,0 1.38467892,0.309617647 1.38467892,0.696639706 C1.38467892,1.07506127 1.07506127,1.38467892 0.688039216,1.38467892 C0.309617647,1.38467892 0,1.07506127 0,0.696639706 C0,0.309617647 0.309617647,0 0.688039216,0 Z"></path></clipPath><clipPath id="i19"><path d="M2.1071201,0 C3.39719363,0 4.23144118,0.971855392 4.23144118,2.1071201 C4.23144118,3.2423848 3.39719363,4.2142402 2.1071201,4.2142402 C0.834247549,4.2142402 0,3.2423848 0,2.1071201 C0,0.971855392 0.834247549,0 2.1071201,0 Z M2.1071201,0.834247549 C1.4018799,0.834247549 0.937453431,1.41908088 0.937453431,2.1071201 C0.937453431,2.79515931 1.4018799,3.37999265 2.1071201,3.37999265 C2.82956127,3.37999265 3.29398775,2.79515931 3.29398775,2.1071201 C3.29398775,1.41908088 2.82956127,0.834247549 2.1071201,0.834247549 Z"></path></clipPath><clipPath id="i20"><path d="M2.24472794,0 C2.82096078,0 3.22518382,0.206411765 3.44879657,0.541830882 C3.64660784,0.842848039 3.70681127,1.17826716 3.70681127,1.72869853 L3.70681127,4.11103431 L2.76935784,4.11103431 L2.76935784,2.03831618 C2.76935784,1.35027696 2.57154657,0.825647059 1.90070833,0.825647059 C1.24707108,0.825647059 0.937453431,1.35027696 0.937453431,2.03831618 L0.937453431,4.11103431 L0,4.11103431 L0,0.103205882 L0.937453431,0.103205882 L0.937453431,0.662237745 C1.18686765,0.232213235 1.65129412,0 2.24472794,0 Z"></path></clipPath><clipPath id="i21"><path d="M1.97811275,0 C3.01877206,0 3.83581863,0.782644608 3.83581863,1.80610294 C3.83581863,1.94371078 3.83581863,2.13292157 3.79281618,2.39093627 L0.928852941,2.39093627 C0.971855392,2.96716912 1.22126961,3.43159559 2.00391422,3.43159559 C2.53714461,3.43159559 2.74355637,3.19078186 2.85536275,2.90696569 L3.80141667,2.90696569 C3.68961029,3.5950049 3.02737255,4.2142402 2.00391422,4.2142402 C0.653637255,4.2142402 0,3.28538725 0,2.1071201 C0,0.903051471 0.713840686,0 1.97811275,0 Z M1.95231127,0.705240196 C1.37607843,0.705240196 0.928852941,1.04065931 0.928852941,1.69429657 L2.92416667,1.69429657 C2.92416667,1.08366176 2.51994363,0.705240196 1.95231127,0.705240196 Z"></path></clipPath><clipPath id="i22"><path d="M34.3933603,0 L34.3933603,0.726593137 L17.2697843,0.726593137 L9.46053922,0.726593137 L0,0.726593137 L0,0 L9.46,0 L17.2697843,0 L34.3933603,0 Z"></path></clipPath><clipPath id="i23"><path d="M23.8577598,0 L29.9555074,0 L33.8601299,0 L36.0532549,0 L50.0118505,0 L50.0118505,0.726593137 L36.0532549,0.726593137 L33.8601299,0.726593137 L29.9555074,0.726593137 L23.8577598,0.726593137 L16.66775,0.726593137 L9.4777402,0.726593137 L0,0.726593137 L0,0 L9.477,0 L16.66775,0 L23.8577598,0 Z"></path></clipPath></defs><g clip-path="url(#i0)"><g transform=""><g transform="translate(20.604852683941317 0.04010581962836568)"><g clip-path="url(#i1)"><polygon points="-4.4408921e-16,-4.4408921e-16 71.3267431,-4.4408921e-16 71.3267431,22.9598942 -4.4408921e-16,22.9598942 -4.4408921e-16,-4.4408921e-16" stroke="none" fill="#81BC00"></polygon></g></g><g clip-path="url(#i2)"><polygon points="0,0 18.0224634,0 18.0224634,18.0960437 0,18.0960437 0,0" stroke="none" fill="#81BC00"></polygon></g><g transform="translate(9.457650070109594 7.312903541139861)"><g clip-path="url(#i3)"><polygon points="0,0 5.1546216,0 5.1546216,4.85021482 0,4.85021482 0,0" stroke="none" fill="#FFFFFF"></polygon></g></g><g transform="translate(3.4168664833214275 4.95205978773663)"><g clip-path="url(#i4)"><polygon points="0,0 5.56049732,0 5.56049732,7.38693805 0,7.38693805 0,0" stroke="none" fill="#FFFFFF"></polygon></g></g></g><g transform="translate(99.99999999999979 4.065928921568682)"><g transform="translate(0.34401960784316543 0.0)"><g transform="translate(0.2838161764705094 0.0)"><g clip-path="url(#i5)"><polygon points="0,0 3.70681127,0 3.70681127,4.11103431 0,4.11103431 0,0" stroke="none" fill="#81BC00"></polygon></g></g><g transform="translate(4.893678921568608 0.0)"><g clip-path="url(#i6)"><polygon points="0,0 3.83581863,0 3.83581863,4.2142402 0,4.2142402 0,0" stroke="none" fill="#81BC00"></polygon></g></g><g transform="translate(9.42613725490196 0.0)"><g clip-path="url(#i7)"><polygon points="0,0 3.23378431,0 3.23378431,4.2142402 0,4.2142402 0,0" stroke="none" fill="#81BC00"></polygon></g></g><g transform="translate(13.33075980392164 0.0)"><g clip-path="url(#i8)"><polygon points="0,0 3.23378431,0 3.23378431,4.2142402 0,4.2142402 0,0" stroke="none" fill="#81BC00"></polygon></g></g><g transform="translate(17.48479656862742 0.10320588235302353)"><g clip-path="url(#i9)"><polygon points="0,0 3.70681127,0 3.70681127,4.11103431 0,4.11103431 0,0" stroke="none" fill="#81BC00"></polygon></g></g><g transform="translate(22.44727941176484 0.0)"><g clip-path="url(#i10)"><polygon points="0,0 3.70681127,0 3.70681127,4.11103431 0,4.11103431 0,0" stroke="none" fill="#81BC00"></polygon></g></g><g transform="translate(27.03994117647062 0.0)"><g clip-path="url(#i11)"><polygon points="0,0 4.23144118,0 4.23144118,4.2142402 0,4.2142402 0,0" stroke="none" fill="#81BC00"></polygon></g></g><g transform="translate(0.0 8.897058823529392)"><g clip-path="url(#i12)"><polygon points="0,0 3.90462255,0 3.90462255,4.2142402 0,4.2142402 0,0" stroke="none" fill="#81BC00"></polygon></g></g><g transform="translate(4.575460784313691 8.897058823529392)"><g clip-path="url(#i13)"><polygon points="0,0 4.23144118,0 4.23144118,4.2142402 0,4.2142402 0,0" stroke="none" fill="#81BC00"></polygon></g></g><g transform="translate(9.761556372548966 8.897058823529392)"><g clip-path="url(#i14)"><polygon points="0,0 5.99454167,0 5.99454167,4.11103431 0,4.11103431 0,0" stroke="none" fill="#81BC00"></polygon></g></g><g transform="translate(16.95156617647058 8.897058823529392)"><g clip-path="url(#i15)"><polygon points="0,0 5.99454167,0 5.99454167,4.11103431 0,4.11103431 0,0" stroke="none" fill="#81BC00"></polygon></g></g><g transform="translate(23.91796323529411 6.8415416666667)"><g clip-path="url(#i16)"><polygon points="0,0 1.38467892,0 1.38467892,6.16655147 0,6.16655147 0,0" stroke="none" fill="#81BC00"></polygon></g></g><g transform="translate(26.016482843137275 8.897058823529392)"><g clip-path="url(#i17)"><polygon points="0,0 3.23378431,0 3.23378431,4.2142402 0,4.2142402 0,0" stroke="none" fill="#81BC00"></polygon></g></g><g transform="translate(29.92110539215696 8.897058823529392)"><g clip-path="url(#i17)"><polygon points="0,0 3.23378431,0 3.23378431,4.2142402 0,4.2142402 0,0" stroke="none" fill="#81BC00"></polygon></g></g><g transform="translate(33.92033333333325 6.8415416666667)"><g clip-path="url(#i18)"><polygon points="0,0 1.38467892,0 1.38467892,6.16655147 0,6.16655147 0,0" stroke="none" fill="#81BC00"></polygon></g></g><g transform="translate(36.03605392156874 8.897058823529392)"><g clip-path="url(#i19)"><polygon points="0,0 4.23144118,0 4.23144118,4.2142402 0,4.2142402 0,0" stroke="none" fill="#81BC00"></polygon></g></g><g transform="translate(41.22214950980378 8.897058823529392)"><g clip-path="url(#i20)"><polygon points="0,0 3.70681127,0 3.70681127,4.11103431 0,4.11103431 0,0" stroke="none" fill="#81BC00"></polygon></g></g><g transform="translate(45.83201225490188 8.897058823529392)"><g clip-path="url(#i21)"><polygon points="0,0 3.82396814,0 3.82396814,4.2142402 0,4.2142402 0,0" stroke="none" fill="#81BC00"></polygon></g></g></g><g transform="translate(0.0 4.971083333333354)"><g clip-path="url(#i22)"><polygon points="0,0 34.3933603,0 34.3933603,0.726593137 0,0.726593137 0,0" stroke="none" fill="#81BC00"></polygon></g><g transform="translate(0.0 8.897058823529392)"><g clip-path="url(#i23)"><polygon points="0,0 50,0 50,0.726593137 0,0.726593137 0,0" stroke="none" fill="#81BC00"></polygon></g></g></g></g></g></svg>