<?xml version="1.0" encoding="UTF-8"?>
<svg width="143px" height="23px" viewBox="0 0 143 23" version="1.1" xmlns="http://www.w3.org/2000/svg" xmlns:xlink="http://www.w3.org/1999/xlink">
    <!-- Generator: Sketch 52.2 (67145) - http://www.bohemiancoding.com/sketch -->
    <title>logos scheme PostePay</title>
    <desc>Created with Sketch.</desc>
    <g id="Page-1" stroke="none" stroke-width="1" fill="none" fill-rule="evenodd">
        <g id="logos-scheme-PostePay" transform="translate(1.000000, 1.000000)" fill-rule="nonzero">
            <g id="postepay" transform="translate(108.667018, 0.000000)">
                <g id="Group">
                    <rect id="Rectangle" stroke="#979797" stroke-width="0.91125" fill="#F5E11C" x="0.279317974" y="0.159355365" width="32.1836754" height="21.3435466" rx="3.24"></rect>
                    <path d="M4.32400557,9.26175557 C4.48332649,9.18722306 4.66775123,9.15709119 4.83973013,9.15709119 C5.18291007,9.15709119 5.47369018,9.27642293 5.68512806,9.51468784 C5.9100725,9.75303247 6.02936872,10.0957226 6.06797911,10.5127061 C6.09499225,10.8109956 6.06797911,11.1384604 5.98884902,11.4809114 C5.92273049,11.8233624 5.81736513,12.1210142 5.67162149,12.3748233 C5.5133613,12.6873816 5.30220629,12.9260451 5.03766144,13.0894587 C4.82622356,13.2382845 4.58862114,13.3128968 4.32400557,13.3427098 L4.32400557,12.7473265 C4.41713724,12.7168758 4.50899604,12.672794 4.58862114,12.6279948 C4.76060004,12.508663 4.90584866,12.3300241 5.02464988,12.0919984 C5.14345109,11.8534146 5.23608776,11.6004823 5.30220629,11.3170993 C5.36782981,11.0340352 5.38133638,10.7658776 5.36782981,10.5126264 C5.3413824,10.2447877 5.26253517,10.0360169 5.13022739,9.87252364 C4.98497875,9.70847239 4.7999883,9.63417901 4.58862114,9.63417901 C4.49598447,9.63417901 4.40363067,9.64876666 4.32400557,9.67889852 C4.32400557,9.67905795 4.32400557,9.26175557 4.32400557,9.26175557 Z M1.98567239,14.7726181 L2.89718885,10.259455 C2.92420198,10.0808161 2.94987153,9.91732286 2.97631895,9.7383651 C2.98982551,9.55940736 3.00333208,9.3953561 3.01599006,9.21695635 L3.65051583,9.21695635 L3.59733814,9.82748527 C3.79576447,9.60436601 3.99426149,9.42508939 4.1921928,9.32130187 C4.23186391,9.29085116 4.28482946,9.27658236 4.32393486,9.26167585 L4.32393486,9.67897824 C4.23186391,9.70847239 4.13951011,9.76817812 4.04637845,9.82748527 C3.87546028,9.96140466 3.72964593,10.1555878 3.62357342,10.3936135 C3.5047722,10.6319582 3.41213554,10.9143846 3.34651202,11.2272617 C3.28039348,11.5553642 3.26688692,11.8079777 3.28039348,12.0170673 C3.29333433,12.255093 3.37303014,12.4334928 3.5047722,12.5825578 C3.63707999,12.7164772 3.80905889,12.7910894 4.01993104,12.7910894 C4.1257914,12.7910894 4.23186391,12.7761829 4.32372272,12.7469279 L4.32372272,13.3423112 C4.2845466,13.3423112 4.24459262,13.3423112 4.2049215,13.3423112 C3.95437822,13.3423112 3.7558812,13.2829243 3.57096145,13.1785788 C3.39947755,13.0741536 3.24072236,12.9101023 3.10841458,12.7016504 L2.68560954,14.7719804 L1.9857431,14.7719804 L1.9857431,14.7726181 L1.98567239,14.7726181 Z" id="Shape" fill="#0356A2"></path>
                    <path d="M21.2777167,9.85737799 C21.1985866,9.85737799 21.132468,9.87260335 21.053338,9.887191 L21.053338,9.30647508 C21.0925141,9.29124972 21.1189615,9.27666207 21.1459746,9.26199471 C21.3303994,9.15733033 21.5423323,9.11284996 21.766711,9.11284996 C22.1104567,9.11284996 22.3880131,9.23186285 22.5859443,9.45554011 C22.7843707,9.67921737 22.9031719,10.0067619 22.9296901,10.4383331 C22.9958086,11.242806 22.8635715,11.9279471 22.5198258,12.4790892 C22.1895868,13.0452174 21.7405465,13.3282816 21.1854336,13.3282816 C21.1462576,13.3282816 21.092797,13.3133751 21.0536916,13.3133751 L21.0536916,12.538476 C21.1328217,12.5238884 21.2119518,12.47885 21.2780703,12.4194631 C21.3968715,12.3150379 21.4895082,12.166212 21.581862,11.9574413 C21.6744987,11.7340031 21.7538409,11.4808317 21.8068064,11.2129132 C21.8594891,10.9447556 21.8729249,10.7213972 21.8594891,10.5277721 C21.8465483,10.3043339 21.7803589,10.1402827 21.6880052,10.036256 C21.5815084,9.91732286 21.4492006,9.85737799 21.2777167,9.85737799 Z M21.053338,9.887191 C20.8414051,9.96172352 20.6564147,10.1556675 20.511166,10.4384128 C20.2997282,10.8404898 20.220103,11.287924 20.2606227,11.7791212 C20.2865752,12.0323723 20.3397528,12.2262366 20.4585541,12.359598 C20.5638488,12.4941551 20.709663,12.5686876 20.8940878,12.5686876 C20.9472654,12.5686876 20.9999482,12.5534622 21.0534087,12.5385557 L21.0534087,13.3131359 C20.8549824,13.2985483 20.6830035,13.2386034 20.5376842,13.1494035 C20.3526937,13.0449783 20.2074451,12.8663394 20.1021504,12.6432201 L19.6787796,14.7728572 L18.5819899,14.7728572 L19.4278828,10.4538773 C19.5331775,9.90233664 19.5993667,9.48535312 19.6258141,9.2172752 L20.6170264,9.2172752 L20.5905789,9.7085521 C20.7488391,9.54450084 20.893805,9.41058146 21.0531258,9.30615623 L21.0531258,9.887191 L21.053338,9.887191 Z" id="Shape" fill="#0356A2"></path>
                    <path d="M25.4001896,11.3320855 C25.3737421,11.317179 25.3475069,11.317179 25.3210595,11.317179 C25.2813883,11.317179 25.254941,11.317179 25.2022582,11.317179 C25.0302794,11.317179 24.8720192,11.3320855 24.7397114,11.3765659 L24.7397114,10.7212378 C24.88496,10.7063313 25.0569389,10.7063313 25.2287057,10.7063313 C25.3078358,10.7063313 25.3739543,10.7063313 25.4136961,10.7063313 C25.4533672,10.7063313 25.4928262,10.7063313 25.5324974,10.7063313 C25.5589447,10.5575054 25.58518,10.453399 25.58518,10.3636411 C25.5986866,10.2891086 25.5986866,10.2302797 25.5986866,10.1703348 C25.58518,10.0510031 25.546004,9.96180323 25.4663788,9.90249607 C25.4002603,9.8431092 25.2948949,9.8127382 25.1625872,9.8127382 C25.0038319,9.8127382 24.8850308,9.8574577 24.8059007,9.93206994 C24.7788875,9.96188294 24.7532179,9.97655031 24.7397821,10.0218278 L24.7397821,9.18722306 C24.8720899,9.15709119 25.0173385,9.15709119 25.1625872,9.15709119 C25.625134,9.15709119 25.968809,9.23162371 26.2199179,9.41066117 C26.4575203,9.58961893 26.5898282,9.84287006 26.6162756,10.1852414 C26.6297822,10.2893477 26.6297822,10.3940121 26.6162756,10.513025 C26.602769,10.6174502 26.5766044,10.7513696 26.5495913,10.885847 L26.2725299,12.2558105 C26.2328588,12.4198617 26.2198472,12.5835941 26.1929048,12.7625519 C26.1799639,12.9409516 26.1799639,13.104684 26.1799639,13.2836418 L25.1758109,13.2836418 C25.1758109,13.1944419 25.1758109,13.104684 25.1758109,13.0005776 C25.1758109,12.8964713 25.1887517,12.8072714 25.1887517,12.702607 C25.0570096,12.9108198 24.8982545,13.0751102 24.7397114,13.1646289 L24.7397114,12.5385557 C24.8455717,12.4789297 24.9511493,12.3897298 25.0569389,12.2554916 C25.2284935,12.0174658 25.3475776,11.7042698 25.4001896,11.3320855 Z M24.7397821,11.376805 C24.5945335,11.4215246 24.4757322,11.4812303 24.3698719,11.5703505 C24.1449275,11.7340828 24.0531393,11.9428536 24.078809,12.1811982 C24.078809,12.3151176 24.11848,12.4195429 24.1981758,12.4940754 C24.2642944,12.5686079 24.3564361,12.5985006 24.4757322,12.5985006 C24.5683689,12.5985006 24.6607227,12.5832753 24.7397821,12.5388746 L24.7397821,13.1646289 L24.7127689,13.1795354 C24.5418508,13.2839606 24.3560824,13.3432678 24.1319866,13.3432678 C23.8147591,13.3432678 23.56365,13.2388425 23.3657188,13.045616 C23.1672925,12.8520706 23.0619271,12.5988195 23.0354796,12.270717 C22.9958086,11.7645336 23.1672218,11.3771239 23.537132,11.1089663 C23.8276292,10.9004347 24.2245525,10.7665153 24.7397114,10.7214769 L24.7397821,11.376805 Z M24.7397821,9.18714333 L24.7397821,10.0217481 C24.6870994,10.0960415 24.660652,10.2001479 24.6339217,10.3193999 L23.5905925,10.3193999 C23.6170399,9.94657787 23.7755122,9.66407173 24.0396328,9.45561982 C24.2372813,9.32138158 24.4622257,9.23162371 24.7397821,9.18714333 Z" id="Shape" fill="#0356A2"></path>
                    <polygon id="Path" fill="#0356A2" points="26.8012661 14.7583493 27.6731114 13.2687353 27.0388685 9.18714333 28.1226467 9.18714333 28.4264383 11.9879717 29.8269491 9.18714333 30.8581154 9.18714333 28.6113581 13.4324677 27.9638915 14.7583493"></polygon>
                    <path d="M8.14318175,9.60444572 C8.05054509,9.60444572 7.97120285,9.61903336 7.87913191,9.64860723 L7.87913191,9.12783618 C7.98442656,9.11229197 8.10351064,9.11229197 8.22231185,9.11229197 C8.64511689,9.11229197 8.97592169,9.23130485 9.22703069,9.45498211 C9.49108053,9.69332674 9.62338831,10.0211104 9.66256443,10.4377751 C9.68957756,10.7658776 9.66256443,11.1234742 9.56992776,11.4954194 C9.49079767,11.8679225 9.37199646,12.195467 9.21324126,12.4636247 C9.0282508,12.7765018 8.81688364,12.9999399 8.55276308,13.1338593 C8.36727762,13.2382845 8.14289889,13.2982294 7.87884905,13.3274047 L7.87884905,12.8069525 C7.9841437,12.7768207 8.09028693,12.73242 8.1693463,12.6730331 C8.32810149,12.5686079 8.46040928,12.4045566 8.57871549,12.1815171 C8.71102328,11.9279471 8.80415494,11.6449627 8.86977847,11.3323247 C8.935897,11.004541 8.96241512,10.7367023 8.94940357,10.4980388 C8.92239043,10.1851616 8.8435432,9.96172352 8.71123542,9.82780412 C8.57871549,9.67905795 8.39429075,9.60444572 8.14318175,9.60444572 Z M7.87913191,9.64892609 C7.78600025,9.67937681 7.6807056,9.7234586 7.58806893,9.78316433 C7.42931374,9.91740258 7.28427726,10.0960415 7.1652639,10.3343861 C7.04646268,10.5578242 6.95333102,10.825663 6.88770749,11.1531278 C6.82158896,11.4812303 6.80808239,11.7642944 6.82158896,12.002639 C6.8345298,12.2704778 6.92688361,12.4643421 7.05919138,12.6134868 C7.20500574,12.7626316 7.38992549,12.8369249 7.6270329,12.8369249 C7.71966957,12.8369249 7.7990118,12.8216996 7.8786369,12.8071119 L7.8786369,13.3282019 C7.78550524,13.3282019 7.68021059,13.3431084 7.57435022,13.3431084 C7.15154519,13.3431084 6.80808239,13.2244143 6.55725626,12.9708443 C6.2926407,12.7324997 6.14739207,12.3901284 6.12122752,11.9579195 C6.0947801,11.6008809 6.12122752,11.2432842 6.22652217,10.8561137 C6.31965383,10.4686243 6.4514666,10.1411596 6.63638635,9.85777656 C6.80787025,9.60484429 7.01923741,9.42588653 7.28385296,9.29164829 C7.45583187,9.21767377 7.66726974,9.1577289 7.87870762,9.1284739 L7.87870762,9.64892609 L7.87913191,9.64892609 Z" id="Shape" fill="#0356A2"></path>
                    <path d="M10.3896561,11.9429333 C10.3632087,12.0174658 10.3494193,12.0768527 10.3494193,12.1362396 C10.3364785,12.1956265 10.3364785,12.2406648 10.3494193,12.2853843 C10.3634209,12.4494356 10.4161036,12.5684485 10.5213982,12.642981 C10.6266928,12.7321809 10.7725072,12.7619939 10.9839451,12.7619939 C11.2615015,12.7619939 11.4729394,12.702049 11.6314117,12.5827173 C11.7901669,12.4491167 11.8563561,12.2850655 11.8433446,12.0917592 C11.8433446,11.9724275 11.7901669,11.8680819 11.6970352,11.7785632 C11.6049643,11.6890445 11.4199738,11.5700316 11.1291937,11.4212057 C10.7592835,11.2273414 10.4952336,11.0489417 10.3494193,10.8852093 C10.1911591,10.7360645 10.1123119,10.5425191 10.098876,10.3336687 C10.0724286,9.97607202 10.1915127,9.69324703 10.4426217,9.45498211 C10.7072372,9.23130485 11.0639237,9.11229197 11.5129641,9.11229197 C11.9228283,9.11229197 12.2266199,9.18682449 12.4244805,9.32106273 C12.6359184,9.45498211 12.7417081,9.64852752 12.7682261,9.93159166 C12.7682261,9.97607202 12.7682261,10.0213495 12.7682261,10.0807364 C12.7682261,10.1248979 12.7682261,10.1994304 12.7547196,10.3041745 L12.107253,10.3041745 C12.107253,10.259455 12.107253,10.2146558 12.107253,10.1848428 C12.107253,10.1553486 12.107253,10.1105494 12.107253,10.0807364 C12.0943122,9.93159166 12.0416294,9.81225991 11.9357691,9.73828539 C11.8436982,9.66375288 11.6976009,9.61895365 11.4997403,9.61895365 C11.2753616,9.61895365 11.1033827,9.67889852 10.9845815,9.78300491 C10.8528394,9.88711129 10.799591,10.036256 10.8126026,10.2148949 C10.8261092,10.3193202 10.8657803,10.4234266 10.958417,10.4976402 C11.037547,10.5871589 11.2359734,10.7061718 11.539765,10.8699042 C11.96257,11.0935815 12.2534209,11.2872066 12.3722221,11.4363514 C12.4910234,11.5846192 12.5701535,11.7784835 12.58366,12.0018419 C12.6101074,12.3743451 12.4783653,12.7018896 12.1608549,12.9553798 C11.8570633,13.2083121 11.4471991,13.3422315 10.944769,13.3422315 C10.5484113,13.3422315 10.2446197,13.2527128 10.0067344,13.1038869 C9.78178993,12.9398356 9.66298872,12.7163975 9.63682416,12.4187457 C9.62388331,12.3588009 9.62388331,12.2848263 9.63682416,12.1950685 C9.65033073,12.1205359 9.66327157,12.0313361 9.67649528,11.9421362 L10.3898683,11.9421362 L10.3898683,11.9429333 L10.3896561,11.9429333 Z" id="Path" fill="#0356A2"></path>
                    <path d="M14.7365077,13.2833229 C14.6047657,13.2985483 14.4859644,13.3131359 14.3798212,13.3278033 C14.2745266,13.3278033 14.1683834,13.3427098 14.0760296,13.3427098 C13.8119797,13.3427098 13.6140484,13.2985483 13.4946814,13.1942027 C13.3629394,13.1044449 13.2967501,12.9403936 13.2832435,12.7169555 C13.2703028,12.642981 13.2832435,12.5085036 13.2967501,12.3446915 C13.309691,12.1660526 13.3494328,11.9876528 13.3758802,11.7934697 L13.7857444,9.76793897 L13.1247712,9.76793897 L13.2435725,9.24653021 L13.8910391,9.24653021 L14.0760296,8.32304443 L14.7761789,8.12918017 L14.5653066,9.24653021 L15.3445861,9.24653021 L15.2392914,9.76793897 L14.4595171,9.76793897 L14.0631594,11.8833073 C14.0234882,12.0464817 13.9970409,12.1660526 13.9970409,12.240346 C13.9835343,12.3298647 13.9705935,12.3894907 13.9835343,12.4336522 C13.9835343,12.552984 14.0232054,12.6275165 14.0893947,12.6725548 C14.1555132,12.7319417 14.2743851,12.7620736 14.4331403,12.7620736 C14.485823,12.7620736 14.5654481,12.7471671 14.6445782,12.7319417 C14.7102018,12.7319417 14.7898268,12.7018099 14.8560161,12.6872222 L14.7365077,13.2833229 Z" id="Path" fill="#0356A2"></path>
                    <path d="M17.0229361,10.7811826 L17.9212288,10.7811826 C17.9347354,10.6469444 17.948242,10.542838 17.948242,10.4683055 C17.9617485,10.3940121 17.9617485,10.3343861 17.948242,10.2747601 C17.9347354,10.0510828 17.8556053,9.88727071 17.7232975,9.76857668 C17.5780489,9.64924495 17.3930584,9.57503128 17.155456,9.57503128 C17.1157849,9.57503128 17.0628194,9.58993778 17.0231482,9.58993778 L17.0231482,9.09866089 C17.0763259,9.09866089 17.1157849,9.09866089 17.1683968,9.09866089 C17.6309437,9.09866089 17.9876302,9.20276727 18.2257277,9.39607353 C18.4501064,9.58993778 18.5951428,9.90281492 18.6220852,10.334705 C18.6355918,10.4835308 18.6355918,10.6472632 18.6220852,10.8116333 C18.6220852,10.9753657 18.5950721,11.1534466 18.5559667,11.3327233 L17.0231482,11.3327233 L17.0231482,10.7811826 L17.0229361,10.7811826 Z M17.0229361,13.3132156 L17.0229361,12.7023679 C17.1020662,12.6728737 17.1816912,12.6280745 17.2473148,12.583355 C17.40607,12.4643421 17.5248712,12.2857032 17.5910605,12.0625839 L18.3708348,12.0625839 C18.2781982,12.4643421 18.0803376,12.7772192 17.7759802,13.0006573 C17.5643302,13.16431 17.3132212,13.2687353 17.0229361,13.3132156 Z M16.097913,10.7811826 L17.0229361,10.7811826 L17.0229361,11.3324044 L15.9791119,11.3324044 C15.9394407,11.4514173 15.9264291,11.5558425 15.9129933,11.6750945 C15.9000525,11.7792009 15.9000525,11.8835465 15.9000525,11.9727463 C15.9264998,12.2263163 16.0053471,12.4195429 16.1376549,12.5534622 C16.2829035,12.6873816 16.467894,12.762233 16.7190029,12.762233 C16.8242976,12.762233 16.9298752,12.7473265 17.0227947,12.7022881 L17.0227947,13.3131359 C16.9039934,13.3280424 16.7716857,13.3429489 16.6393779,13.3429489 C16.2165729,13.3429489 15.8863338,13.2242549 15.6352247,13.0004979 C15.3976223,12.7770598 15.2523737,12.449595 15.2258556,12.0322926 C15.1988424,11.7194155 15.2258556,11.3623768 15.3184922,10.9597418 C15.3976223,10.5725713 15.5299301,10.2304391 15.6751787,9.94681701 C15.8339339,9.67953623 16.045089,9.45585897 16.2959151,9.32162073 C16.507848,9.18738248 16.7454504,9.12831446 17.0230068,9.0981826 L17.0230068,9.58945951 C16.8115689,9.61927251 16.6266491,9.70847239 16.4814005,9.88711129 C16.2958444,10.081135 16.1640316,10.3791056 16.097913,10.7811826 Z" id="Shape" fill="#0356A2"></path>
                </g>
            </g>
            <g id="img_maestro_on-copy" transform="translate(72.759655, 0.000000)">
                <path d="M3.68319677,0.446724737 L29.3893739,0.446724737 C31.1787765,0.446724737 32.6293739,1.89732215 32.6293739,3.68672474 L32.6293739,17.8835232 C32.6293739,19.6729258 31.1787765,21.1235232 29.3893739,21.1235232 L3.68319677,21.1235232 C1.89379418,21.1235232 0.443196765,19.6729258 0.443196765,17.8835232 L0.443196765,3.68672474 C0.443196765,1.89732215 1.89379418,0.446724737 3.68319677,0.446724737 Z" id="Rectangle" stroke="#979797" stroke-width="0.91125" fill="#FFFFFF"></path>
                <g id="Maestro-logo" transform="translate(6.267785, 2.777986)">
                    <g id="Group-9" transform="translate(0.000000, 0.085968)">
                        <path d="M15.1420214,14.7119677 C15.2214076,14.7119677 15.3348974,14.7275983 15.4220516,14.7627672 L15.3009831,15.1451311 C15.2176182,15.1099622 15.1344429,15.0982393 15.0550568,15.0982393 C14.7975731,15.0982393 14.6689261,15.2699806 14.6689261,15.5782945 L14.6689261,16.6239826 L14.2754062,16.6239826 L14.2754062,14.7588596 L14.6653262,14.7588596 L14.6653262,14.9851127 C14.7674481,14.821382 14.9150418,14.7119677 15.1420214,14.7119677 Z M13.7801433,15.1295005 L13.1369078,15.1295005 L13.1369078,15.9723814 C13.1369078,16.1597533 13.2011366,16.2846029 13.3979913,16.2846029 C13.5001132,16.2846029 13.6287603,16.249434 13.7460395,16.1792917 L13.8595293,16.5264867 C13.7346715,16.6161673 13.5380063,16.6708745 13.3676768,16.6708745 C12.9023495,16.6708745 12.7395986,16.4133601 12.7395986,15.9801967 L12.7395986,15.1295005 L12.3726038,15.1295005 L12.3726038,14.7588596 L12.7395986,14.7588596 L12.7394091,14.1930313 L13.1367183,14.1930313 L13.1369078,14.7588596 L13.7801433,14.7588596 L13.7801433,15.1295005 Z M11.8892773,15.2350072 C11.7795768,15.1646694 11.5561969,15.0749887 11.3254279,15.0749887 C11.1098161,15.0749887 10.981169,15.1568541 10.981169,15.2934266 C10.981169,15.4182761 11.1173947,15.453445 11.2875348,15.4766955 L11.4730215,15.5040491 C11.8665415,15.5626639 12.1048891,15.7344053 12.1048891,16.0620621 C12.1048891,16.4172678 11.8021232,16.6708745 11.2799561,16.6708745 C10.9849583,16.6708745 10.7125069,16.5927213 10.4967056,16.4287953 L10.6821924,16.1128616 C10.8146289,16.2181728 11.011294,16.3078535 11.2837455,16.3078535 C11.5524076,16.3078535 11.6962119,16.2259881 11.6962119,16.0816003 C11.6962119,15.9762891 11.59409,15.9176743 11.3784783,15.8866084 L11.1929915,15.8592548 C10.7881037,15.80064 10.5687026,15.6134634 10.5687026,15.3090572 C10.5687026,14.9384163 10.8637004,14.7119677 11.3216386,14.7119677 C11.6092473,14.7119677 11.8703307,14.7783978 12.0594174,14.907155 L11.8892773,15.2350072 Z M8.88492243,15.527495 L9.82334519,15.527495 C9.78166276,15.2387194 9.61891189,15.0749887 9.36540701,15.0749887 C9.08537696,15.0749887 8.92660485,15.2582577 8.88492243,15.527495 Z M10.2320224,15.6914211 C10.2320224,15.7461282 10.228233,15.7967323 10.2244437,15.8475318 L8.88113312,15.8475318 C8.93797278,16.1830039 9.16874179,16.3039458 9.42224666,16.3039458 C9.60394411,16.3039458 9.79682001,16.2338034 9.94820299,16.1089539 L10.1410789,16.4094525 C9.92167782,16.6005367 9.67196224,16.6708745 9.39951081,16.6708745 C8.85839726,16.6708745 8.47245597,16.2846029 8.47245597,15.6914211 C8.47245597,15.1099622 8.84324001,14.7119677 9.37298563,14.7119677 C9.87999539,14.7119677 10.228233,15.1099622 10.2320224,15.6914211 Z M16.5110994,15.0935501 C16.4303871,15.0935501 16.3555482,15.1082037 16.2863933,15.1373158 C16.2170488,15.1666232 16.1571778,15.2074582 16.1069694,15.2600161 C16.0565716,15.3125741 16.0167838,15.3756827 15.9879851,15.4489512 C15.9589968,15.5224151 15.944408,15.6031081 15.944408,15.6914211 C15.944408,15.7797341 15.9589968,15.8606225 15.9879851,15.933891 C16.0167838,16.0073549 16.0565716,16.0702681 16.1069694,16.122826 C16.1571778,16.175384 16.2170488,16.2164144 16.2863933,16.2455263 C16.3555482,16.2748337 16.4303871,16.2892921 16.5110994,16.2892921 C16.5916223,16.2892921 16.6666506,16.2748337 16.7358055,16.2455263 C16.8049604,16.2164144 16.8652104,16.175384 16.9161767,16.122826 C16.9671429,16.0702681 17.0071202,16.0073549 17.0361084,15.933891 C17.0650966,15.8606225 17.079496,15.7797341 17.079496,15.6914211 C17.079496,15.6031081 17.0650966,15.5224151 17.0361084,15.4489512 C17.0071202,15.3756827 16.9671429,15.3125741 16.9161767,15.2600161 C16.8652104,15.2074582 16.8049604,15.1666232 16.7358055,15.1373158 C16.6666506,15.1082037 16.5916223,15.0935501 16.5110994,15.0935501 Z M16.5110994,14.7098185 C16.6507355,14.7098185 16.7801404,14.7348275 16.8991248,14.7848454 C17.0181091,14.8348634 17.1209889,14.9036381 17.2079535,14.9911696 C17.2947288,15.0788963 17.3629364,15.1824492 17.4118185,15.301828 C17.4610795,15.4214023 17.4855206,15.5511363 17.4855206,15.6914211 C17.4855206,15.8317058 17.4610795,15.96144 17.4118185,16.0810142 C17.3629364,16.200393 17.2947288,16.3039458 17.2079535,16.3916726 C17.1209889,16.4792041 17.0181091,16.5479788 16.8991248,16.5979967 C16.7801404,16.6480147 16.6507355,16.6730237 16.5110994,16.6730237 C16.3712738,16.6730237 16.2418688,16.6480147 16.1228845,16.5979967 C16.0039002,16.5479788 15.9012099,16.4792041 15.815003,16.3916726 C15.7287962,16.3039458 15.661157,16.200393 15.6120855,16.0810142 C15.5630139,15.96144 15.5383834,15.8317058 15.5383834,15.6914211 C15.5383834,15.5511363 15.5630139,15.4214023 15.6120855,15.301828 C15.661157,15.1824492 15.7287962,15.0788963 15.815003,14.9911696 C15.9012099,14.9036381 16.0039002,14.8348634 16.1228845,14.7848454 C16.2418688,14.7348275 16.3712738,14.7098185 16.5110994,14.7098185 Z M6.62630387,15.6914211 C6.62630387,16.0190779 6.83452649,16.2885106 7.17499604,16.2885106 C7.50030835,16.2885106 7.7198989,16.0308008 7.7198989,15.6914211 C7.7198989,15.3520414 7.50030835,15.094527 7.17499604,15.094527 C6.83452649,15.094527 6.62630387,15.3635689 6.62630387,15.6914211 Z M8.09068294,15.6914211 L8.09068294,16.6239826 L7.69716304,16.6239826 L7.69716304,16.3977294 C7.57230525,16.5655632 7.38302919,16.6708745 7.12573501,16.6708745 C6.61872525,16.6708745 6.22141604,16.261157 6.22141604,15.6914211 C6.22141604,15.1216851 6.61872525,14.7119677 7.12573501,14.7119677 C7.38302919,14.7119677 7.57230525,14.8172789 7.69716304,14.9851127 L7.69716304,14.7588596 L8.09068294,14.7588596 L8.09068294,15.6914211 Z M5.87336787,16.6239826 L5.87336787,15.453445 C5.87336787,15.0124663 5.60091644,14.7158753 5.16192481,14.7119677 C4.9311558,14.7080601 4.69280817,14.7823054 4.52626797,15.0437275 C4.40141018,14.8368173 4.20474497,14.7119677 3.92850423,14.7119677 C3.73543886,14.7119677 3.54635226,14.7705825 3.39875861,14.9890204 L3.39875861,14.7588596 L3.00523871,14.7588596 L3.00523871,16.6239826 L3.40254793,16.6239826 L3.40254793,15.5900175 C3.40254793,15.266073 3.57647728,15.094527 3.8451394,15.094527 C4.1062229,15.094527 4.23865929,15.2699806 4.23865929,15.5861098 L4.23865929,16.6239826 L4.63596851,16.6239826 L4.63596851,15.5900175 C4.63596851,15.266073 4.81766595,15.094527 5.07874944,15.094527 C5.34741156,15.094527 5.47605866,15.2699806 5.47605866,15.5861098 L5.47605866,16.6239826 L5.87336787,16.6239826 Z" id="Fill-2" fill="#000000"></path>
                        <g id="Group-5">
                            <g id="Group-4">
                                <polygon id="Fill-4" fill="#7673C0" points="7.86746542 11.7262954 13.5761442 11.7262954 13.5761442 1.40378548 7.86746542 1.40378548"></polygon>
                                <path d="M8.22997558,6.56502219 C8.22997558,4.47083246 9.20443798,2.6058657 10.7218591,1.40376724 C9.61201952,0.524623338 8.21185279,0.000164121451 6.68990092,0.000164121451 C3.08690912,0.000164121451 0.166240349,2.93939696 0.166240349,6.56502219 C0.166240349,10.1906474 3.08690912,13.1298802 6.68990092,13.1298802 C8.21185279,13.1298802 9.61201952,12.605421 10.7218591,11.7262771 C9.20443798,10.5241787 8.22997558,8.65921191 8.22997558,6.56502219" id="Fill-6" fill="#EB001B"></path>
                                <path d="M21.2774961,6.56502219 C21.2774961,10.1906474 18.3566461,13.1298802 14.7538355,13.1298802 C13.2318836,13.1298802 11.8315357,12.605421 10.7218772,11.7262771 C12.2392984,10.5241787 13.2137608,8.65921191 13.2137608,6.56502219 C13.2137608,4.47083246 12.2392984,2.6058657 10.7218772,1.40376724 C11.8315357,0.524623338 13.2318836,0.000164121451 14.7538355,0.000164121451 C18.3566461,0.000164121451 21.2774961,2.93939696 21.2774961,6.56502219" id="Fill-8" fill="#00A1DF"></path>
                            </g>
                        </g>
                    </g>
                </g>
            </g>
            <g id="img_mastercard_on-copy" transform="translate(35.907362, 0.000000)">
                <path d="M3.68319677,0.446724737 L29.3893739,0.446724737 C31.1787765,0.446724737 32.6293739,1.89732215 32.6293739,3.68672474 L32.6293739,17.8835232 C32.6293739,19.6729258 31.1787765,21.1235232 29.3893739,21.1235232 L3.68319677,21.1235232 C1.89379418,21.1235232 0.443196765,19.6729258 0.443196765,17.8835232 L0.443196765,3.68672474 C0.443196765,1.89732215 1.89379418,0.446724737 3.68319677,0.446724737 Z" id="Rectangle" stroke="#979797" stroke-width="0.91125" fill="#FFFFFF"></path>
                <g id="Mastercard-logo" transform="translate(6.589412, 2.854886)">
                    <g id="Group-3" transform="translate(0.053596, 13.541140)" fill="#000000">
                        <path d="M2.83479177,2.8981416 L2.83479177,1.60046626 C2.83479177,1.10302404 2.57539906,0.778605206 2.13072584,0.778605206 C1.90838923,0.778605206 1.66752457,0.865116896 1.50077211,1.14627989 C1.37107576,0.90837274 1.18579525,0.778605206 0.907874489,0.778605206 C0.722593981,0.778605206 0.537313473,0.843488974 0.389089067,1.08139612 L0.389089067,0.821861051 L0,0.821861051 L0,2.8981416 L0.389089067,2.8981416 L0.389089067,1.75186172 C0.389089067,1.38418704 0.555841523,1.21116366 0.815234235,1.21116366 C1.07462694,1.21116366 1.2043233,1.40581496 1.2043233,1.75186172 L1.2043233,2.8981416 L1.59341237,2.8981416 L1.59341237,1.75186172 C1.59341237,1.38418704 1.77869288,1.21116366 2.01955754,1.21116366 C2.27895025,1.21116366 2.40864661,1.40581496 2.40864661,1.75186172 L2.40864661,2.8981416 L2.83479177,2.8981416 Z M8.59701557,0.821861051 L7.96706184,0.821861051 L7.96706184,0.194651302 L7.57797277,0.194651302 L7.57797277,0.821861051 L7.22593981,0.821861051 L7.22593981,1.23279158 L7.57797277,1.23279158 L7.57797277,2.18442017 C7.57797277,2.66023445 7.74472523,2.94139745 8.18939845,2.94139745 C8.35615091,2.94139745 8.54143142,2.87651368 8.67112777,2.79000199 L8.55995947,2.40069938 C8.44879117,2.48721108 8.3190948,2.508839 8.22645456,2.508839 C8.04117405,2.508839 7.96706184,2.37907147 7.96706184,2.16279224 L7.96706184,1.23279158 L8.59701557,1.23279158 L8.59701557,0.821861051 Z M11.8950086,0.778605206 C11.672672,0.778605206 11.5244475,0.90837274 11.4318074,1.08139612 L11.4318074,0.821861051 L11.0427183,0.821861051 L11.0427183,2.8981416 L11.4318074,2.8981416 L11.4318074,1.73023379 C11.4318074,1.38418704 11.5615037,1.18953573 11.8023683,1.18953573 C11.8764806,1.18953573 11.9691208,1.21116366 12.043233,1.23279158 L12.1544013,0.800233129 C12.0802891,0.778605206 11.9691208,0.778605206 11.8950086,0.778605206 Z M6.91096294,0.994884428 C6.72568243,0.843488974 6.46628973,0.778605206 6.18836896,0.778605206 C5.74369574,0.778605206 5.44724693,1.03814028 5.44724693,1.4490708 C5.44724693,1.79511756 5.66958354,1.98976886 6.05867261,2.05465263 L6.24395312,2.07628055 C6.44776168,2.1195364 6.55892998,2.18442017 6.55892998,2.29255977 C6.55892998,2.44395523 6.41070557,2.55209485 6.15131286,2.55209485 C5.89192016,2.55209485 5.6881116,2.44395523 5.55841523,2.33581562 L5.37313473,2.68186238 C5.57694329,2.85488576 5.85486405,2.94139745 6.13278481,2.94139745 C6.65157024,2.94139745 6.94801905,2.66023445 6.94801905,2.27093185 C6.94801905,1.90325717 6.70715439,1.70860587 6.33659337,1.6437221 L6.15131286,1.62209417 C5.9845604,1.60046626 5.85486405,1.55721041 5.85486405,1.42744288 C5.85486405,1.27604742 5.9845604,1.18953573 6.18836896,1.18953573 C6.41070557,1.18953573 6.63304219,1.29767534 6.74421049,1.36255911 L6.91096294,0.994884428 Z M17.2496153,0.778605206 C17.0272787,0.778605206 16.8790543,0.90837274 16.7864141,1.08139612 L16.7864141,0.821861051 L16.397325,0.821861051 L16.397325,2.8981416 L16.7864141,2.8981416 L16.7864141,1.73023379 C16.7864141,1.38418704 16.9161104,1.18953573 17.156975,1.18953573 C17.2310872,1.18953573 17.3237275,1.21116366 17.3978397,1.23279158 L17.509008,0.800233129 C17.4348958,0.778605206 17.3237275,0.778605206 17.2496153,0.778605206 Z M12.2840976,1.86000132 C12.2840976,2.48721108 12.6546587,2.94139745 13.2290283,2.94139745 C13.488421,2.94139745 13.6737015,2.87651368 13.8589819,2.7034903 L13.6737015,2.33581562 C13.5254771,2.46558315 13.3772527,2.53046692 13.2105002,2.53046692 C12.8955234,2.53046692 12.6731867,2.27093185 12.6731867,1.86000132 C12.6731867,1.47069872 12.8955234,1.21116366 13.2105002,1.18953573 C13.3772527,1.18953573 13.5254771,1.25441949 13.6737015,1.38418704 L13.8589819,1.01651236 C13.6737015,0.843488974 13.488421,0.778605206 13.2290283,0.778605206 C12.6546587,0.778605206 12.2840976,1.23279158 12.2840976,1.86000132 Z M15.8785395,1.86000132 L15.8785395,0.821861051 L15.4894504,0.821861051 L15.4894504,1.08139612 C15.3597541,0.886744818 15.1744736,0.778605206 14.933609,0.778605206 C14.4333515,0.778605206 14.0442625,1.23279158 14.0442625,1.86000132 C14.0442625,2.48721108 14.4333515,2.94139745 14.933609,2.94139745 C15.1930016,2.94139745 15.3782822,2.83325783 15.4894504,2.63860653 L15.4894504,2.8981416 L15.8785395,2.8981416 L15.8785395,1.86000132 Z M14.4518797,1.86000132 C14.4518797,1.49232664 14.6556882,1.18953573 14.9891931,1.18953573 C15.3041699,1.18953573 15.5265066,1.47069872 15.5265066,1.86000132 C15.5265066,2.227676 15.3041699,2.53046692 14.9891931,2.53046692 C14.6556882,2.508839 14.4518797,2.227676 14.4518797,1.86000132 Z M9.80133889,0.778605206 C9.28255345,0.778605206 8.91199243,1.21116366 8.91199243,1.86000132 C8.91199243,2.508839 9.28255345,2.94139745 9.81986693,2.94139745 C10.0792597,2.94139745 10.3386523,2.85488576 10.5424609,2.66023445 L10.3571803,2.33581562 C10.208956,2.46558315 10.0236755,2.55209485 9.83839496,2.55209485 C9.59753032,2.55209485 9.35666565,2.42232731 9.3010815,2.05465263 L10.6165731,2.05465263 C10.6165731,1.98976886 10.6165731,1.94651302 10.6165731,1.88162925 C10.6351011,1.21116366 10.3015963,0.778605206 9.80133889,0.778605206 Z M9.80133889,1.16790781 C10.0422035,1.16790781 10.208956,1.34093119 10.2460121,1.66535002 L9.31960955,1.66535002 C9.35666565,1.38418704 9.52341811,1.16790781 9.80133889,1.16790781 Z M19.4544533,1.86000132 L19.4544533,0 L19.0653643,0 L19.0653643,1.08139612 C18.9356679,0.886744818 18.7503874,0.778605206 18.5095227,0.778605206 C18.0092654,0.778605206 17.6201763,1.23279158 17.6201763,1.86000132 C17.6201763,2.48721108 18.0092654,2.94139745 18.5095227,2.94139745 C18.7689155,2.94139745 18.954196,2.83325783 19.0653643,2.63860653 L19.0653643,2.8981416 L19.4544533,2.8981416 L19.4544533,1.86000132 Z M18.0277934,1.86000132 C18.0277934,1.49232664 18.2316019,1.18953573 18.5651069,1.18953573 C18.8800838,1.18953573 19.1024203,1.47069872 19.1024203,1.86000132 C19.1024203,2.227676 18.8800838,2.53046692 18.5651069,2.53046692 C18.2316019,2.508839 18.0277934,2.227676 18.0277934,1.86000132 Z M5.02110176,1.86000132 L5.02110176,0.821861051 L4.6320127,0.821861051 L4.6320127,1.08139612 C4.50231634,0.886744818 4.31703584,0.778605206 4.07617117,0.778605206 C3.57591381,0.778605206 3.18682474,1.23279158 3.18682474,1.86000132 C3.18682474,2.48721108 3.57591381,2.94139745 4.07617117,2.94139745 C4.33556389,2.94139745 4.5208444,2.83325783 4.6320127,2.63860653 L4.6320127,2.8981416 L5.02110176,2.8981416 L5.02110176,1.86000132 Z M3.57591381,1.86000132 C3.57591381,1.49232664 3.77972237,1.18953573 4.11322728,1.18953573 C4.42820414,1.18953573 4.65054075,1.47069872 4.65054075,1.86000132 C4.65054075,2.227676 4.42820414,2.53046692 4.11322728,2.53046692 C3.77972237,2.508839 3.57591381,2.227676 3.57591381,1.86000132 Z" id="mastercard"></path>
                    </g>
                    <g id="Group-2">
                        <polygon id="Fill-4" fill="#FF5F00" points="6.99915447 11.3647989 12.9270028 11.3647989 12.9270028 1.36041645 6.99915447 1.36041645"></polygon>
                        <path d="M7.61106305,6.36251931 C7.61106305,4.33287001 8.53081606,2.5253793 9.96304441,1.36032808 C8.91551469,0.508278337 7.59395773,-1.76737138e-05 6.15745304,-1.76737138e-05 C2.75674455,-1.76737138e-05 5.13159576e-05,2.84863153 5.13159576e-05,6.36251931 C5.13159576e-05,9.87640707 2.75674455,12.7250563 6.15745304,12.7250563 C7.59395773,12.7250563 8.91551469,12.2167602 9.96304441,11.3647105 C8.53081606,10.1996593 7.61106305,8.39216861 7.61106305,6.36251931" id="Fill-6" fill="#EB001B"></path>
                        <path d="M19.9260376,6.36251931 C19.9260376,9.87640707 17.1691732,12.7250563 13.7686359,12.7250563 C12.3321311,12.7250563 11.0104031,12.2167602 9.96304441,11.3647105 C11.3952728,10.1996593 12.3150259,8.39216861 12.3150259,6.36251931 C12.3150259,4.33287001 11.3952728,2.5253793 9.96304441,1.36032808 C11.0104031,0.508278337 12.3321311,-1.76737138e-05 13.7686359,-1.76737138e-05 C17.1691732,-1.76737138e-05 19.9260376,2.84863153 19.9260376,6.36251931" id="Fill-8" fill="#F79E1B"></path>
                    </g>
                </g>
            </g>
            <g id="VISA">
                <path d="M3.68319677,0.446724737 L29.3893739,0.446724737 C31.1787765,0.446724737 32.6293739,1.89732215 32.6293739,3.68672474 L32.6293739,17.8835232 C32.6293739,19.6729258 31.1787765,21.1235232 29.3893739,21.1235232 L3.68319677,21.1235232 C1.89379418,21.1235232 0.443196765,19.6729258 0.443196765,17.8835232 L0.443196765,3.68672474 C0.443196765,1.89732215 1.89379418,0.446724737 3.68319677,0.446724737 Z" id="Rectangle" stroke="#979797" stroke-width="0.91125" fill="#FFFFFF"></path>
                <g id="visa" transform="translate(3.137815, 6.344190)">
                    <polyline id="Fill-1" fill="#005C9C" points="11.5431718 8.89619674 9.37989669 8.89619674 10.7319158 0.298510027 12.8954132 0.298510027 11.5431718 8.89619674"></polyline>
                    <path d="M7.56001626,0.298510027 L5.49742582,6.21190626 L5.25360452,4.93852413 L5.25382678,4.93898407 L4.5256968,1.07284227 C4.5256968,1.07284227 4.43790335,0.298510027 3.49951361,0.298510027 L0.0902383313,0.298510027 L0.0504534513,0.444085409 C0.0504534513,0.444085409 1.09330628,0.668312895 2.31307959,1.42700671 L4.19252622,8.89619674 L6.44648413,8.89619674 L9.88820964,0.298510027 L7.56001626,0.298510027" id="Fill-2" fill="#005C9C"></path>
                    <path d="M24.5752759,8.89619674 L26.5616306,8.89619674 L24.8297659,0.298510027 L23.0905665,0.298510027 C22.287312,0.298510027 22.0919438,0.939225692 22.0919438,0.939225692 L18.8658124,8.89619674 L21.120437,8.89619674 L21.5716287,7.61913496 L24.3216752,7.61913496 L24.5752759,8.89619674 Z M22.194851,5.85475213 L23.3317206,2.63737518 L23.9711682,5.85475213 L22.194851,5.85475213 Z" id="Fill-3" fill="#005C9C"></path>
                    <path d="M19.0349537,2.36600243 L19.3434531,0.519517835 C19.3434531,0.519517835 18.3908386,0.144655475 17.3977725,0.144655475 C16.3242475,0.144655475 13.7751258,0.630366705 13.7751258,2.99084969 C13.7751258,5.21219665 16.7672154,5.23979388 16.7672154,6.40623675 C16.7672154,7.57244965 14.083403,7.3638606 13.1979116,6.62816447 L12.8760763,8.55836066 C12.8760763,8.55836066 13.8418043,9.04407188 15.3180679,9.04407188 C16.7941092,9.04407188 19.0213956,8.25295132 19.0213956,6.10059744 C19.0213956,3.86545188 16.0024122,3.65709279 16.0024122,2.68544035 C16.0024122,1.71332797 18.1092328,1.83820543 19.0349537,2.36600243" id="Fill-4" fill="#005C9C"></path>
                    <path d="M5.25382678,4.93898407 L4.5256968,1.07284227 C4.5256968,1.07284227 4.43790335,0.298510027 3.49951361,0.298510027 L0.0902383313,0.298510027 L0.0504534513,0.444085409 C0.0504534513,0.444085409 1.68919044,0.795490126 3.26124885,2.11210793 C4.7637393,3.37031159 5.25382678,4.93898407 5.25382678,4.93898407" id="Fill-5" fill="#EE9F3F"></path>
                </g>
            </g>
        </g>
    </g>
</svg>