<?xml version="1.0" encoding="UTF-8"?>
<svg width="72" height="23px" viewBox="0 0 72 23" version="1.1" xmlns="http://www.w3.org/2000/svg" xmlns:xlink="http://www.w3.org/1999/xlink">
    <!-- Generator: Sketch 52.2 (67145) - http://www.bohemiancoding.com/sketch -->
    <title>logos scheme CB</title>
    <desc>Created with Sketch.</desc>
    <defs>
        <linearGradient x1="0%" y1="100%" x2="100%" y2="0%" id="linearGradient-1">
            <stop stop-color="#219C42" offset="0%"></stop>
            <stop stop-color="#02819E" offset="49.2074603%"></stop>
            <stop stop-color="#052E66" offset="100%"></stop>
        </linearGradient>
    </defs>
    <g id="Page-1" stroke="none" stroke-width="1" fill="none" fill-rule="evenodd">
        <g id="logos-scheme-CB" transform="translate(1.000000, 1.000000)" fill-rule="nonzero">
            <g id="img_mastercard_on-copy" transform="translate(35.907362, 0.000000)">
                <path d="M3.68319677,0.446724737 L29.3893739,0.446724737 C31.1787765,0.446724737 32.6293739,1.89732215 32.6293739,3.68672474 L32.6293739,17.8835232 C32.6293739,19.6729258 31.1787765,21.1235232 29.3893739,21.1235232 L3.68319677,21.1235232 C1.89379418,21.1235232 0.443196765,19.6729258 0.443196765,17.8835232 L0.443196765,3.68672474 C0.443196765,1.89732215 1.89379418,0.446724737 3.68319677,0.446724737 Z" id="Rectangle" stroke="#979797" stroke-width="0.91125" fill="#FFFFFF"></path>
                <g id="Mastercard-logo" transform="translate(6.589412, 2.854886)">
                    <g id="Group-3" transform="translate(0.053596, 13.541140)" fill="#000000">
                        <path d="M2.83479177,2.8981416 L2.83479177,1.60046626 C2.83479177,1.10302404 2.57539906,0.778605206 2.13072584,0.778605206 C1.90838923,0.778605206 1.66752457,0.865116896 1.50077211,1.14627989 C1.37107576,0.90837274 1.18579525,0.778605206 0.907874489,0.778605206 C0.722593981,0.778605206 0.537313473,0.843488974 0.389089067,1.08139612 L0.389089067,0.821861051 L0,0.821861051 L0,2.8981416 L0.389089067,2.8981416 L0.389089067,1.75186172 C0.389089067,1.38418704 0.555841523,1.21116366 0.815234235,1.21116366 C1.07462694,1.21116366 1.2043233,1.40581496 1.2043233,1.75186172 L1.2043233,2.8981416 L1.59341237,2.8981416 L1.59341237,1.75186172 C1.59341237,1.38418704 1.77869288,1.21116366 2.01955754,1.21116366 C2.27895025,1.21116366 2.40864661,1.40581496 2.40864661,1.75186172 L2.40864661,2.8981416 L2.83479177,2.8981416 Z M8.59701557,0.821861051 L7.96706184,0.821861051 L7.96706184,0.194651302 L7.57797277,0.194651302 L7.57797277,0.821861051 L7.22593981,0.821861051 L7.22593981,1.23279158 L7.57797277,1.23279158 L7.57797277,2.18442017 C7.57797277,2.66023445 7.74472523,2.94139745 8.18939845,2.94139745 C8.35615091,2.94139745 8.54143142,2.87651368 8.67112777,2.79000199 L8.55995947,2.40069938 C8.44879117,2.48721108 8.3190948,2.508839 8.22645456,2.508839 C8.04117405,2.508839 7.96706184,2.37907147 7.96706184,2.16279224 L7.96706184,1.23279158 L8.59701557,1.23279158 L8.59701557,0.821861051 Z M11.8950086,0.778605206 C11.672672,0.778605206 11.5244475,0.90837274 11.4318074,1.08139612 L11.4318074,0.821861051 L11.0427183,0.821861051 L11.0427183,2.8981416 L11.4318074,2.8981416 L11.4318074,1.73023379 C11.4318074,1.38418704 11.5615037,1.18953573 11.8023683,1.18953573 C11.8764806,1.18953573 11.9691208,1.21116366 12.043233,1.23279158 L12.1544013,0.800233129 C12.0802891,0.778605206 11.9691208,0.778605206 11.8950086,0.778605206 Z M6.91096294,0.994884428 C6.72568243,0.843488974 6.46628973,0.778605206 6.18836896,0.778605206 C5.74369574,0.778605206 5.44724693,1.03814028 5.44724693,1.4490708 C5.44724693,1.79511756 5.66958354,1.98976886 6.05867261,2.05465263 L6.24395312,2.07628055 C6.44776168,2.1195364 6.55892998,2.18442017 6.55892998,2.29255977 C6.55892998,2.44395523 6.41070557,2.55209485 6.15131286,2.55209485 C5.89192016,2.55209485 5.6881116,2.44395523 5.55841523,2.33581562 L5.37313473,2.68186238 C5.57694329,2.85488576 5.85486405,2.94139745 6.13278481,2.94139745 C6.65157024,2.94139745 6.94801905,2.66023445 6.94801905,2.27093185 C6.94801905,1.90325717 6.70715439,1.70860587 6.33659337,1.6437221 L6.15131286,1.62209417 C5.9845604,1.60046626 5.85486405,1.55721041 5.85486405,1.42744288 C5.85486405,1.27604742 5.9845604,1.18953573 6.18836896,1.18953573 C6.41070557,1.18953573 6.63304219,1.29767534 6.74421049,1.36255911 L6.91096294,0.994884428 Z M17.2496153,0.778605206 C17.0272787,0.778605206 16.8790543,0.90837274 16.7864141,1.08139612 L16.7864141,0.821861051 L16.397325,0.821861051 L16.397325,2.8981416 L16.7864141,2.8981416 L16.7864141,1.73023379 C16.7864141,1.38418704 16.9161104,1.18953573 17.156975,1.18953573 C17.2310872,1.18953573 17.3237275,1.21116366 17.3978397,1.23279158 L17.509008,0.800233129 C17.4348958,0.778605206 17.3237275,0.778605206 17.2496153,0.778605206 Z M12.2840976,1.86000132 C12.2840976,2.48721108 12.6546587,2.94139745 13.2290283,2.94139745 C13.488421,2.94139745 13.6737015,2.87651368 13.8589819,2.7034903 L13.6737015,2.33581562 C13.5254771,2.46558315 13.3772527,2.53046692 13.2105002,2.53046692 C12.8955234,2.53046692 12.6731867,2.27093185 12.6731867,1.86000132 C12.6731867,1.47069872 12.8955234,1.21116366 13.2105002,1.18953573 C13.3772527,1.18953573 13.5254771,1.25441949 13.6737015,1.38418704 L13.8589819,1.01651236 C13.6737015,0.843488974 13.488421,0.778605206 13.2290283,0.778605206 C12.6546587,0.778605206 12.2840976,1.23279158 12.2840976,1.86000132 Z M15.8785395,1.86000132 L15.8785395,0.821861051 L15.4894504,0.821861051 L15.4894504,1.08139612 C15.3597541,0.886744818 15.1744736,0.778605206 14.933609,0.778605206 C14.4333515,0.778605206 14.0442625,1.23279158 14.0442625,1.86000132 C14.0442625,2.48721108 14.4333515,2.94139745 14.933609,2.94139745 C15.1930016,2.94139745 15.3782822,2.83325783 15.4894504,2.63860653 L15.4894504,2.8981416 L15.8785395,2.8981416 L15.8785395,1.86000132 Z M14.4518797,1.86000132 C14.4518797,1.49232664 14.6556882,1.18953573 14.9891931,1.18953573 C15.3041699,1.18953573 15.5265066,1.47069872 15.5265066,1.86000132 C15.5265066,2.227676 15.3041699,2.53046692 14.9891931,2.53046692 C14.6556882,2.508839 14.4518797,2.227676 14.4518797,1.86000132 Z M9.80133889,0.778605206 C9.28255345,0.778605206 8.91199243,1.21116366 8.91199243,1.86000132 C8.91199243,2.508839 9.28255345,2.94139745 9.81986693,2.94139745 C10.0792597,2.94139745 10.3386523,2.85488576 10.5424609,2.66023445 L10.3571803,2.33581562 C10.208956,2.46558315 10.0236755,2.55209485 9.83839496,2.55209485 C9.59753032,2.55209485 9.35666565,2.42232731 9.3010815,2.05465263 L10.6165731,2.05465263 C10.6165731,1.98976886 10.6165731,1.94651302 10.6165731,1.88162925 C10.6351011,1.21116366 10.3015963,0.778605206 9.80133889,0.778605206 Z M9.80133889,1.16790781 C10.0422035,1.16790781 10.208956,1.34093119 10.2460121,1.66535002 L9.31960955,1.66535002 C9.35666565,1.38418704 9.52341811,1.16790781 9.80133889,1.16790781 Z M19.4544533,1.86000132 L19.4544533,0 L19.0653643,0 L19.0653643,1.08139612 C18.9356679,0.886744818 18.7503874,0.778605206 18.5095227,0.778605206 C18.0092654,0.778605206 17.6201763,1.23279158 17.6201763,1.86000132 C17.6201763,2.48721108 18.0092654,2.94139745 18.5095227,2.94139745 C18.7689155,2.94139745 18.954196,2.83325783 19.0653643,2.63860653 L19.0653643,2.8981416 L19.4544533,2.8981416 L19.4544533,1.86000132 Z M18.0277934,1.86000132 C18.0277934,1.49232664 18.2316019,1.18953573 18.5651069,1.18953573 C18.8800838,1.18953573 19.1024203,1.47069872 19.1024203,1.86000132 C19.1024203,2.227676 18.8800838,2.53046692 18.5651069,2.53046692 C18.2316019,2.508839 18.0277934,2.227676 18.0277934,1.86000132 Z M5.02110176,1.86000132 L5.02110176,0.821861051 L4.6320127,0.821861051 L4.6320127,1.08139612 C4.50231634,0.886744818 4.31703584,0.778605206 4.07617117,0.778605206 C3.57591381,0.778605206 3.18682474,1.23279158 3.18682474,1.86000132 C3.18682474,2.48721108 3.57591381,2.94139745 4.07617117,2.94139745 C4.33556389,2.94139745 4.5208444,2.83325783 4.6320127,2.63860653 L4.6320127,2.8981416 L5.02110176,2.8981416 L5.02110176,1.86000132 Z M3.57591381,1.86000132 C3.57591381,1.49232664 3.77972237,1.18953573 4.11322728,1.18953573 C4.42820414,1.18953573 4.65054075,1.47069872 4.65054075,1.86000132 C4.65054075,2.227676 4.42820414,2.53046692 4.11322728,2.53046692 C3.77972237,2.508839 3.57591381,2.227676 3.57591381,1.86000132 Z" id="mastercard"></path>
                    </g>
                    <g id="Group-2">
                        <polygon id="Fill-4" fill="#FF5F00" points="6.99915447 11.3647989 12.9270028 11.3647989 12.9270028 1.36041645 6.99915447 1.36041645"></polygon>
                        <path d="M7.61106305,6.36251931 C7.61106305,4.33287001 8.53081606,2.5253793 9.96304441,1.36032808 C8.91551469,0.508278337 7.59395773,-1.76737138e-05 6.15745304,-1.76737138e-05 C2.75674455,-1.76737138e-05 5.13159576e-05,2.84863153 5.13159576e-05,6.36251931 C5.13159576e-05,9.87640707 2.75674455,12.7250563 6.15745304,12.7250563 C7.59395773,12.7250563 8.91551469,12.2167602 9.96304441,11.3647105 C8.53081606,10.1996593 7.61106305,8.39216861 7.61106305,6.36251931" id="Fill-6" fill="#EB001B"></path>
                        <path d="M19.9260376,6.36251931 C19.9260376,9.87640707 17.1691732,12.7250563 13.7686359,12.7250563 C12.3321311,12.7250563 11.0104031,12.2167602 9.96304441,11.3647105 C11.3952728,10.1996593 12.3150259,8.39216861 12.3150259,6.36251931 C12.3150259,4.33287001 11.3952728,2.5253793 9.96304441,1.36032808 C11.0104031,0.508278337 12.3321311,-1.76737138e-05 13.7686359,-1.76737138e-05 C17.1691732,-1.76737138e-05 19.9260376,2.84863153 19.9260376,6.36251931" id="Fill-8" fill="#F79E1B"></path>
                    </g>
                </g>
            </g>
            <g id="VISA">
                <path d="M3.68319677,0.446724737 L29.3893739,0.446724737 C31.1787765,0.446724737 32.6293739,1.89732215 32.6293739,3.68672474 L32.6293739,17.8835232 C32.6293739,19.6729258 31.1787765,21.1235232 29.3893739,21.1235232 L3.68319677,21.1235232 C1.89379418,21.1235232 0.443196765,19.6729258 0.443196765,17.8835232 L0.443196765,3.68672474 C0.443196765,1.89732215 1.89379418,0.446724737 3.68319677,0.446724737 Z" id="Rectangle" stroke="#979797" stroke-width="0.91125" fill="#FFFFFF"></path>
                <g id="visa" transform="translate(3.137815, 6.344190)">
                    <polyline id="Fill-1" fill="#005C9C" points="11.5431718 8.89619674 9.37989669 8.89619674 10.7319158 0.298510027 12.8954132 0.298510027 11.5431718 8.89619674"></polyline>
                    <path d="M7.56001626,0.298510027 L5.49742582,6.21190626 L5.25360452,4.93852413 L5.25382678,4.93898407 L4.5256968,1.07284227 C4.5256968,1.07284227 4.43790335,0.298510027 3.49951361,0.298510027 L0.0902383313,0.298510027 L0.0504534513,0.444085409 C0.0504534513,0.444085409 1.09330628,0.668312895 2.31307959,1.42700671 L4.19252622,8.89619674 L6.44648413,8.89619674 L9.88820964,0.298510027 L7.56001626,0.298510027" id="Fill-2" fill="#005C9C"></path>
                    <path d="M24.5752759,8.89619674 L26.5616306,8.89619674 L24.8297659,0.298510027 L23.0905665,0.298510027 C22.287312,0.298510027 22.0919438,0.939225692 22.0919438,0.939225692 L18.8658124,8.89619674 L21.120437,8.89619674 L21.5716287,7.61913496 L24.3216752,7.61913496 L24.5752759,8.89619674 Z M22.194851,5.85475213 L23.3317206,2.63737518 L23.9711682,5.85475213 L22.194851,5.85475213 Z" id="Fill-3" fill="#005C9C"></path>
                    <path d="M19.0349537,2.36600243 L19.3434531,0.519517835 C19.3434531,0.519517835 18.3908386,0.144655475 17.3977725,0.144655475 C16.3242475,0.144655475 13.7751258,0.630366705 13.7751258,2.99084969 C13.7751258,5.21219665 16.7672154,5.23979388 16.7672154,6.40623675 C16.7672154,7.57244965 14.083403,7.3638606 13.1979116,6.62816447 L12.8760763,8.55836066 C12.8760763,8.55836066 13.8418043,9.04407188 15.3180679,9.04407188 C16.7941092,9.04407188 19.0213956,8.25295132 19.0213956,6.10059744 C19.0213956,3.86545188 16.0024122,3.65709279 16.0024122,2.68544035 C16.0024122,1.71332797 18.1092328,1.83820543 19.0349537,2.36600243" id="Fill-4" fill="#005C9C"></path>
                    <path d="M5.25382678,4.93898407 L4.5256968,1.07284227 C4.5256968,1.07284227 4.43790335,0.298510027 3.49951361,0.298510027 L0.0902383313,0.298510027 L0.0504534513,0.444085409 C0.0504534513,0.444085409 1.68919044,0.795490126 3.26124885,2.11210793 C4.7637393,3.37031159 5.25382678,4.93898407 5.25382678,4.93898407" id="Fill-5" fill="#EE9F3F"></path>
                </g>
            </g>
        </g>
    </g>
</svg>