<?xml version="1.0" encoding="UTF-8"?>
<svg width="144px" height="23px" viewBox="0 0 144 23" version="1.1" xmlns="http://www.w3.org/2000/svg" xmlns:xlink="http://www.w3.org/1999/xlink">
    <!-- Generator: Sketch 52.2 (67145) - http://www.bohemiancoding.com/sketch -->
    <title>logos scheme CB</title>
    <desc>Created with Sketch.</desc>
    <defs>
        <linearGradient x1="0%" y1="100%" x2="100%" y2="0%" id="linearGradient-1">
            <stop stop-color="#219C42" offset="0%"></stop>
            <stop stop-color="#02819E" offset="49.2074603%"></stop>
            <stop stop-color="#052E66" offset="100%"></stop>
        </linearGradient>
    </defs>
    <g id="Page-1" stroke="none" stroke-width="1" fill="none" fill-rule="evenodd">
        <g id="logos-scheme-CB" transform="translate(1.000000, 1.000000)" fill-rule="nonzero">
            <g id="img_cb_on-copy" transform="translate(109.611949, 0.000000)">
                <rect id="Rectangle" fill="url(#linearGradient-1)" x="0" y="0" width="33.0725707" height="21.5702479" rx="3.24"></rect>
                <g id="Group" transform="translate(4.079159, 5.709771)" fill="#FFFFFF">
                    <path d="M6.3177787,4.71122411 L12.5164753,4.71122411 C12.4611927,3.50100632 12.1490086,2.25328731 11.2021587,1.45183277 C10.0742854,0.497158969 8.09874548,0.14304035 6.33349631,0.14304035 C4.49616297,0.14304035 2.46425657,0.531445795 1.33042136,1.5557647 C0.352678187,2.43811473 0.141303554,3.8578036 0.141303554,5.13338065 C0.141303554,6.46949538 0.554839053,8.02365289 1.61550612,8.91886048 C2.74337947,9.8713913 4.57095706,10.1242567 6.33349631,10.1242567 C8.04563083,10.1242567 9.90030769,9.83871169 11.0216773,8.93439669 C12.1397948,8.03115313 12.5262311,6.50967525 12.5262311,5.13338065 L12.5262311,5.12695187 L6.3177787,5.12695187 L6.3177787,4.71122411 Z" id="Fill-2"></path>
                    <path d="M12.932504,5.12716616 L12.932504,9.90107089 L21.5555049,9.90107089 L21.5555049,9.89464207 C22.8172489,9.8324972 23.8210074,8.80496393 23.8210074,7.54331589 C23.8210074,6.28113213 22.8172489,5.18770384 21.5555049,5.12502324 L21.5555049,5.12716616 L12.932504,5.12716616 Z" id="Fill-4"></path>
                    <path d="M23.6632352,2.52276033 C23.6632352,1.30664949 22.687118,0.342868254 21.4573513,0.342868254 C21.3722594,0.342868254 21.267656,0.326796306 21.1852741,0.335903743 L12.9324497,0.335903743 L12.9324497,4.71122411 L21.6264509,4.71122411 C22.76679,4.61425669 23.6632352,3.67404764 23.6632352,2.52276033" id="Fill-5"></path>
                </g>
            </g>
            <g id="img_maestro_on-copy" transform="translate(72.759655, 0.000000)">
                <path d="M3.68319677,0.446724737 L29.3893739,0.446724737 C31.1787765,0.446724737 32.6293739,1.89732215 32.6293739,3.68672474 L32.6293739,17.8835232 C32.6293739,19.6729258 31.1787765,21.1235232 29.3893739,21.1235232 L3.68319677,21.1235232 C1.89379418,21.1235232 0.443196765,19.6729258 0.443196765,17.8835232 L0.443196765,3.68672474 C0.443196765,1.89732215 1.89379418,0.446724737 3.68319677,0.446724737 Z" id="Rectangle" stroke="#979797" stroke-width="0.91125" fill="#FFFFFF"></path>
                <g id="Maestro-logo" transform="translate(6.267785, 2.777986)">
                    <g id="Group-9" transform="translate(0.000000, 0.085968)">
                        <path d="M15.1420214,14.7119677 C15.2214076,14.7119677 15.3348974,14.7275983 15.4220516,14.7627672 L15.3009831,15.1451311 C15.2176182,15.1099622 15.1344429,15.0982393 15.0550568,15.0982393 C14.7975731,15.0982393 14.6689261,15.2699806 14.6689261,15.5782945 L14.6689261,16.6239826 L14.2754062,16.6239826 L14.2754062,14.7588596 L14.6653262,14.7588596 L14.6653262,14.9851127 C14.7674481,14.821382 14.9150418,14.7119677 15.1420214,14.7119677 Z M13.7801433,15.1295005 L13.1369078,15.1295005 L13.1369078,15.9723814 C13.1369078,16.1597533 13.2011366,16.2846029 13.3979913,16.2846029 C13.5001132,16.2846029 13.6287603,16.249434 13.7460395,16.1792917 L13.8595293,16.5264867 C13.7346715,16.6161673 13.5380063,16.6708745 13.3676768,16.6708745 C12.9023495,16.6708745 12.7395986,16.4133601 12.7395986,15.9801967 L12.7395986,15.1295005 L12.3726038,15.1295005 L12.3726038,14.7588596 L12.7395986,14.7588596 L12.7394091,14.1930313 L13.1367183,14.1930313 L13.1369078,14.7588596 L13.7801433,14.7588596 L13.7801433,15.1295005 Z M11.8892773,15.2350072 C11.7795768,15.1646694 11.5561969,15.0749887 11.3254279,15.0749887 C11.1098161,15.0749887 10.981169,15.1568541 10.981169,15.2934266 C10.981169,15.4182761 11.1173947,15.453445 11.2875348,15.4766955 L11.4730215,15.5040491 C11.8665415,15.5626639 12.1048891,15.7344053 12.1048891,16.0620621 C12.1048891,16.4172678 11.8021232,16.6708745 11.2799561,16.6708745 C10.9849583,16.6708745 10.7125069,16.5927213 10.4967056,16.4287953 L10.6821924,16.1128616 C10.8146289,16.2181728 11.011294,16.3078535 11.2837455,16.3078535 C11.5524076,16.3078535 11.6962119,16.2259881 11.6962119,16.0816003 C11.6962119,15.9762891 11.59409,15.9176743 11.3784783,15.8866084 L11.1929915,15.8592548 C10.7881037,15.80064 10.5687026,15.6134634 10.5687026,15.3090572 C10.5687026,14.9384163 10.8637004,14.7119677 11.3216386,14.7119677 C11.6092473,14.7119677 11.8703307,14.7783978 12.0594174,14.907155 L11.8892773,15.2350072 Z M8.88492243,15.527495 L9.82334519,15.527495 C9.78166276,15.2387194 9.61891189,15.0749887 9.36540701,15.0749887 C9.08537696,15.0749887 8.92660485,15.2582577 8.88492243,15.527495 Z M10.2320224,15.6914211 C10.2320224,15.7461282 10.228233,15.7967323 10.2244437,15.8475318 L8.88113312,15.8475318 C8.93797278,16.1830039 9.16874179,16.3039458 9.42224666,16.3039458 C9.60394411,16.3039458 9.79682001,16.2338034 9.94820299,16.1089539 L10.1410789,16.4094525 C9.92167782,16.6005367 9.67196224,16.6708745 9.39951081,16.6708745 C8.85839726,16.6708745 8.47245597,16.2846029 8.47245597,15.6914211 C8.47245597,15.1099622 8.84324001,14.7119677 9.37298563,14.7119677 C9.87999539,14.7119677 10.228233,15.1099622 10.2320224,15.6914211 Z M16.5110994,15.0935501 C16.4303871,15.0935501 16.3555482,15.1082037 16.2863933,15.1373158 C16.2170488,15.1666232 16.1571778,15.2074582 16.1069694,15.2600161 C16.0565716,15.3125741 16.0167838,15.3756827 15.9879851,15.4489512 C15.9589968,15.5224151 15.944408,15.6031081 15.944408,15.6914211 C15.944408,15.7797341 15.9589968,15.8606225 15.9879851,15.933891 C16.0167838,16.0073549 16.0565716,16.0702681 16.1069694,16.122826 C16.1571778,16.175384 16.2170488,16.2164144 16.2863933,16.2455263 C16.3555482,16.2748337 16.4303871,16.2892921 16.5110994,16.2892921 C16.5916223,16.2892921 16.6666506,16.2748337 16.7358055,16.2455263 C16.8049604,16.2164144 16.8652104,16.175384 16.9161767,16.122826 C16.9671429,16.0702681 17.0071202,16.0073549 17.0361084,15.933891 C17.0650966,15.8606225 17.079496,15.7797341 17.079496,15.6914211 C17.079496,15.6031081 17.0650966,15.5224151 17.0361084,15.4489512 C17.0071202,15.3756827 16.9671429,15.3125741 16.9161767,15.2600161 C16.8652104,15.2074582 16.8049604,15.1666232 16.7358055,15.1373158 C16.6666506,15.1082037 16.5916223,15.0935501 16.5110994,15.0935501 Z M16.5110994,14.7098185 C16.6507355,14.7098185 16.7801404,14.7348275 16.8991248,14.7848454 C17.0181091,14.8348634 17.1209889,14.9036381 17.2079535,14.9911696 C17.2947288,15.0788963 17.3629364,15.1824492 17.4118185,15.301828 C17.4610795,15.4214023 17.4855206,15.5511363 17.4855206,15.6914211 C17.4855206,15.8317058 17.4610795,15.96144 17.4118185,16.0810142 C17.3629364,16.200393 17.2947288,16.3039458 17.2079535,16.3916726 C17.1209889,16.4792041 17.0181091,16.5479788 16.8991248,16.5979967 C16.7801404,16.6480147 16.6507355,16.6730237 16.5110994,16.6730237 C16.3712738,16.6730237 16.2418688,16.6480147 16.1228845,16.5979967 C16.0039002,16.5479788 15.9012099,16.4792041 15.815003,16.3916726 C15.7287962,16.3039458 15.661157,16.200393 15.6120855,16.0810142 C15.5630139,15.96144 15.5383834,15.8317058 15.5383834,15.6914211 C15.5383834,15.5511363 15.5630139,15.4214023 15.6120855,15.301828 C15.661157,15.1824492 15.7287962,15.0788963 15.815003,14.9911696 C15.9012099,14.9036381 16.0039002,14.8348634 16.1228845,14.7848454 C16.2418688,14.7348275 16.3712738,14.7098185 16.5110994,14.7098185 Z M6.62630387,15.6914211 C6.62630387,16.0190779 6.83452649,16.2885106 7.17499604,16.2885106 C7.50030835,16.2885106 7.7198989,16.0308008 7.7198989,15.6914211 C7.7198989,15.3520414 7.50030835,15.094527 7.17499604,15.094527 C6.83452649,15.094527 6.62630387,15.3635689 6.62630387,15.6914211 Z M8.09068294,15.6914211 L8.09068294,16.6239826 L7.69716304,16.6239826 L7.69716304,16.3977294 C7.57230525,16.5655632 7.38302919,16.6708745 7.12573501,16.6708745 C6.61872525,16.6708745 6.22141604,16.261157 6.22141604,15.6914211 C6.22141604,15.1216851 6.61872525,14.7119677 7.12573501,14.7119677 C7.38302919,14.7119677 7.57230525,14.8172789 7.69716304,14.9851127 L7.69716304,14.7588596 L8.09068294,14.7588596 L8.09068294,15.6914211 Z M5.87336787,16.6239826 L5.87336787,15.453445 C5.87336787,15.0124663 5.60091644,14.7158753 5.16192481,14.7119677 C4.9311558,14.7080601 4.69280817,14.7823054 4.52626797,15.0437275 C4.40141018,14.8368173 4.20474497,14.7119677 3.92850423,14.7119677 C3.73543886,14.7119677 3.54635226,14.7705825 3.39875861,14.9890204 L3.39875861,14.7588596 L3.00523871,14.7588596 L3.00523871,16.6239826 L3.40254793,16.6239826 L3.40254793,15.5900175 C3.40254793,15.266073 3.57647728,15.094527 3.8451394,15.094527 C4.1062229,15.094527 4.23865929,15.2699806 4.23865929,15.5861098 L4.23865929,16.6239826 L4.63596851,16.6239826 L4.63596851,15.5900175 C4.63596851,15.266073 4.81766595,15.094527 5.07874944,15.094527 C5.34741156,15.094527 5.47605866,15.2699806 5.47605866,15.5861098 L5.47605866,16.6239826 L5.87336787,16.6239826 Z" id="Fill-2" fill="#000000"></path>
                        <g id="Group-5">
                            <g id="Group-4">
                                <polygon id="Fill-4" fill="#7673C0" points="7.86746542 11.7262954 13.5761442 11.7262954 13.5761442 1.40378548 7.86746542 1.40378548"></polygon>
                                <path d="M8.22997558,6.56502219 C8.22997558,4.47083246 9.20443798,2.6058657 10.7218591,1.40376724 C9.61201952,0.524623338 8.21185279,0.000164121451 6.68990092,0.000164121451 C3.08690912,0.000164121451 0.166240349,2.93939696 0.166240349,6.56502219 C0.166240349,10.1906474 3.08690912,13.1298802 6.68990092,13.1298802 C8.21185279,13.1298802 9.61201952,12.605421 10.7218591,11.7262771 C9.20443798,10.5241787 8.22997558,8.65921191 8.22997558,6.56502219" id="Fill-6" fill="#EB001B"></path>
                                <path d="M21.2774961,6.56502219 C21.2774961,10.1906474 18.3566461,13.1298802 14.7538355,13.1298802 C13.2318836,13.1298802 11.8315357,12.605421 10.7218772,11.7262771 C12.2392984,10.5241787 13.2137608,8.65921191 13.2137608,6.56502219 C13.2137608,4.47083246 12.2392984,2.6058657 10.7218772,1.40376724 C11.8315357,0.524623338 13.2318836,0.000164121451 14.7538355,0.000164121451 C18.3566461,0.000164121451 21.2774961,2.93939696 21.2774961,6.56502219" id="Fill-8" fill="#00A1DF"></path>
                            </g>
                        </g>
                    </g>
                </g>
            </g>
            <g id="img_mastercard_on-copy" transform="translate(35.907362, 0.000000)">
                <path d="M3.68319677,0.446724737 L29.3893739,0.446724737 C31.1787765,0.446724737 32.6293739,1.89732215 32.6293739,3.68672474 L32.6293739,17.8835232 C32.6293739,19.6729258 31.1787765,21.1235232 29.3893739,21.1235232 L3.68319677,21.1235232 C1.89379418,21.1235232 0.443196765,19.6729258 0.443196765,17.8835232 L0.443196765,3.68672474 C0.443196765,1.89732215 1.89379418,0.446724737 3.68319677,0.446724737 Z" id="Rectangle" stroke="#979797" stroke-width="0.91125" fill="#FFFFFF"></path>
                <g id="Mastercard-logo" transform="translate(6.589412, 2.854886)">
                    <g id="Group-3" transform="translate(0.053596, 13.541140)" fill="#000000">
                        <path d="M2.83479177,2.8981416 L2.83479177,1.60046626 C2.83479177,1.10302404 2.57539906,0.778605206 2.13072584,0.778605206 C1.90838923,0.778605206 1.66752457,0.865116896 1.50077211,1.14627989 C1.37107576,0.90837274 1.18579525,0.778605206 0.907874489,0.778605206 C0.722593981,0.778605206 0.537313473,0.843488974 0.389089067,1.08139612 L0.389089067,0.821861051 L0,0.821861051 L0,2.8981416 L0.389089067,2.8981416 L0.389089067,1.75186172 C0.389089067,1.38418704 0.555841523,1.21116366 0.815234235,1.21116366 C1.07462694,1.21116366 1.2043233,1.40581496 1.2043233,1.75186172 L1.2043233,2.8981416 L1.59341237,2.8981416 L1.59341237,1.75186172 C1.59341237,1.38418704 1.77869288,1.21116366 2.01955754,1.21116366 C2.27895025,1.21116366 2.40864661,1.40581496 2.40864661,1.75186172 L2.40864661,2.8981416 L2.83479177,2.8981416 Z M8.59701557,0.821861051 L7.96706184,0.821861051 L7.96706184,0.194651302 L7.57797277,0.194651302 L7.57797277,0.821861051 L7.22593981,0.821861051 L7.22593981,1.23279158 L7.57797277,1.23279158 L7.57797277,2.18442017 C7.57797277,2.66023445 7.74472523,2.94139745 8.18939845,2.94139745 C8.35615091,2.94139745 8.54143142,2.87651368 8.67112777,2.79000199 L8.55995947,2.40069938 C8.44879117,2.48721108 8.3190948,2.508839 8.22645456,2.508839 C8.04117405,2.508839 7.96706184,2.37907147 7.96706184,2.16279224 L7.96706184,1.23279158 L8.59701557,1.23279158 L8.59701557,0.821861051 Z M11.8950086,0.778605206 C11.672672,0.778605206 11.5244475,0.90837274 11.4318074,1.08139612 L11.4318074,0.821861051 L11.0427183,0.821861051 L11.0427183,2.8981416 L11.4318074,2.8981416 L11.4318074,1.73023379 C11.4318074,1.38418704 11.5615037,1.18953573 11.8023683,1.18953573 C11.8764806,1.18953573 11.9691208,1.21116366 12.043233,1.23279158 L12.1544013,0.800233129 C12.0802891,0.778605206 11.9691208,0.778605206 11.8950086,0.778605206 Z M6.91096294,0.994884428 C6.72568243,0.843488974 6.46628973,0.778605206 6.18836896,0.778605206 C5.74369574,0.778605206 5.44724693,1.03814028 5.44724693,1.4490708 C5.44724693,1.79511756 5.66958354,1.98976886 6.05867261,2.05465263 L6.24395312,2.07628055 C6.44776168,2.1195364 6.55892998,2.18442017 6.55892998,2.29255977 C6.55892998,2.44395523 6.41070557,2.55209485 6.15131286,2.55209485 C5.89192016,2.55209485 5.6881116,2.44395523 5.55841523,2.33581562 L5.37313473,2.68186238 C5.57694329,2.85488576 5.85486405,2.94139745 6.13278481,2.94139745 C6.65157024,2.94139745 6.94801905,2.66023445 6.94801905,2.27093185 C6.94801905,1.90325717 6.70715439,1.70860587 6.33659337,1.6437221 L6.15131286,1.62209417 C5.9845604,1.60046626 5.85486405,1.55721041 5.85486405,1.42744288 C5.85486405,1.27604742 5.9845604,1.18953573 6.18836896,1.18953573 C6.41070557,1.18953573 6.63304219,1.29767534 6.74421049,1.36255911 L6.91096294,0.994884428 Z M17.2496153,0.778605206 C17.0272787,0.778605206 16.8790543,0.90837274 16.7864141,1.08139612 L16.7864141,0.821861051 L16.397325,0.821861051 L16.397325,2.8981416 L16.7864141,2.8981416 L16.7864141,1.73023379 C16.7864141,1.38418704 16.9161104,1.18953573 17.156975,1.18953573 C17.2310872,1.18953573 17.3237275,1.21116366 17.3978397,1.23279158 L17.509008,0.800233129 C17.4348958,0.778605206 17.3237275,0.778605206 17.2496153,0.778605206 Z M12.2840976,1.86000132 C12.2840976,2.48721108 12.6546587,2.94139745 13.2290283,2.94139745 C13.488421,2.94139745 13.6737015,2.87651368 13.8589819,2.7034903 L13.6737015,2.33581562 C13.5254771,2.46558315 13.3772527,2.53046692 13.2105002,2.53046692 C12.8955234,2.53046692 12.6731867,2.27093185 12.6731867,1.86000132 C12.6731867,1.47069872 12.8955234,1.21116366 13.2105002,1.18953573 C13.3772527,1.18953573 13.5254771,1.25441949 13.6737015,1.38418704 L13.8589819,1.01651236 C13.6737015,0.843488974 13.488421,0.778605206 13.2290283,0.778605206 C12.6546587,0.778605206 12.2840976,1.23279158 12.2840976,1.86000132 Z M15.8785395,1.86000132 L15.8785395,0.821861051 L15.4894504,0.821861051 L15.4894504,1.08139612 C15.3597541,0.886744818 15.1744736,0.778605206 14.933609,0.778605206 C14.4333515,0.778605206 14.0442625,1.23279158 14.0442625,1.86000132 C14.0442625,2.48721108 14.4333515,2.94139745 14.933609,2.94139745 C15.1930016,2.94139745 15.3782822,2.83325783 15.4894504,2.63860653 L15.4894504,2.8981416 L15.8785395,2.8981416 L15.8785395,1.86000132 Z M14.4518797,1.86000132 C14.4518797,1.49232664 14.6556882,1.18953573 14.9891931,1.18953573 C15.3041699,1.18953573 15.5265066,1.47069872 15.5265066,1.86000132 C15.5265066,2.227676 15.3041699,2.53046692 14.9891931,2.53046692 C14.6556882,2.508839 14.4518797,2.227676 14.4518797,1.86000132 Z M9.80133889,0.778605206 C9.28255345,0.778605206 8.91199243,1.21116366 8.91199243,1.86000132 C8.91199243,2.508839 9.28255345,2.94139745 9.81986693,2.94139745 C10.0792597,2.94139745 10.3386523,2.85488576 10.5424609,2.66023445 L10.3571803,2.33581562 C10.208956,2.46558315 10.0236755,2.55209485 9.83839496,2.55209485 C9.59753032,2.55209485 9.35666565,2.42232731 9.3010815,2.05465263 L10.6165731,2.05465263 C10.6165731,1.98976886 10.6165731,1.94651302 10.6165731,1.88162925 C10.6351011,1.21116366 10.3015963,0.778605206 9.80133889,0.778605206 Z M9.80133889,1.16790781 C10.0422035,1.16790781 10.208956,1.34093119 10.2460121,1.66535002 L9.31960955,1.66535002 C9.35666565,1.38418704 9.52341811,1.16790781 9.80133889,1.16790781 Z M19.4544533,1.86000132 L19.4544533,0 L19.0653643,0 L19.0653643,1.08139612 C18.9356679,0.886744818 18.7503874,0.778605206 18.5095227,0.778605206 C18.0092654,0.778605206 17.6201763,1.23279158 17.6201763,1.86000132 C17.6201763,2.48721108 18.0092654,2.94139745 18.5095227,2.94139745 C18.7689155,2.94139745 18.954196,2.83325783 19.0653643,2.63860653 L19.0653643,2.8981416 L19.4544533,2.8981416 L19.4544533,1.86000132 Z M18.0277934,1.86000132 C18.0277934,1.49232664 18.2316019,1.18953573 18.5651069,1.18953573 C18.8800838,1.18953573 19.1024203,1.47069872 19.1024203,1.86000132 C19.1024203,2.227676 18.8800838,2.53046692 18.5651069,2.53046692 C18.2316019,2.508839 18.0277934,2.227676 18.0277934,1.86000132 Z M5.02110176,1.86000132 L5.02110176,0.821861051 L4.6320127,0.821861051 L4.6320127,1.08139612 C4.50231634,0.886744818 4.31703584,0.778605206 4.07617117,0.778605206 C3.57591381,0.778605206 3.18682474,1.23279158 3.18682474,1.86000132 C3.18682474,2.48721108 3.57591381,2.94139745 4.07617117,2.94139745 C4.33556389,2.94139745 4.5208444,2.83325783 4.6320127,2.63860653 L4.6320127,2.8981416 L5.02110176,2.8981416 L5.02110176,1.86000132 Z M3.57591381,1.86000132 C3.57591381,1.49232664 3.77972237,1.18953573 4.11322728,1.18953573 C4.42820414,1.18953573 4.65054075,1.47069872 4.65054075,1.86000132 C4.65054075,2.227676 4.42820414,2.53046692 4.11322728,2.53046692 C3.77972237,2.508839 3.57591381,2.227676 3.57591381,1.86000132 Z" id="mastercard"></path>
                    </g>
                    <g id="Group-2">
                        <polygon id="Fill-4" fill="#FF5F00" points="6.99915447 11.3647989 12.9270028 11.3647989 12.9270028 1.36041645 6.99915447 1.36041645"></polygon>
                        <path d="M7.61106305,6.36251931 C7.61106305,4.33287001 8.53081606,2.5253793 9.96304441,1.36032808 C8.91551469,0.508278337 7.59395773,-1.76737138e-05 6.15745304,-1.76737138e-05 C2.75674455,-1.76737138e-05 5.13159576e-05,2.84863153 5.13159576e-05,6.36251931 C5.13159576e-05,9.87640707 2.75674455,12.7250563 6.15745304,12.7250563 C7.59395773,12.7250563 8.91551469,12.2167602 9.96304441,11.3647105 C8.53081606,10.1996593 7.61106305,8.39216861 7.61106305,6.36251931" id="Fill-6" fill="#EB001B"></path>
                        <path d="M19.9260376,6.36251931 C19.9260376,9.87640707 17.1691732,12.7250563 13.7686359,12.7250563 C12.3321311,12.7250563 11.0104031,12.2167602 9.96304441,11.3647105 C11.3952728,10.1996593 12.3150259,8.39216861 12.3150259,6.36251931 C12.3150259,4.33287001 11.3952728,2.5253793 9.96304441,1.36032808 C11.0104031,0.508278337 12.3321311,-1.76737138e-05 13.7686359,-1.76737138e-05 C17.1691732,-1.76737138e-05 19.9260376,2.84863153 19.9260376,6.36251931" id="Fill-8" fill="#F79E1B"></path>
                    </g>
                </g>
            </g>
            <g id="VISA">
                <path d="M3.68319677,0.446724737 L29.3893739,0.446724737 C31.1787765,0.446724737 32.6293739,1.89732215 32.6293739,3.68672474 L32.6293739,17.8835232 C32.6293739,19.6729258 31.1787765,21.1235232 29.3893739,21.1235232 L3.68319677,21.1235232 C1.89379418,21.1235232 0.443196765,19.6729258 0.443196765,17.8835232 L0.443196765,3.68672474 C0.443196765,1.89732215 1.89379418,0.446724737 3.68319677,0.446724737 Z" id="Rectangle" stroke="#979797" stroke-width="0.91125" fill="#FFFFFF"></path>
                <g id="visa" transform="translate(3.137815, 6.344190)">
                    <polyline id="Fill-1" fill="#005C9C" points="11.5431718 8.89619674 9.37989669 8.89619674 10.7319158 0.298510027 12.8954132 0.298510027 11.5431718 8.89619674"></polyline>
                    <path d="M7.56001626,0.298510027 L5.49742582,6.21190626 L5.25360452,4.93852413 L5.25382678,4.93898407 L4.5256968,1.07284227 C4.5256968,1.07284227 4.43790335,0.298510027 3.49951361,0.298510027 L0.0902383313,0.298510027 L0.0504534513,0.444085409 C0.0504534513,0.444085409 1.09330628,0.668312895 2.31307959,1.42700671 L4.19252622,8.89619674 L6.44648413,8.89619674 L9.88820964,0.298510027 L7.56001626,0.298510027" id="Fill-2" fill="#005C9C"></path>
                    <path d="M24.5752759,8.89619674 L26.5616306,8.89619674 L24.8297659,0.298510027 L23.0905665,0.298510027 C22.287312,0.298510027 22.0919438,0.939225692 22.0919438,0.939225692 L18.8658124,8.89619674 L21.120437,8.89619674 L21.5716287,7.61913496 L24.3216752,7.61913496 L24.5752759,8.89619674 Z M22.194851,5.85475213 L23.3317206,2.63737518 L23.9711682,5.85475213 L22.194851,5.85475213 Z" id="Fill-3" fill="#005C9C"></path>
                    <path d="M19.0349537,2.36600243 L19.3434531,0.519517835 C19.3434531,0.519517835 18.3908386,0.144655475 17.3977725,0.144655475 C16.3242475,0.144655475 13.7751258,0.630366705 13.7751258,2.99084969 C13.7751258,5.21219665 16.7672154,5.23979388 16.7672154,6.40623675 C16.7672154,7.57244965 14.083403,7.3638606 13.1979116,6.62816447 L12.8760763,8.55836066 C12.8760763,8.55836066 13.8418043,9.04407188 15.3180679,9.04407188 C16.7941092,9.04407188 19.0213956,8.25295132 19.0213956,6.10059744 C19.0213956,3.86545188 16.0024122,3.65709279 16.0024122,2.68544035 C16.0024122,1.71332797 18.1092328,1.83820543 19.0349537,2.36600243" id="Fill-4" fill="#005C9C"></path>
                    <path d="M5.25382678,4.93898407 L4.5256968,1.07284227 C4.5256968,1.07284227 4.43790335,0.298510027 3.49951361,0.298510027 L0.0902383313,0.298510027 L0.0504534513,0.444085409 C0.0504534513,0.444085409 1.68919044,0.795490126 3.26124885,2.11210793 C4.7637393,3.37031159 5.25382678,4.93898407 5.25382678,4.93898407" id="Fill-5" fill="#EE9F3F"></path>
                </g>
            </g>
        </g>
    </g>
</svg>