<svg id="Layer_1" data-name="Layer 1" xmlns="http://www.w3.org/2000/svg" viewBox="0 0 600 175"><defs><style>.cls-1{fill:#23201f;}.cls-2{fill:#4ca97b;}</style></defs><title>PAYPLUG_LOGO</title><path class="cls-1" d="M439.8,118.79c-10.51,0-19.13-6.35-19.13-21.63V65.61h14.1v29.1c0,8,3.8,11.48,9.73,11.48,6.82,0,11.41-4.46,11.41-15.83V65.61h13.76v51.51H456.13V109.2h-.22C452.78,114.78,447.85,118.79,439.8,118.79Z"/><rect class="cls-1" x="395.81" y="45.45" width="13.76" height="71.67"/><path class="cls-1" d="M362.06,45.45H334.77v71.67h14.31V94.61h13c17.56,0,26.4-10.59,26.4-24.86C388.46,55.93,379.62,45.45,362.06,45.45Zm-1.57,36H349.08V58.6h11.41c7.72,0,12.64,3.68,12.64,11.26S368.21,81.46,360.49,81.46Z"/><path class="cls-1" d="M255.86,66v7.38h-.22c-3.25-5.45-8.84-9.08-17.23-9.08-13.54,0-24.84,10-24.84,27.91s11.3,27.92,24.84,27.92c8.39,0,14-3.63,17.23-9.08h.22v7.37h13.65V66Zm-14,41c-8.27,0-14-5.9-14-14.75s5.71-14.75,14-14.75,14,5.9,14,14.75S250.15,106.93,241.87,106.93Z"/><path class="cls-1" d="M184.7,45.45H157.4v72.94h14.32V95.49h13c17.56,0,26.4-10.78,26.4-25.3C211.1,56.12,202.26,45.45,184.7,45.45ZM183.13,82.1H171.72V58.84h11.41c7.72,0,12.64,3.74,12.64,11.46S190.85,82.1,183.13,82.1Z"/><path class="cls-1" d="M532.72,65.61H519.07v7.25h-.23c-3.24-5.35-8.83-8.92-17.22-8.92-13.54,0-24.83,9.81-24.83,27.43,0,17.39,11.18,27.09,24.72,27.09,8.72,0,14.09-3.79,17.33-8.59h.23v2.32c-.08,10.79-7.28,15.72-14,15.72a24.37,24.37,0,0,1-14.2-4.44l-8.23,10.88a37.62,37.62,0,0,0,22.43,7.2c17.94,0,27.63-15.22,27.63-29.54Zm-27.63,40.25c-8.28,0-14-5.8-14-14.49s5.71-14.5,14-14.5,14,5.8,14,14.5S513.36,105.86,505.09,105.86Z"/><ellipse class="cls-2" cx="110.68" cy="67.88" rx="15.33" ry="15.33" transform="translate(-13.06 28.57) rotate(-13.9)"/><ellipse class="cls-2" cx="82.61" cy="95.97" rx="15.33" ry="15.33" transform="translate(-20.63 22.65) rotate(-13.9)"/><ellipse class="cls-1" cx="115.73" cy="101.01" rx="9.6" ry="9.61" transform="translate(-20.87 30.76) rotate(-13.9)"/><ellipse class="cls-1" cx="77.56" cy="62.84" rx="9.6" ry="9.61" transform="translate(-12.82 20.47) rotate(-13.9)"/><polygon class="cls-1" points="328.53 65.97 318.6 65.97 304.79 97.76 290.21 65.97 275.74 65.97 297.99 113.24 285.36 141.09 299.69 141.09 328.53 75.66 328.53 65.97"/></svg>