<?xml version="1.0" encoding="UTF-8"?>
<svg width="214px" height="124px" viewBox="0 0 214 124" version="1.1" xmlns="http://www.w3.org/2000/svg" xmlns:xlink="http://www.w3.org/1999/xlink">
    <title>Jauge Copy 2</title>
    <defs>
        <rect id="path-1" x="0" y="0" width="214" height="124" rx="8"></rect>
        <circle id="path-3" cx="10.486" cy="10.486" r="10.486"></circle>
        <circle id="path-4" cx="91.592" cy="10.486" r="10.486"></circle>
    </defs>
    <g id="Jauge-Copy-2" stroke="none" stroke-width="1" fill="none" fill-rule="evenodd">
        <mask id="mask-2" fill="white">
            <use xlink:href="#path-1"></use>
        </mask>
        <rect stroke="#D2D4D9" x="0.5" y="0.5" width="213" height="123" rx="8"></rect>
        <g id="Group-5" mask="url(#mask-2)">
            <g transform="translate(13.200000, 7.000000)">
                <rect id="Rectangle-Copy" fill="#FFFFFF" x="0" y="0" width="190" height="110" rx="4"></rect>
                <g id="Group-4" stroke-width="1" fill="none" transform="translate(9.435845, 26.217744)">
                    <g id="ProgressBar">
                        <g id="250-€" transform="translate(34.530916, 0.190032)" fill="#0555EB" fill-rule="nonzero">
                            <path d="M0,7.945392 C1.01464533,7.13048 1.809584,6.46137333 2.384816,5.938072 C2.960048,5.41477067 3.4454,4.86750133 3.840872,4.296264 C4.236344,3.72502667 4.43408,3.163776 4.43408,2.612512 C4.43408,2.09320533 4.308248,1.683752 4.056584,1.384152 C3.80492,1.084552 3.39946133,0.934752 2.840208,0.934752 C2.29693333,0.934752 1.875496,1.10452533 1.575896,1.444072 C1.276296,1.78361867 1.114512,2.23701333 1.090544,2.804256 L0.035952,2.804256 C0.0679093333,1.90945067 0.339546667,1.21837333 0.850864,0.731024 C1.36218133,0.243674667 2.02130133,0 2.828224,0 C3.65112533,0 4.30425333,0.227696 4.787608,0.683088 C5.27096267,1.13848 5.51264,1.76564267 5.51264,2.564576 C5.51264,3.22769067 5.314904,3.87282933 4.919432,4.5 C4.52396,5.12715467 4.07456,5.67841867 3.571232,6.153784 C3.067904,6.62914933 2.42476267,7.18241067 1.641808,7.813568 L5.764304,7.813568 L5.764304,8.724352 L0,8.724352 L0,7.945392 Z" id="Path"></path>
                            <path d="M12.547248,1.102528 L8.340864,1.102528 L8.340864,3.83488 C8.52461867,3.57922133 8.796256,3.36950133 9.155776,3.20572 C9.515296,3.04193867 9.90277867,2.960048 10.318224,2.960048 C10.9813387,2.960048 11.5206187,3.097864 11.936064,3.373496 C12.3515093,3.649128 12.649112,4.00465333 12.828872,4.440072 C13.008632,4.87549067 13.098512,5.33687467 13.098512,5.824224 C13.098512,6.399456 12.990656,6.914768 12.774944,7.37016 C12.559232,7.825552 12.229672,8.185072 11.786264,8.44872 C11.342856,8.712368 10.7935893,8.844192 10.138464,8.844192 C9.299584,8.844192 8.62049067,8.62848 8.101184,8.197056 C7.58187733,7.765632 7.26629867,7.1904 7.154448,6.47136 L8.221024,6.47136 C8.32488533,6.926752 8.544592,7.28227733 8.880144,7.537936 C9.215696,7.79359467 9.63913067,7.921424 10.150448,7.921424 C10.7816053,7.921424 11.2569707,7.73167733 11.576544,7.352184 C11.8961173,6.97269067 12.055904,6.47136 12.055904,5.848192 C12.055904,5.225024 11.8961173,4.74366667 11.576544,4.40412 C11.2569707,4.06457333 10.7856,3.8948 10.162432,3.8948 C9.73899733,3.8948 9.36949067,3.996664 9.053912,4.200392 C8.73833333,4.40412 8.50864,4.68174933 8.364832,5.03328 L7.334208,5.03328 L7.334208,0.143808 L12.547248,0.143808 L12.547248,1.102528 Z" id="Path"></path>
                            <path d="M14.548576,4.398128 C14.548576,3.023968 14.7722773,1.95139467 15.21968,1.180424 C15.6670827,0.409453333 16.4500373,0.023968 17.568544,0.023968 C18.6790613,0.023968 19.4580213,0.409453333 19.905424,1.180424 C20.3528267,1.95139467 20.576528,3.023968 20.576528,4.398128 C20.576528,5.79626133 20.3528267,6.88281067 19.905424,7.657776 C19.4580213,8.43274133 18.6790613,8.820224 17.568544,8.820224 C16.4500373,8.820224 15.6670827,8.43274133 15.21968,7.657776 C14.7722773,6.88281067 14.548576,5.79626133 14.548576,4.398128 Z M19.497968,4.398128 C19.497968,3.703056 19.4520293,3.11384267 19.360152,2.630488 C19.2682747,2.14713333 19.0805253,1.75765333 18.796904,1.462048 C18.5132827,1.16644267 18.1038293,1.01864 17.568544,1.01864 C17.0252693,1.01864 16.6118213,1.16644267 16.3282,1.462048 C16.0445787,1.75765333 15.8568293,2.14713333 15.764952,2.630488 C15.6730747,3.11384267 15.627136,3.703056 15.627136,4.398128 C15.627136,5.117168 15.6730747,5.72036267 15.764952,6.207712 C15.8568293,6.69506133 16.0445787,7.08653867 16.3282,7.382144 C16.6118213,7.67774933 17.0252693,7.825552 17.568544,7.825552 C18.1038293,7.825552 18.5132827,7.67774933 18.796904,7.382144 C19.0805253,7.08653867 19.2682747,6.69506133 19.360152,6.207712 C19.4520293,5.72036267 19.497968,5.117168 19.497968,4.398128 Z" id="Shape"></path>
                            <path d="M27.857664,8.07208 C28.349864,8.07208 28.7747967,7.963796 29.132462,7.747228 C29.4901273,7.53066 29.7641187,7.22221467 29.954436,6.821892 L31.017588,6.821892 C30.7682067,7.47815867 30.3646027,7.98512467 29.806776,8.34279 C29.2489493,8.70045533 28.5992453,8.879288 27.857664,8.879288 C27.0832693,8.879288 26.400752,8.66600133 25.810112,8.239428 C25.219472,7.81285467 24.8125867,7.24190267 24.589456,6.526572 L23.634588,6.526572 L23.634588,5.896556 L24.45164,5.896556 C24.431952,5.72592667 24.422108,5.55529733 24.422108,5.384668 C24.422108,5.22060133 24.431952,5.059816 24.45164,4.902312 L23.634588,4.902312 L23.634588,4.28214 L24.579612,4.28214 C24.7239907,3.80306533 24.9553247,3.381414 25.273614,3.017186 C25.5919033,2.652958 25.972538,2.37076333 26.415518,2.170602 C26.858498,1.97044067 27.3392133,1.87036 27.857664,1.87036 C28.5992453,1.87036 29.2489493,2.05083333 29.806776,2.41178 C30.3646027,2.77272667 30.7682067,3.28461467 31.017588,3.947444 L29.954436,3.947444 C29.7641187,3.54055867 29.491768,3.228832 29.137384,3.012264 C28.783,2.795696 28.3564267,2.687412 27.857664,2.687412 C27.3064,2.687412 26.8256847,2.82850933 26.415518,3.110704 C26.0053513,3.39289867 25.711672,3.78337733 25.53448,4.28214 L27.857664,4.28214 L27.857664,4.902312 L25.376976,4.902312 C25.357288,5.059816 25.347444,5.22060133 25.347444,5.384668 C25.347444,5.57498533 25.3605693,5.74561467 25.38682,5.896556 L27.857664,5.896556 L27.857664,6.526572 L25.544324,6.526572 C25.7346413,7.01220933 26.0348833,7.39120333 26.44505,7.663554 C26.8552167,7.93590467 27.326088,8.07208 27.857664,8.07208 Z" id="Path"></path>
                        </g>
                        <g id="100-€" transform="translate(0.583240, 49.800176)" fill="#575757" fill-rule="nonzero">
                            <polygon id="Path" points="0 1.22408 0 0.11984 2.06296 0.11984 2.06296 6.36008 0.83032 6.36008 0.83032 1.22408"></polygon>
                            <path d="M3.24424,3.15864 C3.24424,2.17138667 3.42257333,1.39813333 3.77924,0.83888 C4.13590667,0.279626667 4.72797333,0 5.55544,0 C6.38290667,0 6.97497333,0.279626667 7.33164,0.83888 C7.68830667,1.39813333 7.86664,2.17138667 7.86664,3.15864 C7.86664,4.1516 7.68830667,4.93056 7.33164,5.49552 C6.97497333,6.06048 6.38290667,6.34296 5.55544,6.34296 C4.72797333,6.34296 4.13590667,6.06048 3.77924,5.49552 C3.42257333,4.93056 3.24424,4.1516 3.24424,3.15864 Z M6.68536,3.15864 C6.68536,2.73634667 6.65825333,2.38110667 6.60404,2.09292 C6.54982667,1.80473333 6.4414,1.56933333 6.27876,1.38672 C6.11612,1.20410667 5.87501333,1.1128 5.55544,1.1128 C5.23586667,1.1128 4.99476,1.20410667 4.83212,1.38672 C4.66948,1.56933333 4.56105333,1.80473333 4.50684,2.09292 C4.45262667,2.38110667 4.42552,2.73634667 4.42552,3.15864 C4.42552,3.59234667 4.4512,3.95614667 4.50256,4.25004 C4.55392,4.54393333 4.66234667,4.78076 4.82784,4.96052 C4.99333333,5.14028 5.23586667,5.23016 5.55544,5.23016 C5.87501333,5.23016 6.11754667,5.14028 6.28304,4.96052 C6.44853333,4.78076 6.55696,4.54393333 6.60832,4.25004 C6.65968,3.95614667 6.68536,3.59234667 6.68536,3.15864 Z" id="Shape"></path>
                            <path d="M8.774,3.15864 C8.774,2.17138667 8.95233333,1.39813333 9.309,0.83888 C9.66566667,0.279626667 10.2577333,0 11.0852,0 C11.9126667,0 12.5047333,0.279626667 12.8614,0.83888 C13.2180667,1.39813333 13.3964,2.17138667 13.3964,3.15864 C13.3964,4.1516 13.2180667,4.93056 12.8614,5.49552 C12.5047333,6.06048 11.9126667,6.34296 11.0852,6.34296 C10.2577333,6.34296 9.66566667,6.06048 9.309,5.49552 C8.95233333,4.93056 8.774,4.1516 8.774,3.15864 Z M12.21512,3.15864 C12.21512,2.73634667 12.1880133,2.38110667 12.1338,2.09292 C12.0795867,1.80473333 11.97116,1.56933333 11.80852,1.38672 C11.64588,1.20410667 11.4047733,1.1128 11.0852,1.1128 C10.7656267,1.1128 10.52452,1.20410667 10.36188,1.38672 C10.19924,1.56933333 10.0908133,1.80473333 10.0366,2.09292 C9.98238667,2.38110667 9.95528,2.73634667 9.95528,3.15864 C9.95528,3.59234667 9.98096,3.95614667 10.03232,4.25004 C10.08368,4.54393333 10.1921067,4.78076 10.3576,4.96052 C10.5230933,5.14028 10.7656267,5.23016 11.0852,5.23016 C11.4047733,5.23016 11.6473067,5.14028 11.8128,4.96052 C11.9782933,4.78076 12.08672,4.54393333 12.13808,4.25004 C12.18944,3.95614667 12.21512,3.59234667 12.21512,3.15864 Z" id="Shape"></path>
                            <path d="M17.71278,5.57684 C17.95674,5.57684 18.17074,5.52334 18.35478,5.41634 C18.53882,5.30934 18.68434,5.15312 18.79134,4.94768 L19.81854,4.94768 C19.66874,5.40564 19.40659,5.76195 19.03209,6.01661 C18.65759,6.27127 18.21996,6.3986 17.7192,6.3986 C17.2056,6.3986 16.75513,6.26057 16.36779,5.98451 C15.98045,5.70845 15.71188,5.3393 15.56208,4.87706 L15.01638,4.87706 L15.01638,4.3442 L15.45936,4.3442 C15.4508,4.24148 15.44652,4.16444 15.44652,4.11308 C15.44652,4.05316 15.4508,3.97184 15.45936,3.86912 L15.01638,3.86912 L15.01638,3.33626 L15.5685,3.33626 C15.7183,2.87402 15.98687,2.50594 16.37421,2.23202 C16.76155,1.9581 17.20988,1.82114 17.7192,1.82114 C18.21996,1.82114 18.65759,1.94954 19.03209,2.20634 C19.40659,2.46314 19.66874,2.81838 19.81854,3.27206 L18.79134,3.27206 C18.68434,3.06662 18.53882,2.91147 18.35478,2.80661 C18.17074,2.70175 17.95674,2.64932 17.71278,2.64932 C17.4517,2.64932 17.21951,2.70924 17.01621,2.82908 C16.81291,2.94892 16.65562,3.11798 16.54434,3.33626 L17.77698,3.33626 L17.77698,3.86912 L16.38384,3.86912 C16.37528,3.97184 16.371,4.05316 16.371,4.11308 C16.371,4.16444 16.37528,4.24148 16.38384,4.3442 L17.77698,4.3442 L17.77698,4.87706 L16.53792,4.87706 C16.6492,5.09534 16.80756,5.26654 17.013,5.39066 C17.21844,5.51478 17.4517,5.57684 17.71278,5.57684 Z" id="Path"></path>
                        </g>
                        <g id="1500-€" transform="translate(111.912798, 0.000000)" fill="#0555EB" fill-rule="nonzero">
                            <polygon id="Path" points="0 1.126496 0 0.131824 2.252992 0.131824 2.252992 8.796256 1.150464 8.796256 1.150464 1.126496"></polygon>
                            <path d="M9.64712,1.07856 L5.440736,1.07856 L5.440736,3.810912 C5.62449067,3.55525333 5.896128,3.34553333 6.255648,3.181752 C6.615168,3.01797067 7.00265067,2.93608 7.418096,2.93608 C8.08121067,2.93608 8.62049067,3.073896 9.035936,3.349528 C9.45138133,3.62516 9.748984,3.98068533 9.928744,4.416104 C10.108504,4.85152267 10.198384,5.31290667 10.198384,5.800256 C10.198384,6.375488 10.090528,6.8908 9.874816,7.346192 C9.659104,7.801584 9.329544,8.161104 8.886136,8.424752 C8.442728,8.6884 7.89346133,8.820224 7.238336,8.820224 C6.399456,8.820224 5.72036267,8.604512 5.201056,8.173088 C4.68174933,7.741664 4.36617067,7.166432 4.25432,6.447392 L5.320896,6.447392 C5.42475733,6.902784 5.644464,7.25830933 5.980016,7.513968 C6.315568,7.76962667 6.73900267,7.897456 7.25032,7.897456 C7.88147733,7.897456 8.35684267,7.70770933 8.676416,7.328216 C8.99598933,6.94872267 9.155776,6.447392 9.155776,5.824224 C9.155776,5.201056 8.99598933,4.71969867 8.676416,4.380152 C8.35684267,4.04060533 7.885472,3.870832 7.262304,3.870832 C6.83886933,3.870832 6.46936267,3.972696 6.153784,4.176424 C5.83820533,4.380152 5.608512,4.65778133 5.464704,5.009312 L4.43408,5.009312 L4.43408,0.11984 L9.64712,0.11984 L9.64712,1.07856 Z" id="Path"></path>
                            <path d="M11.648448,4.37416 C11.648448,3 11.8721493,1.92742667 12.319552,1.156456 C12.7669547,0.385485333 13.5499093,0 14.668416,0 C15.7789333,0 16.5578933,0.385485333 17.005296,1.156456 C17.4526987,1.92742667 17.6764,3 17.6764,4.37416 C17.6764,5.77229333 17.4526987,6.85884267 17.005296,7.633808 C16.5578933,8.40877333 15.7789333,8.796256 14.668416,8.796256 C13.5499093,8.796256 12.7669547,8.40877333 12.319552,7.633808 C11.8721493,6.85884267 11.648448,5.77229333 11.648448,4.37416 Z M16.59784,4.37416 C16.59784,3.679088 16.5519013,3.08987467 16.460024,2.60652 C16.3681467,2.12316533 16.1803973,1.73368533 15.896776,1.43808 C15.6131547,1.14247467 15.2037013,0.994672 14.668416,0.994672 C14.1251413,0.994672 13.7116933,1.14247467 13.428072,1.43808 C13.1444507,1.73368533 12.9567013,2.12316533 12.864824,2.60652 C12.7729467,3.08987467 12.727008,3.679088 12.727008,4.37416 C12.727008,5.0932 12.7729467,5.69639467 12.864824,6.183744 C12.9567013,6.67109333 13.1444507,7.06257067 13.428072,7.358176 C13.7116933,7.65378133 14.1251413,7.801584 14.668416,7.801584 C15.2037013,7.801584 15.6131547,7.65378133 15.896776,7.358176 C16.1803973,7.06257067 16.3681467,6.67109333 16.460024,6.183744 C16.5519013,5.69639467 16.59784,5.0932 16.59784,4.37416 Z" id="Shape"></path>
                            <path d="M19.1744,4.37416 C19.1744,3 19.3981013,1.92742667 19.845504,1.156456 C20.2929067,0.385485333 21.0758613,0 22.194368,0 C23.3048853,0 24.0838453,0.385485333 24.531248,1.156456 C24.9786507,1.92742667 25.202352,3 25.202352,4.37416 C25.202352,5.77229333 24.9786507,6.85884267 24.531248,7.633808 C24.0838453,8.40877333 23.3048853,8.796256 22.194368,8.796256 C21.0758613,8.796256 20.2929067,8.40877333 19.845504,7.633808 C19.3981013,6.85884267 19.1744,5.77229333 19.1744,4.37416 Z M24.123792,4.37416 C24.123792,3.679088 24.0778533,3.08987467 23.985976,2.60652 C23.8940987,2.12316533 23.7063493,1.73368533 23.422728,1.43808 C23.1391067,1.14247467 22.7296533,0.994672 22.194368,0.994672 C21.6510933,0.994672 21.2376453,1.14247467 20.954024,1.43808 C20.6704027,1.73368533 20.4826533,2.12316533 20.390776,2.60652 C20.2988987,3.08987467 20.25296,3.679088 20.25296,4.37416 C20.25296,5.0932 20.2988987,5.69639467 20.390776,6.183744 C20.4826533,6.67109333 20.6704027,7.06257067 20.954024,7.358176 C21.2376453,7.65378133 21.6510933,7.801584 22.194368,7.801584 C22.7296533,7.801584 23.1391067,7.65378133 23.422728,7.358176 C23.7063493,7.06257067 23.8940987,6.67109333 23.985976,6.183744 C24.0778533,5.69639467 24.123792,5.0932 24.123792,4.37416 Z" id="Shape"></path>
                            <path d="M32.483488,8.048112 C32.975688,8.048112 33.4006207,7.939828 33.758286,7.72326 C34.1159513,7.506692 34.3899427,7.19824667 34.58026,6.797924 L35.643412,6.797924 C35.3940307,7.45419067 34.9904267,7.96115667 34.4326,8.318822 C33.8747733,8.67648733 33.2250693,8.85532 32.483488,8.85532 C31.7090933,8.85532 31.026576,8.64203333 30.435936,8.21546 C29.845296,7.78888667 29.4384107,7.21793467 29.21528,6.502604 L28.260412,6.502604 L28.260412,5.872588 L29.077464,5.872588 C29.057776,5.70195867 29.047932,5.53132933 29.047932,5.3607 C29.047932,5.19663333 29.057776,5.035848 29.077464,4.878344 L28.260412,4.878344 L28.260412,4.258172 L29.205436,4.258172 C29.3498147,3.77909733 29.5811487,3.357446 29.899438,2.993218 C30.2177273,2.62899 30.598362,2.34679533 31.041342,2.146634 C31.484322,1.94647267 31.9650373,1.846392 32.483488,1.846392 C33.2250693,1.846392 33.8747733,2.02686533 34.4326,2.387812 C34.9904267,2.74875867 35.3940307,3.26064667 35.643412,3.923476 L34.58026,3.923476 C34.3899427,3.51659067 34.117592,3.204864 33.763208,2.988296 C33.408824,2.771728 32.9822507,2.663444 32.483488,2.663444 C31.932224,2.663444 31.4515087,2.80454133 31.041342,3.086736 C30.6311753,3.36893067 30.337496,3.75940933 30.160304,4.258172 L32.483488,4.258172 L32.483488,4.878344 L30.0028,4.878344 C29.983112,5.035848 29.973268,5.19663333 29.973268,5.3607 C29.973268,5.55101733 29.9863933,5.72164667 30.012644,5.872588 L32.483488,5.872588 L32.483488,6.502604 L30.170148,6.502604 C30.3604653,6.98824133 30.6607073,7.36723533 31.070874,7.639586 C31.4810407,7.91193667 31.951912,8.048112 32.483488,8.048112 Z" id="Path"></path>
                        </g>
                        <g id="3000-€" transform="translate(143.635730, 49.774496)" fill="#575757" fill-rule="nonzero">
                            <path d="M0.0856,1.78904 C0.114133333,1.21837333 0.315293333,0.777533333 0.68908,0.46652 C1.06286667,0.155506667 1.55506667,0 2.16568,0 C2.58226667,0 2.93893333,0.07276 3.23568,0.21828 C3.53242667,0.3638 3.75641333,0.56068 3.90764,0.80892 C4.05886667,1.05716 4.13448,1.33821333 4.13448,1.65208 C4.13448,2.0116 4.04174667,2.31548 3.85628,2.56372 C3.67081333,2.81196 3.44968,2.97888 3.19288,3.06448 L3.19288,3.09872 C3.52386667,3.20144 3.78209333,3.38405333 3.96756,3.64656 C4.15302667,3.90906667 4.24576,4.24576 4.24576,4.65664 C4.24576,4.99904 4.16729333,5.30434667 4.01036,5.57256 C3.85342667,5.84077333 3.62230667,6.05049333 3.317,6.20172 C3.01169333,6.35294667 2.64504,6.42856 2.21704,6.42856 C1.57218667,6.42856 1.04717333,6.26592 0.642,5.94064 C0.236826667,5.61536 0.0228266667,5.136 0,4.50256 L1.16416,4.50256 C1.17557333,4.78218667 1.27116,5.00617333 1.45092,5.17452 C1.63068,5.34286667 1.87749333,5.42704 2.19136,5.42704 C2.4824,5.42704 2.70638667,5.34572 2.86332,5.18308 C3.02025333,5.02044 3.09872,4.81072 3.09872,4.55392 C3.09872,4.21152 2.99029333,3.96613333 2.77344,3.81776 C2.55658667,3.66938667 2.21989333,3.5952 1.76336,3.5952 L1.51512,3.5952 L1.51512,2.6108 L1.76336,2.6108 C2.57370667,2.6108 2.97888,2.33973333 2.97888,1.7976 C2.97888,1.55221333 2.90612,1.36104 2.7606,1.22408 C2.61508,1.08712 2.40536,1.01864 2.13144,1.01864 C1.86322667,1.01864 1.65636,1.0914 1.51084,1.23692 C1.36532,1.38244 1.28114667,1.56648 1.25832,1.78904 L0.0856,1.78904 Z" id="Path"></path>
                            <path d="M5.19592,3.18432 C5.19592,2.19706667 5.37425333,1.42381333 5.73092,0.86456 C6.08758667,0.305306667 6.67965333,0.02568 7.50712,0.02568 C8.33458667,0.02568 8.92665333,0.305306667 9.28332,0.86456 C9.63998667,1.42381333 9.81832,2.19706667 9.81832,3.18432 C9.81832,4.17728 9.63998667,4.95624 9.28332,5.5212 C8.92665333,6.08616 8.33458667,6.36864 7.50712,6.36864 C6.67965333,6.36864 6.08758667,6.08616 5.73092,5.5212 C5.37425333,4.95624 5.19592,4.17728 5.19592,3.18432 Z M8.63704,3.18432 C8.63704,2.76202667 8.60993333,2.40678667 8.55572,2.1186 C8.50150667,1.83041333 8.39308,1.59501333 8.23044,1.4124 C8.0678,1.22978667 7.82669333,1.13848 7.50712,1.13848 C7.18754667,1.13848 6.94644,1.22978667 6.7838,1.4124 C6.62116,1.59501333 6.51273333,1.83041333 6.45852,2.1186 C6.40430667,2.40678667 6.3772,2.76202667 6.3772,3.18432 C6.3772,3.61802667 6.40288,3.98182667 6.45424,4.27572 C6.5056,4.56961333 6.61402667,4.80644 6.77952,4.9862 C6.94501333,5.16596 7.18754667,5.25584 7.50712,5.25584 C7.82669333,5.25584 8.06922667,5.16596 8.23472,4.9862 C8.40021333,4.80644 8.50864,4.56961333 8.56,4.27572 C8.61136,3.98182667 8.63704,3.61802667 8.63704,3.18432 Z" id="Shape"></path>
                            <path d="M10.72568,3.18432 C10.72568,2.19706667 10.9040133,1.42381333 11.26068,0.86456 C11.6173467,0.305306667 12.2094133,0.02568 13.03688,0.02568 C13.8643467,0.02568 14.4564133,0.305306667 14.81308,0.86456 C15.1697467,1.42381333 15.34808,2.19706667 15.34808,3.18432 C15.34808,4.17728 15.1697467,4.95624 14.81308,5.5212 C14.4564133,6.08616 13.8643467,6.36864 13.03688,6.36864 C12.2094133,6.36864 11.6173467,6.08616 11.26068,5.5212 C10.9040133,4.95624 10.72568,4.17728 10.72568,3.18432 Z M14.1668,3.18432 C14.1668,2.76202667 14.1396933,2.40678667 14.08548,2.1186 C14.0312667,1.83041333 13.92284,1.59501333 13.7602,1.4124 C13.59756,1.22978667 13.3564533,1.13848 13.03688,1.13848 C12.7173067,1.13848 12.4762,1.22978667 12.31356,1.4124 C12.15092,1.59501333 12.0424933,1.83041333 11.98828,2.1186 C11.9340667,2.40678667 11.90696,2.76202667 11.90696,3.18432 C11.90696,3.61802667 11.93264,3.98182667 11.984,4.27572 C12.03536,4.56961333 12.1437867,4.80644 12.30928,4.9862 C12.4747733,5.16596 12.7173067,5.25584 13.03688,5.25584 C13.3564533,5.25584 13.5989867,5.16596 13.76448,4.9862 C13.9299733,4.80644 14.0384,4.56961333 14.08976,4.27572 C14.14112,3.98182667 14.1668,3.61802667 14.1668,3.18432 Z" id="Shape"></path>
                            <path d="M16.25544,3.18432 C16.25544,2.19706667 16.4337733,1.42381333 16.79044,0.86456 C17.1471067,0.305306667 17.7391733,0.02568 18.56664,0.02568 C19.3941067,0.02568 19.9861733,0.305306667 20.34284,0.86456 C20.6995067,1.42381333 20.87784,2.19706667 20.87784,3.18432 C20.87784,4.17728 20.6995067,4.95624 20.34284,5.5212 C19.9861733,6.08616 19.3941067,6.36864 18.56664,6.36864 C17.7391733,6.36864 17.1471067,6.08616 16.79044,5.5212 C16.4337733,4.95624 16.25544,4.17728 16.25544,3.18432 Z M19.69656,3.18432 C19.69656,2.76202667 19.6694533,2.40678667 19.61524,2.1186 C19.5610267,1.83041333 19.4526,1.59501333 19.28996,1.4124 C19.12732,1.22978667 18.8862133,1.13848 18.56664,1.13848 C18.2470667,1.13848 18.00596,1.22978667 17.84332,1.4124 C17.68068,1.59501333 17.5722533,1.83041333 17.51804,2.1186 C17.4638267,2.40678667 17.43672,2.76202667 17.43672,3.18432 C17.43672,3.61802667 17.4624,3.98182667 17.51376,4.27572 C17.56512,4.56961333 17.6735467,4.80644 17.83904,4.9862 C18.0045333,5.16596 18.2470667,5.25584 18.56664,5.25584 C18.8862133,5.25584 19.1287467,5.16596 19.29424,4.9862 C19.4597333,4.80644 19.56816,4.56961333 19.61952,4.27572 C19.67088,3.98182667 19.69656,3.61802667 19.69656,3.18432 Z" id="Shape"></path>
                            <path d="M25.19422,5.60252 C25.43818,5.60252 25.65218,5.54902 25.83622,5.44202 C26.02026,5.33502 26.16578,5.1788 26.27278,4.97336 L27.29998,4.97336 C27.15018,5.43132 26.88803,5.78763 26.51353,6.04229 C26.13903,6.29695 25.7014,6.42428 25.20064,6.42428 C24.68704,6.42428 24.23657,6.28625 23.84923,6.01019 C23.46189,5.73413 23.19332,5.36498 23.04352,4.90274 L22.49782,4.90274 L22.49782,4.36988 L22.9408,4.36988 C22.93224,4.26716 22.92796,4.19012 22.92796,4.13876 C22.92796,4.07884 22.93224,3.99752 22.9408,3.8948 L22.49782,3.8948 L22.49782,3.36194 L23.04994,3.36194 C23.19974,2.8997 23.46831,2.53162 23.85565,2.2577 C24.24299,1.98378 24.69132,1.84682 25.20064,1.84682 C25.7014,1.84682 26.13903,1.97522 26.51353,2.23202 C26.88803,2.48882 27.15018,2.84406 27.29998,3.29774 L26.27278,3.29774 C26.16578,3.0923 26.02026,2.93715 25.83622,2.83229 C25.65218,2.72743 25.43818,2.675 25.19422,2.675 C24.93314,2.675 24.70095,2.73492 24.49765,2.85476 C24.29435,2.9746 24.13706,3.14366 24.02578,3.36194 L25.25842,3.36194 L25.25842,3.8948 L23.86528,3.8948 C23.85672,3.99752 23.85244,4.07884 23.85244,4.13876 C23.85244,4.19012 23.85672,4.26716 23.86528,4.36988 L25.25842,4.36988 L25.25842,4.90274 L24.01936,4.90274 C24.13064,5.12102 24.289,5.29222 24.49444,5.41634 C24.69988,5.54046 24.93314,5.60252 25.19422,5.60252 Z" id="Path"></path>
                        </g>
                        <g id="Group-2" transform="translate(0.000000, 35.480256)">
                            <rect id="Rectangle" fill="#D5D6D8" x="0" y="0" width="171.2" height="4.28" rx="1.712"></rect>
                            <rect id="Rectangle-Copy" fill="#0555EB" x="56.068" y="0.214" width="58.636" height="4.28"></rect>
                        </g>
                        <g id="Components/Feedback/Dot-number" transform="translate(15.301000, 26.920256)">
                            <g id="Group-3" transform="translate(19.260000, 0.000000)">
                                <circle id="Oval" fill="#0555EB" cx="10.593" cy="10.486" r="7.49"></circle>
                                <circle id="Oval-Copy" fill="#0555EB" cx="91.699" cy="10.486" r="7.49"></circle>
                                <g id="Oval" stroke-width="2.14">
                                    <use stroke="#0555EB" fill-opacity="0.1" fill="#FFFFFF" fill-rule="evenodd" xlink:href="#path-3"></use>
                                    <circle stroke="#FFFFFF" cx="10.486" cy="10.486" r="11.556"></circle>
                                </g>
                                <g id="Oval-Copy-2" stroke-width="2.14">
                                    <use stroke="#0555EB" fill-opacity="0.1" fill="#FFFFFF" fill-rule="evenodd" xlink:href="#path-4"></use>
                                    <circle stroke="#FFFFFF" cx="91.592" cy="10.486" r="11.556"></circle>
                                </g>
                            </g>
                            <g id="Branding/Dots/Dot-primary-Copy" transform="translate(0.000000, 0.000000)"></g>
                        </g>
                    </g>
                    <rect id="Rectangle" fill="#D8D8D8" x="0" y="31.628256" width="4.066" height="11.984" rx="2.033"></rect>
                    <rect id="Rectangle-Copy-2" fill="#D8D8D8" x="167.134" y="31.628256" width="4.066" height="11.984" rx="2.033"></rect>
                    <line x1="45.047" y1="26.331756" x2="45.047" y2="11.512256" id="Line" stroke="#0555EB" stroke-width="1.07" stroke-linejoin="round" stroke-dasharray="0.856"></line>
                    <line x1="126.153" y1="26.331756" x2="126.153" y2="11.512256" id="Line-Copy" stroke="#0555EB" stroke-width="1.07" stroke-linejoin="round" stroke-dasharray="0.856"></line>
                </g>
            </g>
        </g>
    </g>
</svg>