<svg width="290" height="105" viewBox="0 0 290 105" fill="none" xmlns="http://www.w3.org/2000/svg">
    <path fill-rule="evenodd" clip-rule="evenodd" d="M132.458 24.9517C130.148 24.9517 128.32 24.1565 126.974 22.557L142.006 16.4534L141.964 16.3805C141.939 13.9555 140.997 11.9887 139.135 10.4802C137.28 8.96572 134.94 8.21301 132.127 8.21301C130.345 8.21301 128.653 8.59544 127.053 9.35422C125.452 10.1191 124.109 11.3058 123.024 12.9174C121.942 14.523 121.396 16.3927 121.396 18.5142C121.396 21.5888 122.442 24.0563 124.537 25.932C126.628 27.8047 129.132 28.7395 132.048 28.7395C135.383 28.7395 138.272 27.5164 140.727 25.07L138.168 22.3324C136.671 24.0806 134.77 24.9517 132.458 24.9517ZM125.583 18.584C125.583 16.5353 126.286 14.9388 127.689 13.7916C129.099 12.6412 130.657 12.0676 132.358 12.0676C134.604 12.0676 136.168 12.8871 137.044 14.5352L125.616 19.2942C125.595 19.1485 125.583 18.9118 125.583 18.584Z" fill="white"/>
    <path fill-rule="evenodd" clip-rule="evenodd" d="M115.743 9.46652C114.622 10.2769 113.737 11.3179 113.085 12.5836V8.51652H109.038V28.7365H113.085V20.0712C113.085 17.7645 113.591 15.9283 114.603 14.5594C115.616 13.1906 117.122 12.5077 119.123 12.5077H119.341L119.305 8.21301C118.05 8.23729 116.865 8.65614 115.743 9.46652Z" fill="white"/>
    <path fill-rule="evenodd" clip-rule="evenodd" d="M157.838 18.2865C157.144 17.8373 156.492 17.4883 155.889 17.2364C155.283 16.9875 154.659 16.7629 154.016 16.5626C153.373 16.3623 152.634 16.162 151.797 15.9647C150.96 15.7644 150.312 15.5519 149.848 15.3273C149.178 15.0268 148.845 14.5533 148.845 13.9038C148.845 13.1784 149.166 12.6352 149.809 12.274C150.451 11.9128 151.288 11.7307 152.318 11.7307C154.274 11.7307 156.089 12.2679 157.763 13.3423L159.384 10.2344C157.275 8.88679 155.034 8.20996 152.667 8.20996C150.3 8.20996 148.375 8.76539 146.895 9.87624C145.416 10.9871 144.677 12.4682 144.677 14.3136C144.677 16.9359 146.814 18.8086 151.085 19.9316C151.188 19.9559 151.339 20.0075 151.548 20.0803C154.277 20.8785 155.641 21.7769 155.641 22.7785C155.641 23.4523 155.359 24.0077 154.792 24.4448C154.225 24.8818 153.455 25.1004 152.476 25.1004C150.236 25.1004 147.92 24.2263 145.528 22.478L143.443 25.7378C144.677 26.6877 146.098 27.4222 147.708 27.9473C149.314 28.4724 150.866 28.7334 152.358 28.7334C154.571 28.7334 156.386 28.1658 157.802 27.0307C159.218 25.8956 159.924 24.378 159.924 22.4811C159.921 20.5841 159.227 19.1849 157.838 18.2865Z" fill="white"/>
    <path fill-rule="evenodd" clip-rule="evenodd" d="M103.188 5.3206C101.345 3.82429 98.4256 3.08069 94.4183 3.08069H85.3457V28.7396H89.8047V21.2155H94.491C98.3741 21.2155 101.254 20.4931 103.133 19.0515C105.006 17.6068 105.946 15.3304 105.946 12.2255C105.943 9.1145 105.028 6.80781 103.188 5.3206ZM100.029 15.9071C99.1349 16.8237 97.4526 17.285 94.9821 17.285H89.8017V7.00206H94.3395C96.7584 7.00206 98.5347 7.36931 99.6684 8.10684C100.802 8.84437 101.372 10.0948 101.372 11.8704C101.372 13.6459 100.926 14.9905 100.029 15.9071Z" fill="white"/>
    <path fill-rule="evenodd" clip-rule="evenodd" d="M170.682 25.2156C169.703 25.2156 168.942 24.9425 168.396 24.3992C167.851 23.8559 167.581 23.1245 167.581 22.2048V12.4044H173.292V9.13864H167.581V3.07751H163.013V22.0925C163.013 24.126 163.701 25.7407 165.074 26.9366C166.447 28.1354 168.105 28.7333 170.051 28.7333C171.994 28.7333 173.771 28.0929 175.374 26.8121L173.498 23.9439C172.601 24.7938 171.661 25.2156 170.682 25.2156Z" fill="white"/>
    <path fill-rule="evenodd" clip-rule="evenodd" d="M191.74 8.50738V11.9522C190.018 9.45738 187.839 8.20691 185.186 8.20691C182.534 8.20691 180.233 9.13262 178.29 10.978C176.347 12.8264 175.374 15.3 175.374 18.3958C175.374 21.4916 176.323 23.9895 178.215 25.8895C180.106 27.7834 182.331 28.7334 184.883 28.7334C186.144 28.7334 187.399 28.4268 188.651 27.8168C189.903 27.2037 190.931 26.3235 191.74 25.1762V28.4359H195.981V8.50738H191.74ZM190.07 23.2095C188.906 24.4235 187.493 25.0305 185.829 25.0305C184.165 25.0305 182.71 24.4296 181.476 23.2338C180.233 22.0319 179.615 20.4779 179.615 18.5688C179.615 16.6597 180.224 15.0663 181.434 13.7946C182.646 12.5198 184.098 11.8794 185.793 11.8794C187.484 11.8794 188.909 12.5168 190.07 13.7946C191.234 15.0663 191.813 16.6536 191.813 18.5475C191.813 20.4475 191.231 21.9985 190.07 23.2095Z" fill="white"/>
    <path fill-rule="evenodd" clip-rule="evenodd" d="M263.348 11.1904C261.286 9.20245 258.71 8.20996 255.618 8.20996C252.529 8.20996 249.952 9.20245 247.894 11.1904C245.833 13.1754 244.802 15.6005 244.802 18.4747C244.802 21.349 245.836 23.774 247.894 25.756C249.955 27.744 252.532 28.7364 255.618 28.7364C258.71 28.7364 261.286 27.744 263.348 25.756C265.409 23.771 266.436 21.3459 266.436 18.4747C266.436 15.6005 265.409 13.1754 263.348 11.1904ZM260.274 23.1731C259.049 24.3871 257.497 24.9941 255.618 24.9941C253.738 24.9941 252.186 24.3902 250.962 23.1731C249.737 21.9621 249.131 20.399 249.131 18.4747C249.131 16.5505 249.74 14.9874 250.962 13.7764C252.186 12.5653 253.738 11.9553 255.618 11.9553C257.497 11.9553 259.049 12.5653 260.274 13.7764C261.498 14.9874 262.111 16.5505 262.111 18.4747C262.111 20.3959 261.498 21.9621 260.274 23.1731Z" fill="white"/>
    <path fill-rule="evenodd" clip-rule="evenodd" d="M286.224 11.0053C284.303 9.14174 281.993 8.20996 279.289 8.20996C276.588 8.20996 274.406 9.48168 272.735 12.0251V8.51347H268.495V35.9206H272.735V25.5739C274.757 27.7895 277.037 28.8973 279.571 28.8973C282.111 28.8973 284.333 27.9291 286.24 25.9927C288.14 24.0502 289.101 21.5372 289.101 18.4383C289.101 15.3394 288.14 12.8689 286.224 11.0053ZM283.002 23.3127C281.765 24.5176 280.314 25.1247 278.649 25.1247C276.979 25.1247 275.567 24.5146 274.409 23.2945C273.245 22.0744 272.666 20.5052 272.666 18.5931C272.666 16.684 273.248 15.0906 274.409 13.8189C275.567 12.5471 276.994 11.9128 278.689 11.9128C280.38 11.9128 281.832 12.5471 283.042 13.8189C284.254 15.0906 284.86 16.687 284.86 18.6143C284.857 20.5356 284.239 22.1017 283.002 23.3127Z" fill="white"/>
    <path fill-rule="evenodd" clip-rule="evenodd" d="M234.308 7.79418C232.817 7.79418 231.425 8.15535 230.134 8.88075C228.843 9.60614 227.876 10.6017 227.239 11.8673V0H222.765V28.7365H227.239V17.5672C227.239 15.6551 227.812 14.2013 228.958 13.2058C230.101 12.2103 231.449 11.7125 232.992 11.7125C236.242 11.7125 237.867 13.6125 237.867 17.4125V28.7365H242.341V16.0952C242.341 13.4061 241.601 11.3513 240.125 9.93089C238.643 8.50743 236.706 7.79418 234.308 7.79418Z" fill="white"/>
    <path fill-rule="evenodd" clip-rule="evenodd" d="M217.597 16.596C216.211 15.3972 214.156 14.4654 211.428 13.8037C208.697 13.1421 206.914 12.5229 206.078 11.9462C205.241 11.3726 204.82 10.544 204.82 9.45744C204.82 8.3739 205.238 7.56353 206.078 7.02935C206.914 6.49213 207.988 6.22504 209.297 6.22504C210.604 6.22504 211.931 6.45571 213.277 6.91401C214.623 7.37231 215.69 7.96113 216.475 8.67438L218.873 5.26898C217.654 4.24918 216.208 3.45702 214.532 2.89552C212.856 2.33402 211.167 2.05176 209.467 2.05176C206.827 2.05176 204.611 2.72252 202.822 4.061C201.031 5.39949 200.137 7.30858 200.137 9.7822C200.137 12.2589 200.925 14.0951 202.498 15.294C203.283 15.9313 204.186 16.4473 205.202 16.8449C206.217 17.2425 207.703 17.6735 209.658 18.147C211.613 18.6205 212.989 19.1425 213.789 19.7161C214.59 20.2898 214.99 21.0941 214.99 22.126C214.99 23.158 214.565 23.9896 213.714 24.6148C212.862 25.24 211.713 25.5527 210.267 25.5527C207.372 25.5527 204.58 24.3781 201.889 22.0319L199.07 25.4373C202.292 28.3207 205.987 29.7624 210.152 29.7624C212.995 29.7624 215.293 29.0339 217.045 27.5801C218.797 26.1263 219.673 24.2324 219.673 21.8984C219.673 19.5613 218.982 17.7979 217.597 16.596Z" fill="white"/>
    <path d="M89.7586 56.8478V70.0687H85.3118V36.3H97.749C101.438 36.3 104.33 37.244 106.424 39.1288C108.516 41.0136 109.562 43.5115 109.562 46.6194C109.562 49.8974 108.537 52.4226 106.491 54.1921C104.445 55.9615 101.514 56.8478 97.7005 56.8478H89.7586ZM89.7586 53.2087H97.749C100.126 53.2087 101.95 52.6472 103.214 51.5242C104.481 50.4012 105.115 48.7774 105.115 46.6559C105.115 44.6436 104.481 43.0319 103.214 41.824C101.947 40.616 100.21 39.9877 98.0037 39.9422H89.7586V53.2087Z" fill="white"/>
    <path d="M130.068 70.0688C129.823 69.574 129.62 68.6938 129.465 67.4252C127.473 69.4982 125.094 70.5331 122.332 70.5331C119.862 70.5331 117.834 69.835 116.252 68.4359C114.669 67.0367 113.878 65.2642 113.878 63.1123C113.878 60.499 114.869 58.4716 116.855 57.0238C118.837 55.5791 121.629 54.8568 125.227 54.8568H129.395V52.8839C129.395 51.3846 128.947 50.1888 128.052 49.3025C127.158 48.4132 125.836 47.9701 124.09 47.9701C122.563 47.9701 121.281 48.3555 120.247 49.1295C119.213 49.9034 118.695 50.8383 118.695 51.937H114.387C114.387 50.6865 114.83 49.4755 115.718 48.307C116.606 47.1385 117.81 46.2158 119.331 45.5359C120.853 44.8561 122.523 44.5161 124.345 44.5161C127.234 44.5161 129.495 45.2385 131.132 46.6832C132.769 48.1309 133.618 50.1189 133.681 52.6563V64.2049C133.681 66.5086 133.975 68.3418 134.56 69.7015V70.0718H130.068V70.0688ZM122.957 66.7969C124.3 66.7969 125.576 66.4479 126.779 65.7528C127.983 65.0578 128.856 64.1533 129.398 63.0394V57.8919H126.04C120.789 57.8919 118.164 59.4307 118.164 62.5053C118.164 63.8498 118.613 64.903 119.507 65.6587C120.401 66.4175 121.553 66.7969 122.957 66.7969Z" fill="white"/>
    <path d="M148.535 63.7831L154.37 44.9745H158.956L148.88 73.9416C147.319 78.1149 144.843 80.2031 141.444 80.2031L140.635 80.1333L139.038 79.8328V76.3545L140.196 76.4486C141.648 76.4486 142.778 76.1542 143.588 75.5654C144.397 74.9766 145.067 73.9052 145.591 72.3421L146.54 69.7896L137.601 44.9745H142.278L148.535 63.7831Z" fill="white"/>
    <path d="M167.72 70.0687H163.433V34.4456H167.72V70.0687Z" fill="white"/>
    <path d="M190.333 70.0688C190.087 69.574 189.884 68.6938 189.73 67.4252C187.738 69.4982 185.358 70.5331 182.597 70.5331C180.127 70.5331 178.099 69.835 176.516 68.4359C174.934 67.0367 174.143 65.2642 174.143 63.1123C174.143 60.499 175.134 58.4716 177.12 57.0238C179.102 55.5791 181.894 54.8568 185.492 54.8568H189.66V52.8839C189.66 51.3846 189.211 50.1888 188.317 49.3025C187.423 48.4162 186.101 47.9701 184.355 47.9701C182.827 47.9701 181.545 48.3555 180.512 49.1295C179.478 49.9034 178.959 50.8383 178.959 51.937H174.652C174.652 50.6865 175.095 49.4755 175.983 48.307C176.871 47.1385 178.074 46.2158 179.596 45.5359C181.118 44.8561 182.788 44.5161 184.61 44.5161C187.499 44.5161 189.76 45.2385 191.397 46.6832C193.034 48.1309 193.882 50.1189 193.946 52.6563V64.2049C193.946 66.5086 194.24 68.3418 194.825 69.7015V70.0718H190.333V70.0688ZM183.221 66.7969C184.564 66.7969 185.84 66.4479 187.044 65.7528C188.247 65.0578 189.12 64.1533 189.663 63.0394V57.8919H186.304C181.054 57.8919 178.429 59.4307 178.429 62.5053C178.429 63.8498 178.878 64.903 179.772 65.6587C180.666 66.4145 181.815 66.7969 183.221 66.7969Z" fill="white"/>
    <path d="M206.759 38.8981V44.9744H211.439V48.2918H206.759V63.874C206.759 64.8817 206.968 65.6344 207.383 66.1382C207.802 66.6421 208.511 66.8909 209.514 66.8909C210.008 66.8909 210.687 66.7969 211.554 66.6117V70.0717C210.427 70.3783 209.329 70.5331 208.265 70.5331C206.35 70.5331 204.907 69.9534 203.934 68.794C202.961 67.6345 202.473 65.9865 202.473 63.8528V48.2918H197.911V44.9744H202.473V38.8981H206.759V38.8981Z" fill="white"/>
    <path d="M227.126 70.53C223.728 70.53 220.964 69.4131 218.833 67.1793C216.702 64.9454 215.638 61.9559 215.638 58.2166V57.4275C215.638 54.9387 216.111 52.7139 217.062 50.7593C218.014 48.8047 219.342 47.275 221.045 46.1672C222.752 45.0624 224.601 44.51 226.593 44.51C229.851 44.51 232.382 45.5844 234.189 47.7333C235.996 49.8822 236.899 52.9598 236.899 56.9631V58.7477H219.924C219.985 61.2214 220.706 63.2215 222.088 64.7421C223.47 66.2657 225.226 67.0275 227.357 67.0275C228.869 67.0275 230.151 66.7179 231.2 66.0988C232.249 65.4796 233.167 64.6601 233.956 63.6403L236.575 65.683C234.477 68.9154 231.324 70.53 227.126 70.53ZM226.593 48.0368C224.865 48.0368 223.413 48.6681 222.24 49.9277C221.067 51.1873 220.342 52.9537 220.063 55.227H232.616V54.9022C232.492 52.723 231.906 51.0325 230.855 49.8336C229.806 48.6347 228.384 48.0368 226.593 48.0368Z" fill="white"/>
    <path d="M254.256 48.823C253.607 48.7168 252.904 48.6622 252.146 48.6622C249.336 48.6622 247.43 49.861 246.426 52.2557V70.0658H242.143V44.9715H246.311L246.381 47.87C247.784 45.6301 249.779 44.5071 252.355 44.5071C253.189 44.5071 253.823 44.6163 254.256 44.8318V48.823V48.823Z" fill="white"/>
    <path fill-rule="evenodd" clip-rule="evenodd" d="M68.4549 2.91064H19.9942C11.3672 2.91064 4.00733 8.38296 1.20644 16.0709C0.427408 18.2076 0 20.5234 0 22.9424V70.1567H48.4577C57.1302 70.1567 64.5143 64.6267 67.2909 56.9084C68.0457 54.7929 68.464 52.5075 68.464 50.1219V2.92279L68.4549 2.91064ZM32.2799 12.274V34.5821H10.0032C10.0032 22.2625 19.979 12.274 32.2799 12.274ZM36.1842 60.7933C23.8803 60.7933 13.9044 50.8048 13.9044 38.4852H36.1842V16.1802C48.485 16.1802 58.4609 26.1687 58.4609 38.4852C58.4609 50.8078 48.485 60.7933 36.1842 60.7933Z" fill="white"/>
    <path opacity="0.25" d="M58.4608 38.4854H36.1841V16.1803C48.4849 16.1833 58.4608 26.1689 58.4608 38.4854Z" fill="white"/>
    <path opacity="0.45" d="M58.4608 38.4854C58.4608 50.8049 48.4849 60.7935 36.1841 60.7935V38.4854H58.4608V38.4854Z" fill="white"/>
    <path opacity="0.65" d="M36.1843 38.4854V60.7935C23.8804 60.7935 13.9045 50.8049 13.9045 38.4854H36.1843V38.4854Z" fill="white"/>
    <path d="M118.207 100.201L119.471 95.1661H120.595L118.68 101.752H117.767L116.17 96.7596L114.615 101.752H113.702L111.793 95.1661H112.911L114.206 100.095L115.736 95.1661H116.643L118.207 100.201Z" fill="white"/>
    <path d="M121.817 93.4178C121.817 93.2357 121.872 93.0809 121.984 92.9565C122.096 92.832 122.26 92.7683 122.481 92.7683C122.699 92.7683 122.866 92.832 122.978 92.9565C123.09 93.084 123.148 93.2387 123.148 93.4178C123.148 93.603 123.09 93.7517 122.978 93.8761C122.866 93.9975 122.699 94.0582 122.481 94.0582C122.263 94.0582 122.096 93.9975 121.984 93.8761C121.875 93.7547 121.817 93.603 121.817 93.4178ZM123.036 101.752H121.911V95.1661H123.036V101.752Z" fill="white"/>
    <path d="M126.434 93.5726V95.1661H127.661V96.0371H126.434V100.125C126.434 100.393 126.488 100.587 126.597 100.72C126.707 100.851 126.895 100.918 127.158 100.918C127.289 100.918 127.467 100.893 127.692 100.845V101.752C127.395 101.834 127.107 101.874 126.828 101.874C126.325 101.874 125.946 101.722 125.691 101.418C125.436 101.112 125.309 100.681 125.309 100.122V96.0371H124.112V95.1661H125.309V93.5726H126.434Z" fill="white"/>
    <path d="M130.174 95.9644C130.671 95.3513 131.32 95.0447 132.12 95.0447C133.512 95.0447 134.212 95.8308 134.224 97.4V101.752H133.099V97.3939C133.096 96.9204 132.987 96.5684 132.775 96.3407C132.563 96.1131 132.232 96.0008 131.781 96.0008C131.417 96.0008 131.096 96.0979 130.82 96.2922C130.544 96.4864 130.329 96.7444 130.174 97.06V101.752H129.05V92.4042H130.174V95.9644V95.9644Z" fill="white"/>
    <path d="M204.85 99.3727C204.85 98.9448 204.968 98.5532 205.204 98.1981C205.441 97.843 205.895 97.4242 206.562 96.9507C206.168 96.4712 205.905 96.0887 205.771 95.7943C205.638 95.503 205.571 95.2116 205.571 94.9232C205.571 94.2494 205.771 93.7213 206.168 93.3419C206.565 92.9595 207.105 92.7683 207.784 92.7683C208.393 92.7683 208.893 92.9443 209.29 93.2995C209.688 93.6546 209.888 94.1007 209.888 94.641C209.888 94.9961 209.797 95.3269 209.618 95.6304C209.439 95.9339 209.124 96.2496 208.672 96.5835L208.023 97.066L209.994 99.4213C210.27 98.8932 210.406 98.3074 210.406 97.6609H211.421C211.421 98.6959 211.173 99.5548 210.676 100.235L211.94 101.752H210.591L210 101.054C209.7 101.321 209.348 101.525 208.945 101.664C208.542 101.804 208.132 101.874 207.714 101.874C206.85 101.874 206.159 101.646 205.635 101.185C205.11 100.729 204.85 100.122 204.85 99.3727ZM207.714 100.957C208.311 100.957 208.854 100.729 209.351 100.274L207.193 97.6852L206.993 97.8309C206.314 98.3286 205.977 98.8446 205.977 99.3727C205.977 99.8523 206.132 100.235 206.444 100.523C206.75 100.811 207.175 100.957 207.714 100.957ZM206.699 94.8868C206.699 95.2753 206.938 95.764 207.417 96.3467L208.136 95.8429C208.411 95.6486 208.599 95.4635 208.699 95.2844C208.802 95.1084 208.851 94.8959 208.851 94.644C208.851 94.3708 208.748 94.1463 208.548 93.9641C208.345 93.7851 208.09 93.694 207.781 93.694C207.447 93.694 207.184 93.8063 206.99 94.0309C206.796 94.2555 206.699 94.5408 206.699 94.8868Z" fill="white"/>
    <path d="M219.579 100.066C217.821 100.066 216.389 98.6359 216.389 96.8111C216.389 94.9862 217.821 93.5521 219.579 93.5521C221.326 93.5521 222.766 94.9862 222.766 96.8111C222.766 98.6359 221.33 100.066 219.579 100.066ZM219.579 91.8562C216.809 91.8562 214.642 94.0301 214.642 96.8073C214.642 99.5844 216.809 101.758 219.579 101.758C222.341 101.758 224.509 99.5806 224.509 96.8073C224.509 94.0301 222.341 91.8562 219.579 91.8562Z" fill="white"/>
    <path d="M244.973 96.6783C244.958 94.0264 242.814 91.8677 240.195 91.8677C237.498 91.8677 235.383 94.034 235.383 96.7959C235.383 98.0934 235.88 99.3265 236.774 100.267C237.683 101.22 238.884 101.743 240.161 101.743C241.62 101.743 243.662 101.045 244.632 99.0571L244.659 98.9926H242.704L242.692 99.0078C242.166 99.6338 241.177 100.059 240.233 100.059C239.036 100.059 237.596 99.2695 237.202 97.4864H244.936C244.951 97.3005 244.973 96.9325 244.973 96.6783ZM237.259 95.9119C237.498 94.7169 238.642 93.5483 240.18 93.5483C241.715 93.5483 242.859 94.7169 243.094 95.9119H237.259Z" fill="white"/>
    <path d="M229.958 93.4913C228.215 93.4913 227.328 94.4246 227.328 96.2722V101.743H225.54V96.1432C225.558 95.1606 225.729 94.4663 226.131 93.8138C226.604 93.0816 227.73 91.8486 229.958 91.8486C232.178 91.8486 233.307 93.0816 233.781 93.8138C234.179 94.4663 234.357 95.1606 234.368 96.1432V101.743H232.58V96.2722C232.58 94.4284 231.701 93.4913 229.958 93.4913Z" fill="white"/>
    <path d="M254.276 91.8562L250.506 101.056L249.573 103.333L249.058 104.592H247.198L248.641 101.06L244.788 91.8562H246.754L249.577 98.7725L252.404 91.8562H254.276Z" fill="white"/>
    <path d="M188.465 101.883C187.026 101.883 185.846 101.012 185.846 98.9175V94.5955H187.777V98.5836C187.777 99.6793 188.299 100.156 189.108 100.156C190.042 100.156 190.669 99.5457 190.669 97.9857V94.5955H192.552V101.655H190.699V100.569H190.669C190.242 101.333 189.566 101.883 188.465 101.883Z" fill="white"/>
    <path d="M184.328 91.8335H182.446V101.655H184.328V91.8335Z" fill="white"/>
    <path d="M177.611 96.7656H176.049V93.6333H177.611C178.669 93.6333 179.341 94.1372 179.341 95.1752C179.341 96.2162 178.665 96.7686 177.611 96.7656ZM177.826 91.8335H174.091V101.655H176.049V98.5715H177.829C180.233 98.5715 181.442 97.1207 181.442 95.1661C181.439 93.2691 180.23 91.8335 177.826 91.8335Z" fill="white"/>
    <path d="M161.375 100.268C160.244 100.268 159.459 99.4607 159.459 98.2467C159.459 97.0327 160.241 96.2253 161.375 96.2253C162.509 96.2253 163.291 97.0327 163.291 98.2467C163.291 99.4607 162.509 100.259 161.375 100.259V100.268ZM163.291 94.6501V95.6608H163.26C162.815 94.9141 162.051 94.4164 160.902 94.4164C159.05 94.4164 157.504 95.7852 157.504 98.2406C157.504 100.696 159.05 102.068 160.902 102.068C162.051 102.068 162.818 101.57 163.26 100.824H163.291V101.834H165.158V94.6501H163.291V94.6501Z" fill="white"/>
    <path d="M153.336 96.8566H151.775V93.6697H153.336C154.394 93.6697 155.067 94.1827 155.067 95.2389C155.067 96.2951 154.394 96.8566 153.336 96.8566ZM153.552 91.8335H149.814V101.828H151.772V98.6898H153.552C155.955 98.6898 157.165 97.2117 157.165 95.2237C157.165 93.2964 155.955 91.8335 153.552 91.8335Z" fill="white"/>
    <path d="M197.399 100.11C196.265 100.11 195.483 99.315 195.483 98.1253C195.483 96.9355 196.265 96.1373 197.399 96.1373C198.533 96.1373 199.315 96.9325 199.315 98.1253C199.315 99.3181 198.533 100.11 197.399 100.11ZM201.182 94.5954H199.315V95.5879H199.284C198.842 94.8534 198.075 94.3647 196.929 94.3647C195.077 94.3647 193.531 95.7093 193.531 98.1222C193.531 100.505 195.062 101.834 196.914 101.834C198.108 101.834 198.842 101.315 199.284 100.657H199.315V100.975C199.303 102.453 198.317 103.13 197.399 103.13C196.705 103.136 196.023 102.924 195.456 102.523L194.328 104.013C195.219 104.663 196.296 105.009 197.399 105C199.854 105 201.179 102.915 201.179 100.951L201.182 94.5954Z" fill="white"/>
    <path d="M142.918 92.8653C144.042 92.5861 145.179 93.2751 145.458 94.4011C145.737 95.5271 145.049 96.6653 143.924 96.9445C142.8 97.2237 141.663 96.5348 141.384 95.4087C141.108 94.2827 141.793 93.1445 142.918 92.8653Z" fill="white"/>
    <path d="M139.077 96.717C140.202 96.4378 141.339 97.1267 141.617 98.2528C141.896 99.3788 141.208 100.517 140.084 100.796C138.959 101.075 137.822 100.386 137.543 99.2604C137.268 98.1344 137.953 96.9932 139.077 96.717Z" fill="white"/>
    <path d="M143.797 98.1678C144.5 97.9917 145.213 98.4227 145.388 99.1299C145.564 99.8371 145.134 100.55 144.427 100.723C143.724 100.899 143.012 100.468 142.836 99.7612C142.66 99.054 143.094 98.3438 143.797 98.1678Z" fill="white"/>
    <path d="M138.574 92.9383C139.278 92.7623 139.99 93.1932 140.166 93.9004C140.341 94.6076 139.911 95.3208 139.205 95.4938C138.502 95.6699 137.789 95.2389 137.613 94.5317C137.441 93.8245 137.871 93.1113 138.574 92.9383Z" fill="white"/>
    <path d="M173.237 94.644H171.879L169.987 99.0025L167.993 94.644H166.013L169.057 101.121L167.329 104.939H169.29L173.237 95.9734V94.644Z" fill="white"/>
</svg>