<?xml version="1.0" encoding="UTF-8"?>
<svg width="315px" height="48px" viewBox="0 0 315 48" version="1.1" xmlns="http://www.w3.org/2000/svg" xmlns:xlink="http://www.w3.org/1999/xlink">
    <title>Planche logo 2</title>
    <g id="Planche-logo-2" stroke="none" stroke-width="1" fill="none" fill-rule="evenodd">
        <g id="Group-5">
            <g id="Group-3" transform="translate(80.000000, 0.000000)">
                <rect id="Rectangle-Copy-2" stroke="#888888" fill="#FFFFFF" x="0.5" y="0.5" width="74" height="47" rx="6"></rect>
                <g id="Mastercard-logo-Copy" transform="translate(13.000000, 5.000000)" fill-rule="nonzero">
                    <g id="g15" transform="translate(2.000000, 32.000000)" fill="#000000">
                        <path d="M6.41142857,5.91176471 L6.41142857,3.26470588 C6.41142857,2.25 5.8247619,1.58823529 4.81904762,1.58823529 C4.31619048,1.58823529 3.77142857,1.76470588 3.39428571,2.33823529 C3.10095238,1.85294118 2.68190476,1.58823529 2.05333333,1.58823529 C1.63428571,1.58823529 1.2152381,1.72058824 0.88,2.20588235 L0.88,1.67647059 L0,1.67647059 L0,5.91176471 L0.88,5.91176471 L0.88,3.57352941 C0.88,2.82352941 1.25714286,2.47058824 1.84380952,2.47058824 C2.43047619,2.47058824 2.72380952,2.86764706 2.72380952,3.57352941 L2.72380952,5.91176471 L3.60380952,5.91176471 L3.60380952,3.57352941 C3.60380952,2.82352941 4.02285714,2.47058824 4.56761905,2.47058824 C5.15428571,2.47058824 5.44761905,2.86764706 5.44761905,3.57352941 L5.44761905,5.91176471 L6.41142857,5.91176471 L6.41142857,5.91176471 Z M19.4438095,1.67647059 L18.0190476,1.67647059 L18.0190476,0.397058824 L17.1390476,0.397058824 L17.1390476,1.67647059 L16.3428571,1.67647059 L16.3428571,2.51470588 L17.1390476,2.51470588 L17.1390476,4.45588235 C17.1390476,5.42647059 17.5161905,6 18.5219048,6 C18.8990476,6 19.3180952,5.86764706 19.6114286,5.69117647 L19.36,4.89705882 C19.1085714,5.07352941 18.8152381,5.11764706 18.6057143,5.11764706 C18.1866667,5.11764706 18.0190476,4.85294118 18.0190476,4.41176471 L18.0190476,2.51470588 L19.4438095,2.51470588 L19.4438095,1.67647059 L19.4438095,1.67647059 Z M26.9028571,1.58823529 C26.4,1.58823529 26.0647619,1.85294118 25.8552381,2.20588235 L25.8552381,1.67647059 L24.9752381,1.67647059 L24.9752381,5.91176471 L25.8552381,5.91176471 L25.8552381,3.52941176 C25.8552381,2.82352941 26.1485714,2.42647059 26.6933333,2.42647059 C26.8609524,2.42647059 27.0704762,2.47058824 27.2380952,2.51470588 L27.4895238,1.63235294 C27.3219048,1.58823529 27.0704762,1.58823529 26.9028571,1.58823529 L26.9028571,1.58823529 L26.9028571,1.58823529 Z M15.6304762,2.02941176 C15.2114286,1.72058824 14.6247619,1.58823529 13.9961905,1.58823529 C12.9904762,1.58823529 12.32,2.11764706 12.32,2.95588235 C12.32,3.66176471 12.8228571,4.05882353 13.7028571,4.19117647 L14.1219048,4.23529412 C14.5828571,4.32352941 14.8342857,4.45588235 14.8342857,4.67647059 C14.8342857,4.98529412 14.4990476,5.20588235 13.912381,5.20588235 C13.3257143,5.20588235 12.8647619,4.98529412 12.5714286,4.76470588 L12.152381,5.47058824 C12.6133333,5.82352941 13.2419048,6 13.8704762,6 C15.0438095,6 15.7142857,5.42647059 15.7142857,4.63235294 C15.7142857,3.88235294 15.1695238,3.48529412 14.3314286,3.35294118 L13.912381,3.30882353 C13.5352381,3.26470588 13.2419048,3.17647059 13.2419048,2.91176471 C13.2419048,2.60294118 13.5352381,2.42647059 13.9961905,2.42647059 C14.4990476,2.42647059 15.0019048,2.64705882 15.2533333,2.77941176 L15.6304762,2.02941176 L15.6304762,2.02941176 Z M39.0133333,1.58823529 C38.5104762,1.58823529 38.1752381,1.85294118 37.9657143,2.20588235 L37.9657143,1.67647059 L37.0857143,1.67647059 L37.0857143,5.91176471 L37.9657143,5.91176471 L37.9657143,3.52941176 C37.9657143,2.82352941 38.2590476,2.42647059 38.8038095,2.42647059 C38.9714286,2.42647059 39.1809524,2.47058824 39.3485714,2.51470588 L39.6,1.63235294 C39.432381,1.58823529 39.1809524,1.58823529 39.0133333,1.58823529 L39.0133333,1.58823529 L39.0133333,1.58823529 Z M27.7828571,3.79411765 C27.7828571,5.07352941 28.6209524,6 29.92,6 C30.5066667,6 30.9257143,5.86764706 31.3447619,5.51470588 L30.9257143,4.76470588 C30.5904762,5.02941176 30.2552381,5.16176471 29.8780952,5.16176471 C29.1657143,5.16176471 28.6628571,4.63235294 28.6628571,3.79411765 C28.6628571,3 29.1657143,2.47058824 29.8780952,2.42647059 C30.2552381,2.42647059 30.5904762,2.55882353 30.9257143,2.82352941 L31.3447619,2.07352941 C30.9257143,1.72058824 30.5066667,1.58823529 29.92,1.58823529 C28.6209524,1.58823529 27.7828571,2.51470588 27.7828571,3.79411765 L27.7828571,3.79411765 L27.7828571,3.79411765 Z M35.912381,3.79411765 L35.912381,1.67647059 L35.032381,1.67647059 L35.032381,2.20588235 C34.7390476,1.80882353 34.32,1.58823529 33.7752381,1.58823529 C32.6438095,1.58823529 31.7638095,2.51470588 31.7638095,3.79411765 C31.7638095,5.07352941 32.6438095,6 33.7752381,6 C34.3619048,6 34.7809524,5.77941176 35.032381,5.38235294 L35.032381,5.91176471 L35.912381,5.91176471 L35.912381,3.79411765 Z M32.6857143,3.79411765 C32.6857143,3.04411765 33.1466667,2.42647059 33.9009524,2.42647059 C34.6133333,2.42647059 35.1161905,3 35.1161905,3.79411765 C35.1161905,4.54411765 34.6133333,5.16176471 33.9009524,5.16176471 C33.1466667,5.11764706 32.6857143,4.54411765 32.6857143,3.79411765 L32.6857143,3.79411765 Z M22.167619,1.58823529 C20.9942857,1.58823529 20.1561905,2.47058824 20.1561905,3.79411765 C20.1561905,5.11764706 20.9942857,6 22.2095238,6 C22.7961905,6 23.3828571,5.82352941 23.8438095,5.42647059 L23.4247619,4.76470588 C23.0895238,5.02941176 22.6704762,5.20588235 22.2514286,5.20588235 C21.7066667,5.20588235 21.1619048,4.94117647 21.0361905,4.19117647 L24.0114286,4.19117647 C24.0114286,4.05882353 24.0114286,3.97058824 24.0114286,3.83823529 C24.0533333,2.47058824 23.2990476,1.58823529 22.167619,1.58823529 L22.167619,1.58823529 L22.167619,1.58823529 Z M22.167619,2.38235294 C22.712381,2.38235294 23.0895238,2.73529412 23.1733333,3.39705882 L21.0780952,3.39705882 C21.1619048,2.82352941 21.5390476,2.38235294 22.167619,2.38235294 L22.167619,2.38235294 Z M44,3.79411765 L44,0 L43.12,0 L43.12,2.20588235 C42.8266667,1.80882353 42.407619,1.58823529 41.8628571,1.58823529 C40.7314286,1.58823529 39.8514286,2.51470588 39.8514286,3.79411765 C39.8514286,5.07352941 40.7314286,6 41.8628571,6 C42.4495238,6 42.8685714,5.77941176 43.12,5.38235294 L43.12,5.91176471 L44,5.91176471 L44,3.79411765 Z M40.7733333,3.79411765 C40.7733333,3.04411765 41.2342857,2.42647059 41.9885714,2.42647059 C42.7009524,2.42647059 43.2038095,3 43.2038095,3.79411765 C43.2038095,4.54411765 42.7009524,5.16176471 41.9885714,5.16176471 C41.2342857,5.11764706 40.7733333,4.54411765 40.7733333,3.79411765 L40.7733333,3.79411765 Z M11.3561905,3.79411765 L11.3561905,1.67647059 L10.4761905,1.67647059 L10.4761905,2.20588235 C10.1828571,1.80882353 9.76380952,1.58823529 9.21904762,1.58823529 C8.08761905,1.58823529 7.20761905,2.51470588 7.20761905,3.79411765 C7.20761905,5.07352941 8.08761905,6 9.21904762,6 C9.80571429,6 10.2247619,5.77941176 10.4761905,5.38235294 L10.4761905,5.91176471 L11.3561905,5.91176471 L11.3561905,3.79411765 Z M8.08761905,3.79411765 C8.08761905,3.04411765 8.54857143,2.42647059 9.30285714,2.42647059 C10.0152381,2.42647059 10.5180952,3 10.5180952,3.79411765 C10.5180952,4.54411765 10.0152381,5.16176471 9.30285714,5.16176471 C8.54857143,5.11764706 8.08761905,4.54411765 8.08761905,3.79411765 Z" id="XMLID_1775_"></path>
                    </g>
                    <g id="XMLID_328_">
                        <rect id="rect19" fill="#FF5F00" x="17.8755407" y="3.2083375" width="13.248927" height="23.5833325"></rect>
                        <path d="M18.7167382,15 C18.7167382,10.2083333 20.9879828,5.95833333 24.47897,3.20833333 C21.9133047,1.20833333 18.6746781,0 15.1416309,0 C6.77167382,0 0,6.70833333 0,15 C0,23.2916667 6.77167382,30 15.1416309,30 C18.6746781,30 21.9133047,28.7916667 24.47897,26.7916667 C20.9879828,24.0833333 18.7167382,19.7916667 18.7167382,15 Z" id="XMLID_330_" fill="#EB001B"></path>
                        <path d="M49,15 C49,23.2916667 42.2283262,30 33.8583691,30 C30.3253219,30 27.0866953,28.7916667 24.52103,26.7916667 C28.0540773,24.0416667 30.2832618,19.7916667 30.2832618,15 C30.2832618,10.2083333 28.0120172,5.95833333 24.52103,3.20833333 C27.0866953,1.20833333 30.3253219,0 33.8583691,0 C42.2283262,0 49,6.75 49,15 Z" id="path22" fill="#F79E1B"></path>
                    </g>
                </g>
            </g>
            <g id="Group-2">
                <rect id="Rectangle-Copy" stroke="#888888" fill="#FFFFFF" x="0.5" y="0.5" width="74" height="47" rx="6"></rect>
                <g id="Visa_Inc._logo-Copy" transform="translate(7.000000, 14.000000)" fill-rule="nonzero">
                    <polygon id="polygon9" fill="#00579F" points="26.3611668 19.3220339 21.3559322 19.3220339 24.4865645 0 29.4915254 0"></polygon>
                    <path d="M43.7288136,0.796313223 C42.7926553,0.417859479 41.3078309,0 39.4718499,0 C34.7848296,0 31.4842682,2.54682708 31.4640241,6.18802285 C31.4250932,8.87448904 33.8271295,10.3666176 35.6236606,11.2623708 C37.4599012,12.1776947 38.0840932,12.7751279 38.0840932,13.5910118 C38.0654064,14.8440613 36.600307,15.4216595 35.2338326,15.4216595 C33.3389361,15.4216595 32.3236183,15.1238685 30.7806572,14.4267308 L30.1556865,14.1278819 L29.4915254,18.3265763 C30.6046895,18.8433468 32.6555691,19.3019343 34.7848296,19.3220339 C39.7648697,19.3220339 43.0070348,16.8146126 43.0454466,12.9343377 C43.0643929,10.8051056 41.7960244,9.17360238 39.0615182,7.84041907 C37.4015048,6.98460054 36.3848894,6.40753131 36.3848894,5.53187768 C36.4043548,4.73582892 37.2447431,3.920474 39.1186169,3.920474 C40.661578,3.88053933 41.7952457,4.25846414 42.6540613,4.63665341 L43.0833393,4.8352689 L43.7288136,0.796313223 L43.7288136,0.796313223 L43.7288136,0.796313223 Z" id="path11" fill="#00579F"></path>
                    <path d="M50.1660045,12.4771003 C50.5627788,11.3670594 52.0895431,7.07087594 52.0895431,7.07087594 C52.06952,7.11213023 52.485527,5.94034449 52.7234335,5.22098989 L53.0601384,6.88591466 C53.0601384,6.88591466 53.9725085,11.5110396 54.1706322,12.4771003 C53.4176568,12.4771003 51.1176305,12.4771003 50.1660045,12.4771003 L50.1660045,12.4771003 Z M56.11314,0 L52.3864652,0 C51.2372424,0 50.3641282,0.349158821 49.8682921,1.60317994 L42.7118644,19.3220339 L47.7671799,19.3220339 C47.7671799,19.3220339 48.5994574,16.9372081 48.7783484,16.4235785 C49.3329366,16.4235785 54.2507247,16.4235785 54.9641807,16.4235785 C55.1024985,17.1019521 55.5390556,19.3220339 55.5390556,19.3220339 L60,19.3220339 L56.11314,0 L56.11314,0 L56.11314,0 Z" id="path13" fill="#00579F"></path>
                    <path d="M17.1887999,1.01694915 L12.3875528,13.5125163 L11.8628981,10.978269 C10.9752478,8.0540778 8.19138775,4.87700595 5.08474576,3.29727939 L9.48251545,19.3220339 L14.666865,19.3220339 L22.3728814,1.01694915 L17.1887999,1.01694915 L17.1887999,1.01694915 L17.1887999,1.01694915 Z" id="path15" fill="#00579F"></path>
                    <path d="M8.17013596,0 L0.0827376417,0 L0,0.377960503 C6.30867646,1.93026995 10.4867899,5.67205248 12.2033898,10.1694915 L10.4452837,1.57241091 C10.1558394,0.37769601 9.26634099,0.0394094577 8.17013596,0 L8.17013596,0 Z" id="path17" fill="#FAA61A"></path>
                </g>
            </g>
            <g id="Group-2-Copy" transform="translate(240.000000, 0.000000)" fill="#F4E624" stroke="#888888">
                <rect id="Rectangle-Copy" x="0.5" y="0.5" width="74" height="47" rx="6"></rect>
            </g>
            <g id="Group-4" transform="translate(160.000000, 0.000000)">
                <rect id="Rectangle-Copy-3" stroke="#888888" fill="#FFFFFF" x="0.5" y="0.5" width="74" height="47" rx="6"></rect>
                <g id="Maestro_2016-Copy" transform="translate(13.000000, 5.000000)" fill-rule="nonzero">
                    <g id="Group" transform="translate(48.337838, 24.337838) scale(-1, 1) rotate(-180.000000) translate(-48.337838, -24.337838) translate(47.675676, 23.837838)" fill="#0099DF">
                        <path d="M1.32432432,6.74460487e-15 L1.32432432,0.61 L1.16540541,0.61 L0.981499235,0.191 L0.798592555,0.61 L0.638674146,0.61 L0.638674146,6.74460487e-15 L0.751616522,6.74460487e-15 L0.751616522,0.46 L0.923528812,0.063 L1.04046915,0.063 L1.21238144,0.461 L1.21238144,6.74460487e-15 L1.32432432,6.74460487e-15 Z M0.315838858,4.35762537e-15 L0.315838858,0.506 L0.519734829,0.506 L0.519734829,0.609 L-1.41290883e-14,0.609 L-1.41290883e-14,0.506 L0.203895971,0.506 L0.203895971,4.35762537e-15 L0.315838858,4.35762537e-15 Z" id="Shape"></path>
                    </g>
                    <polygon id="Path" fill="#6C6BBD" points="31.1216216 27.1486486 17.8783784 27.1486486 17.8783784 3.31081081 31.1216216 3.31081081"></polygon>
                    <g id="Group" transform="translate(12.250000, 15.229730) scale(-1, 1) rotate(-180.000000) translate(-12.250000, -15.229730) " fill="#EB001B">
                        <path d="M18.7165481,15.2297297 C18.7165481,20.08748 20.978131,24.4146249 24.5,27.2032079 C21.9245491,29.2423592 18.6741856,30.4594595 15.1417259,30.4594595 C6.77897198,30.4594595 -1.88197806e-14,23.6409868 -1.88197806e-14,15.2297297 C-1.88197806e-14,6.81847268 6.77897198,9.40989028e-15 15.1417259,9.40989028e-15 C18.6741856,9.40989028e-15 21.9245491,1.21710028 24.5,3.25625158 C20.978131,6.04483455 18.7165481,10.3719795 18.7165481,15.2297297" id="Path"></path>
                    </g>
                    <g id="Group" transform="translate(36.750000, 15.229730) scale(-1, 1) rotate(-180.000000) translate(-36.750000, -15.229730) translate(24.500000, 0.000000)" fill="#0099DF">
                        <path d="M24.5,15.2297297 C24.5,6.81847268 17.7212944,0 9.35886907,0 C5.82654826,0 2.57631248,1.21710028 0,3.25625158 C3.52269334,6.04483455 5.78418736,10.3719795 5.78418736,15.2297297 C5.78418736,20.08748 3.52269334,24.4146249 0,27.2032079 C2.57631248,29.2423592 5.82654826,30.4594595 9.35886907,30.4594595 C17.7212944,30.4594595 24.5,23.6409868 24.5,15.2297297" id="Path"></path>
                    </g>
                    <g id="Group" transform="translate(24.500000, 35.756757) scale(-1, 1) rotate(-180.000000) translate(-24.500000, -35.756757) translate(7.945946, 33.108108)" fill="#231F20">
                        <path d="M27.710972,4.19337702 C27.8879431,4.19337702 28.1422787,4.16012641 28.3366568,4.08507503 L28.0658813,3.2718601 C27.8802067,3.34691147 27.6945321,3.37161193 27.5165939,3.37161193 C26.942163,3.37161193 26.6549475,3.00680523 26.6549475,2.35129319 L26.6549475,0.126352321 L25.7758942,0.126352321 L25.7758942,4.09362519 L26.646244,4.09362519 L26.646244,3.61196634 C26.8744691,3.96062275 27.204235,4.19337702 27.710972,4.19337702 M24.4636,3.30511071 L23.0275228,3.30511071 L23.0275228,1.51242778 C23.0275228,1.11437047 23.170647,0.848365582 23.6106572,0.848365582 C23.8388823,0.848365582 24.1260977,0.923416961 24.3872027,1.0725697 L24.6405712,0.334406142 C24.3620592,0.143452635 23.9230161,0.0266004886 23.5429633,0.0266004886 C22.5033788,0.0266004886 22.140733,0.574760557 22.140733,1.49627748 L22.140733,3.30511071 L21.32067,3.30511071 L21.32067,4.09362519 L22.140733,4.09362519 L22.140733,5.2972973 L23.0275228,5.2972973 L23.0275228,4.09362519 L24.4636,4.09362519 L24.4636,3.30511071 Z M13.217713,2.45864516 C13.3115174,3.03150568 13.6654596,3.42196285 14.2911445,3.42196285 C14.8568719,3.42196285 15.2204847,3.07330645 15.313322,2.45864516 L13.217713,2.45864516 Z M16.2262223,2.10998875 C16.2175188,3.34691147 15.4400063,4.19337702 14.3075844,4.19337702 C13.1248757,4.19337702 12.2970763,3.34691147 12.2970763,2.10998875 C12.2970763,0.8493156 13.1587226,0.027550506 14.3675418,0.027550506 C14.9758197,0.027550506 15.5328436,0.176703246 16.0231406,0.583310714 L15.5918339,1.22267246 C15.2543316,0.956667571 14.8230249,0.807514832 14.4178287,0.807514832 C13.8521013,0.807514832 13.3366608,1.06496956 13.2099765,1.77843267 L16.2088153,1.77843267 C16.2175188,1.88673465 16.2262223,1.99408663 16.2262223,2.10998875 M20.0867074,3.08090659 C19.8420424,3.23100935 19.3440088,3.42196285 18.8285683,3.42196285 C18.3469747,3.42196285 18.0597593,3.24715964 18.0597593,2.9564543 C18.0597593,2.69139943 18.3634147,2.61634806 18.7434674,2.56694715 L19.1573671,2.50899608 C20.0364205,2.38359378 20.568301,2.01878708 20.568301,1.32147427 C20.568301,0.5662104 19.8923292,0.0266004886 18.7270275,0.0266004886 C18.0674957,0.0266004886 17.4592179,0.192853542 16.9776243,0.541509946 L17.391524,1.2141223 C17.687443,0.989918182 18.1274532,0.798964675 18.735731,0.798964675 C19.3353053,0.798964675 19.6563677,0.972817868 19.6563677,1.28062352 C19.6563677,1.50387762 19.4281427,1.62927993 18.9465491,1.69483113 L18.5326494,1.75278219 C17.6284526,1.8781845 17.1381555,2.27624181 17.1381555,2.92320369 C17.1381555,3.71171817 17.7976873,4.19337702 18.8198648,4.19337702 C19.4619896,4.19337702 20.045124,4.05182442 20.4667601,3.7782194 L20.0867074,3.08090659 Z M30.9225629,3.37351196 C30.7417236,3.37351196 30.574423,3.34216139 30.4187271,3.28041025 C30.2639982,3.2177091 30.1295775,3.1303075 30.016432,3.01820544 C29.9032866,2.90610338 29.8143175,2.7712009 29.7495248,2.61444802 C29.6847321,2.45769514 29.6528192,2.28479197 29.6528192,2.09668851 C29.6528192,1.90763504 29.6847321,1.73568188 29.7495248,1.578929 C29.8143175,1.42217612 29.9032866,1.28727364 30.016432,1.17517158 C30.1295775,1.06306953 30.2639982,0.97566792 30.4187271,0.912966769 C30.574423,0.850265617 30.7417236,0.819865059 30.9225629,0.819865059 C31.1034023,0.819865059 31.2716699,0.850265617 31.4263988,0.912966769 C31.5820947,0.97566792 31.7174825,1.06306953 31.8306279,1.17517158 C31.9457075,1.28727364 32.0346766,1.42217612 32.1004364,1.578929 C32.1652291,1.73568188 32.1971419,1.90763504 32.1971419,2.09668851 C32.1971419,2.28479197 32.1652291,2.45769514 32.1004364,2.61444802 C32.0346766,2.7712009 31.9457075,2.90610338 31.8306279,3.01820544 C31.7174825,3.1303075 31.5820947,3.2177091 31.4263988,3.28041025 C31.2716699,3.34216139 31.1034023,3.37351196 30.9225629,3.37351196 M30.9225629,4.19337702 C31.2358889,4.19337702 31.5260055,4.14017604 31.7929128,4.03282407 C32.0598201,3.92642212 32.2909463,3.77916941 32.4853244,3.59201598 C32.6806696,3.40486254 32.8324973,3.18350847 32.9427416,2.9289038 C33.052986,2.6733491 33.1081081,2.39594401 33.1081081,2.09668851 C33.1081081,1.79743301 33.052986,1.52002792 32.9427416,1.26447323 C32.8324973,1.00986855 32.6806696,0.787564465 32.4853244,0.600411028 C32.2909463,0.41325759 32.0598201,0.266954903 31.7929128,0.159602931 C31.5260055,0.0532009772 31.2358889,8.40168775e-17 30.9225629,8.40168775e-17 C30.609237,8.40168775e-17 30.3191204,0.0532009772 30.0522131,0.159602931 C29.7853058,0.266954903 29.5561137,0.41325759 29.3627026,0.600411028 C29.1692915,0.787564465 29.0174638,1.00986855 28.9072195,1.26447323 C28.7969752,1.52002792 28.7418531,1.79743301 28.7418531,2.09668851 C28.7418531,2.39594401 28.7969752,2.6733491 28.9072195,2.9289038 C29.0174638,3.18350847 29.1692915,3.40486254 29.3627026,3.59201598 C29.5561137,3.77916941 29.7853058,3.92642212 30.0522131,4.03282407 C30.3191204,4.14017604 30.609237,4.19337702 30.9225629,4.19337702 M8.08458301,2.10998875 C8.08458301,2.80730156 8.54973665,3.38016208 9.30984218,3.38016208 C10.0361008,3.38016208 10.5263978,2.83200202 10.5263978,2.10998875 C10.5263978,1.38797549 10.0361008,0.840765443 9.30984218,0.840765443 C8.54973665,0.840765443 8.08458301,1.41267595 8.08458301,2.10998875 M11.3541973,2.10998875 L11.3541973,4.09362519 L10.476111,4.09362519 L10.476111,3.61196634 C10.196632,3.9691729 9.77499582,4.19337702 9.20056492,4.19337702 C8.06814306,4.19337702 7.18135328,3.32221102 7.18135328,2.10998875 C7.18135328,0.898716507 8.06814306,0.0266004886 9.20056492,0.0266004886 C9.77499582,0.0266004886 10.196632,0.250804607 10.476111,0.608011168 L10.476111,0.126352321 L11.3541973,0.126352321 L11.3541973,2.10998875 Z M6.40384075,0.126352321 L6.40384075,2.61634806 C6.40384075,3.55401528 5.79556291,4.18482686 4.81593581,4.19337702 C4.30049529,4.20192718 3.76764777,4.04422428 3.39629851,3.48751406 C3.11778656,3.92737214 2.67777636,4.19337702 2.06079502,4.19337702 C1.63045538,4.19337702 1.20785217,4.06892474 0.878086288,3.6043662 L0.878086288,4.09362519 L-1.88197806e-14,4.09362519 L-1.88197806e-14,0.126352321 L0.886789787,0.126352321 L0.886789787,2.32564272 C0.886789787,3.01440537 1.27554605,3.38016208 1.87512039,3.38016208 C2.45825478,3.38016208 2.75417373,3.00680523 2.75417373,2.33419287 L2.75417373,0.126352321 L3.64096352,0.126352321 L3.64096352,2.32564272 C3.64096352,3.01440537 4.04712678,3.38016208 4.62929412,3.38016208 C5.22983551,3.38016208 5.51705096,3.00680523 5.51705096,2.33419287 L5.51705096,0.126352321 L6.40384075,0.126352321 Z" id="Shape"></path>
                    </g>
                    <g id="Group" transform="translate(42.216216, 38.243243) scale(-1, 1) rotate(-180.000000) translate(-42.216216, -38.243243) translate(41.716216, 37.743243)" fill="#231F20">
                        <path d="M0.354,0.537 L0.354,0.434 L0.449,0.434 C0.47,0.434 0.488,0.439 0.5,0.447 C0.513,0.455 0.52,0.469 0.52,0.486 C0.52,0.503 0.513,0.516 0.5,0.524 C0.488,0.533 0.47,0.537 0.449,0.537 L0.354,0.537 Z M0.45,0.609 C0.499,0.609 0.537,0.598 0.564,0.576 C0.591,0.554 0.604,0.524 0.604,0.486 C0.604,0.454 0.594,0.428 0.572,0.407 C0.551,0.387 0.52,0.374 0.481,0.369 L0.607,0.224 L0.509,0.224 L0.392,0.368 L0.354,0.368 L0.354,0.224 L0.272,0.224 L0.272,0.609 L0.45,0.609 Z M0.425,0.092 C0.47,0.092 0.512,0.1 0.55,0.117 C0.589,0.134 0.623,0.157 0.652,0.186 C0.681,0.215 0.704,0.249 0.721,0.289 C0.737,0.328 0.746,0.37 0.746,0.415 C0.746,0.46 0.737,0.502 0.721,0.541 C0.704,0.58 0.681,0.615 0.652,0.644 C0.623,0.673 0.589,0.696 0.55,0.712 C0.512,0.729 0.47,0.737 0.425,0.737 C0.38,0.737 0.337,0.729 0.298,0.712 C0.258,0.696 0.223,0.673 0.194,0.644 C0.165,0.615 0.142,0.58 0.126,0.541 C0.109,0.502 0.101,0.46 0.101,0.415 C0.101,0.37 0.109,0.328 0.126,0.289 C0.142,0.249 0.165,0.215 0.194,0.186 C0.223,0.157 0.258,0.134 0.298,0.117 C0.337,0.1 0.38,0.092 0.425,0.092 M0.425,0.83 C0.484,0.83 0.538,0.819 0.589,0.797 C0.641,0.776 0.685,0.746 0.724,0.708 C0.762,0.671 0.792,0.627 0.814,0.576 C0.836,0.526 0.847,0.472 0.847,0.415 C0.847,0.358 0.836,0.304 0.814,0.254 C0.792,0.204 0.762,0.16 0.724,0.123 C0.685,0.085 0.641,0.055 0.589,0.033 C0.538,0.011 0.484,0 0.425,0 C0.365,0 0.31,0.011 0.258,0.033 C0.206,0.055 0.161,0.085 0.123,0.123 C0.085,0.16 0.055,0.204 0.033,0.254 C0.011,0.304 0,0.358 0,0.415 C0,0.472 0.011,0.526 0.033,0.576 C0.055,0.627 0.085,0.671 0.123,0.708 C0.161,0.746 0.206,0.776 0.258,0.797 C0.31,0.819 0.365,0.83 0.425,0.83" id="Shape"></path>
                    </g>
                </g>
            </g>
        </g>
        <path d="M297.939591,27.149706 C296.835082,28.1362815 294.949926,28.469883 293.833191,27.354036 C293.363939,26.885139 293.125002,26.308878 293.038014,25.655616 C292.889963,24.545085 293.370731,23.734911 294.287739,23.143116 C295.587483,22.3043565 297.393864,22.363707 298.905609,22.3690215 C298.928463,22.037073 299.005885,21.7074855 299.005885,21.3692775 C299.005826,20.811147 297.901259,20.6065215 297.565943,21.031896 C297.425569,21.2099475 297.306691,21.5538255 297.200333,21.765951 L297.152676,21.8610888 L294.395811,21.8610888 L294.42398,21.6643173 C294.484452,21.2416008 294.64455,20.8536678 294.903684,20.5140423 C295.570889,19.6396728 296.754774,19.2512073 297.812379,19.1619753 C298.847852,19.0746329 300.231099,19.2523887 301.051914,19.9461093 C301.831973,20.6054598 301.905851,21.9712293 301.691304,22.9006443 L301.051619,25.6716843 C300.899552,26.3307393 300.843213,27.0885933 300.843213,27.7649493 L300.843213,27.9372723 L297.939588,27.9372723 L297.939588,27.1497138 L297.939591,27.149706 Z M298.576146,23.779731 L298.218744,23.779731 C297.885909,23.779731 297.526914,23.7709908 297.207485,23.8776444 C296.950004,23.9636286 296.617406,24.0671529 296.421815,24.2628024 L296.406815,24.2778615 L296.388566,24.2888457 C296.241696,24.3768969 296.118448,24.5032752 296.023075,24.6447117 C295.806697,24.9655587 295.60526,25.6791807 296.057563,25.9055382 L296.082602,25.9180579 L296.102386,25.9377823 C296.225693,26.0612076 296.453999,26.1000073 296.620004,26.1000073 C296.814413,26.1000073 297.004157,26.1013656 297.182623,26.0122515 C297.449788,25.8789051 297.686303,25.801425 297.862465,25.5372705 L297.871914,25.5230973 L297.883961,25.51105 C298.355162,25.0397905 298.547976,24.427153 298.576146,23.779735 L298.576146,23.779731 Z M303.900261,27.726201 L302.383551,19.278126 L305.192391,19.278126 L305.891013,24.567156 L308.884818,19.278126 L311.633358,19.278126 L306.363633,28.170171 L304.822878,30.922431 L301.731573,30.922431 L303.900258,27.726186 L303.900261,27.726201 Z M287.567661,19.978761 C288.265692,19.3635255 289.039964,18.9581115 290.026656,18.9581115 C290.777483,18.9581115 291.559851,19.187481 292.073691,19.7617335 C292.603475,20.3538195 292.789085,21.1128555 292.8632,21.8856435 C292.884223,22.105152 292.883574,22.3249545 292.883633,22.5452295 C292.884046,23.831154 292.597334,25.1806245 291.875267,26.2621545 C290.927196,27.682194 288.629237,28.6097145 287.061572,27.7006785 C286.747517,27.518553 286.476336,27.25062 286.264209,26.9478435 L285.368106,31.0292085 L282.563571,31.0292085 L282.609457,30.819858 C283.43357,27.063423 284.200402,23.293998 284.953657,19.522788 L284.981295,19.3841856 L287.613495,19.3841856 L287.567668,19.9787526 L287.567661,19.978761 Z M287.299137,21.985101 C286.85274,22.798113 286.736637,23.749611 286.787307,24.664311 C286.822445,25.2986805 287.066993,26.0535825 287.807366,26.100708 C288.539,26.1471845 289.143842,25.520373 289.445501,24.916299 C289.671387,24.464055 289.864793,23.9648025 289.964241,23.467677 C290.098828,22.794921 290.344201,21.609747 289.798061,21.064377 C289.003356,20.2706175 287.717425,21.223353 287.29915,21.9851055 L287.299137,21.985101 Z M250.706487,27.486081 C249.787649,28.1641515 248.131512,28.207026 247.128102,27.7057665 C246.766626,27.5252355 246.481331,27.27366 246.226566,26.977971 L245.316822,30.922446 L243.366642,30.922446 L245.893017,19.278141 L247.605147,19.278141 L247.524182,20.2480035 C248.234143,19.5857595 249.234542,19.171488 250.189577,19.1715465 C250.980974,19.1715465 251.664065,19.401921 252.230102,19.9681995 C252.827504,20.566014 253.186559,21.247569 253.239944,22.1047545 C253.281874,22.777569 253.205692,23.433495 253.020259,24.0816795 C252.832286,24.7390815 252.621991,25.3568565 252.253841,25.9384245 C251.8502,26.5761015 251.389511,27.1397835 250.706486,27.4860795 L250.706487,27.486081 Z M251.095247,23.650041 C251.294499,23.1523245 251.296271,22.6416165 251.296271,22.115436 C251.296271,21.6548055 251.100563,21.289491 250.805582,20.949333 C249.845228,19.841931 248.060582,20.8909866 247.575032,21.972699 C247.02452,23.1992145 246.737867,23.718189 246.737867,25.099899 C246.737867,25.558107 246.906824,25.8370245 247.220229,26.15049 C247.532808,26.4631275 247.835111,26.5269075 248.27076,26.5269075 C249.344736,26.5269075 249.923595,26.1316515 250.46784,25.224801 C250.754907,24.746454 250.976954,24.229131 251.086148,23.680446 L251.089277,23.6648555 L251.095242,23.6500326 L251.095247,23.650041 Z M261.008657,19.849956 C261.663519,20.385054 261.963047,21.0596415 262.031137,21.888006 C262.091256,22.6195815 262.013244,23.376195 261.811512,24.081666 C261.614622,24.770013 261.321709,25.439757 260.9385,26.045076 C260.526827,26.6953905 260.066787,27.1484025 259.377315,27.4930485 C258.112473,28.1252925 255.69807,28.1277735 254.601765,27.147222 C254.001116,26.6099385 253.691784,25.7993475 253.586726,25.016217 C253.481962,24.2351535 253.589324,23.461467 253.80458,22.707687 C254.009738,21.9892815 254.327159,21.207447 254.795466,20.621982 C256.165841,18.908847 259.278576,18.436347 261.008661,19.8499545 L261.008657,19.849956 Z M256.218512,26.358486 C256.581996,26.689608 257.019359,26.852541 257.508158,26.7483675 C259.018853,26.4266355 260.202607,23.5019325 260.194403,22.1165025 C260.191509,21.626463 260.063182,21.20292 259.711863,20.851542 C258.678872,19.818018 257.061588,20.8876247 256.463598,21.8841795 C256.150074,22.40664 255.946866,22.926384 255.846236,23.5297545 C255.705094,24.375837 255.507614,25.7108895 256.218519,26.3584995 L256.218512,26.358486 Z M267.787817,21.290136 C267.72947,21.111966 267.615081,20.749545 267.45693,20.670471 C267.184568,20.5341127 266.877717,20.4752355 266.574411,20.4752355 C266.159372,20.4752355 265.843191,20.5355898 265.497659,20.7661995 C265.278564,20.912479 265.03195,21.1344075 265.049135,21.423483 C265.08191,21.974172 265.978367,22.5067305 266.429961,22.703916 C267.070709,22.983483 267.901614,23.4123405 268.401576,23.9124195 C268.74132,24.252105 268.951025,24.7154505 268.98504,25.1945055 C269.048524,26.086002 268.687342,26.7596955 267.951516,27.2674005 C267.139745,27.8274795 266.053371,28.044093 265.081851,28.044093 C264.327245,28.044093 263.513766,27.878148 262.861026,27.486672 C262.349904,27.1800585 261.973605,26.7556875 261.897542,26.1486015 C261.844687,25.7267715 261.944549,25.3598025 262.036085,24.955275 L262.066498,24.8209836 L264.081283,24.8209836 L263.956795,25.0703736 C263.800417,25.3834251 263.855279,26.1592326 264.199984,26.3317911 C264.504709,26.4844491 264.851481,26.5269096 265.188625,26.5269096 C265.635201,26.5269096 266.201067,26.4581694 266.594491,26.2300401 C266.935476,26.0323236 267.041656,25.8058476 267.041656,25.4200401 C267.041656,25.2186621 266.9089,25.0385436 266.77272,24.9023046 C266.486302,24.6160056 265.912759,24.3522066 265.54579,24.1922856 C264.970711,23.9415381 264.127287,23.5363011 263.680765,23.0898441 C263.34114,22.7502771 263.131966,22.2863991 263.097891,21.8076981 C263.040607,21.0021276 263.307241,20.3973441 263.8998,19.8561681 C264.620745,19.1977626 265.522275,19.0647111 266.467635,19.0647111 C267.155745,19.0647111 268.1076,19.1245339 268.69596,19.5203211 C269.217652,19.8712266 269.498518,20.2933521 269.621767,20.9085291 L269.625133,20.9253007 L269.625133,21.8610877 L267.787813,21.8610877 L267.787813,21.2901427 L267.787817,21.290136 Z M271.474397,20.7952545 L269.967602,20.7952545 L270.390318,19.384191 L271.872779,19.384191 L272.291775,17.498331 L274.27107,16.9707915 L273.721799,19.2781365 L275.525879,19.2781365 L275.243477,20.6886675 L273.427352,20.6886675 C273.348218,21.023865 273.256388,21.359652 273.172233,21.6928995 C273.027666,22.265085 272.888474,22.8389235 272.765225,23.4160695 C272.669732,23.863353 272.218374,26.0235945 272.559063,26.3639895 C272.669083,26.4738911 273.034338,26.5269225 273.18363,26.5269225 C273.274457,26.5269225 273.36552,26.5206627 273.455874,26.5116272 C273.709811,26.4864107 274.000539,26.4201507 274.249988,26.4201507 L274.475756,26.4201507 L274.061426,27.9372807 L273.929792,27.9372807 C273.534477,27.9372807 273.132311,28.0053122 272.737883,28.0380878 C272.105225,28.0905878 271.502154,28.0588752 270.955898,27.6950363 C269.993949,27.0542888 270.350228,25.6685063 270.564068,24.7417463 L271.474403,20.7952763 L271.474397,20.7952545 Z M276.832817,23.6737845 C276.004982,26.8525995 279.774407,27.0192495 280.265042,25.0580955 L280.297699,24.9275836 L282.465724,24.9275836 L282.412161,25.1417761 C282.190292,26.0286061 281.713539,26.6634511 280.953854,27.1627561 C279.57279,28.0703146 277.182239,28.2216151 275.847479,27.1532483 C275.216592,26.6483273 274.938266,25.9044683 274.824881,25.1247083 C274.715629,24.3731138 274.84803,23.6491568 275.042499,22.9233083 C275.542932,21.0561683 276.986829,19.2639533 278.980824,18.9447683 C279.166611,18.9150045 279.354525,18.8992368 279.542675,18.8979375 C282.228095,18.880221 283.545725,21.1002225 282.727925,23.5558575 L282.688594,23.6737905 L276.832804,23.6737905 L276.832817,23.6737845 Z M281.051297,22.476087 C281.593659,20.544042 279.334382,19.619892 277.995842,20.958252 C277.554701,21.399393 277.324208,21.88335 277.220921,22.476087 L281.051291,22.476087 L281.051297,22.476087 Z" id="_414284472" fill="#1D60B4"></path>
    </g>
</svg>