<svg width="14" height="14" xmlns="http://www.w3.org/2000/svg">
    <g fill="#b2b2b2">
        <circle stroke="#b2b2b2" stroke-width="1.5" fill-opacity=".1" cx="7" cy="7" r="6.25"/>
        <path d="M7.62 3.52c.68 0 1.227.18 1.64.54.413.36.62.87.62 1.53 0 .667-.212 1.177-.635 1.53-.423.353-.992.537-1.705.55v1.01H6.21V6.75h.57c.54 0 .96-.082 1.26-.245.3-.163.45-.465.45-.905 0-.293-.083-.522-.25-.685-.167-.163-.39-.245-.67-.245-.307 0-.55.088-.73.265a.918.918 0 0 0-.27.685H5.24c-.013-.4.073-.758.26-1.075.187-.317.462-.567.825-.75.363-.183.795-.275 1.295-.275zm.03 6.01V11H6.13V9.53h1.52z"/>
    </g>
</svg>