<svg width="150" height="22.995" xmlns="http://www.w3.org/2000/svg">
    <path id="logo" fill="#81bc00" d="M29.022.042c-4.954 0-8.829 3.917-8.829 8.922 0 5.003 3.883 8.929 8.83 8.929 4.94 0 8.814-3.926 8.814-8.928.008-5.005-3.874-8.923-8.814-8.923m0 14.797c-3.15 0-5.708-2.577-5.708-5.869 0-3.29 2.566-5.876 5.708-5.876 3.13 0 5.7 2.586 5.7 5.876.008 3.286-2.57 5.869-5.7 5.869M91.081.043l-6.743 16.579-1.667 4.105-.92 2.268h-3.323l2.58-6.366L74.109.042h3.512l5.044 12.466L87.725.042zm-43.495 2.95c-3.116 0-4.704 1.683-4.704 5.01v9.862h-3.198V7.77c.027-1.768.341-3.018 1.059-4.196.85-1.32 2.865-3.538 6.843-3.538 3.973 0 5.993 2.218 6.835 3.538.711 1.172 1.033 2.428 1.053 4.196v10.095h-3.198V8c0-3.325-1.575-5.01-4.69-5.01m13.06 4.358c.424-2.155 2.473-4.261 5.225-4.261 2.745 0 4.795 2.106 5.213 4.261zm13.797 1.38C74.415 3.953 70.58.064 65.892.064c-4.822 0-8.607 3.904-8.607 8.887 0 2.336.894 4.555 2.488 6.254 1.63 1.713 3.777 2.66 6.056 2.66 2.606 0 6.265-1.264 7.999-4.836a.53.53 0 0 0 .043-.113h-3.499l-.02.023c-.942 1.128-2.712 1.895-4.397 1.895-2.147 0-4.718-1.425-5.421-4.64h13.833c.04-.337.076-1.004.076-1.462M8.963 0C3.936 0 0 3.972 0 9.062c0 5.075 3.936 9.061 8.963 9.061 5.017 0 8.945-3.98 8.945-9.061C17.908 3.972 13.972 0 8.963 0"/>
    <path fill="#fff" d="M5.318 9.807c0 .764.43 1.205 1.052 1.205.599 0 .933-.443.933-.925 0-.584-.273-.976-1.032-.976h-.633V7.855h.633c.717 0 .928-.352.928-.871 0-.532-.327-.786-.802-.786-.69 0-.89.413-.89 1.024H3.888c0-1.2.738-2.26 2.474-2.26 1.289 0 2.437.655 2.437 1.972 0 .794-.466 1.37-1.032 1.565.635.232 1.144.809 1.144 1.708 0 1.34-1.19 2.113-2.522 2.113-1.728 0-2.69-1.026-2.69-2.52h1.618zm9.204 2.371h-1.77l-.793-1.411-.788 1.411H9.398l1.66-2.45-1.63-2.407h1.77l.76 1.37.765-1.37h1.771l-1.622 2.407zm0 0"/>
    <path id="text" fill="#81bc00" d="M97.667 16.278c.987 0 1.715-.201 2.186-.604.471-.402.708-.92.708-1.555 0-.48-.165-.884-.493-1.204-.333-.32-.832-.558-1.498-.712-.996-.22-1.577-.376-1.743-.464a.445.445 0 0 1-.247-.42c0-.15.08-.287.234-.4.156-.113.413-.17.777-.17.443 0 .756.114.938.343.1.126.16.293.183.51h1.672c-.075-.786-.362-1.335-.865-1.656-.503-.32-1.153-.479-1.952-.479-.84 0-1.493.213-1.957.638-.462.424-.695.934-.695 1.527 0 .5.147.885.446 1.151.299.27.808.497 1.532.677 1.004.24 1.585.409 1.743.506a.481.481 0 0 1 .234.431c0 .195-.095.342-.291.44-.193.098-.452.146-.783.146-.559 0-.94-.11-1.15-.336-.117-.124-.193-.335-.23-.635h-1.695c0 .66.241 1.203.718 1.626.48.427 1.224.64 2.228.64zm5.698-.017c.455 0 .86-.103 1.223-.313a3.5 3.5 0 0 0 .798-.64c.012.145.026.273.048.387.016.114.052.235.105.365h1.818v-.246a.596.596 0 0 1-.247-.195c-.053-.08-.088-.228-.1-.448-.008-.247-.01-.494-.012-.74V11.49c0-.77-.271-1.298-.816-1.577-.543-.276-1.164-.416-1.866-.416-1.074 0-1.835.284-2.276.846-.279.363-.436.822-.469 1.384h1.612c.041-.248.119-.445.236-.589.163-.197.444-.295.838-.295.353 0 .62.05.801.149.183.101.274.282.274.546 0 .215-.118.373-.36.476-.131.058-.351.107-.66.145l-.57.072c-.647.082-1.135.22-1.467.412-.608.351-.91.923-.91 1.71 0 .609.188 1.079.567 1.41.376.33.855.497 1.433.497zm.494-1.217a.912.912 0 0 1-.58-.192c-.157-.128-.236-.333-.236-.62 0-.323.129-.56.386-.714.153-.09.408-.166.759-.228l.374-.07a2.814 2.814 0 0 0 .445-.114c.108-.043.213-.096.317-.163v.623c-.01.56-.167.947-.47 1.158a1.687 1.687 0 0 1-.995.32zm6.304 1.016v-3.47c0-.397.054-.721.163-.976.21-.483.602-.723 1.169-.723.461 0 .774.163.937.494.092.18.137.437.137.774v3.902h1.714v-4.318c0-.806-.211-1.38-.633-1.725-.42-.349-.96-.521-1.621-.521-.53 0-.965.129-1.31.388-.19.143-.394.381-.61.713V9.66h-1.612v6.4zm8.216.218c.985 0 1.714-.201 2.186-.604.47-.402.706-.92.706-1.555 0-.48-.164-.884-.491-1.204-.333-.32-.832-.558-1.499-.712-.996-.22-1.579-.376-1.742-.464a.445.445 0 0 1-.247-.42c0-.15.08-.287.23-.4.156-.113.417-.17.78-.17.442 0 .755.114.94.343.098.126.16.293.182.51h1.672c-.073-.786-.364-1.335-.865-1.656-.503-.32-1.153-.479-1.95-.479-.842 0-1.495.213-1.96.638-.463.424-.695.934-.695 1.527 0 .5.148.885.446 1.151.296.27.808.497 1.533.677 1.004.24 1.585.409 1.742.506a.478.478 0 0 1 .235.431c0 .195-.097.342-.291.44-.193.098-.456.146-.783.146-.56 0-.943-.11-1.15-.336-.117-.124-.193-.335-.23-.635h-1.694c0 .66.237 1.203.717 1.626.481.427 1.222.64 2.228.64zm9.413-.218v-5.169h1.098V9.708h-1.098v-.541c0-.126.04-.242.126-.343.084-.104.237-.155.458-.147a5.02 5.02 0 0 1 .473.025V7.338c-.15-.013-.266-.02-.352-.026a4.848 4.848 0 0 0-.289-.01c-.926 0-1.511.194-1.754.577-.23.259-.346.73-.346 1.418v.411h-.916v1.183h.933v5.17zm3.727 0v-3.066c0-.513.064-.892.194-1.14.23-.437.683-.657 1.355-.657.053 0 .119.001.2.004.083.004.177.014.282.024V9.508c-.075-.005-.122-.006-.144-.01h-.08c-.5 0-.906.13-1.22.392-.19.158-.418.449-.676.879V9.65h-1.596v6.41zm4.576.2c.455 0 .862-.104 1.223-.312a3.533 3.533 0 0 0 .798-.64c.012.145.027.273.048.387.017.114.053.235.105.365h1.819v-.246a.596.596 0 0 1-.247-.195c-.054-.08-.087-.228-.1-.448a28.219 28.219 0 0 1-.012-.74V11.49c0-.77-.271-1.298-.815-1.577-.545-.276-1.166-.416-1.868-.416-1.073 0-1.834.284-2.276.846-.278.363-.435.822-.468 1.384h1.612c.04-.248.118-.445.235-.589.165-.197.445-.295.839-.295.353 0 .62.05.8.149.184.101.274.282.274.546 0 .215-.118.373-.359.476-.132.058-.352.107-.662.145l-.569.072c-.646.082-1.134.22-1.467.412-.607.351-.91.923-.91 1.71 0 .609.189 1.079.567 1.41.377.33.855.497 1.433.497zm.494-1.216a.898.898 0 0 1-.576-.192c-.16-.128-.238-.333-.238-.62 0-.323.127-.56.386-.714.153-.09.406-.166.758-.228l.374-.07a2.814 2.814 0 0 0 .444-.114c.108-.043.213-.096.32-.163v.623c-.013.56-.17.947-.472 1.158a1.69 1.69 0 0 1-.996.32zm6.345-6.159V7.338h-1.697v1.547zm0 7.175V9.65h-1.697v6.411zm4.173.219c.984 0 1.713-.202 2.185-.605.473-.402.708-.92.708-1.555 0-.48-.166-.884-.493-1.204-.332-.32-.832-.558-1.495-.712-.999-.22-1.58-.376-1.746-.464a.443.443 0 0 1-.244-.42c0-.15.077-.287.23-.4.155-.113.414-.17.78-.17.44 0 .752.114.936.343.1.126.16.293.182.51h1.673c-.073-.786-.364-1.335-.865-1.656-.503-.32-1.153-.479-1.952-.479-.84 0-1.493.213-1.957.638-.462.424-.696.934-.696 1.527 0 .5.151.885.446 1.151.3.27.807.497 1.531.677 1.008.24 1.589.409 1.743.506a.476.476 0 0 1 .236.431c0 .195-.097.342-.288.44-.196.098-.455.146-.786.146-.559 0-.942-.11-1.15-.336-.117-.124-.193-.335-.23-.635h-1.695c0 .66.241 1.203.72 1.626.477.427 1.22.64 2.228.64zm-52.772.464v.593h55.284v-.593zm0 0"/>
</svg>