<svg xmlns="http://www.w3.org/2000/svg" width="414" height="60">
    <path style="stroke:none;fill-rule:nonzero;fill:#b2b2b2;fill-opacity:1" d="M75.836.11C62.89.11 52.77 10.327 52.77 23.386c0 13.058 10.14 23.297 23.066 23.297 12.91 0 23.035-10.239 23.035-23.297C98.891 10.328 88.746.109 75.836.109m0 38.61c-8.23 0-14.91-6.723-14.91-15.313s6.699-15.328 14.91-15.328c8.176 0 14.894 6.738 14.894 15.328.02 8.57-6.718 15.313-14.894 15.313M238 .109l-17.625 43.262-4.352 10.715L213.621 60h-8.687l6.738-16.613L193.645.109h9.175l13.184 32.528L229.223.109zM124.344 7.801c-8.137 0-12.29 4.398-12.29 13.078v25.734h-8.359v-26.34c.075-4.613.895-7.875 2.77-10.949C108.684 5.88 113.949.09 124.344.09c10.379 0 15.66 5.789 17.863 9.234 1.856 3.059 2.695 6.336 2.75 10.95v26.34h-8.36V20.878c0-8.68-4.113-13.078-12.253-13.078m34.12 11.375c1.114-5.621 6.466-11.117 13.657-11.117 7.176 0 12.527 5.496 13.621 11.117zm36.056 3.61C194.445 10.311 184.434.163 172.176.163c-12.598 0-22.485 10.184-22.485 23.188 0 6.097 2.329 11.886 6.5 16.32 4.262 4.469 9.868 6.941 15.825 6.941 6.808 0 16.367-3.297 20.902-12.62.09-.2.11-.294.11-.294h-9.141l-.055.055c-2.46 2.95-7.086 4.945-11.492 4.945-5.606 0-12.324-3.719-14.164-12.105h36.144c.11-.88.2-2.621.2-3.809M23.414 0C10.29 0 0 10.367 0 23.645c0 13.242 10.29 23.644 23.414 23.644 13.113 0 23.383-10.383 23.383-23.644C46.797 10.367 36.507 0 23.414 0"/>
    <path style="stroke:none;fill-rule:nonzero;fill:#fff;fill-opacity:1" d="M13.895 25.586c0 1.996 1.128 3.148 2.746 3.148 1.566 0 2.441-1.152 2.441-2.414 0-1.523-.71-2.547-2.695-2.547H14.73v-3.277h1.657c1.875 0 2.422-.918 2.422-2.273 0-1.391-.856-2.051-2.094-2.051-1.8 0-2.332 1.082-2.332 2.676H10.16c0-3.133 1.93-5.899 6.465-5.899 3.367 0 6.371 1.703 6.371 5.145 0 2.07-1.219 3.574-2.695 4.086 1.66.605 2.988 2.105 2.988 4.449 0 3.5-3.113 5.516-6.594 5.516-4.515 0-7.027-2.676-7.027-6.579h4.227zM28.898 25.383l-4.261-6.281h4.625l1.984 3.574 2.004-3.574h4.625l-4.246 6.28 4.316 6.395H33.32l-2.074-3.683-2.058 3.683h-4.625zm0 0"/>
    <path style="stroke:none;fill-rule:nonzero;fill:#b2b2b2;fill-opacity:1" d="M254.89 41.945c2.344 0 4.075-.476 5.196-1.43 1.117-.953 1.68-2.183 1.68-3.69 0-1.145-.391-2.098-1.172-2.86-.79-.754-1.977-1.317-3.555-1.688-2.371-.52-3.75-.89-4.14-1.101-.391-.207-.587-.535-.587-.992 0-.364.184-.68.551-.95.367-.27.98-.402 1.848-.402 1.05 0 1.793.27 2.23.809.23.297.375.703.43 1.214h3.977c-.18-1.863-.864-3.171-2.059-3.93-1.195-.757-2.738-1.136-4.637-1.136-1.996 0-3.547.504-4.648 1.516-1.102 1.008-1.652 2.215-1.652 3.617 0 1.191.355 2.105 1.062 2.734.703.645 1.918 1.18 3.637 1.606 2.387.566 3.77.968 4.14 1.199.372.234.559.574.559 1.02 0 .464-.23.812-.691 1.046-.461.23-1.082.348-1.86.348-1.332 0-2.242-.266-2.734-.793-.278-.3-.461-.8-.543-1.508h-4.031c0 1.563.57 2.848 1.71 3.856 1.137 1.011 2.903 1.515 5.29 1.515zm15.95-.015c2.344 0 4.164-.739 5.465-2.22.836-.929 1.304-1.843 1.41-2.745h-4.059c-.215.445-.46.793-.738 1.047-.512.465-1.176.695-1.996.695-.77 0-1.43-.191-1.977-.57-.902-.614-1.382-1.684-1.437-3.211h10.398c.02-1.309-.02-2.313-.125-3.012-.176-1.191-.562-2.238-1.156-3.14-.66-1.02-1.496-1.77-2.508-2.247-1.015-.472-2.152-.71-3.418-.71-2.129 0-3.86.703-5.191 2.109-1.336 1.402-2 3.422-2 6.054 0 2.81.738 4.836 2.215 6.083 1.48 1.246 3.183 1.867 5.117 1.867zm2.941-9.625h-6.176c.13-.985.45-1.766.954-2.344.507-.578 1.222-.863 2.14-.863.848 0 1.555.27 2.13.812.57.547.886 1.344.952 2.395zm10.79 9.125V33.2c0-.942.132-1.716.39-2.317.504-1.145 1.43-1.719 2.777-1.719 1.094 0 1.84.39 2.23 1.172.212.43.321 1.043.321 1.844v9.25h4.07V31.188c0-1.907-.5-3.27-1.5-4.094-1-.824-2.285-1.235-3.855-1.235-1.254 0-2.29.309-3.11.922-.453.344-.937.907-1.449 1.688V26.25h-3.832v15.18zm25.179 0v-3.266h-7.973l7.707-8.637v-3.304H297.16v3.234h7.266l-7.793 8.875v3.098zm6.273.472c1.079 0 2.043-.246 2.899-.738a8.183 8.183 0 0 0 1.898-1.52c.028.344.063.649.11.919.047.269.132.558.254.867h4.32v-.586a1.43 1.43 0 0 1-.586-.461c-.129-.188-.211-.54-.238-1.063a82.03 82.03 0 0 1-.028-1.758V30.59c0-1.832-.644-3.078-1.937-3.738-1.293-.66-2.77-.993-4.434-.993-2.554 0-4.36.668-5.41 2.008-.656.856-1.031 1.95-1.113 3.281h3.832c.094-.585.281-1.05.558-1.398.391-.465 1.055-.695 1.997-.695.835 0 1.468.117 1.902.355.43.238.648.668.648 1.29 0 .51-.285.89-.851 1.132-.317.137-.84.254-1.574.348l-1.356.168c-1.531.195-2.695.52-3.484.976-1.442.836-2.16 2.188-2.16 4.059 0 1.441.449 2.554 1.343 3.34.899.789 2.035 1.18 3.41 1.18zm1.172-2.886c-.539 0-.996-.153-1.375-.453-.375-.305-.562-.793-.562-1.473 0-.762.305-1.324.918-1.688.363-.215.965-.394 1.8-.543l.891-.168a6.685 6.685 0 0 0 1.055-.273c.254-.098.508-.227.758-.383v1.477c-.028 1.332-.403 2.246-1.121 2.75a4.039 4.039 0 0 1-2.364.754zm24.98 2.93c2.345 0 4.075-.477 5.196-1.43 1.121-.953 1.68-2.184 1.68-3.692 0-1.144-.39-2.097-1.172-2.86-.79-.753-1.973-1.316-3.555-1.687-2.37-.52-3.75-.89-4.14-1.101-.391-.207-.586-.535-.586-.992 0-.364.183-.68.55-.95.368-.27.985-.402 1.848-.402 1.05 0 1.793.27 2.23.809.235.297.376.703.434 1.214h3.973c-.176-1.863-.863-3.171-2.059-3.93-1.191-.757-2.738-1.136-4.633-1.136-2 0-3.55.504-4.652 1.516-1.098 1.008-1.648 2.215-1.648 3.617 0 1.191.351 2.105 1.058 2.734.707.645 1.918 1.18 3.637 1.606 2.39.566 3.77.968 4.14 1.199.372.234.56.574.56 1.02 0 .464-.231.812-.692 1.046-.457.23-1.078.348-1.86.348-1.328 0-2.238-.266-2.734-.793-.277-.3-.457-.8-.543-1.508h-4.027c0 1.563.57 2.848 1.707 3.856 1.136 1.011 2.902 1.515 5.289 1.515zm13.637 5.468v-7.926c.418.645.844 1.133 1.282 1.465.8.606 1.804.906 3.011.906 1.895 0 3.446-.699 4.649-2.105 1.203-1.402 1.808-3.445 1.808-6.125 0-2.54-.617-4.465-1.847-5.774-1.235-1.312-2.735-1.968-4.512-1.968-1.219 0-2.265.34-3.152 1.02-.48.378-.938.902-1.363 1.562v-2.246h-3.81v21.191zm3.247-8.887c-.762 0-1.422-.21-1.977-.629-.941-.714-1.41-1.957-1.41-3.722 0-1.117.14-2.04.418-2.766.539-1.367 1.531-2.05 2.969-2.05 1.199 0 2.066.453 2.601 1.355.535.902.8 1.937.8 3.11 0 1.425-.288 2.562-.87 3.417-.582.856-1.422 1.285-2.531 1.285zm16.507 3.403c2.344 0 4.164-.739 5.465-2.22.836-.929 1.305-1.843 1.41-2.745h-4.058c-.215.445-.461.793-.738 1.047-.512.465-1.176.695-1.997.695-.77 0-1.43-.191-1.976-.57-.902-.614-1.383-1.684-1.438-3.211h10.403c.015-1.309-.024-2.313-.13-3.012-.175-1.191-.562-2.238-1.155-3.14-.66-1.02-1.497-1.77-2.508-2.247-1.016-.472-2.153-.71-3.418-.71-2.125 0-3.86.703-5.192 2.109-1.332 1.402-2 3.422-2 6.054 0 2.81.739 4.836 2.215 6.083 1.48 1.246 3.184 1.867 5.117 1.867zm2.942-9.625h-6.176c.129-.985.45-1.766.957-2.344.504-.578 1.219-.863 2.137-.863.847 0 1.554.27 2.129.816.57.543.886 1.34.953 2.39zm12.867 9.64c2.344 0 4.074-.476 5.195-1.43 1.118-.953 1.68-2.183 1.68-3.69 0-1.145-.39-2.098-1.172-2.86-.789-.754-1.976-1.317-3.555-1.688-2.37-.52-3.75-.89-4.14-1.101-.39-.207-.586-.535-.586-.992 0-.364.183-.68.55-.95.368-.27.985-.402 1.848-.402 1.051 0 1.793.27 2.23.809.231.297.376.703.434 1.214h3.973c-.176-1.863-.863-3.171-2.059-3.93-1.191-.757-2.738-1.136-4.632-1.136-2 0-3.551.504-4.653 1.516-1.101 1.008-1.652 2.215-1.652 3.617 0 1.191.355 2.105 1.062 2.734.707.645 1.918 1.18 3.637 1.606 2.39.566 3.77.968 4.14 1.199.372.234.56.574.56 1.02 0 .464-.231.812-.692 1.046-.461.23-1.078.348-1.86.348-1.328 0-2.242-.266-2.734-.793-.277-.3-.457-.8-.543-1.508h-4.027c0 1.563.566 2.848 1.707 3.856 1.137 1.011 2.902 1.515 5.289 1.515zm15.95-.015c2.343 0 4.163-.739 5.464-2.22.836-.929 1.309-1.843 1.41-2.745h-4.058c-.215.445-.461.793-.739 1.047-.511.465-1.175.695-1.992.695-.773 0-1.433-.191-1.98-.57-.903-.614-1.383-1.684-1.438-3.211h10.403c.015-1.309-.024-2.313-.125-3.012-.18-1.191-.563-2.238-1.16-3.14-.66-1.02-1.497-1.77-2.508-2.247-1.012-.472-2.153-.71-3.418-.71-2.125 0-3.86.703-5.192 2.109-1.332 1.402-2 3.422-2 6.054 0 2.81.738 4.836 2.215 6.083 1.48 1.246 3.184 1.867 5.117 1.867zm2.94-9.625h-6.175c.129-.985.45-1.766.957-2.344.504-.578 1.219-.863 2.137-.863.847 0 1.554.27 2.128.812.57.547.891 1.344.954 2.395zm0 0"/>
    <path style="stroke:none;fill-rule:nonzero;fill:#b2b2b2;fill-opacity:1" d="M350.473 43.59v-1.406h-103.5v1.406zm6.746-1.406v1.406h56.543v-1.406zm0 0"/>
</svg>