<svg width="150" height="48" xmlns="http://www.w3.org/2000/svg">
    <path id="logo" fill="#81BC00" d="M47.797.07c-8.16 0-14.54 6.436-14.54 14.66 0 8.225 6.392 14.673 14.54 14.673 8.136 0 14.517-6.448 14.517-14.673C62.325 6.506 55.933.07 47.797.07m0 24.315c-5.187 0-9.399-4.233-9.399-9.643 0-5.41 4.223-9.655 9.399-9.655 5.152 0 9.387 4.245 9.387 9.655.011 5.398-4.235 9.643-9.387 9.643M150 .07l-11.109 27.246-2.742 6.748-1.515 3.726h-5.474l4.246-10.462L122.045.069h5.784l8.308 20.487L144.47.069H150zM78.368 4.914c-5.13 0-7.746 2.768-7.746 8.236v16.207h-5.267V12.769c.046-2.906.562-4.96 1.744-6.898 1.4-2.168 4.716-5.813 11.27-5.813 6.54 0 9.868 3.645 11.257 5.813 1.17 1.927 1.698 3.992 1.733 6.898v16.588H86.09V13.15c0-5.468-2.593-8.236-7.723-8.236m21.506 7.163c.7-3.541 4.074-7.002 8.607-7.002 4.521 0 7.895 3.461 8.583 7.002h-17.19zm22.722 2.273C122.55 6.494 116.238.104 108.515.104c-7.941 0-14.173 6.413-14.173 14.603 0 3.841 1.47 7.487 4.097 10.278 2.686 2.815 6.22 4.372 9.973 4.372 4.292 0 10.316-2.077 13.174-7.948.057-.127.069-.184.069-.184h-5.761l-.034.034c-1.55 1.857-4.465 3.115-7.242 3.115-3.534 0-7.769-2.342-8.928-7.625h22.78c.068-.554.126-1.65.126-2.4M14.758 0C6.484 0 0 6.529 0 14.892c0 8.34 6.484 14.892 14.758 14.892 8.262 0 14.735-6.54 14.735-14.892C29.493 6.529 23.009 0 14.758 0" />
    <path fill="#FFF" d="M23.916 20.013H21l-1.309-2.318-1.296 2.318H15.48l2.731-4.025-2.685-3.957h2.915l1.25 2.25 1.263-2.25h2.915l-2.674 3.957zM10.303 17.688h-4.78V9.057H8.29v6.299h2.013v-3.291h2.756v3.29h1.455v2.333h-1.455v3.291h-2.756z"/>
    <path id="text" fill="#81BC00" d="M51.709 45.51c1.299 0 2.259-.265 2.88-.793s.932-1.21.932-2.045c0-.634-.217-1.163-.65-1.585-.438-.418-1.095-.73-1.971-.936-1.315-.288-2.08-.492-2.297-.61a.575.575 0 0 1-.325-.55c0-.2.102-.376.306-.525.204-.15.545-.225 1.024-.225.583 0 .995.15 1.238.449.128.165.208.389.24.672h2.203c-.098-1.03-.478-1.756-1.14-2.176-.663-.42-1.52-.63-2.572-.63-1.108 0-1.967.28-2.578.839-.611.559-.916 1.228-.916 2.006 0 .66.195 1.165.587 1.516.392.355 1.065.652 2.018.889 1.325.314 2.09.536 2.297.665.206.129.309.317.309.564 0 .258-.128.451-.383.58-.255.129-.599.193-1.032.193-.737 0-1.242-.146-1.515-.44-.155-.165-.256-.444-.302-.835h-2.235c0 .866.316 1.578.948 2.138.631.559 1.61.839 2.934.839zm7.508-.024c.598 0 1.134-.136 1.608-.41a4.528 4.528 0 0 0 1.052-.842c.015.19.036.36.062.51.025.15.072.31.139.48h2.397v-.325a.79.79 0 0 1-.325-.255c-.072-.104-.116-.3-.132-.588-.01-.382-.015-.706-.015-.974v-3.866c0-1.016-.358-1.707-1.075-2.073-.716-.366-1.536-.549-2.459-.549-1.417 0-2.417.372-3 1.114-.366.474-.572 1.08-.618 1.817h2.126c.052-.325.155-.583.31-.773.216-.258.584-.387 1.105-.387.464 0 .816.066 1.056.197.24.132.36.37.36.715 0 .284-.158.493-.473.627-.175.077-.466.141-.873.193l-.75.093c-.85.108-1.495.288-1.933.541-.8.464-1.199 1.214-1.199 2.25 0 .8.249 1.416.746 1.852.498.436 1.128.653 1.89.653zm.65-1.6c-.3 0-.554-.084-.762-.252-.21-.167-.313-.439-.313-.815 0-.423.17-.735.51-.936.2-.118.533-.219.997-.301l.495-.093c.248-.047.442-.097.584-.151.142-.054.282-.125.421-.213v.82c-.015.737-.223 1.245-.622 1.523-.4.279-.836.418-1.31.418zm8.304 1.337v-4.562c0-.52.072-.948.216-1.283.278-.634.791-.951 1.539-.951.608 0 1.02.216 1.237.65.118.237.178.577.178 1.02v5.126h2.258v-5.675c0-1.057-.278-1.813-.832-2.27-.554-.456-1.266-.684-2.138-.684-.695 0-1.27.17-1.724.51-.252.191-.52.503-.804.936v-1.23h-2.126v8.413h2.196zm10.825.287c1.299 0 2.259-.265 2.88-.793.62-.528.931-1.21.931-2.045 0-.634-.216-1.163-.649-1.585-.438-.418-1.095-.73-1.972-.936-1.314-.288-2.08-.492-2.296-.61a.575.575 0 0 1-.325-.55c0-.2.102-.376.306-.525.203-.15.545-.225 1.024-.225.583 0 .995.15 1.237.449.129.165.209.389.24.672h2.204c-.098-1.03-.479-1.756-1.141-2.176-.662-.42-1.52-.63-2.57-.63-1.11 0-1.969.28-2.58.839-.61.559-.916 1.228-.916 2.006 0 .66.196 1.165.588 1.516.392.355 1.064.652 2.018.889 1.325.314 2.09.536 2.296.665.207.129.31.317.31.564 0 .258-.128.451-.383.58-.255.129-.6.193-1.032.193-.737 0-1.243-.146-1.516-.44-.154-.165-.255-.444-.301-.835h-2.235c0 .866.316 1.578.947 2.138.632.559 1.61.839 2.935.839zm12.402-.287v-6.796h1.446v-1.554h-1.446v-.712c0-.165.055-.315.166-.452.11-.137.312-.201.603-.193.291.007.499.02.623.035v-1.794a45.95 45.95 0 0 0-.464-.035 5.61 5.61 0 0 0-.38-.012c-1.22 0-1.991.253-2.311.758-.304.34-.456.961-.456 1.864v.54h-1.206v1.555h1.229v6.796h2.196zm4.91 0v-4.028c0-.675.085-1.175.255-1.5.304-.577.9-.866 1.786-.866a5.771 5.771 0 0 1 .634.039V36.61a6.606 6.606 0 0 1-.19-.012 1.182 1.182 0 0 0-.104-.004c-.66 0-1.196.173-1.608.518-.253.207-.549.59-.89 1.153v-1.47H94.09v8.428h2.219zm6.03.263c.599 0 1.135-.136 1.61-.41a4.528 4.528 0 0 0 1.05-.842c.016.19.037.36.063.51.025.15.072.31.139.48h2.397v-.325a.79.79 0 0 1-.325-.255c-.072-.104-.116-.3-.132-.588-.01-.382-.015-.706-.015-.974v-3.866c0-1.016-.358-1.707-1.075-2.073-.716-.366-1.536-.549-2.459-.549-1.417 0-2.417.372-3 1.114-.366.474-.572 1.08-.618 1.817h2.126c.052-.325.155-.583.31-.773.216-.258.584-.387 1.105-.387.464 0 .816.066 1.056.197.24.132.36.37.36.715 0 .284-.158.493-.473.627-.175.077-.466.141-.873.193l-.75.093c-.85.108-1.495.288-1.933.541-.8.464-1.199 1.214-1.199 2.25 0 .8.249 1.416.746 1.852.498.436 1.128.653 1.89.653zm.65-1.6c-.299 0-.553-.084-.761-.252-.21-.167-.313-.439-.313-.815 0-.423.17-.735.51-.936.2-.118.533-.219.997-.301l.495-.093c.248-.047.442-.097.584-.151.142-.054.282-.125.421-.213v.82c-.015.737-.223 1.245-.622 1.523-.4.279-.836.418-1.31.418zm8.359-8.096v-2.033h-2.235v2.033h2.235zm0 9.433v-8.428h-2.235v8.428h2.235zm5.497.287c1.3 0 2.26-.265 2.88-.793.622-.528.932-1.21.932-2.045 0-.634-.216-1.163-.65-1.585-.437-.418-1.095-.73-1.971-.936-1.314-.288-2.08-.492-2.296-.61a.575.575 0 0 1-.325-.55c0-.2.102-.376.305-.525.204-.15.545-.225 1.025-.225.582 0 .995.15 1.237.449.129.165.209.389.24.672h2.203c-.098-1.03-.478-1.756-1.14-2.176-.663-.42-1.52-.63-2.571-.63-1.108 0-1.968.28-2.579.839-.61.559-.916 1.228-.916 2.006 0 .66.196 1.165.588 1.516.391.355 1.064.652 2.018.889 1.324.314 2.09.536 2.296.665.206.129.31.317.31.564 0 .258-.128.451-.383.58-.256.129-.6.193-1.033.193-.737 0-1.242-.146-1.515-.44-.155-.165-.255-.444-.302-.835h-2.234c0 .866.315 1.578.947 2.138.631.559 1.61.839 2.934.839z"/>
    <path id="underline" stroke="#81BC00" stroke-linecap="round" d="M48.5 47.5h72.263"/>
</svg>