<svg width="48" height="20" viewBox="0 0 48 20" fill="none" xmlns="http://www.w3.org/2000/svg">
<g clip-path="url(#clip0_193_6682)">
<path d="M8.77499 2.52587C8.21249 3.18763 7.3125 3.70959 6.4125 3.63502C6.29999 2.74025 6.74062 1.78955 7.25625 1.20235C7.81875 0.521952 8.80312 0.0372823 9.6 0C9.69375 0.932057 9.32812 1.84547 8.77499 2.52587ZM9.59062 3.81211C8.2875 3.73755 7.17187 4.54844 6.55312 4.54844C5.92499 4.54844 4.97812 3.8494 3.94687 3.86804C2.60624 3.88668 1.35937 4.64164 0.674994 5.844C-0.731256 8.2487 0.309369 11.8092 1.66874 13.7665C2.33437 14.7358 3.13124 15.7984 4.18124 15.7611C5.17499 15.7238 5.56874 15.118 6.76874 15.118C7.97812 15.118 8.325 15.7611 9.375 15.7424C10.4625 15.7238 11.1469 14.7731 11.8125 13.8038C12.5719 12.7039 12.8812 11.6321 12.9 11.5761C12.8812 11.5575 10.8 10.7653 10.7812 8.37919C10.7625 6.38459 12.4219 5.43389 12.4969 5.37797C11.5594 3.99852 10.0969 3.8494 9.59062 3.81211ZM17.1187 1.10915V15.6399H19.3875V10.6721H22.5281C25.3969 10.6721 27.4125 8.71473 27.4125 5.88128C27.4125 3.04783 25.4344 1.10915 22.6031 1.10915H17.1187ZM19.3875 3.01054H22.0031C23.9719 3.01054 25.0969 4.05445 25.0969 5.8906C25.0969 7.72675 23.9719 8.77998 21.9937 8.77998H19.3875V3.01054ZM31.5562 15.7518C32.9812 15.7518 34.3031 15.0341 34.9031 13.897H34.95V15.6399H37.05V8.40715C37.05 6.31003 35.3625 4.95854 32.7656 4.95854C30.3562 4.95854 28.575 6.32867 28.5094 8.21142H30.5531C30.7219 7.31665 31.5562 6.72945 32.7 6.72945C34.0875 6.72945 34.8656 7.37257 34.8656 8.55628V9.35785L32.0344 9.52562C29.4 9.68407 27.975 10.7559 27.975 12.6201C27.975 14.5028 29.4469 15.7518 31.5562 15.7518ZM32.1656 14.0275C30.9562 14.0275 30.1875 13.4496 30.1875 12.5641C30.1875 11.6507 30.9281 11.1194 32.3437 11.0356L34.8656 10.8771V11.6973C34.8656 13.0581 33.7031 14.0275 32.1656 14.0275ZM39.8531 19.5918C42.0656 19.5918 43.1062 18.753 44.0156 16.2085L48 5.09835H45.6937L43.0219 13.6826H42.975L40.3031 5.09835H37.9312L41.775 15.6772L41.5687 16.3203C41.2219 17.4108 40.6594 17.8302 39.6562 17.8302C39.4781 17.8302 39.1312 17.8116 38.9906 17.793V19.5359C39.1219 19.5732 39.6844 19.5918 39.8531 19.5918Z" fill="black"/>
</g>
<defs>
<clipPath id="clip0_193_6682">
<rect width="48" height="19.5918" fill="white"/>
</clipPath>
</defs>
</svg>
