<svg width="48" height="30" viewBox="0 0 48 30" fill="none" xmlns="http://www.w3.org/2000/svg">
<g clip-path="url(#clip0_193_6660)">
<path d="M0.0491943 29.6606V22.745H2.18317C3.73426 22.745 4.73209 23.3279 4.73209 24.5332C4.73209 25.2149 4.41595 25.6891 3.97137 25.9657C4.61352 26.2621 4.98894 26.8351 4.98894 27.6156C4.98894 29.0086 3.97136 29.6606 2.39064 29.6606H0.0491943ZM1.42244 25.6199H2.44004C3.06244 25.6199 3.32921 25.3136 3.32921 24.7505C3.32921 24.1479 2.84509 23.9503 2.19304 23.9503H1.42244L1.42244 25.6199ZM1.42244 28.4553H2.27208C3.10197 28.4553 3.58605 28.2479 3.58605 27.5958C3.58605 26.9537 3.17113 26.6869 2.39064 26.6869H1.42244L1.42244 28.4553ZM7.65204 29.7792C6.29853 29.7792 5.61684 29.1173 5.61684 28.2281C5.61684 27.25 6.41709 26.677 7.60264 26.6671C7.89723 26.6725 8.19107 26.6989 8.4819 26.7462V26.5091C8.4819 25.9064 8.13612 25.6199 7.4742 25.6199C7.02829 25.6143 6.58549 25.6948 6.17009 25.857L5.92311 24.7901C6.34793 24.6122 7.02962 24.4937 7.63227 24.4937C9.08456 24.4937 9.80575 25.2643 9.80575 26.598V29.3445C9.4007 29.552 8.63998 29.7792 7.65204 29.7792H7.65204ZM8.4819 28.6628V27.6057C8.25157 27.5545 8.01643 27.528 7.78047 27.5266C7.326 27.5266 6.97035 27.7045 6.97035 28.1689C6.97035 28.5838 7.26673 28.8011 7.79034 28.8011C8.02844 28.8089 8.26511 28.7616 8.4819 28.6628H8.4819ZM10.7656 29.6606V24.9283C11.4756 24.6432 12.2333 24.4957 12.9984 24.4937C14.4408 24.4937 15.2707 25.205 15.2707 26.5189V29.6606H13.9073V26.6177C13.9073 25.9361 13.5912 25.6199 12.9885 25.6199C12.6893 25.6157 12.3927 25.6764 12.1191 25.7978V29.6607L10.7656 29.6606ZM20.0352 24.7901L19.7783 25.8669C19.4254 25.714 19.0464 25.6301 18.6619 25.6199C17.8617 25.6199 17.427 26.1831 17.427 27.1117C17.427 28.1293 17.8814 28.6529 18.7311 28.6529C19.1103 28.6426 19.4834 28.5552 19.8277 28.3961L20.0451 29.4927C19.5977 29.6918 19.1119 29.7896 18.6224 29.7792C16.9824 29.7792 16.034 28.7616 16.034 27.1512C16.034 25.5508 16.9725 24.4937 18.5434 24.4937C19.0555 24.4911 19.5629 24.592 20.0352 24.7901L20.0352 24.7901ZM22.9805 29.7792C21.4591 29.7792 20.5106 28.7221 20.5106 27.1315C20.5106 25.5508 21.4591 24.4937 22.9805 24.4937C24.5118 24.4937 25.4405 25.5508 25.4405 27.1315C25.4405 28.7221 24.5118 29.7792 22.9805 29.7792ZM22.9805 28.6529C23.682 28.6529 24.0475 28.0701 24.0475 27.1315C24.0475 26.2028 23.682 25.6199 22.9805 25.6199C22.2889 25.6199 21.9036 26.2028 21.9036 27.1315C21.9036 28.0701 22.2889 28.6529 22.9805 28.6529ZM26.2295 29.6606V24.9283C26.9394 24.6432 27.6972 24.4957 28.4622 24.4937C29.9046 24.4937 30.7345 25.205 30.7345 26.5189V29.6606H29.3711V26.6177C29.3711 25.9361 29.055 25.6199 28.4523 25.6199C28.1531 25.6157 27.8565 25.6764 27.5829 25.7978V29.6607L26.2295 29.6606ZM33.8092 29.7792C32.6336 29.7792 32.0309 29.137 32.0309 27.8329V25.699H31.3591V24.6122H32.0309V23.5156L33.3943 23.4464V24.6122H34.4909V25.699H33.3943V27.8132C33.3943 28.3862 33.6314 28.6529 34.076 28.6529C34.2522 28.6525 34.4278 28.6326 34.5996 28.5937L34.6688 29.6903C34.3866 29.7528 34.0982 29.7826 33.8092 29.7792ZM37.2505 29.7792C35.897 29.7792 35.2153 29.1173 35.2153 28.2281C35.2153 27.25 36.0156 26.677 37.2011 26.6671C37.4957 26.6725 37.7895 26.6989 38.0804 26.7462V26.5091C38.0804 25.9064 37.7346 25.6199 37.0727 25.6199C36.6268 25.6143 36.184 25.6948 35.7686 25.857L35.5216 24.7901C35.9464 24.6122 36.6281 24.4937 37.2307 24.4937C38.683 24.4937 39.4042 25.2643 39.4042 26.598V29.3445C38.9992 29.552 38.2384 29.7792 37.2505 29.7792ZM38.0804 28.6628V27.6057C37.85 27.5545 37.6149 27.528 37.3789 27.5266C36.9245 27.5266 36.5688 27.7045 36.5688 28.1689C36.5688 28.5838 36.8652 28.8011 37.3888 28.8011C37.6269 28.8089 37.8636 28.7616 38.0804 28.6628ZM44.0688 24.7901L43.8119 25.8669C43.459 25.714 43.08 25.6301 42.6956 25.6199C41.8953 25.6199 41.4606 26.1831 41.4606 27.1118C41.4606 28.1293 41.9151 28.6529 42.7647 28.6529C43.1439 28.6426 43.517 28.5552 43.8613 28.3961L44.0787 29.4927C43.6314 29.6918 43.1456 29.7896 42.656 29.7792C41.016 29.7792 40.0676 28.7616 40.0676 27.1512C40.0676 25.5508 41.0062 24.4937 42.577 24.4937C43.0891 24.4911 43.5965 24.592 44.0688 24.7901ZM47.0663 29.7792C45.8907 29.7792 45.288 29.137 45.288 27.8329V25.699H44.6162V24.6122H45.288V23.5156L46.6514 23.4464V24.6122H47.748V25.699H46.6514V27.8132C46.6514 28.3862 46.8885 28.6529 47.3331 28.6529C47.5092 28.6525 47.6848 28.6326 47.8567 28.5937L47.9258 29.6903C47.6437 29.7528 47.3553 29.7826 47.0663 29.7792Z" fill="#1E3764"/>
<path d="M9.559 19.2873C16.7733 19.2873 20.3804 14.4777 23.9875 9.66821H0.0491943V19.2873H9.559Z" fill="url(#paint0_linear_193_6660)"/>
<path d="M38.4161 0.0490723C31.2018 0.0490723 27.5947 4.85859 23.9875 9.66811H47.9259V0.0490723H38.4161Z" fill="url(#paint1_linear_193_6660)"/>
</g>
<defs>
<linearGradient id="paint0_linear_193_6660" x1="4.89116" y1="14.9218" x2="22.4031" y2="8.41738" gradientUnits="userSpaceOnUse">
<stop stop-color="#005AB9"/>
<stop offset="1" stop-color="#1E3764"/>
</linearGradient>
<linearGradient id="paint1_linear_193_6660" x1="25.4369" y1="10.5024" x2="44.031" y2="4.15857" gradientUnits="userSpaceOnUse">
<stop stop-color="#FBA900"/>
<stop offset="1" stop-color="#FFD800"/>
</linearGradient>
<clipPath id="clip0_193_6660">
<rect width="48" height="29.8455" fill="white"/>
</clipPath>
</defs>
</svg>
