<svg xmlns="http://www.w3.org/2000/svg" width="150" height="24" viewBox="0 4 150 16">
    <defs>
        <linearGradient id="a" gradientUnits="userSpaceOnUse" x1=".202" y1=".507" x2=".934" y2=".398" gradientTransform="matrix(18.4336 0 0 7.40625 0 7.871)">
            <stop offset="0" style="stop-color:#005ab9;stop-opacity:1"/>
            <stop offset="1" style="stop-color:#1e3764;stop-opacity:1"/>
        </linearGradient>
        <linearGradient id="b" gradientUnits="userSpaceOnUse" x1=".061" y1=".595" x2=".837" y2=".488" gradientTransform="matrix(18.4336 0 0 7.40625 18.434 .465)">
            <stop offset="0" style="stop-color:#fba900;stop-opacity:1"/>
            <stop offset="1" style="stop-color:#ffd800;stop-opacity:1"/>
        </linearGradient>
    </defs>
    <path style="stroke:none;fill-rule:nonzero;fill:#1e3764;fill-opacity:1" d="M47.445 15.277V.465h4.575c3.32 0 5.457 1.25 5.457 3.832 0 1.46-.676 2.476-1.63 3.066 1.376.637 2.18 1.864 2.18 3.535 0 2.985-2.18 4.38-5.566 4.38zm2.942-8.652h2.18c1.335 0 1.906-.656 1.906-1.863 0-1.293-1.035-1.715-2.434-1.715h-1.652zm0 6.07h1.82c1.777 0 2.816-.441 2.816-1.84 0-1.375-.89-1.945-2.562-1.945h-2.074zm13.343 2.836c-2.898 0-4.359-1.418-4.359-3.32 0-2.094 1.715-3.324 4.254-3.344.633.012 1.262.067 1.887.168v-.508c0-1.289-.742-1.902-2.16-1.902a7.419 7.419 0 0 0-2.793.508l-.532-2.285c.91-.383 2.371-.637 3.664-.637 3.11 0 4.653 1.652 4.653 4.508v5.883c-.867.445-2.496.93-4.614.93zm1.782-2.39v-2.262c-.496-.113-1-.168-1.504-.172-.973 0-1.735.383-1.735 1.375 0 .89.633 1.355 1.754 1.355a3.345 3.345 0 0 0 1.485-.296zm4.89 2.136V5.141c1.52-.61 3.145-.926 4.782-.93 3.09 0 4.867 1.523 4.867 4.34v6.726h-2.918V8.762c0-1.461-.68-2.137-1.969-2.137a4.433 4.433 0 0 0-1.863.379v8.273zm19.856-10.43-.551 2.305a6.388 6.388 0 0 0-2.39-.527c-1.715 0-2.645 1.203-2.645 3.195 0 2.18.973 3.301 2.793 3.301a6.025 6.025 0 0 0 2.347-.55l.465 2.347a7.103 7.103 0 0 1-3.047.613c-3.511 0-5.543-2.18-5.543-5.629 0-3.425 2.008-5.691 5.376-5.691a8.157 8.157 0 0 1 3.195.637zm6.308 10.684c-3.257 0-5.289-2.261-5.289-5.668 0-3.386 2.032-5.652 5.29-5.652 3.28 0 5.269 2.266 5.269 5.652 0 3.407-1.988 5.668-5.27 5.668zm0-2.41c1.504 0 2.286-1.25 2.286-3.258 0-1.992-.782-3.238-2.286-3.238-1.48 0-2.308 1.246-2.308 3.238 0 2.008.828 3.258 2.308 3.258zm6.961 2.156V5.141c1.52-.61 3.141-.926 4.782-.93 3.09 0 4.867 1.523 4.867 4.34v6.726h-2.922V8.762c0-1.461-.676-2.137-1.965-2.137a4.421 4.421 0 0 0-1.863.379v8.273zm16.235.254c-2.52 0-3.809-1.375-3.809-4.168v-4.57h-1.441V4.465h1.441V2.117l2.918-.148v2.496h2.352v2.328h-2.352v4.527c0 1.23.512 1.801 1.461 1.801.379 0 .754-.043 1.121-.129l.149 2.352a8.084 8.084 0 0 1-1.84.187zm7.37 0c-2.898 0-4.359-1.418-4.359-3.32 0-2.094 1.715-3.324 4.254-3.344.633.012 1.262.067 1.883.168v-.508c0-1.289-.738-1.902-2.156-1.902a7.439 7.439 0 0 0-2.797.508l-.527-2.285c.91-.383 2.37-.637 3.66-.637 3.113 0 4.656 1.652 4.656 4.508v5.883c-.867.445-2.496.93-4.613.93zm1.778-2.39v-2.262a6.936 6.936 0 0 0-1.504-.172c-.972 0-1.734.383-1.734 1.375 0 .89.637 1.355 1.758 1.355a3.339 3.339 0 0 0 1.48-.296zm12.828-8.293-.55 2.304a6.371 6.371 0 0 0-2.391-.527c-1.715 0-2.645 1.203-2.645 3.195 0 2.18.973 3.301 2.793 3.301a6.025 6.025 0 0 0 2.348-.55l.465 2.347a7.103 7.103 0 0 1-3.047.613c-3.512 0-5.543-2.18-5.543-5.629 0-3.425 2.012-5.691 5.375-5.691a8.157 8.157 0 0 1 3.195.637zm6.422 10.683c-2.52 0-3.808-1.375-3.808-4.168v-4.57h-1.442V4.465h1.442V2.117l2.918-.148v2.496h2.347v2.328h-2.347v4.527c0 1.23.507 1.801 1.46 1.801.38 0 .754-.043 1.122-.129l.148 2.352a8.107 8.107 0 0 1-1.84.187zm0 0"/>
    <path style="stroke:none;fill-rule:nonzero;fill:url(#a)" d="M7.324 15.277c5.555 0 8.332-3.703 11.11-7.406H0v7.406zm0 0"/>
    <path style="stroke:none;fill-rule:nonzero;fill:url(#b)" d="M29.543.465c-5.555 0-8.332 3.703-11.11 7.406h18.434V.465zm0 0"/>
</svg>