<?xml version="1.0" encoding="UTF-8"?>
<svg width="48px" height="31px" viewBox="0 0 48 31" version="1.1" xmlns="http://www.w3.org/2000/svg" xmlns:xlink="http://www.w3.org/1999/xlink">
    <title>General/Icons/Logos cb/CB dark</title>
    <defs>
        <linearGradient x1="100%" y1="29.52%" x2="0%" y2="70.48%" id="linearGradient-1">
            <stop stop-color="#2D2E2F" offset="0%"></stop>
            <stop stop-color="#666769" offset="100%"></stop>
        </linearGradient>
    </defs>
    <g id="Symbols" stroke="none" stroke-width="1" fill="none" fill-rule="evenodd">
        <g id="CB-dark" transform="translate(0.000000, -0.040000)">
            <rect id="Rectangle-Copy" fill="url(#linearGradient-1)" x="0" y="0" width="48" height="30.72" rx="3.84"></rect>
            <g id="Group-2" transform="translate(24.000000, 15.360000) rotate(-90.000000) translate(-24.000000, -15.360000) translate(14.842105, -3.903158)" fill="#FFFFFF" fill-rule="nonzero">
                <path d="M13.7530151,38.5263158 C14.2946661,38.5263158 14.8270755,38.4185136 15.3490401,38.2023531 C15.843717,37.9934203 16.2820689,37.6861367 16.6636034,37.2810027 C17.0850577,36.8358945 17.3790968,36.3463089 17.5469239,35.8133578 C17.7136026,35.2799064 17.7972153,34.5541455 17.7972153,33.6366312 L17.7972153,21.3009759 L13.7530151,21.3009759 L9.70876014,21.3009759 L9.70876014,33.6366312 C9.70876014,34.5541455 9.79237291,35.2799064 9.95965313,35.8133578 C10.1269333,36.3463089 10.4209725,36.8358945 10.8423721,37.2810027 C11.2239066,37.6861367 11.6623131,37.9934203 12.1574822,38.2023531 C12.6795015,38.4185136 13.2113093,38.5263158 13.7530151,38.5263158" id="Fill-461"></path>
                <path d="M4.57343789,38.5263158 C5.11672948,38.5263158 5.65023253,38.4185136 6.17329081,38.2023531 C6.66960832,37.9934203 7.10905384,37.6861367 7.49168205,37.2810027 C7.91417533,36.8358945 8.20936285,36.3463089 8.37713523,35.8133578 C8.5449623,35.2799064 8.62857507,34.5541455 8.62857507,33.6366312 L8.62857507,21.3009759 L4.57343789,21.3009759 L0.518246038,21.3009759 L0.518246038,33.6366312 C0.518246038,34.5541455 0.602405651,35.2799064 0.76968587,35.8133578 C0.93745825,36.3463089 1.23264577,36.8358945 1.65513906,37.2810027 C2.03776727,37.6861367 2.47721278,37.9934203 2.97353029,38.2023531 C3.49664326,38.4185136 4.03009162,38.5263158 4.57343789,38.5263158" id="Fill-463"></path>
                <path d="M9.70859609,20.1889283 C14.9400539,19.9394654 18.3157895,16.1183517 18.3157895,10.1017195 C18.3157895,3.89327841 14.7022852,0 9.15764866,0 C3.43807604,0 0,4.04833794 0,10.1017195 C0,16.1633851 3.39821096,19.9521971 8.62852038,20.1905962 L8.62852038,10.4190106 L9.70859609,10.4190106 L9.70859609,20.1889283 Z" id="Fill-464"></path>
            </g>
        </g>
    </g>
</svg>