<svg width="24" height="24" viewBox="-6 -6 24 24" fill="#000000" xmlns="http://www.w3.org/2000/svg">
    <path d="M11.25 0.740765C11.0943 0.585297 10.8829 0.497927 10.6625 0.497927C10.442 0.497927 10.2307 0.585297 10.075 0.740765L5.99998 4.79243L1.92498 0.732463C1.76928 0.576995 1.55791 0.489624 1.33748 0.489624C1.11704 0.489624 0.905668 0.576995 0.749976 0.732463C0.424976 1.05626 0.424976 1.57933 0.749976 1.90313L4.82498 5.96309L0.749976 10.0231C0.424976 10.3469 0.424976 10.8699 0.749976 11.1937C1.07498 11.5175 1.59998 11.5175 1.92498 11.1937L5.99998 7.13375L10.075 11.1937C10.4 11.5175 10.925 11.5175 11.25 11.1937C11.575 10.8699 11.575 10.3469 11.25 10.0231L7.17497 5.96309L11.25 1.90313C11.5666 1.58763 11.5666 1.05626 11.25 0.740765Z"/>
</svg>
