<svg width="14" height="14" viewBox="0 0 14 14" fill="none" xmlns="http://www.w3.org/2000/svg">
<path d="M13.2997 0.709956C13.1129 0.522704 12.8592 0.417471 12.5947 0.417471C12.3302 0.417471 12.0766 0.522704 11.8897 0.709956L6.99973 5.58996L2.10973 0.699956C1.9229 0.512704 1.66924 0.407471 1.40473 0.407471C1.14021 0.407471 0.886558 0.512704 0.699727 0.699956C0.309727 1.08996 0.309727 1.71996 0.699727 2.10996L5.58973 6.99996L0.699727 11.89C0.309727 12.28 0.309727 12.91 0.699727 13.3C1.08973 13.69 1.71973 13.69 2.10973 13.3L6.99973 8.40996L11.8897 13.3C12.2797 13.69 12.9097 13.69 13.2997 13.3C13.6897 12.91 13.6897 12.28 13.2997 11.89L8.40973 6.99996L13.2997 2.10996C13.6797 1.72996 13.6797 1.08996 13.2997 0.709956Z" fill="#21834D"/>
</svg>
