<svg width="8" height="12" viewBox="0 0 8 12" fill="#000000" xmlns="http://www.w3.org/2000/svg">
<path d="M5.57129 10.0703C5.83561 10.0703 6.0931 10.0498 6.34375 10.0088C6.5944 9.96777 6.83366 9.91081 7.06152 9.83789L7.19824 10.9316C6.94303 10.9954 6.67643 11.0456 6.39844 11.082C6.12044 11.1185 5.84017 11.1367 5.55762 11.1367C5.0153 11.1367 4.51855 11.0547 4.06738 10.8906C3.61621 10.722 3.22656 10.4736 2.89844 10.1455C2.57031 9.81283 2.3151 9.40039 2.13281 8.9082C1.95508 8.41146 1.86621 7.83268 1.86621 7.17188V4.89551C1.86621 4.23014 1.95508 3.64909 2.13281 3.15234C2.31055 2.6556 2.56348 2.24089 2.8916 1.9082C3.21973 1.57552 3.6071 1.32715 4.05371 1.16309C4.50488 0.994466 5.00391 0.910156 5.55078 0.910156C5.83789 0.910156 6.11361 0.930664 6.37793 0.97168C6.64681 1.00814 6.92025 1.05827 7.19824 1.12207L7.06152 2.22266C6.83822 2.14974 6.59896 2.09277 6.34375 2.05176C6.08854 2.00618 5.82878 1.9834 5.56445 1.9834C5.19987 1.9834 4.86947 2.04264 4.57324 2.16113C4.28158 2.27962 4.03092 2.45736 3.82129 2.69434C3.61621 2.93132 3.45898 3.2321 3.34961 3.59668C3.24023 3.96126 3.18555 4.38965 3.18555 4.88184V7.17188C3.18555 7.66406 3.24023 8.09245 3.34961 8.45703C3.46354 8.82161 3.62533 9.1224 3.83496 9.35938C4.0446 9.59635 4.29525 9.77409 4.58691 9.89258C4.88314 10.0111 5.21126 10.0703 5.57129 10.0703ZM5.81055 4.66309V5.51758H0.649414V4.66309H5.81055ZM5.81055 6.44727V7.29492H0.649414V6.44727H5.81055Z" />
</svg>
