<svg width="24" height="24" viewBox="-2 -7 24 24" fill="#0555EB" xmlns="http://www.w3.org/2000/svg" >
    <path d="M5 8H8C8.55 8 9 8.45 9 9C9 9.55 8.55 10 8 10H5C2.24 10 0 7.76 0 5C0 2.24 2.24 0 5 0H8C8.55 0 9 0.45 9 1C9 1.55 8.55 2 8 2H5C3.35 2 2 3.35 2 5C2 6.65 3.35 8 5 8ZM15 0H12C11.45 0 11 0.45 11 1C11 1.55 11.45 2 12 2H15C16.65 2 18 3.35 18 5C18 6.65 16.65 8 15 8H12C11.45 8 11 8.45 11 9C11 9.55 11.45 10 12 10H15C17.76 10 20 7.76 20 5C20 2.24 17.76 0 15 0ZM6 5C6 5.55 6.45 6 7 6H13C13.55 6 14 5.55 14 5C14 4.45 13.55 4 13 4H7C6.45 4 6 4.45 6 5Z" />
</svg>
