<svg width="242" height="50" viewBox="0 0 242 50" fill="none" xmlns="http://www.w3.org/2000/svg">
<path d="M193.597 37.9993C188.182 37.9993 183.741 34.7092 183.741 26.7922V10.4453H191.005V25.5228C191.005 29.6678 192.963 31.4709 196.018 31.4709C199.532 31.4709 201.896 29.16 201.896 23.2689V10.4453H208.986V37.134H202.01V33.0304H201.896C200.284 35.9216 197.744 37.9993 193.597 37.9993Z" fill="white"/>
<path d="M178.022 0H170.933V37.1341H178.022V0Z" fill="white"/>
<path d="M153.545 0H139.485V37.1341H146.857V25.4711H153.555C162.602 25.4711 167.156 19.9841 167.156 12.5905C167.146 5.42996 162.592 0 153.545 0ZM152.736 18.6525H146.857V6.81336H152.736C156.713 6.81336 159.248 8.72006 159.248 12.6475C159.248 16.5749 156.713 18.6577 152.736 18.6577V18.6525Z" fill="white"/>
<path d="M98.8304 10.6474V14.4712H98.717C97.0426 11.6474 94.1626 9.7666 89.8401 9.7666C82.8643 9.7666 77.0425 14.9479 77.0425 24.2275C77.0425 33.5071 82.8643 38.6936 89.8401 38.6936C94.1626 38.6936 97.0529 36.8128 98.717 33.989H98.8304V37.8076H105.863V10.6474H98.8304ZM91.6176 31.8906C87.3568 31.8906 84.4047 28.8336 84.4047 24.2482C84.4047 19.6628 87.3465 16.6059 91.6176 16.6059C95.8886 16.6059 98.8304 19.6628 98.8304 24.2482C98.8304 28.8336 95.8886 31.8543 91.6227 31.8543L91.6176 31.8906Z" fill="white"/>
<path d="M62.1685 0H48.1035V37.7921H55.4812V25.927H62.1789C71.2258 25.927 75.7802 20.3416 75.7802 12.8184C75.7699 5.52841 71.2155 0 62.1685 0ZM61.3597 18.9893H55.4812V6.93771H61.3597C65.337 6.93771 67.8718 8.8755 67.8718 12.8754C67.8718 16.8754 65.337 18.9893 61.3597 18.9893Z" fill="white"/>
<path d="M241.47 10.4453H234.437V14.2018H234.319C232.649 11.4298 229.769 9.58008 225.447 9.58008C218.471 9.58008 212.654 14.6629 212.654 23.7923C212.654 32.8025 218.414 37.8283 225.39 37.8283C229.883 37.8283 232.649 35.8646 234.319 33.3776H234.437V34.5797C234.396 40.1703 230.686 42.7246 227.224 42.7246C224.607 42.7435 222.049 41.9391 219.908 40.4241L215.668 46.0613C219.024 48.5169 223.074 49.8246 227.224 49.7919C236.467 49.7919 241.459 41.906 241.459 34.4864L241.47 10.4453ZM227.235 31.2999C222.969 31.2999 220.022 28.2948 220.022 23.7923C220.022 19.2898 222.963 16.2795 227.235 16.2795C231.506 16.2795 234.447 19.2846 234.447 23.7923C234.447 28.3 231.495 31.2999 227.235 31.2999Z" fill="white"/>
<path d="M25.9418 19.3267C30.1771 18.2774 32.7574 13.9757 31.705 9.71851C30.6527 5.46136 26.3661 2.86087 22.1307 3.91016C17.8954 4.95944 15.315 9.26116 16.3674 13.5183C17.4198 17.7755 21.7064 20.376 25.9418 19.3267Z" fill="white"/>
<path d="M11.4799 33.8811C15.7153 32.8318 18.2956 28.5301 17.2432 24.2729C16.1908 20.0158 11.9042 17.4153 7.66884 18.4646C3.43346 19.5139 0.853132 23.8156 1.90552 28.0727C2.95792 32.3299 7.24451 34.9304 11.4799 33.8811Z" fill="white"/>
<path d="M27.833 33.6195C30.4853 32.9624 32.1006 30.2663 31.4409 27.5976C30.7812 24.9289 28.0963 23.2982 25.444 23.9553C22.7917 24.6123 21.1764 27.3084 21.8361 29.9771C22.4959 32.6458 25.1808 34.2766 27.833 33.6195Z" fill="white"/>
<path d="M8.16658 13.8411C10.8189 13.184 12.4342 10.488 11.7745 7.81926C11.1148 5.15056 8.42983 3.51983 5.77752 4.17693C3.12522 4.83402 1.50991 7.53011 2.16962 10.1988C2.82934 12.8675 5.51427 14.4982 8.16658 13.8411Z" fill="white"/>
<path d="M136.27 10.6318H131.154L124.039 27.1031L116.528 10.6318H109.073L120.536 35.1237L114.029 49.5535H121.412L136.27 15.6525V10.6318Z" fill="white"/>
</svg>
