<svg width="150px" height="26px" viewBox="0 0 150 26" version="1.1" xmlns="http://www.w3.org/2000/svg" xmlns:xlink="http://www.w3.org/1999/xlink">
    <g id="Group-7-Copy" transform="translate(-0.073529, 0.000000)" fill="#81BC00" fill-rule="nonzero">
        <g id="nessuna-commissione" transform="translate(84.788256, 4.444114)">
            <path d="M2.09930035,5.61650523 L2.09930035,2.66044985 C2.09930035,2.32309211 2.14606281,2.04585754 2.23958772,1.82874613 C2.41995721,1.41790453 2.75230467,1.21248373 3.23663013,1.21248373 C3.63077085,1.21248373 3.8979849,1.35277111 4.03827227,1.63334586 C4.11509631,1.78699393 4.15350833,2.00744552 4.15350833,2.29470062 L4.15350833,2.29470062 L4.15350833,5.61650523 L5.61650523,5.61650523 L5.61650523,1.93897192 C5.61650523,1.25423593 5.43697079,0.764065163 5.07790192,0.468459625 C4.71883305,0.172854086 4.25705377,0.0250513168 3.6925641,0.0250513168 C3.2416404,0.0250513168 2.86921082,0.135277111 2.57527537,0.355728699 C2.41160677,0.479315195 2.23791764,0.681395818 2.05420798,0.961970566 L2.05420798,0.961970566 L2.05420798,0.165338691 L0.676385554,0.165338691 L0.676385554,5.61650523 L2.09930035,5.61650523 Z M9.13872038,5.79687471 C9.98044462,5.79687471 10.635119,5.53133075 11.1027436,5.00024284 C11.4033594,4.66622528 11.5720383,4.33721799 11.6087802,4.01322095 L11.6087802,4.01322095 L10.1507936,4.01322095 C10.0739695,4.17354938 9.98545489,4.29880597 9.88524962,4.38899071 C9.70153996,4.55599949 9.46271741,4.63950388 9.16878196,4.63950388 C8.89154738,4.63950388 8.65439492,4.57103028 8.45732456,4.43408308 C8.13332753,4.21363149 7.96130849,3.8295113 7.94126743,3.2817225 L7.94126743,3.2817225 L11.6789239,3.2817225 C11.6856043,2.81075775 11.6705735,2.45001879 11.6338315,2.19950562 C11.5703682,1.77196314 11.4317509,1.39619339 11.2179797,1.07219636 C10.9808272,0.704777047 10.6802114,0.435892913 10.3161323,0.265543958 C9.95205313,0.0951950039 9.54288162,0.0100205267 9.08861774,0.0100205267 C8.32371754,0.0100205267 7.70160983,0.262203783 7.22229464,0.766570295 C6.74297944,1.27093681 6.50332185,1.99575491 6.50332185,2.94102459 C6.50332185,3.94975762 6.76886581,4.67791589 7.29995372,5.12549942 C7.83104164,5.57308295 8.44396386,5.79687471 9.13872038,5.79687471 Z M10.1958859,2.33979299 L7.97633928,2.33979299 C8.02310173,1.98573438 8.13750275,1.70515963 8.31954232,1.49806875 C8.50158189,1.29097786 8.75794036,1.18743242 9.08861774,1.18743242 C9.39257372,1.18743242 9.64726211,1.28513255 9.85268291,1.48053282 C10.0581037,1.6759331 10.1725047,1.96235315 10.1958859,2.33979299 L10.1958859,2.33979299 Z M14.820359,5.80188498 C15.6620833,5.80188498 16.284191,5.63070098 16.6866821,5.28833298 C17.0891733,4.94596498 17.2904189,4.50422676 17.2904189,3.96311832 C17.2904189,3.55227673 17.1501315,3.20990873 16.8695567,2.93601433 C16.5856418,2.66546011 16.1597694,2.46337949 15.5919396,2.32977246 C14.7401948,2.14272263 14.2441787,2.0107857 14.1038914,1.93396166 C13.963604,1.8604778 13.8934603,1.74190156 13.8934603,1.57823296 C13.8934603,1.44796611 13.9594288,1.33440014 14.0913657,1.23753505 C14.2233026,1.14066996 14.4445893,1.09223741 14.7552256,1.09223741 C15.1326654,1.09223741 15.3998795,1.18910251 15.5568677,1.38283269 C15.6403721,1.48971831 15.6921449,1.63501594 15.7121859,1.8187256 L15.7121859,1.8187256 L17.140111,1.8187256 C17.0766476,1.15069049 16.8303097,0.680560774 16.4010971,0.408336464 C15.9718846,0.136112155 15.4165804,0 14.7351846,0 C14.0170468,0 13.4600725,0.181204525 13.0642617,0.543613575 C12.6684509,0.906022625 12.4705455,1.33941041 12.4705455,1.84377692 C12.4705455,2.27131939 12.5974722,2.5986566 12.8513255,2.82578854 C13.1051789,3.05626065 13.5410718,3.24832075 14.1590043,3.40196882 C15.0174294,3.60571953 15.5134455,3.74934708 15.6470525,3.83285147 C15.7806595,3.91635586 15.847463,4.03827227 15.847463,4.1986007 C15.847463,4.36560948 15.7647937,4.49086606 15.599455,4.57437045 C15.4341163,4.65787484 15.2111596,4.69962704 14.9305848,4.69962704 C14.4529397,4.69962704 14.1256025,4.60443203 13.9485732,4.41404202 C13.8483679,4.30715641 13.7832345,4.12678692 13.7531729,3.87293358 L13.7531729,3.87293358 L12.3052068,3.87293358 C12.3052068,4.43408308 12.5097926,4.89586235 12.9189641,5.2582714 C13.3281356,5.62068045 13.9619339,5.80188498 14.820359,5.80188498 Z M20.527049,5.80188498 C21.3687732,5.80188498 21.990881,5.63070098 22.3933721,5.28833298 C22.7958633,4.94596498 22.9971088,4.50422676 22.9971088,3.96311832 C22.9971088,3.55227673 22.8568215,3.20990873 22.5762467,2.93601433 C22.2923318,2.66546011 21.8664594,2.46337949 21.2986296,2.32977246 C20.4468848,2.14272263 19.9508687,2.0107857 19.8105813,1.93396166 C19.670294,1.8604778 19.6001503,1.74190156 19.6001503,1.57823296 C19.6001503,1.44796611 19.6661187,1.33440014 19.7980557,1.23753505 C19.9299926,1.14066996 20.1512793,1.09223741 20.4619156,1.09223741 C20.8393554,1.09223741 21.1065695,1.18910251 21.2635577,1.38283269 C21.3470621,1.48971831 21.3988348,1.63501594 21.4188759,1.8187256 L21.4188759,1.8187256 L22.8468009,1.8187256 C22.7833376,1.15069049 22.5369997,0.680560774 22.1077871,0.408336464 C21.6785745,0.136112155 21.1232703,0 20.4418745,0 C19.7237368,0 19.1667625,0.181204525 18.7709517,0.543613575 C18.3751409,0.906022625 18.1772355,1.33941041 18.1772355,1.84377692 C18.1772355,2.27131939 18.3041622,2.5986566 18.5580155,2.82578854 C18.8118688,3.05626065 19.2477618,3.24832075 19.8656942,3.40196882 C20.7241194,3.60571953 21.2201354,3.74934708 21.3537425,3.83285147 C21.4873495,3.91635586 21.554153,4.03827227 21.554153,4.1986007 C21.554153,4.36560948 21.4714836,4.49086606 21.306145,4.57437045 C21.1408063,4.65787484 20.9178495,4.69962704 20.6372748,4.69962704 C20.1596297,4.69962704 19.8322925,4.60443203 19.6552632,4.41404202 C19.5550579,4.30715641 19.4899245,4.12678692 19.4598629,3.87293358 L19.4598629,3.87293358 L18.0118968,3.87293358 C18.0118968,4.43408308 18.2164825,4.89586235 18.6256541,5.2582714 C19.0348256,5.62068045 19.6686239,5.80188498 20.527049,5.80188498 Z M25.8830205,5.73675155 C26.1635953,5.73675155 26.4082631,5.70000962 26.6170241,5.62652576 C26.8257851,5.5530419 27.0420615,5.4160947 27.2658532,5.21568416 C27.3393371,5.15222083 27.4028004,5.07873696 27.4562432,4.99523257 C27.509686,4.91172818 27.5430878,4.86162555 27.5564485,4.84492467 L27.5564485,4.84492467 L27.5564485,5.61650523 L28.9442915,5.61650523 L28.9442915,0.155318164 L27.4963253,0.155318164 L27.4963253,3.12640434 C27.4963253,3.47712277 27.4495629,3.75936761 27.356038,3.97313885 C27.1756685,4.36727957 26.8416509,4.56434992 26.3539853,4.56434992 C25.9732053,4.56434992 25.7176818,4.42573264 25.587415,4.14849807 C25.5139311,3.99150981 25.4771892,3.75769752 25.4771892,3.44706119 L25.4771892,3.44706119 L25.4771892,0.155318164 L24.0141923,0.155318164 L24.0141923,3.44706119 C24.0141923,4.07167403 24.0926864,4.54430887 24.2496747,4.86496573 C24.5302494,5.44615628 25.0746981,5.73675155 25.8830205,5.73675155 Z M31.7550492,5.61650523 L31.7550492,2.66044985 C31.7550492,2.32309211 31.8018117,2.04585754 31.8953366,1.82874613 C32.0757061,1.41790453 32.4080535,1.21248373 32.892379,1.21248373 C33.2865197,1.21248373 33.5537338,1.35277111 33.6940211,1.63334586 C33.7708452,1.78699393 33.8092572,2.00744552 33.8092572,2.29470062 L33.8092572,2.29470062 L33.8092572,5.61650523 L35.2722541,5.61650523 L35.2722541,1.93897192 C35.2722541,1.25423593 35.0927196,0.764065163 34.7336508,0.468459625 C34.3745819,0.172854086 33.9128026,0.0250513168 33.348313,0.0250513168 C32.8973893,0.0250513168 32.5249597,0.135277111 32.2310242,0.355728699 C32.0673556,0.479315195 31.8936665,0.681395818 31.7099568,0.961970566 L31.7099568,0.961970566 L31.7099568,0.165338691 L30.3321344,0.165338691 L30.3321344,5.61650523 L31.7550492,5.61650523 Z M37.9276937,5.78685419 C38.315154,5.78685419 38.6625323,5.69833953 38.9698284,5.52131023 C39.227022,5.37100233 39.4541539,5.18896276 39.6512243,4.97519152 C39.6612448,5.09877802 39.6746055,5.20900381 39.6913064,5.3058689 C39.7080073,5.40273399 39.7380688,5.50627944 39.7814911,5.61650523 L39.7814911,5.61650523 L41.3346728,5.61650523 L41.3346728,5.40607417 C41.2411478,5.36265189 41.1710042,5.30753899 41.1242417,5.24073548 C41.0774792,5.17393197 41.0490877,5.0470053 41.0390672,4.85995546 C41.0323869,4.61278247 41.0290467,4.40235141 41.0290467,4.22866228 L41.0290467,1.7235306 C41.0290467,1.06551601 40.7969045,0.617932482 40.3326201,0.380780016 C39.8683357,0.14362755 39.3372478,0.0250513168 38.7393563,0.0250513168 C37.8208081,0.0250513168 37.172814,0.265543958 36.7953741,0.746529241 C36.5582217,1.05382539 36.4246147,1.44629602 36.3945531,1.92394113 L36.3945531,1.92394113 L37.7723755,1.92394113 C37.8057773,1.71351007 37.8725808,1.54650129 37.972786,1.4229148 C38.1130734,1.25590602 38.351896,1.17240163 38.6892537,1.17240163 C38.9898695,1.17240163 39.2178365,1.21498887 39.3731546,1.30016334 C39.5284728,1.38533782 39.6061319,1.53982094 39.6061319,1.7636127 C39.6061319,1.94732236 39.5042565,2.08259947 39.3005058,2.16944404 C39.1869399,2.21954667 38.9982199,2.26129887 38.7343461,2.29470062 L38.7343461,2.29470062 L38.2483505,2.35482378 C37.6972216,2.42496747 37.2796996,2.54187361 36.9957847,2.70554222 C36.4780575,3.00615802 36.2191939,3.49215356 36.2191939,4.16352886 C36.2191939,4.68125607 36.3803573,5.0812421 36.7026843,5.36348693 C37.0250112,5.64573177 37.4333477,5.78685419 37.9276937,5.78685419 Z M38.3485558,4.74972967 C38.1548256,4.74972967 37.990322,4.69545182 37.8550448,4.58689611 C37.7197677,4.4783404 37.6521292,4.30214614 37.6521292,4.05831333 C37.6521292,3.78441893 37.762355,3.58233831 37.9828066,3.45207146 C38.1130734,3.37524742 38.3285147,3.310114 38.6291305,3.25667119 L38.6291305,3.25667119 L38.9497874,3.19654803 C39.1101158,3.16648645 39.2362075,3.13391973 39.3280623,3.09884789 C39.4199171,3.06377605 39.5109369,3.01784863 39.6011216,2.96106565 L39.6011216,2.96106565 L39.6011216,3.49215356 C39.5911011,3.96979867 39.456659,4.29880597 39.1977954,4.47917545 C38.9389318,4.65954493 38.6558519,4.74972967 38.3485558,4.74972967 Z M2.91597328,17.2080279 C3.79443945,17.2080279 4.45746431,16.8957215 4.90504783,16.2711086 C5.18562258,15.8836483 5.34261083,15.4728067 5.37601259,15.0385838 L5.37601259,15.0385838 L3.91802595,15.0385838 C3.88796437,15.3258389 3.80278989,15.5596512 3.66250252,15.7400207 C3.52221515,15.9203902 3.28506268,16.0105749 2.95104512,16.0105749 C2.48008037,16.0105749 2.15942351,15.783443 1.98907456,15.3291791 C1.89554964,15.0853463 1.84878718,14.7630194 1.84878718,14.3621983 C1.84878718,13.9413362 1.89554964,13.6039784 1.98907456,13.3501251 C2.16610386,12.87248 2.49511116,12.6336574 2.97609644,12.6336574 C3.31345417,12.6336574 3.56229725,12.7438832 3.72262568,12.9643348 C3.83285147,13.1280034 3.90132507,13.3117131 3.92804648,13.5154638 L3.92804648,13.5154638 L5.39104338,13.5154638 C5.31087917,12.7372029 5.0528506,12.1944243 4.61695769,11.8871282 C4.18106478,11.579832 3.62075032,11.426184 2.93601433,11.426184 C2.13103202,11.426184 1.49973883,11.6867176 1.04213478,12.207785 C0.584530726,12.7288524 0.355728699,13.4586808 0.355728699,14.3972701 C0.355728699,15.2289738 0.562819585,15.9053594 0.977001356,16.4264268 C1.39118313,16.9474942 2.0375071,17.2080279 2.91597328,17.2080279 Z M8.82808405,17.2080279 C9.76667339,17.2080279 10.4664402,16.9232779 10.9273844,16.353778 C11.3883286,15.784278 11.6188007,15.098707 11.6188007,14.2970649 C11.6188007,13.5087834 11.3883286,12.8257175 10.9273844,12.2478671 C10.4664402,11.6700168 9.76667339,11.3810916 8.82808405,11.3810916 C7.88949471,11.3810916 7.18972793,11.6700168 6.7287837,12.2478671 C6.26783947,12.8257175 6.03736735,13.5087834 6.03736735,14.2970649 C6.03736735,15.098707 6.26783947,15.784278 6.7287837,16.353778 C7.18972793,16.9232779 7.88949471,17.2080279 8.82808405,17.2080279 Z M8.82307378,16.0105749 C8.40555184,16.0105749 8.08405994,15.8619371 7.85859809,15.5646615 C7.63313624,15.2673859 7.52040531,14.8448537 7.52040531,14.2970649 C7.52040531,13.7492761 7.63313624,13.3275789 7.85859809,13.0319734 C8.08405994,12.7363678 8.40555184,12.5885651 8.82307378,12.5885651 C9.24059573,12.5885651 9.56125259,12.7363678 9.78504435,13.0319734 C10.0088361,13.3275789 10.120732,13.7492761 10.120732,14.2970649 C10.120732,14.8448537 10.0088361,15.2673859 9.78504435,15.5646615 C9.56125259,15.8619371 9.24059573,16.0105749 8.82307378,16.0105749 Z M14.0638093,17.0176379 L14.0638093,13.7309051 C14.0638093,13.4336295 14.1022213,13.2098377 14.1790453,13.0595298 C14.3193327,12.7956559 14.5932271,12.663719 15.0007285,12.663719 C15.3514469,12.663719 15.5869293,12.7956559 15.7071756,13.0595298 C15.7739792,13.2064975 15.8073809,13.4419799 15.8073809,13.7659769 L15.8073809,13.7659769 L15.8073809,17.0176379 L17.2453265,17.0176379 L17.2453265,13.7659769 C17.2453265,13.5221441 17.2837385,13.3133832 17.3605626,13.139694 C17.5108705,12.8123568 17.7830948,12.6486882 18.1772355,12.6486882 C18.5179334,12.6486882 18.7517457,12.7756149 18.8786724,13.0294682 C18.9454759,13.1630753 18.9788776,13.3334242 18.9788776,13.5405151 L18.9788776,13.5405151 L18.9788776,17.0176379 L20.4418745,17.0176379 L20.4518951,13.5755869 C20.4518951,13.2215283 20.4351942,12.9526442 20.4017924,12.7689345 C20.3483496,12.4917 20.2448042,12.2578877 20.0911561,12.0674977 C19.9007661,11.8336854 19.6886649,11.6700168 19.4548526,11.5764919 C19.2210404,11.4829669 18.9838879,11.4362045 18.7433952,11.4362045 C18.3826563,11.4362045 18.0553191,11.5113584 17.7613836,11.6616663 C17.4841491,11.8119742 17.2520069,12.0474566 17.064957,12.3681135 C16.9580714,12.1008994 16.8010831,11.8821179 16.5939923,11.711769 C16.3367987,11.5280593 15.999441,11.4362045 15.5819191,11.4362045 C15.1410159,11.4362045 14.781947,11.5430901 14.5047124,11.7568613 C14.3477242,11.8771077 14.1807154,12.0791883 14.0036861,12.3631032 L14.0036861,12.3631032 L14.0036861,11.5664713 L12.6158432,11.5664713 L12.6158432,17.0176379 L14.0638093,17.0176379 Z M23.1874989,17.0176379 L23.1874989,13.7309051 C23.1874989,13.4336295 23.2259109,13.2098377 23.3027349,13.0595298 C23.4430223,12.7956559 23.7169167,12.663719 24.1244181,12.663719 C24.4751365,12.663719 24.7106189,12.7956559 24.8308652,13.0595298 C24.8976687,13.2064975 24.9310705,13.4419799 24.9310705,13.7659769 L24.9310705,13.7659769 L24.9310705,17.0176379 L26.3690161,17.0176379 L26.3690161,13.7659769 C26.3690161,13.5221441 26.4074281,13.3133832 26.4842521,13.139694 C26.63456,12.8123568 26.9067844,12.6486882 27.3009251,12.6486882 C27.641623,12.6486882 27.8754353,12.7756149 28.0023619,13.0294682 C28.0691655,13.1630753 28.1025672,13.3334242 28.1025672,13.5405151 L28.1025672,13.5405151 L28.1025672,17.0176379 L29.5655641,17.0176379 L29.5755846,13.5755869 C29.5755846,13.2215283 29.5588838,12.9526442 29.525482,12.7689345 C29.4720392,12.4917 29.3684938,12.2578877 29.2148457,12.0674977 C29.0244557,11.8336854 28.8123545,11.6700168 28.5785422,11.5764919 C28.3447299,11.4829669 28.1075775,11.4362045 27.8670848,11.4362045 C27.5063459,11.4362045 27.1790087,11.5113584 26.8850732,11.6616663 C26.6078386,11.8119742 26.3756964,12.0474566 26.1886466,12.3681135 C26.081761,12.1008994 25.9247727,11.8821179 25.7176818,11.711769 C25.4604883,11.5280593 25.1231306,11.4362045 24.7056086,11.4362045 C24.2647055,11.4362045 23.9056366,11.5430901 23.628402,11.7568613 C23.4714138,11.8771077 23.304405,12.0791883 23.1273757,12.3631032 L23.1273757,12.3631032 L23.1273757,11.5664713 L21.7395327,11.5664713 L21.7395327,17.0176379 L23.1874989,17.0176379 Z M32.3562808,10.9051166 L32.3562808,9.5874173 L30.9083147,9.5874173 L30.9083147,10.9051166 L32.3562808,10.9051166 Z M32.3562808,17.0176379 L32.3562808,11.5564508 L30.9083147,11.5564508 L30.9083147,17.0176379 L32.3562808,17.0176379 Z M35.9185781,17.2030176 C36.7603023,17.2030176 37.38241,17.0318336 37.7849012,16.6894656 C38.1873923,16.3470976 38.3886379,15.9053594 38.3886379,15.364251 C38.3886379,14.9534094 38.2483505,14.6110414 37.9677758,14.337147 C37.6838609,14.0665927 37.2579885,13.8645121 36.6901586,13.7309051 C35.8384138,13.5438553 35.3423978,13.4119183 35.2021104,13.3350943 C35.061823,13.2616104 34.9916793,13.1430342 34.9916793,12.9793656 C34.9916793,12.8490987 35.0576478,12.7355328 35.1895847,12.6386677 C35.3215217,12.5418026 35.5428083,12.49337 35.8534446,12.49337 C36.2308845,12.49337 36.4980985,12.5902351 36.6550868,12.7839653 C36.7385912,12.8908509 36.7903639,13.0361486 36.8104049,13.2198582 L36.8104049,13.2198582 L38.23833,13.2198582 C38.1748667,12.5518231 37.9285287,12.0816934 37.4993162,11.8094691 C37.0701036,11.5372448 36.5147994,11.4011326 35.8334036,11.4011326 C35.1152658,11.4011326 34.5582916,11.5823372 34.1624808,11.9447462 C33.7666699,12.3071553 33.5687645,12.740543 33.5687645,13.2449096 C33.5687645,13.672452 33.6956912,13.9997892 33.9495446,14.2269212 C34.2033979,14.4573933 34.6392908,14.6494534 35.2572233,14.8031015 C36.1156484,15.0068522 36.6116645,15.1504797 36.7452715,15.2339841 C36.8788785,15.3174885 36.945682,15.4394049 36.945682,15.5997333 C36.945682,15.7667421 36.8630127,15.8919987 36.697674,15.9755031 C36.5323353,16.0590075 36.3093786,16.1007597 36.0288039,16.1007597 C35.5511587,16.1007597 35.2238215,16.0055647 35.0467922,15.8151747 C34.946587,15.708289 34.8814535,15.5279196 34.851392,15.2740662 L34.851392,15.2740662 L33.4034259,15.2740662 C33.4034259,15.8352157 33.6080116,16.296995 34.0171831,16.659404 C34.4263546,17.0218131 35.0601529,17.2030176 35.9185781,17.2030176 Z M41.625268,17.2030176 C42.4669923,17.2030176 43.0891,17.0318336 43.4915911,16.6894656 C43.8940823,16.3470976 44.0953279,15.9053594 44.0953279,15.364251 C44.0953279,14.9534094 43.9550405,14.6110414 43.6744657,14.337147 C43.3905508,14.0665927 42.9646784,13.8645121 42.3968486,13.7309051 C41.5451038,13.5438553 41.0490877,13.4119183 40.9088004,13.3350943 C40.768513,13.2616104 40.6983693,13.1430342 40.6983693,12.9793656 C40.6983693,12.8490987 40.7643378,12.7355328 40.8962747,12.6386677 C41.0282116,12.5418026 41.2494983,12.49337 41.5601346,12.49337 C41.9375744,12.49337 42.2047885,12.5902351 42.3617767,12.7839653 C42.4452811,12.8908509 42.4970539,13.0361486 42.5170949,13.2198582 L42.5170949,13.2198582 L43.94502,13.2198582 C43.8815566,12.5518231 43.6352187,12.0816934 43.2060061,11.8094691 C42.7767936,11.5372448 42.2214894,11.4011326 41.5400936,11.4011326 C40.8219558,11.4011326 40.2649815,11.5823372 39.8691707,11.9447462 C39.4733599,12.3071553 39.2754545,12.740543 39.2754545,13.2449096 C39.2754545,13.672452 39.4023812,13.9997892 39.6562345,14.2269212 C39.9100879,14.4573933 40.3459808,14.6494534 40.9639133,14.8031015 C41.8223384,15.0068522 42.3183545,15.1504797 42.4519615,15.2339841 C42.5855685,15.3174885 42.652372,15.4394049 42.652372,15.5997333 C42.652372,15.7667421 42.5697027,15.8919987 42.404364,15.9755031 C42.2390253,16.0590075 42.0160686,16.1007597 41.7354938,16.1007597 C41.2578487,16.1007597 40.9305115,16.0055647 40.7534822,15.8151747 C40.6532769,15.708289 40.5881435,15.5279196 40.5580819,15.2740662 L40.5580819,15.2740662 L39.1101158,15.2740662 C39.1101158,15.8352157 39.3147016,16.296995 39.7238731,16.659404 C40.1330446,17.0218131 40.7668429,17.2030176 41.625268,17.2030176 Z M46.6205006,10.9051166 L46.6205006,9.5874173 L45.1725345,9.5874173 L45.1725345,10.9051166 L46.6205006,10.9051166 Z M46.6205006,17.0176379 L46.6205006,11.5564508 L45.1725345,11.5564508 L45.1725345,17.0176379 L46.6205006,17.0176379 Z M50.4583623,17.2080279 C51.3969517,17.2080279 52.0967185,16.9232779 52.5576627,16.353778 C53.0186069,15.784278 53.249079,15.098707 53.249079,14.2970649 C53.249079,13.5087834 53.0186069,12.8257175 52.5576627,12.2478671 C52.0967185,11.6700168 51.3969517,11.3810916 50.4583623,11.3810916 C49.519773,11.3810916 48.8200062,11.6700168 48.359062,12.2478671 C47.8981178,12.8257175 47.6676456,13.5087834 47.6676456,14.2970649 C47.6676456,15.098707 47.8981178,15.784278 48.359062,16.353778 C48.8200062,16.9232779 49.519773,17.2080279 50.4583623,17.2080279 Z M50.4533521,16.0105749 C50.0358301,16.0105749 49.7143382,15.8619371 49.4888764,15.5646615 C49.2634145,15.2673859 49.1506836,14.8448537 49.1506836,14.2970649 C49.1506836,13.7492761 49.2634145,13.3275789 49.4888764,13.0319734 C49.7143382,12.7363678 50.0358301,12.5885651 50.4533521,12.5885651 C50.870874,12.5885651 51.1915309,12.7363678 51.4153226,13.0319734 C51.6391144,13.3275789 51.7510103,13.7492761 51.7510103,14.2970649 C51.7510103,14.8448537 51.6391144,15.2673859 51.4153226,15.5646615 C51.1915309,15.8619371 50.870874,16.0105749 50.4533521,16.0105749 Z M55.7041081,17.0176379 L55.7041081,14.0615825 C55.7041081,13.7242247 55.7508705,13.4469902 55.8443955,13.2298788 C56.0247649,12.8190372 56.3571124,12.6136164 56.8414379,12.6136164 C57.2355786,12.6136164 57.5027926,12.7539037 57.64308,13.0344785 C57.719904,13.1881266 57.7583161,13.4085782 57.7583161,13.6958333 L57.7583161,13.6958333 L57.7583161,17.0176379 L59.221313,17.0176379 L59.221313,13.3401046 C59.221313,12.6553686 59.0417785,12.1651978 58.6827097,11.8695923 C58.3236408,11.5739867 57.8618615,11.426184 57.2973718,11.426184 C56.8464481,11.426184 56.4740186,11.5364097 56.1800831,11.7568613 C56.0164145,11.8804478 55.8427254,12.0825285 55.6590157,12.3631032 L55.6590157,12.3631032 L55.6590157,11.5664713 L54.2811933,11.5664713 L54.2811933,17.0176379 L55.7041081,17.0176379 Z M62.7435281,17.1980073 C63.5852524,17.1980073 64.2399268,16.9324634 64.7075514,16.4013755 C65.0081672,16.0673579 65.176846,15.7383506 65.213588,15.4143536 L65.213588,15.4143536 L63.7556013,15.4143536 C63.6787773,15.574682 63.5902626,15.6999386 63.4900574,15.7901233 C63.3063477,15.9571321 63.0675251,16.0406365 62.7735897,16.0406365 C62.4963551,16.0406365 62.2592027,15.9721629 62.0621323,15.8352157 C61.7381353,15.6147641 61.5661162,15.2306439 61.5460752,14.6828551 L61.5460752,14.6828551 L65.2837316,14.6828551 C65.290412,14.2118904 65.2753812,13.8511514 65.2386393,13.6006383 C65.1751759,13.1730958 65.0365586,12.797326 64.8227874,12.473329 C64.5856349,12.1059097 64.2850191,11.8370255 63.92094,11.6666766 C63.5568609,11.4963276 63.1476894,11.4111532 62.6934255,11.4111532 C61.9285253,11.4111532 61.3064176,11.6633364 60.8271024,12.1677029 C60.3477872,12.6720694 60.1081296,13.3968875 60.1081296,14.3421572 C60.1081296,15.3508903 60.3736735,16.0790485 60.9047615,16.5266321 C61.4358494,16.9742156 62.0487716,17.1980073 62.7435281,17.1980073 Z M63.8006937,13.7409256 L61.581147,13.7409256 C61.6279095,13.386867 61.7423105,13.1062923 61.9243501,12.8992014 C62.1063896,12.6921105 62.3627481,12.5885651 62.6934255,12.5885651 C62.9973815,12.5885651 63.2520698,12.6862652 63.4574906,12.8816655 C63.6629114,13.0770657 63.7773125,13.3634858 63.8006937,13.7409256 L63.8006937,13.7409256 Z" id="nessunacommissione"></path>
            <path d="M44.5011181,6.39309605 L44.5011181,5.88705945 L0,5.88705945 L0,6.39309605 L44.5011181,6.39309605 Z M0,17.2881921 L0,17.7942287 L65.0697909,17.7942287 L65.0697909,17.2881921 L0,17.2881921 Z" id="Decoration"></path>
        </g>
        <path d="M10.0658689,0.00798570416 C4.41722422,0.00798570416 0,4.46400862 0,10.1578157 C0,15.8516227 4.42516887,20.3156314 10.0658689,20.3156314 C15.6986242,20.3156314 20.1158591,15.8516227 20.1158591,10.1578157 C20.1237931,4.46400862 15.6986242,0.00798570416 10.0658689,0.00798570416 M10.0658689,16.8418501 C6.47488802,16.8418501 3.55920225,13.9110966 3.55920225,10.1658014 C3.55920225,6.42050614 6.48283267,3.48176701 10.0658689,3.48176701 C13.6330158,3.48176701 16.5646069,6.42050614 16.5646069,10.1658014 C16.5725355,13.9031109 13.6330158,16.8418501 10.0658689,16.8418501 M80.8209029,0.00798570416 L73.1304837,18.8702189 L71.2317129,23.5418559 L70.1830193,26.1212383 L66.3934223,26.1212383 L69.332942,18.8782046 L61.4677406,0.00798570416 L65.4718432,0.00798570416 L71.2237682,14.1905963 L76.9915826,0.00798570416 L80.8209029,0.00798570416 Z M31.2304108,3.36198145 C27.6791532,3.36198145 25.8677735,5.27855045 25.8677735,9.06377422 L25.8677735,20.2836886 L22.2211801,20.2836886 L22.2211801,8.80024598 C22.2529587,6.78784853 22.6104679,5.36639319 23.4287666,4.02479489 C24.3980136,2.52348251 26.6940169,0 31.2304108,0 C35.7588601,0 38.062808,2.52348251 39.0241104,4.02479489 C39.8344645,5.35840749 40.1999183,6.78784853 40.2237522,8.80024598 L40.2237522,20.2836886 L36.5771588,20.2836886 L36.5771588,9.06377422 C36.5771588,5.27855045 34.7816684,3.36198145 31.2304108,3.36198145 M46.1186809,8.32110373 C46.6033044,5.86949255 48.9390309,3.47378131 52.0771668,3.47378131 C55.2073581,3.47378131 57.5430846,5.86949255 58.0197634,8.32110373 L46.1186809,8.32110373 Z M61.8490837,9.89428745 C61.8173051,4.45602292 57.4477488,0.0319428166 52.1010008,0.0319428166 C46.6033044,0.0319428166 42.2893607,4.47199433 42.2893607,10.1418443 C42.2893607,12.8010838 43.3062756,15.3245663 45.1255999,17.2571067 C46.9846475,19.2056185 49.4315991,20.2836886 52.0294989,20.2836886 C55.0007973,20.2836886 59.1717374,18.8462618 61.1499547,14.7815384 C61.189678,14.6936956 61.1976226,14.6537671 61.1976226,14.6537671 L57.2094094,14.6537671 L57.1855754,14.6777242 C56.113048,15.9634226 54.0951074,16.8338644 52.1725026,16.8338644 C49.7255511,16.8338644 46.793976,15.2127664 45.9915666,11.5553139 L61.7616926,11.5553139 C61.8093605,11.1720001 61.8490837,10.4133582 61.8490837,9.89428745" id="Shape"></path>
    </g>
</svg>