<?xml version="1.0" encoding="UTF-8"?>
<svg width="48px" height="31px" viewBox="0 0 48 31" version="1.1" xmlns="http://www.w3.org/2000/svg" xmlns:xlink="http://www.w3.org/1999/xlink">
    <title>General/Icons/Logos cb/Mastercard dark</title>
    <g id="Symbols" stroke="none" stroke-width="1" fill="none" fill-rule="evenodd">
        <g id="General/Icons/Logos-cb/Mastercard-dark">
            <rect id="Rectangle-Copy" fill="#D5D6D8" x="0" y="-9.9475983e-14" width="48" height="30.72" rx="3.84"></rect>
            <g id="Components/Icons/Cards/Mastercard" transform="translate(8.320000, 3.200000)" fill-rule="nonzero">
                <g id="Mastercard-logo">
                    <g id="g15" transform="translate(1.280000, 20.480000)" fill="#000000">
                        <path d="M4.10331429,3.78352941 L4.10331429,2.08941176 C4.10331429,1.44 3.72784762,1.01647059 3.08419048,1.01647059 C2.7623619,1.01647059 2.41371429,1.12941176 2.17234286,1.49647059 C1.98460952,1.18588235 1.71641905,1.01647059 1.31413333,1.01647059 C1.04594286,1.01647059 0.777752381,1.10117647 0.5632,1.41176471 L0.5632,1.07294118 L0,1.07294118 L0,3.78352941 L0.5632,3.78352941 L0.5632,2.28705882 C0.5632,1.80705882 0.804571429,1.58117647 1.1800381,1.58117647 C1.55550476,1.58117647 1.7432381,1.83529412 1.7432381,2.28705882 L1.7432381,3.78352941 L2.3064381,3.78352941 L2.3064381,2.28705882 C2.3064381,1.80705882 2.57462857,1.58117647 2.92327619,1.58117647 C3.29874286,1.58117647 3.48647619,1.83529412 3.48647619,2.28705882 L3.48647619,3.78352941 L4.10331429,3.78352941 L4.10331429,3.78352941 Z M12.4440381,1.07294118 L11.5321905,1.07294118 L11.5321905,0.254117647 L10.9689905,0.254117647 L10.9689905,1.07294118 L10.4594286,1.07294118 L10.4594286,1.60941176 L10.9689905,1.60941176 L10.9689905,2.85176471 C10.9689905,3.47294118 11.2103619,3.84 11.854019,3.84 C12.0953905,3.84 12.363581,3.75529412 12.5513143,3.64235294 L12.3904,3.13411765 C12.2294857,3.24705882 12.0417524,3.27529412 11.9076571,3.27529412 C11.6394667,3.27529412 11.5321905,3.10588235 11.5321905,2.82352941 L11.5321905,1.60941176 L12.4440381,1.60941176 L12.4440381,1.07294118 L12.4440381,1.07294118 Z M17.2178286,1.01647059 C16.896,1.01647059 16.6814476,1.18588235 16.5473524,1.41176471 L16.5473524,1.07294118 L15.9841524,1.07294118 L15.9841524,3.78352941 L16.5473524,3.78352941 L16.5473524,2.25882353 C16.5473524,1.80705882 16.7350857,1.55294118 17.0837333,1.55294118 C17.1910095,1.55294118 17.3251048,1.58117647 17.432381,1.60941176 L17.5932952,1.04470588 C17.486019,1.01647059 17.3251048,1.01647059 17.2178286,1.01647059 L17.2178286,1.01647059 L17.2178286,1.01647059 Z M10.0035048,1.29882353 C9.73531429,1.10117647 9.35984762,1.01647059 8.9575619,1.01647059 C8.31390476,1.01647059 7.8848,1.35529412 7.8848,1.89176471 C7.8848,2.34352941 8.20662857,2.59764706 8.76982857,2.68235294 L9.03801905,2.71058824 C9.33302857,2.76705882 9.49394286,2.85176471 9.49394286,2.99294118 C9.49394286,3.19058824 9.27939048,3.33176471 8.90392381,3.33176471 C8.52845714,3.33176471 8.23344762,3.19058824 8.04571429,3.04941176 L7.77752381,3.50117647 C8.07253333,3.72705882 8.47481905,3.84 8.87710476,3.84 C9.6280381,3.84 10.0571429,3.47294118 10.0571429,2.96470588 C10.0571429,2.48470588 9.70849524,2.23058824 9.17211429,2.14588235 L8.90392381,2.11764706 C8.66255238,2.08941176 8.47481905,2.03294118 8.47481905,1.86352941 C8.47481905,1.66588235 8.66255238,1.55294118 8.9575619,1.55294118 C9.27939048,1.55294118 9.60121905,1.69411765 9.76213333,1.77882353 L10.0035048,1.29882353 L10.0035048,1.29882353 Z M24.9685333,1.01647059 C24.6467048,1.01647059 24.4321524,1.18588235 24.2980571,1.41176471 L24.2980571,1.07294118 L23.7348571,1.07294118 L23.7348571,3.78352941 L24.2980571,3.78352941 L24.2980571,2.25882353 C24.2980571,1.80705882 24.4857905,1.55294118 24.8344381,1.55294118 C24.9417143,1.55294118 25.0758095,1.58117647 25.1830857,1.60941176 L25.344,1.04470588 C25.2367238,1.01647059 25.0758095,1.01647059 24.9685333,1.01647059 L24.9685333,1.01647059 L24.9685333,1.01647059 Z M17.7810286,2.42823529 C17.7810286,3.24705882 18.3174095,3.84 19.1488,3.84 C19.5242667,3.84 19.7924571,3.75529412 20.0606476,3.52941176 L19.7924571,3.04941176 C19.5779048,3.21882353 19.3633524,3.30352941 19.121981,3.30352941 C18.6660571,3.30352941 18.3442286,2.96470588 18.3442286,2.42823529 C18.3442286,1.92 18.6660571,1.58117647 19.121981,1.55294118 C19.3633524,1.55294118 19.5779048,1.63764706 19.7924571,1.80705882 L20.0606476,1.32705882 C19.7924571,1.10117647 19.5242667,1.01647059 19.1488,1.01647059 C18.3174095,1.01647059 17.7810286,1.60941176 17.7810286,2.42823529 L17.7810286,2.42823529 L17.7810286,2.42823529 Z M22.9839238,2.42823529 L22.9839238,1.07294118 L22.4207238,1.07294118 L22.4207238,1.41176471 C22.2329905,1.15764706 21.9648,1.01647059 21.6161524,1.01647059 C20.8920381,1.01647059 20.3288381,1.60941176 20.3288381,2.42823529 C20.3288381,3.24705882 20.8920381,3.84 21.6161524,3.84 C21.991619,3.84 22.2598095,3.69882353 22.4207238,3.44470588 L22.4207238,3.78352941 L22.9839238,3.78352941 L22.9839238,2.42823529 Z M20.9188571,2.42823529 C20.9188571,1.94823529 21.2138667,1.55294118 21.6966095,1.55294118 C22.1525333,1.55294118 22.4743619,1.92 22.4743619,2.42823529 C22.4743619,2.90823529 22.1525333,3.30352941 21.6966095,3.30352941 C21.2138667,3.27529412 20.9188571,2.90823529 20.9188571,2.42823529 L20.9188571,2.42823529 Z M14.1872762,1.01647059 C13.4363429,1.01647059 12.8999619,1.58117647 12.8999619,2.42823529 C12.8999619,3.27529412 13.4363429,3.84 14.2140952,3.84 C14.5895619,3.84 14.9650286,3.72705882 15.2600381,3.47294118 L14.9918476,3.04941176 C14.7772952,3.21882353 14.5091048,3.33176471 14.2409143,3.33176471 C13.8922667,3.33176471 13.543619,3.16235294 13.4631619,2.68235294 L15.3673143,2.68235294 C15.3673143,2.59764706 15.3673143,2.54117647 15.3673143,2.45647059 C15.3941333,1.58117647 14.9113905,1.01647059 14.1872762,1.01647059 L14.1872762,1.01647059 L14.1872762,1.01647059 Z M14.1872762,1.52470588 C14.5359238,1.52470588 14.7772952,1.75058824 14.8309333,2.17411765 L13.489981,2.17411765 C13.543619,1.80705882 13.7849905,1.52470588 14.1872762,1.52470588 L14.1872762,1.52470588 Z M28.16,2.42823529 L28.16,0 L27.5968,0 L27.5968,1.41176471 C27.4090667,1.15764706 27.1408762,1.01647059 26.7922286,1.01647059 C26.0681143,1.01647059 25.5049143,1.60941176 25.5049143,2.42823529 C25.5049143,3.24705882 26.0681143,3.84 26.7922286,3.84 C27.1676952,3.84 27.4358857,3.69882353 27.5968,3.44470588 L27.5968,3.78352941 L28.16,3.78352941 L28.16,2.42823529 Z M26.0949333,2.42823529 C26.0949333,1.94823529 26.3899429,1.55294118 26.8726857,1.55294118 C27.3286095,1.55294118 27.6504381,1.92 27.6504381,2.42823529 C27.6504381,2.90823529 27.3286095,3.30352941 26.8726857,3.30352941 C26.3899429,3.27529412 26.0949333,2.90823529 26.0949333,2.42823529 L26.0949333,2.42823529 Z M7.2679619,2.42823529 L7.2679619,1.07294118 L6.7047619,1.07294118 L6.7047619,1.41176471 C6.51702857,1.15764706 6.2488381,1.01647059 5.90019048,1.01647059 C5.17607619,1.01647059 4.61287619,1.60941176 4.61287619,2.42823529 C4.61287619,3.24705882 5.17607619,3.84 5.90019048,3.84 C6.27565714,3.84 6.54384762,3.69882353 6.7047619,3.44470588 L6.7047619,3.78352941 L7.2679619,3.78352941 L7.2679619,2.42823529 Z M5.17607619,2.42823529 C5.17607619,1.94823529 5.47108571,1.55294118 5.95382857,1.55294118 C6.40975238,1.55294118 6.73158095,1.92 6.73158095,2.42823529 C6.73158095,2.90823529 6.40975238,3.30352941 5.95382857,3.30352941 C5.47108571,3.27529412 5.17607619,2.90823529 5.17607619,2.42823529 Z" id="XMLID_1775_"></path>
                    </g>
                    <g id="XMLID_328_">
                        <rect id="rect19" fill="#FF5F00" x="11.440346" y="2.053336" width="8.4793133" height="15.0933328"></rect>
                        <path d="M11.9787124,9.6 C11.9787124,6.53333333 13.432309,3.81333333 15.6665408,2.05333333 C14.024515,0.773333333 11.951794,0 9.69064378,0 C4.33387124,0 0,4.29333333 0,9.6 C0,14.9066667 4.33387124,19.2 9.69064378,19.2 C11.951794,19.2 14.024515,18.4266667 15.6665408,17.1466667 C13.432309,15.4133333 11.9787124,12.6666667 11.9787124,9.6 Z" id="XMLID_330_" fill="#EB001B"></path>
                        <path d="M31.36,9.6 C31.36,14.9066667 27.0261288,19.2 21.6693562,19.2 C19.408206,19.2 17.335485,18.4266667 15.6934592,17.1466667 C17.9546094,15.3866667 19.3812876,12.6666667 19.3812876,9.6 C19.3812876,6.53333333 17.927691,3.81333333 15.6934592,2.05333333 C17.335485,0.773333333 19.408206,0 21.6693562,0 C27.0261288,0 31.36,4.32 31.36,9.6 Z" id="path22" fill="#F79E1B"></path>
                    </g>
                </g>
            </g>
            <rect id="Rectangle-Copy" fill="#D5D6D8" style="mix-blend-mode: color;" x="0" y="0" width="48" height="30.72" rx="3.84"></rect>
        </g>
    </g>
</svg>