<svg width="150" height="30" viewBox="0 0 150 30" fill="none" xmlns="http://www.w3.org/2000/svg">
<path d="M120.262 22.8105C116.898 22.8105 114.139 20.8908 114.139 16.2714V6.7334H118.652V15.5307C118.652 17.9493 119.868 19.0013 121.766 19.0013C123.949 19.0013 125.418 17.653 125.418 14.2157V6.7334H129.821V22.3056H125.488V19.9113H125.418C124.416 21.5982 122.838 22.8105 120.262 22.8105Z" fill="#23201F"/>
<path d="M110.587 0.63916H106.183V22.306H110.587V0.63916Z" fill="#23201F"/>
<path d="M95.3817 0.63916H86.6477V22.306H91.2275V15.5009H95.3881C101.008 15.5009 103.837 12.2994 103.837 7.98539C103.831 3.80741 101.002 0.63916 95.3817 0.63916ZM94.8792 11.5225H91.2275V4.61459H94.8792C97.3499 4.61459 98.9245 5.72711 98.9245 8.01865C98.9245 10.3102 97.3499 11.5255 94.8792 11.5255V11.5225Z" fill="#23201F"/>
<path d="M61.3931 6.85182V9.0829H61.3227C60.2826 7.43529 58.4935 6.33789 55.8084 6.33789C51.475 6.33789 47.8585 9.36103 47.8585 14.7755C47.8585 20.1899 51.475 23.2161 55.8084 23.2161C58.4935 23.2161 60.289 22.1187 61.3227 20.4711H61.3931V22.6991H65.7617V6.85182H61.3931ZM56.9125 19.2467C54.2658 19.2467 52.4319 17.463 52.4319 14.7876C52.4319 12.1121 54.2594 10.3284 56.9125 10.3284C59.5657 10.3284 61.3931 12.1121 61.3931 14.7876C61.3931 17.463 59.5657 19.2255 56.9157 19.2255L56.9125 19.2467Z" fill="#23201F"/>
<path d="M38.619 0.63916H29.8818V22.69H34.4648V15.767H38.6254C44.2453 15.767 47.0745 12.508 47.0745 8.11841C47.0681 3.86485 44.2389 0.63916 38.619 0.63916ZM38.1165 11.719H34.4648V4.68715H38.1165C40.5872 4.68715 42.1619 5.8178 42.1619 8.15167C42.1619 10.4855 40.5872 11.719 38.1165 11.719Z" fill="#23201F"/>
<path d="M150 6.73338H145.631V8.92516H145.558C144.521 7.30778 142.732 6.22852 140.047 6.22852C135.713 6.22852 132.1 9.19422 132.1 14.521C132.1 19.7782 135.678 22.7107 140.012 22.7107C142.802 22.7107 144.521 21.5649 145.558 20.1138H145.631V20.8152C145.606 24.0771 143.302 25.5675 141.151 25.5675C139.525 25.5785 137.936 25.1092 136.606 24.2253L133.972 27.5145C136.057 28.9472 138.573 29.7102 141.151 29.6911C146.892 29.6911 149.994 25.0899 149.994 20.7608L150 6.73338ZM141.157 18.9015C138.507 18.9015 136.677 17.1481 136.677 14.521C136.677 11.8939 138.504 10.1374 141.157 10.1374C143.81 10.1374 145.638 11.8909 145.638 14.521C145.638 17.1511 143.804 18.9015 141.157 18.9015Z" fill="#23201F"/>
<path d="M16.1149 11.9154C18.7459 11.3032 20.3487 8.79331 19.695 6.30937C19.0412 3.82544 16.3784 2.3081 13.7474 2.92031C11.1164 3.53252 9.51351 6.04244 10.1673 8.52638C10.821 11.0103 13.4839 12.5277 16.1149 11.9154Z" fill="#00AB7A"/>
<path d="M7.13136 20.4081C9.76236 19.7959 11.3652 17.286 10.7115 14.8021C10.0577 12.3181 7.39485 10.8008 4.76385 11.413C2.13285 12.0252 0.529985 14.5351 1.18376 17.0191C1.83753 19.503 4.50036 21.0203 7.13136 20.4081Z" fill="#00AB7A"/>
<path d="M17.2898 20.2552C18.9373 19.8718 19.9407 18.2987 19.5309 16.7416C19.1211 15.1845 17.4532 14.233 15.8056 14.6164C14.158 14.9998 13.1546 16.5728 13.5645 18.13C13.9743 19.6871 15.6422 20.6386 17.2898 20.2552Z" fill="#23201F"/>
<path d="M5.0732 8.71517C6.7208 8.33179 7.7242 6.7587 7.31437 5.20158C6.90454 3.64446 5.23666 2.69296 3.58907 3.07634C1.94147 3.45972 0.93807 5.0328 1.3479 6.58992C1.75773 8.14704 3.42561 9.09855 5.0732 8.71517Z" fill="#23201F"/>
<path d="M84.6506 6.84277H81.4726L77.0528 16.4533L72.3866 6.84277H67.7556L74.8766 21.1332L70.8344 29.5526H75.4206L84.6506 9.7722V6.84277Z" fill="#23201F"/>
</svg>
