<svg width="150" height="40" viewBox="0 0 150 40" fill="none" xmlns="http://www.w3.org/2000/svg">
<path fill-rule="evenodd" clip-rule="evenodd" d="M68.7262 13.0906C67.5269 13.0906 66.5792 12.7032 65.8815 11.9241L73.6795 8.95142L73.6579 8.91514C73.6455 7.73273 73.1562 6.77664 72.1915 6.04108C71.2283 5.30407 70.0151 4.93701 68.5549 4.93701C67.6303 4.93701 66.7521 5.12272 65.9232 5.49267C65.0927 5.86408 64.3951 6.44296 63.8332 7.22785C63.2714 8.00984 62.9889 8.9195 62.9889 9.95393C62.9889 11.4512 63.5322 12.6524 64.6173 13.5665C65.7024 14.4776 67.0006 14.9346 68.5148 14.9346C70.2451 14.9346 71.7439 14.3383 73.0173 13.1472L71.6898 11.8139C70.9119 12.6669 69.9256 13.0906 68.7262 13.0906ZM65.1591 9.9902C65.1591 8.99204 65.5234 8.2144 66.2519 7.65584C66.9836 7.09582 67.7909 6.81727 68.6753 6.81727C69.8407 6.81727 70.651 7.21624 71.1079 8.01854L65.1792 10.3369C65.1637 10.2644 65.1591 10.1498 65.1591 9.9902Z" fill="#22086C"/>
<path fill-rule="evenodd" clip-rule="evenodd" d="M60.0531 5.54927C59.4712 5.94389 59.0112 6.45022 58.6747 7.06682V5.08646H56.574V14.9346H58.6747V10.7142C58.6747 9.59124 58.9371 8.69608 59.4635 8.03016C59.9883 7.36424 60.7693 7.03055 61.8081 7.03055H61.9208L61.9023 4.93848C61.2509 4.95008 60.635 5.15465 60.0531 5.54927Z" fill="#22086C"/>
<path fill-rule="evenodd" clip-rule="evenodd" d="M81.8942 9.84513C81.533 9.62605 81.1965 9.45631 80.8832 9.33444C80.5683 9.21257 80.2457 9.10376 79.9123 9.00656C79.5789 8.90935 79.1946 8.81215 78.7608 8.71494C78.3271 8.61774 77.9906 8.51473 77.7498 8.40447C77.4025 8.25794 77.2296 8.02726 77.2296 7.71098C77.2296 7.35843 77.3963 7.09439 77.7297 6.91739C78.0631 6.74184 78.4969 6.65334 79.0309 6.65334C80.045 6.65334 80.9866 6.91448 81.8556 7.43823L82.6969 5.92358C81.6025 5.26636 80.4402 4.93848 79.2115 4.93848C77.9829 4.93848 76.9842 5.20978 76.2171 5.75093C75.4484 6.29208 75.0656 7.01314 75.0656 7.91264C75.0656 9.18936 76.1738 10.1019 78.3904 10.6489C78.4429 10.6605 78.5231 10.6851 78.6312 10.7214C80.0466 11.1102 80.7535 11.5484 80.7535 12.0344C80.7535 12.3623 80.6069 12.6336 80.3136 12.8454C80.0203 13.0587 79.619 13.1646 79.1112 13.1646C77.9489 13.1646 76.748 12.7395 75.5055 11.8879L74.4235 13.4751C75.064 13.9379 75.8018 14.2962 76.6369 14.5516C77.4704 14.8069 78.2761 14.9346 79.0495 14.9346C80.1979 14.9346 81.1394 14.6575 81.8741 14.1047C82.6089 13.552 82.9762 12.812 82.9762 11.8879C82.9762 10.9637 82.615 10.2833 81.8942 9.84513Z" fill="#22086C"/>
<path fill-rule="evenodd" clip-rule="evenodd" d="M53.5393 3.52998C52.5838 2.80167 51.0681 2.43896 48.9889 2.43896H44.2811V14.9348H46.5949V11.2701H49.0275C51.0418 11.2701 52.536 10.919 53.51 10.2153C54.4824 9.51168 54.9702 8.40326 54.9702 6.89006C54.9702 5.37831 54.4948 4.25538 53.5393 3.52998ZM51.9001 8.68617C51.437 9.13302 50.5633 9.35789 49.2822 9.35789H46.5949V4.34969H48.9503C50.2052 4.34969 51.1267 4.52959 51.7148 4.88794C52.3029 5.24629 52.5977 5.85708 52.5977 6.72032C52.5977 7.58355 52.3662 8.23932 51.9001 8.68617Z" fill="#22086C"/>
<path fill-rule="evenodd" clip-rule="evenodd" d="M88.5592 13.22C88.0514 13.22 87.6562 13.0865 87.3738 12.8224C87.0913 12.5569 86.9508 12.2015 86.9508 11.7532V6.98146H89.9144V5.39137H86.9508V2.43896H84.58V11.701C84.58 12.6904 84.9365 13.4768 85.6496 14.06C86.3612 14.6432 87.2225 14.9348 88.232 14.9348C89.2415 14.9348 90.1614 14.6229 90.9949 13.999L90.0209 12.6019C89.5548 13.0139 89.067 13.22 88.5592 13.22Z" fill="#22086C"/>
<path fill-rule="evenodd" clip-rule="evenodd" d="M99.4829 5.08209V6.76069C98.5907 5.5449 97.4577 4.93701 96.0824 4.93701C94.7071 4.93701 93.5124 5.38822 92.5045 6.28627C91.4966 7.18722 90.9918 8.3914 90.9918 9.8988C90.9918 11.4076 91.4842 12.622 92.4659 13.5476C93.4476 14.4703 94.6006 14.9331 95.9265 14.9331C96.581 14.9331 97.2324 14.7837 97.8807 14.4863C98.5305 14.1874 99.063 13.758 99.4829 13.2008V14.788H101.684V5.08064H99.4829V5.08209ZM98.6169 12.2433C98.0134 12.8352 97.2802 13.1298 96.4158 13.1298C95.5515 13.1298 94.7967 12.8367 94.1576 12.2549C93.514 11.6702 93.1929 10.9129 93.1929 9.98294C93.1929 9.05297 93.5093 8.27679 94.136 7.65874C94.7658 7.03779 95.519 6.72732 96.3973 6.72732C97.2756 6.72732 98.0134 7.03779 98.6169 7.65874C99.2205 8.27824 99.5214 9.05152 99.5214 9.97424C99.5214 10.8984 99.2205 11.6528 98.6169 12.2433Z" fill="#22086C"/>
<path fill-rule="evenodd" clip-rule="evenodd" d="M136.638 6.38929C135.568 5.42015 134.231 4.93848 132.627 4.93848C131.025 4.93848 129.689 5.4216 128.619 6.38929C127.549 7.35553 127.014 8.53649 127.014 9.93653C127.014 11.3366 127.549 12.5175 128.619 13.4838C129.689 14.4529 131.025 14.9346 132.627 14.9346C134.233 14.9346 135.569 14.4515 136.638 13.4838C137.707 12.5175 138.24 11.3366 138.24 9.93653C138.24 8.53649 137.707 7.35553 136.638 6.38929ZM135.043 12.2245C134.409 12.8164 133.603 13.1109 132.627 13.1109C131.652 13.1109 130.846 12.8164 130.212 12.2245C129.577 11.6354 129.261 10.8723 129.261 9.93653C129.261 8.9993 129.577 8.23763 130.212 7.6486C130.846 7.05957 131.652 6.76215 132.627 6.76215C133.603 6.76215 134.409 7.05957 135.043 7.6486C135.677 8.23763 135.995 9.00075 135.995 9.93653C135.995 10.8723 135.677 11.6354 135.043 12.2245Z" fill="#22086C"/>
<path fill-rule="evenodd" clip-rule="evenodd" d="M148.507 6.29788C147.51 5.39112 146.311 4.93701 144.909 4.93701C143.508 4.93701 142.376 5.55651 141.509 6.79405V5.08355H139.308V18.4325H141.509V13.3938C142.559 14.4732 143.741 15.0129 145.056 15.0129C146.374 15.0129 147.527 14.5414 148.517 13.5984C149.503 12.6524 150 11.428 150 9.91911C150 8.41171 149.501 7.20609 148.507 6.29788ZM146.834 12.2926C146.192 12.8802 145.439 13.1747 144.576 13.1747C143.71 13.1747 142.977 12.8773 142.375 12.2839C141.771 11.6891 141.47 10.926 141.47 9.9931C141.47 9.06313 141.771 8.28694 142.375 7.66889C142.975 7.0494 143.716 6.74182 144.594 6.74182C145.473 6.74182 146.226 7.05085 146.853 7.66889C147.482 8.28839 147.796 9.06603 147.796 10.0047C147.797 10.9405 147.476 11.7036 146.834 12.2926Z" fill="#22086C"/>
<path fill-rule="evenodd" clip-rule="evenodd" d="M121.571 4.73527C120.798 4.73527 120.075 4.91227 119.405 5.26482C118.736 5.61736 118.234 6.10194 117.902 6.71998V0.939941H115.581V14.9359H117.902V9.49684C117.902 8.56542 118.198 7.85742 118.793 7.3714C119.387 6.88683 120.085 6.64454 120.886 6.64454C122.571 6.64454 123.414 7.57016 123.414 9.4214V14.9374H125.736V8.78014C125.736 7.47005 125.353 6.47044 124.586 5.77695C123.82 5.08201 122.814 4.73527 121.571 4.73527Z" fill="#22086C"/>
<path fill-rule="evenodd" clip-rule="evenodd" d="M112.901 9.02231C112.183 8.43908 111.115 7.98498 109.7 7.66145C108.283 7.33792 107.358 7.0376 106.923 6.75759C106.488 6.47758 106.271 6.07426 106.271 5.54616C106.271 5.01807 106.489 4.62344 106.923 4.3623C107.358 4.10115 107.914 3.97058 108.593 3.97058C109.271 3.97058 109.959 4.08229 110.658 4.30572C111.356 4.52914 111.91 4.81495 112.318 5.16315L113.562 3.50487C112.929 3.00869 112.179 2.62277 111.31 2.34857C110.441 2.07436 109.564 1.93799 108.681 1.93799C107.31 1.93799 106.162 2.26442 105.233 2.91729C104.303 3.57015 103.839 4.49867 103.839 5.7043C103.839 6.90993 104.248 7.80508 105.064 8.38831C105.472 8.69878 105.941 8.94977 106.467 9.14273C106.994 9.33569 107.766 9.54605 108.78 9.77673C109.794 10.0074 110.508 10.2613 110.924 10.5413C111.339 10.8213 111.546 11.2116 111.546 11.7165C111.546 12.2199 111.325 12.6232 110.884 12.9279C110.442 13.2326 109.846 13.3849 109.095 13.3849C107.593 13.3849 106.143 12.8133 104.748 11.67L103.286 13.3283C104.959 14.7327 106.875 15.4349 109.036 15.4349C110.512 15.4349 111.703 15.0809 112.612 14.3729C113.521 13.6649 113.975 12.7422 113.975 11.6048C113.977 10.4659 113.619 9.60554 112.901 9.02231Z" fill="#22086C"/>
<path d="M46.5719 28.6269V35.0656H44.2643V18.6191H50.7178C52.6334 18.6191 54.1322 19.079 55.2188 19.9974C56.3039 20.9158 56.8472 22.1316 56.8472 23.6462C56.8472 25.2421 56.3163 26.4724 55.2543 27.3342C54.1924 28.1974 52.672 28.6269 50.6931 28.6269H46.5719ZM46.5719 26.854H50.7178C51.9511 26.854 52.8973 26.5798 53.5533 26.0328C54.2093 25.4858 54.5381 24.6951 54.5381 23.6622C54.5381 22.6814 54.2093 21.898 53.5533 21.3089C52.8958 20.7214 51.9943 20.4152 50.849 20.392H46.5703V26.854H46.5719Z" fill="url(#paint0_linear_1383_6002)"/>
<path d="M67.4869 35.0656C67.3588 34.8248 67.2538 34.3953 67.1751 33.7773C66.1409 34.7871 64.9076 35.2905 63.4737 35.2905C62.191 35.2905 61.1398 34.9496 60.3187 34.2677C59.4975 33.5858 59.0869 32.7226 59.0869 31.6751C59.0869 30.4027 59.6025 29.4147 60.632 28.7096C61.6615 28.006 63.1094 27.6534 64.9771 27.6534H67.138V26.693C67.138 25.9632 66.905 25.3814 66.4404 24.9477C65.9758 24.5153 65.2904 24.2977 64.3859 24.2977C63.5925 24.2977 62.9273 24.4863 62.3916 24.8621C61.8545 25.2393 61.5875 25.6948 61.5875 26.2287H59.3524C59.3524 25.6194 59.5824 25.0289 60.0439 24.4616C60.5054 23.8929 61.129 23.4432 61.9193 23.1109C62.7081 22.7801 63.5755 22.6147 64.5202 22.6147C66.019 22.6147 67.1921 22.9673 68.041 23.6709C68.89 24.376 69.3314 25.3452 69.3638 26.5798V32.2046C69.3638 33.3276 69.5166 34.2198 69.8207 34.8814V35.0627H67.4869V35.0656ZM63.7978 33.4726C64.4939 33.4726 65.1561 33.3029 65.7813 32.9649C66.4064 32.6268 66.8587 32.1858 67.1396 31.6432V29.1362H65.3969C62.6726 29.1362 61.3112 29.8848 61.3112 31.3835C61.3112 32.0378 61.5427 32.5514 62.0073 32.9199C62.4719 33.2884 63.0677 33.4726 63.7978 33.4726Z" fill="url(#paint1_linear_1383_6002)"/>
<path d="M77.0677 32.0027L80.0961 22.8423H82.4762L77.2483 36.95C76.4394 38.9826 75.1537 39.9996 73.3909 39.9996L72.9711 39.9662L72.1422 39.8197V38.1251L72.7427 38.1701C73.4959 38.1701 74.0825 38.0265 74.5023 37.7407C74.9221 37.4549 75.2694 36.9311 75.5411 36.1709L76.0335 34.9275L71.3951 22.8408H73.8231L77.0677 32.0027Z" fill="url(#paint2_linear_1383_6002)"/>
<path d="M87.022 35.0656H84.7993V17.7153H87.022V35.0656Z" fill="url(#paint3_linear_1383_6002)"/>
<path d="M98.7545 35.0656C98.6263 34.8248 98.5214 34.3953 98.4427 33.7773C97.4085 34.7871 96.1752 35.2905 94.7412 35.2905C93.4586 35.2905 92.4074 34.9496 91.5862 34.2677C90.7651 33.5858 90.3545 32.7226 90.3545 31.6751C90.3545 30.4027 90.8685 29.4147 91.898 28.7096C92.9276 28.006 94.3754 27.6534 96.2431 27.6534H98.4056V26.693C98.4056 25.9632 98.1725 25.3814 97.7079 24.9477C97.2433 24.5153 96.558 24.2977 95.6535 24.2977C94.8601 24.2977 94.1948 24.4863 93.6592 24.8621C93.1221 25.2393 92.855 25.6948 92.855 26.2287H90.62C90.62 25.6194 90.85 25.0289 91.3115 24.4616C91.7715 23.8929 92.3966 23.4432 93.1869 23.1109C93.9757 22.7801 94.8431 22.6147 95.7878 22.6147C97.2865 22.6147 98.4596 22.9673 99.3086 23.6709C100.158 24.376 100.599 25.3452 100.631 26.5798V32.2046C100.631 33.3276 100.784 34.2198 101.088 34.8814V35.0627H98.7545V35.0656ZM95.0638 33.4726C95.76 33.4726 96.4222 33.3029 97.0473 32.9649C97.6724 32.6268 98.1247 32.1858 98.4056 31.6432V29.1362H96.663C93.9386 29.1362 92.5772 29.8848 92.5772 31.3835C92.5772 32.0378 92.8087 32.5514 93.2733 32.9199C93.7379 33.2884 94.3353 33.4726 95.0638 33.4726Z" fill="url(#paint4_linear_1383_6002)"/>
<path d="M107.278 19.8843V22.8439H109.706V24.4587H107.278V32.0479C107.278 32.5383 107.386 32.9053 107.602 33.1505C107.818 33.3957 108.187 33.5176 108.707 33.5176C108.963 33.5176 109.315 33.4726 109.765 33.3826V35.067C109.18 35.2165 108.61 35.2919 108.057 35.2919C107.063 35.2919 106.315 35.009 105.81 34.4446C105.305 33.8788 105.052 33.078 105.052 32.0377V24.4587H102.684V22.8439H105.052V19.8843H107.278Z" fill="url(#paint5_linear_1383_6002)"/>
<path d="M117.845 35.2905C116.082 35.2905 114.648 34.7465 113.542 33.6584C112.436 32.5702 111.884 31.1151 111.884 29.2929V28.9084C111.884 27.6955 112.129 26.6132 112.622 25.66C113.114 24.7083 113.804 23.9626 114.688 23.4243C115.574 22.8861 116.533 22.6162 117.567 22.6162C119.257 22.6162 120.572 23.14 121.509 24.186C122.446 25.2335 122.915 26.7322 122.915 28.6821V29.5511H114.106C114.137 30.7567 114.512 31.7288 115.23 32.4716C115.946 33.213 116.859 33.5844 117.964 33.5844C118.749 33.5844 119.413 33.4335 119.958 33.1332C120.503 32.8314 120.98 32.4324 121.387 31.9362L122.746 32.93C121.658 34.5042 120.023 35.2905 117.845 35.2905ZM117.567 24.334C116.67 24.334 115.917 24.6415 115.307 25.2552C114.699 25.8689 114.323 26.7293 114.177 27.8362H120.691V27.6781C120.626 26.6161 120.322 25.7935 119.777 25.2103C119.234 24.6256 118.498 24.334 117.567 24.334Z" fill="url(#paint6_linear_1383_6002)"/>
<path d="M131.921 24.7185C131.584 24.6662 131.22 24.6401 130.826 24.6401C129.368 24.6401 128.378 25.2248 127.858 26.3912V35.0657H125.635V22.844H127.799L127.835 24.2556C128.563 23.1646 129.598 22.6177 130.934 22.6177C131.368 22.6177 131.695 22.6699 131.921 22.7758V24.7185Z" fill="url(#paint7_linear_1383_6002)"/>
<path fill-rule="evenodd" clip-rule="evenodd" d="M35.5185 2.35693H18.044H13.5338H10.3742C5.89788 2.35693 2.07915 5.02208 0.626678 8.76663C0.22227 9.80686 0 10.9356 0 12.1151V18.7337V35.1091H17.4806H21.9909H25.1428C29.6422 35.1091 33.4733 32.4163 34.9149 28.6558C35.307 27.6258 35.5246 26.5144 35.5246 25.3523V18.7337V2.36129L35.5185 2.35693Z" fill="url(#paint8_linear_1383_6002)"/>
<path opacity="0.9" d="M30.3338 19.684H18.7742V8.81885C25.1583 8.81885 30.3338 13.6834 30.3338 19.684Z" fill="white"/>
<path opacity="0.6" d="M18.7742 30.5478V19.6826H30.3338C30.3338 25.6832 25.1583 30.5478 18.7742 30.5478Z" fill="white"/>
<path opacity="0.3" d="M7.21606 19.6841H18.7757V30.5492C12.3916 30.5478 7.21606 25.6832 7.21606 19.6841Z" fill="white"/>
<path d="M16.7505 6.91699V17.7821H5.19092C5.19092 11.7816 10.3664 6.91699 16.7505 6.91699Z" fill="white"/>
<defs>
<linearGradient id="paint0_linear_1383_6002" x1="130.511" y1="26.8417" x2="25.6275" y2="26.8417" gradientUnits="userSpaceOnUse">
<stop stop-color="#FF9F2C"/>
<stop offset="0.2957" stop-color="#FFB631"/>
<stop offset="0.7431" stop-color="#FFD337"/>
<stop offset="0.9986" stop-color="#FFDE39"/>
</linearGradient>
<linearGradient id="paint1_linear_1383_6002" x1="130.511" y1="28.954" x2="25.6275" y2="28.954" gradientUnits="userSpaceOnUse">
<stop stop-color="#FF9F2C"/>
<stop offset="0.2957" stop-color="#FFB631"/>
<stop offset="0.7431" stop-color="#FFD337"/>
<stop offset="0.9986" stop-color="#FFDE39"/>
</linearGradient>
<linearGradient id="paint2_linear_1383_6002" x1="130.511" y1="31.4219" x2="25.6275" y2="31.4219" gradientUnits="userSpaceOnUse">
<stop stop-color="#FF9F2C"/>
<stop offset="0.2957" stop-color="#FFB631"/>
<stop offset="0.7431" stop-color="#FFD337"/>
<stop offset="0.9986" stop-color="#FFDE39"/>
</linearGradient>
<linearGradient id="paint3_linear_1383_6002" x1="130.511" y1="26.3898" x2="25.6275" y2="26.3898" gradientUnits="userSpaceOnUse">
<stop stop-color="#FF9F2C"/>
<stop offset="0.2957" stop-color="#FFB631"/>
<stop offset="0.7431" stop-color="#FFD337"/>
<stop offset="0.9986" stop-color="#FFDE39"/>
</linearGradient>
<linearGradient id="paint4_linear_1383_6002" x1="130.511" y1="28.954" x2="25.6275" y2="28.954" gradientUnits="userSpaceOnUse">
<stop stop-color="#FF9F2C"/>
<stop offset="0.2957" stop-color="#FFB631"/>
<stop offset="0.7431" stop-color="#FFD337"/>
<stop offset="0.9986" stop-color="#FFDE39"/>
</linearGradient>
<linearGradient id="paint5_linear_1383_6002" x1="130.511" y1="27.5873" x2="25.6276" y2="27.5873" gradientUnits="userSpaceOnUse">
<stop stop-color="#FF9F2C"/>
<stop offset="0.2957" stop-color="#FFB631"/>
<stop offset="0.7431" stop-color="#FFD337"/>
<stop offset="0.9986" stop-color="#FFDE39"/>
</linearGradient>
<linearGradient id="paint6_linear_1383_6002" x1="130.511" y1="28.954" x2="25.6275" y2="28.954" gradientUnits="userSpaceOnUse">
<stop stop-color="#FF9F2C"/>
<stop offset="0.2957" stop-color="#FFB631"/>
<stop offset="0.7431" stop-color="#FFD337"/>
<stop offset="0.9986" stop-color="#FFDE39"/>
</linearGradient>
<linearGradient id="paint7_linear_1383_6002" x1="130.511" y1="28.8411" x2="25.6275" y2="28.8411" gradientUnits="userSpaceOnUse">
<stop stop-color="#FF9F2C"/>
<stop offset="0.2957" stop-color="#FFB631"/>
<stop offset="0.7431" stop-color="#FFD337"/>
<stop offset="0.9986" stop-color="#FFDE39"/>
</linearGradient>
<linearGradient id="paint8_linear_1383_6002" x1="2.31192" y1="5.95951" x2="31.5268" y2="33.3025" gradientUnits="userSpaceOnUse">
<stop stop-color="#FF9F2C"/>
<stop offset="0.2957" stop-color="#FFB631"/>
<stop offset="0.7431" stop-color="#FFD337"/>
<stop offset="0.9986" stop-color="#FFDE39"/>
</linearGradient>
</defs>
</svg>
