<svg xmlns="http://www.w3.org/2000/svg" width="240" height="60">
    <path id="logo" fill="#81bc00" d="M195.34 22.656C195.262 10.2 185.207.066 172.898.066c-12.66 0-22.593 10.164-22.593 23.149 0 6.09 2.336 11.879 6.535 16.293 4.27 4.469 9.906 6.937 15.902 6.937 6.844 0 16.438-3.293 20.996-12.613a1.07 1.07 0 0 0 .117-.297h-9.175l-.051.063c-2.469 2.949-7.121 4.941-11.555 4.941-5.625 0-12.375-3.71-14.222-12.086h36.308c.078-.867.18-2.601.18-3.797zm-36.223-3.605c1.121-5.61 6.488-11.094 13.711-11.094 7.211 0 12.582 5.484 13.684 11.094zm-34.27-11.356c-8.187 0-12.343 4.387-12.343 13.067v25.703h-8.402V20.156c.078-4.61.898-7.87 2.777-10.933C109.109 5.785 114.395 0 124.848 0c10.422 0 15.722 5.785 17.945 9.223 1.867 3.062 2.71 6.324 2.762 10.933v26.309h-8.395V20.762c0-8.68-4.137-13.067-12.312-13.067zM239.017.012l-17.711 43.207-4.375 10.691-2.418 5.914h-8.73l6.777-16.594L194.457.012h9.23L216.935 32.5 230.214.012zM76.117 38.562c-8.262 0-14.984-6.718-14.984-15.292 0-8.579 6.722-15.313 14.984-15.313 8.211 0 14.973 6.734 14.973 15.313 0 8.574-6.762 15.293-14.973 15.293zm0-38.55c-12.996 0-23.176 10.207-23.176 23.258 0 13.035 10.18 23.257 23.176 23.257 12.969 0 23.145-10.222 23.145-23.257C99.262 10.219 89.086.012 76.117.012zM23.523.02C10.332.02 0 10.375 0 23.617 0 36.855 10.332 47.23 23.523 47.23c13.165 0 23.493-10.375 23.493-23.613C47.016 10.375 36.688.016 23.523.016"/>
    <path fill="#fff" d="M13.957 25.582c0 1.996 1.133 3.152 2.762 3.152 1.574 0 2.441-1.156 2.441-2.418 0-1.523-.707-2.546-2.703-2.546h-1.66v-3.282h1.66c1.89 0 2.438-.922 2.438-2.261 0-1.395-.864-2.047-2.098-2.047-1.813 0-2.336 1.074-2.336 2.68h-4.254c0-3.13 1.941-5.883 6.484-5.883 3.387 0 6.41 1.707 6.41 5.148 0 2.07-1.238 3.57-2.706 4.07 1.656.598 2.996 2.098 2.996 4.438 0 3.492-3.125 5.515-6.621 5.515-4.543 0-7.063-2.68-7.063-6.566zm24.164 6.172h-4.644l-2.079-3.68-2.07 3.68h-4.652l4.36-6.383-4.278-6.277h4.648l1.992 3.57 2-3.57h4.649l-4.254 6.277zm0 0"/>
</svg>