<svg width="150" height="23" xmlns="http://www.w3.org/2000/svg">
    <path fill="#81BC00" id="text" d="M94.676 10.472V7.884c0-.295.04-.538.123-.728.158-.36.449-.54.873-.54.345 0 .579.123.702.369.067.134.1.327.1.579v2.908h1.281v-3.22c0-.6-.157-1.028-.471-1.287-.315-.26-.719-.388-1.213-.388-.395 0-.721.096-.978.29-.144.107-.296.284-.457.53v-.698H93.43v4.773h1.246zm6.163.158c.737 0 1.31-.232 1.72-.697.263-.293.411-.58.443-.865h-1.276c-.068.14-.145.25-.233.33-.16.146-.37.219-.627.219-.243 0-.45-.06-.623-.18-.284-.193-.434-.53-.452-1.009h3.273a6.374 6.374 0 0 0-.04-.948 2.41 2.41 0 0 0-.364-.987 1.883 1.883 0 0 0-.79-.706 2.506 2.506 0 0 0-1.074-.224c-.67 0-1.215.221-1.635.663-.42.441-.63 1.076-.63 1.904 0 .883.233 1.52.698 1.912a2.425 2.425 0 0 0 1.61.588zm.926-3.027h-1.943c.04-.31.14-.555.3-.737.16-.181.384-.272.674-.272.266 0 .489.086.669.257.18.171.28.422.3.752zm4.05 3.032c.736 0 1.28-.15 1.633-.45.353-.3.529-.687.529-1.16 0-.36-.123-.66-.369-.9-.248-.237-.621-.414-1.118-.53-.746-.164-1.18-.28-1.303-.347a.326.326 0 0 1-.184-.312c0-.114.057-.213.173-.298.115-.085.31-.127.581-.127.33 0 .565.085.702.254a.74.74 0 0 1 .136.382h1.25c-.055-.585-.271-.997-.647-1.235-.376-.238-.862-.357-1.458-.357-.63 0-1.117.158-1.463.476-.347.317-.52.696-.52 1.138 0 .374.11.66.333.86.222.202.604.37 1.145.504.752.179 1.186.304 1.303.378.117.073.175.18.175.32 0 .146-.072.256-.217.329-.144.073-.34.11-.585.11-.419 0-.705-.084-.86-.25-.088-.094-.145-.252-.171-.474h-1.268c0 .491.18.895.537 1.213.359.317.914.476 1.665.476zm4.996 0c.737 0 1.281-.15 1.634-.45.352-.3.528-.687.528-1.16 0-.36-.122-.66-.368-.9-.249-.237-.621-.414-1.119-.53-.745-.164-1.18-.28-1.303-.347a.326.326 0 0 1-.184-.312c0-.114.058-.213.173-.298.116-.085.31-.127.582-.127.33 0 .564.085.702.254a.74.74 0 0 1 .136.382h1.25c-.056-.585-.271-.997-.647-1.235-.376-.238-.862-.357-1.459-.357-.629 0-1.116.158-1.463.476-.346.317-.52.696-.52 1.138 0 .374.111.66.334.86.222.202.604.37 1.145.504.751.179 1.186.304 1.303.378.117.073.175.18.175.32 0 .146-.072.256-.217.329-.145.073-.34.11-.586.11-.418 0-.705-.084-.86-.25-.087-.094-.144-.252-.17-.474h-1.268c0 .491.179.895.537 1.213.358.317.913.476 1.665.476zm4.69-.057c.245 0 .46-.033.642-.097.183-.064.372-.184.568-.36a.88.88 0 0 0 .167-.193c.047-.073.076-.117.088-.131v.675h1.215V5.691h-1.268v2.601c0 .307-.041.554-.123.741-.158.345-.45.518-.877.518-.334 0-.557-.121-.671-.364-.065-.138-.097-.342-.097-.614V5.69h-1.281v2.882c0 .547.069.96.206 1.241.246.51.723.764 1.43.764zm5.14-.106V7.884c0-.295.042-.538.124-.728.158-.36.448-.54.873-.54.345 0 .579.123.701.369.068.134.101.327.101.579v2.908h1.281v-3.22c0-.6-.157-1.028-.471-1.287-.315-.26-.719-.388-1.213-.388-.395 0-.721.096-.979.29-.143.107-.295.284-.456.53v-.698h-1.206v4.773h1.246zm5.405.15c.34 0 .644-.078.913-.233.225-.132.424-.291.596-.478.01.108.02.204.036.29.014.084.04.175.079.271h1.36v-.184a.448.448 0 0 1-.185-.145c-.04-.058-.066-.17-.074-.333-.006-.217-.01-.4-.01-.553V7.064c0-.576-.202-.968-.609-1.176-.406-.208-.871-.311-1.395-.311-.804 0-1.372.21-1.702.631-.208.27-.325.613-.351 1.031h1.206a.912.912 0 0 1 .176-.439c.123-.146.332-.219.627-.219.263 0 .463.037.599.112.136.075.204.21.204.406 0 .16-.09.28-.268.355-.1.044-.264.08-.495.11l-.426.052c-.482.062-.848.164-1.097.307-.453.264-.68.69-.68 1.277 0 .453.142.804.424 1.05.282.248.64.371 1.072.371zm.369-.909a.669.669 0 0 1-.432-.142c-.119-.095-.178-.25-.178-.463 0-.24.097-.417.29-.53.114-.068.302-.125.566-.172l.28-.053a2 2 0 0 0 .331-.085c.08-.03.16-.071.24-.12v.464c-.01.418-.127.707-.354.864a1.273 1.273 0 0 1-.743.237zM95.39 20.622c.77 0 1.35-.274 1.743-.82.245-.34.383-.7.412-1.08h-1.277a1.18 1.18 0 0 1-.223.614c-.123.158-.33.237-.623.237-.413 0-.693-.199-.843-.597-.082-.213-.122-.495-.122-.846 0-.369.04-.664.122-.886.155-.419.443-.628.865-.628.295 0 .513.097.653.29.097.143.157.304.18.482h1.281c-.07-.681-.296-1.156-.678-1.425-.381-.27-.872-.404-1.472-.404-.704 0-1.257.228-1.658.684-.4.457-.6 1.096-.6 1.917 0 .729.18 1.32.543 1.777.363.456.929.685 1.698.685zm5.177 0c.822 0 1.435-.25 1.839-.748.403-.5.605-1.1.605-1.801 0-.69-.202-1.289-.605-1.794-.404-.506-1.017-.76-1.839-.76-.821 0-1.434.254-1.838.76-.403.505-.605 1.104-.605 1.794 0 .702.202 1.302.605 1.8.404.5 1.017.749 1.838.749zm-.004-1.049c-.366 0-.647-.13-.844-.39-.198-.26-.297-.63-.297-1.11 0-.48.1-.85.297-1.108.197-.259.478-.388.844-.388s.646.13.842.388c.196.259.294.628.294 1.108 0 .48-.098.85-.294 1.11-.196.26-.476.39-.842.39zm4.589.882v-2.878c0-.26.033-.456.1-.588.123-.23.363-.346.72-.346.307 0 .513.115.619.346.058.129.087.335.087.619v2.847h1.26v-2.847c0-.214.033-.397.1-.549.132-.286.37-.43.715-.43.299 0 .503.112.614.334a1 1 0 0 1 .088.447v3.045h1.281l.009-3.014c0-.31-.015-.545-.044-.706a1.39 1.39 0 0 0-.83-1.044 1.664 1.664 0 0 0-.622-.123 1.86 1.86 0 0 0-.86.197 1.59 1.59 0 0 0-.61.619 1.403 1.403 0 0 0-.412-.575c-.225-.16-.52-.241-.886-.241-.386 0-.7.093-.943.28-.138.106-.284.283-.439.531v-.697h-1.215v4.773h1.268zm7.988 0v-2.878c0-.26.034-.456.101-.588.123-.23.363-.346.72-.346.307 0 .513.115.618.346.059.129.088.335.088.619v2.847h1.259v-2.847c0-.214.033-.397.1-.549.132-.286.37-.43.716-.43.298 0 .503.112.614.334a1 1 0 0 1 .088.447v3.045h1.28l.01-3.014c0-.31-.015-.545-.044-.706a1.39 1.39 0 0 0-.83-1.044 1.664 1.664 0 0 0-.622-.123 1.86 1.86 0 0 0-.86.197 1.59 1.59 0 0 0-.61.619 1.403 1.403 0 0 0-.412-.575c-.226-.16-.521-.241-.887-.241-.386 0-.7.093-.943.28-.137.106-.283.283-.438.531v-.697h-1.216v4.773h1.268zm8.028-5.352v-1.154H119.9v1.154h1.268zm0 5.352v-4.782H119.9v4.782h1.268zm3.12.162c.736 0 1.28-.15 1.633-.45.353-.3.529-.686.529-1.16 0-.36-.123-.66-.369-.9-.248-.236-.621-.413-1.118-.53-.746-.164-1.18-.28-1.303-.347a.326.326 0 0 1-.184-.311c0-.114.057-.213.173-.298.115-.085.31-.128.581-.128.33 0 .565.085.702.255a.74.74 0 0 1 .136.382h1.25c-.055-.585-.27-.997-.647-1.235-.376-.239-.862-.358-1.458-.358-.63 0-1.117.159-1.463.476-.347.317-.52.697-.52 1.139 0 .374.11.66.333.86.222.201.604.37 1.145.504.752.178 1.186.304 1.303.377.117.073.176.18.176.32 0 .147-.073.256-.218.33-.144.072-.34.109-.585.109-.418 0-.705-.083-.86-.25-.088-.094-.145-.252-.171-.474h-1.268c0 .492.18.896.537 1.213.359.317.914.476 1.665.476zm4.996 0c.737 0 1.282-.15 1.634-.45.352-.3.529-.686.529-1.16 0-.36-.123-.66-.369-.9-.248-.236-.621-.413-1.119-.53-.745-.164-1.18-.28-1.302-.347a.326.326 0 0 1-.185-.311c0-.114.058-.213.174-.298.115-.085.309-.128.58-.128.331 0 .565.085.703.255a.74.74 0 0 1 .136.382h1.25c-.056-.585-.271-.997-.647-1.235-.376-.239-.862-.358-1.459-.358-.628 0-1.116.159-1.463.476-.346.317-.52.697-.52 1.139 0 .374.112.66.334.86.222.201.604.37 1.145.504.751.178 1.186.304 1.303.377.117.073.175.18.175.32 0 .147-.072.256-.217.33-.145.072-.34.109-.586.109-.418 0-.704-.083-.86-.25-.087-.094-.144-.252-.17-.474h-1.268c0 .492.179.896.537 1.213.358.317.913.476 1.665.476zm4.374-5.514v-1.154h-1.268v1.154h1.268zm0 5.352v-4.782h-1.268v4.782h1.268zm3.36.167c.822 0 1.434-.25 1.838-.748.404-.5.605-1.1.605-1.801 0-.69-.201-1.289-.605-1.794-.404-.506-1.016-.76-1.838-.76-.822 0-1.435.254-1.838.76-.404.505-.606 1.104-.606 1.794 0 .702.202 1.302.606 1.8.403.5 1.016.749 1.838.749zm-.004-1.049c-.366 0-.648-.13-.845-.39-.197-.26-.296-.63-.296-1.11 0-.48.099-.85.296-1.108.197-.259.479-.388.845-.388.365 0 .646.13.842.388.196.259.294.628.294 1.108 0 .48-.098.85-.294 1.11-.196.26-.477.39-.842.39zm4.597.882v-2.588c0-.296.04-.539.123-.729.158-.36.449-.54.873-.54.345 0 .579.124.702.37.067.134.1.327.1.578v2.909h1.282v-3.22c0-.6-.158-1.029-.472-1.288-.314-.259-.719-.388-1.213-.388-.395 0-.72.097-.978.29-.144.108-.296.285-.457.53v-.697h-1.206v4.773h1.246zm6.164.158c.737 0 1.31-.233 1.72-.698.262-.292.41-.58.442-.864h-1.276c-.068.14-.145.25-.233.329-.16.146-.37.22-.627.22-.243 0-.45-.06-.623-.18-.284-.193-.434-.53-.452-1.01h3.273a6.374 6.374 0 0 0-.04-.947 2.41 2.41 0 0 0-.364-.987 1.883 1.883 0 0 0-.79-.706 2.506 2.506 0 0 0-1.074-.224c-.67 0-1.215.22-1.634.662-.42.442-.63 1.077-.63 1.904 0 .883.233 1.521.698 1.913a2.425 2.425 0 0 0 1.61.588zm.925-3.027h-1.943c.04-.31.14-.556.3-.737.16-.182.384-.272.674-.272.266 0 .489.085.669.256.18.172.28.422.3.753z"/>
    <path id="logo" fill="#81BC00" d="M28.972.042c-4.945 0-8.813 3.902-8.813 8.887s3.874 8.894 8.813 8.894c4.932 0 8.8-3.909 8.8-8.894.007-4.985-3.868-8.887-8.8-8.887m0 14.74c-3.144 0-5.697-2.567-5.697-5.846 0-3.28 2.56-5.852 5.697-5.852 3.124 0 5.69 2.573 5.69 5.852.007 3.272-2.566 5.845-5.69 5.845M90.924.042 84.19 16.557l-1.662 4.09-.919 2.26h-3.318l2.574-6.343L73.98.042h3.505l5.037 12.418L87.57.042h3.353zm-43.42 2.937c-3.11 0-4.696 1.678-4.696 4.992v9.824h-3.193V7.74c.028-1.762.341-3.006 1.058-4.181.848-1.315 2.859-3.524 6.83-3.524 3.965 0 5.983 2.21 6.824 3.524.71 1.168 1.03 2.42 1.05 4.181v10.055h-3.192V7.97c0-3.314-1.572-4.992-4.682-4.992M60.54 7.32c.425-2.147 2.47-4.244 5.217-4.244 2.741 0 4.786 2.097 5.204 4.244H60.54zm13.773 1.377C74.285 3.937 70.46.063 65.777.063c-4.813 0-8.59 3.888-8.59 8.852 0 2.328.89 4.538 2.483 6.23 1.628 1.706 3.77 2.65 6.045 2.65 2.601 0 6.253-1.259 7.985-4.818.035-.077.042-.112.042-.112H70.25l-.02.021c-.94 1.126-2.707 1.888-4.39 1.888-2.143 0-4.71-1.42-5.412-4.621h13.808c.042-.336.076-1 .076-1.455M8.946 0C3.93 0 0 3.958 0 9.027c0 5.055 3.93 9.027 8.946 9.027 5.008 0 8.931-3.965 8.931-9.027 0-5.07-3.93-9.027-8.931-9.027" />
    <path id="number"  fill="#FFF" d="M5.308 9.768c0 .762.43 1.203 1.05 1.203.598 0 .932-.44.932-.923 0-.58-.271-.972-1.03-.972h-.632V7.824h.633c.716 0 .925-.35.925-.867 0-.531-.327-.783-.8-.783-.689 0-.89.413-.89 1.02H3.881c0-1.195.737-2.25 2.469-2.25 1.287 0 2.435.65 2.435 1.964 0 .79-.466 1.364-1.03 1.56.633.23 1.14.804 1.14 1.698 0 1.336-1.189 2.105-2.517 2.105-1.725 0-2.685-1.02-2.685-2.51h1.614v.007zM14.497 12.131H12.73l-.793-1.405-.786 1.405H9.384l1.655-2.44-1.627-2.398h1.767l.758 1.363.765-1.363h1.767L12.848 9.69z"/>
    <path id="underline" stroke="#81BC00" stroke-width=".699" stroke-linecap="round" d="M93.956 12.132h35.466M93.956 22.067h55.191"/>
</svg>