<svg width="150" height="40" xmlns="http://www.w3.org/2000/svg">
   <path id="logo" fill="#81bc00" d="M66.387.057c-6.675 0-11.895 5.265-11.895 11.994 0 6.728 5.229 12.004 11.895 12.004 6.656 0 11.876-5.276 11.876-12.004.01-6.729-5.22-11.994-11.876-11.994m0 19.893c-4.244 0-7.69-3.464-7.69-7.89s3.456-7.898 7.69-7.898c4.215 0 7.68 3.472 7.68 7.898.009 4.417-3.465 7.89-7.68 7.89M150 .057l-9.088 22.29-2.244 5.52-1.24 3.048h-4.477l3.473-8.559-9.294-22.3h4.732l6.797 16.76 6.816-16.76H150zM91.398 4.02c-4.197 0-6.338 2.265-6.338 6.738v13.259h-4.309v-13.57c.038-2.378.46-4.058 1.427-5.644C83.323 3.03 86.037.047 91.398.047c5.35 0 8.074 2.982 9.21 4.756.957 1.576 1.389 3.266 1.417 5.644v13.57h-4.31V10.758c0-4.473-2.12-6.738-6.317-6.738m17.593 5.86c.573-2.897 3.333-5.728 7.042-5.728 3.699 0 6.459 2.831 7.022 5.728h-14.064zm18.59 1.86C127.542 5.313 122.378.085 116.06.085c-6.497 0-11.595 5.247-11.595 11.947 0 3.143 1.202 6.125 3.352 8.408 2.197 2.303 5.088 3.577 8.158 3.577 3.512 0 8.44-1.699 10.778-6.502a.813.813 0 0 0 .057-.151h-4.713l-.029.028c-1.267 1.52-3.652 2.548-5.924 2.548-2.891 0-6.356-1.915-7.304-6.238h18.636c.057-.453.103-1.35.103-1.962M39.358 0c6.75 0 12.054 5.341 12.054 12.183 0 6.832-5.295 12.183-12.054 12.183-6.77 0-12.074-5.36-12.074-12.183C27.284 5.341 32.59 0 39.358 0z"/>
    <path id="logo_2" fill="#81bc00" d="M12.11 0c6.772 0 12.092 5.341 12.092 12.183 0 6.832-5.311 12.183-12.091 12.183C5.32 24.366 0 19.006 0 12.183 0 5.341 5.32 0 12.11 0z"/>
    <path id="text" fill="#81bc00" d="M4.872 36.857V33.4c0-.395.054-.719.164-.973.21-.48.6-.72 1.166-.72.46 0 .773.164.937.492.09.18.135.437.135.773v3.885h1.71v-4.3c0-.802-.21-1.375-.629-1.72-.42-.346-.96-.52-1.62-.52-.528 0-.963.13-1.307.388-.191.144-.394.38-.61.709v-.932h-1.61v6.375h1.664zm8.232.21c.984 0 1.75-.31 2.297-.93.351-.391.549-.776.592-1.155h-1.705c-.09.187-.194.334-.311.44-.215.195-.494.292-.838.292-.324 0-.601-.08-.832-.24-.379-.258-.58-.707-.603-1.348h4.37c.008-.55-.01-.972-.052-1.265-.074-.5-.236-.94-.486-1.319a2.515 2.515 0 0 0-1.055-.943 3.347 3.347 0 0 0-1.436-.299c-.894 0-1.622.295-2.182.885-.56.59-.841 1.438-.841 2.543 0 1.18.31 2.031.932 2.555a3.239 3.239 0 0 0 2.15.785zm1.236-4.042h-2.595c.054-.414.188-.742.401-.985.213-.242.513-.363.9-.363.355 0 .653.114.893.343.24.228.374.563.401 1.005zm5.409 4.049c.984 0 1.711-.2 2.182-.6.47-.401.706-.918.706-1.55 0-.481-.164-.882-.492-1.202-.332-.316-.83-.553-1.494-.709-.996-.219-1.576-.373-1.74-.463a.436.436 0 0 1-.246-.416c0-.152.077-.285.231-.398.154-.113.413-.17.776-.17.442 0 .754.113.938.34a.988.988 0 0 1 .181.51h1.67c-.074-.782-.362-1.332-.864-1.65-.502-.318-1.151-.477-1.948-.477-.84 0-1.491.211-1.954.635-.463.424-.695.93-.695 1.52 0 .5.149.884.446 1.15.297.269.806.493 1.53.673 1.003.238 1.583.406 1.74.504.156.098.234.24.234.428 0 .195-.097.341-.29.44-.194.097-.454.146-.783.146-.558 0-.941-.112-1.148-.334-.117-.125-.193-.336-.229-.633h-1.693c0 .656.24 1.196.718 1.62.478.424 1.22.636 2.224.636zm6.673 0c.985 0 1.712-.2 2.183-.6.47-.401.706-.918.706-1.55 0-.481-.164-.882-.492-1.202-.332-.316-.83-.553-1.494-.709-.996-.219-1.576-.373-1.74-.463a.436.436 0 0 1-.247-.416c0-.152.078-.285.232-.398.154-.113.413-.17.776-.17.442 0 .754.113.938.34a.988.988 0 0 1 .181.51h1.67c-.074-.782-.362-1.332-.864-1.65-.502-.318-1.151-.477-1.948-.477-.84 0-1.491.211-1.954.635-.463.424-.695.93-.695 1.52 0 .5.149.884.446 1.15.296.269.806.493 1.529.673 1.004.238 1.584.406 1.74.504.156.098.235.24.235.428 0 .195-.097.341-.29.44-.194.097-.455.146-.783.146-.558 0-.941-.112-1.148-.334-.117-.125-.194-.336-.229-.633h-1.693c0 .656.24 1.196.718 1.62.478.424 1.22.636 2.223.636zm6.264-.076c.328 0 .614-.043.858-.13.245-.085.497-.245.76-.48.085-.074.16-.16.222-.258.062-.097.101-.156.117-.175v.902h1.623V30.47h-1.693v3.475c0 .41-.055.74-.164.99-.211.46-.602.691-1.172.691-.446 0-.744-.162-.897-.486-.086-.184-.129-.457-.129-.82v-3.85h-1.71v3.85c0 .73.091 1.283.275 1.658.328.68.965 1.02 1.91 1.02zm6.867-.141V33.4c0-.395.055-.719.164-.973.211-.48.6-.72 1.166-.72.461 0 .774.164.938.492.09.18.135.437.135.773v3.885h1.71v-4.3c0-.802-.21-1.375-.63-1.72-.42-.346-.96-.52-1.62-.52-.527 0-.962.13-1.306.388-.192.144-.395.38-.61.709v-.932h-1.61v6.375h1.663zm7.219.2c.453 0 .86-.104 1.219-.311.3-.176.566-.39.797-.64.011.145.027.274.046.388.02.113.055.234.106.363h1.816v-.246a.599.599 0 0 1-.246-.194c-.054-.078-.088-.226-.1-.445-.007-.289-.011-.535-.011-.738v-2.93c0-.77-.272-1.293-.815-1.57-.543-.278-1.164-.416-1.863-.416-1.074 0-1.832.281-2.273.844-.278.359-.434.818-.469 1.377h1.611c.04-.247.117-.442.235-.586.164-.196.443-.293.838-.293.351 0 .618.05.8.149.181.1.272.28.272.542 0 .215-.12.373-.358.475-.132.058-.353.107-.662.146l-.568.07c-.645.082-1.133.22-1.465.41-.605.352-.908.92-.908 1.706 0 .605.188 1.073.565 1.403.377.33.855.495 1.433.495zm.492-1.214a.893.893 0 0 1-.577-.19c-.158-.127-.237-.333-.237-.618 0-.32.129-.557.386-.71.153-.09.405-.165.756-.228l.375-.07a2.67 2.67 0 0 0 .443-.114c.107-.041.214-.095.319-.162v.622c-.012.558-.169.943-.472 1.154a1.7 1.7 0 0 1-.993.316zm10.582 1.237c1.028 0 1.803-.366 2.326-1.096.328-.453.512-.934.551-1.442h-1.705c-.035.336-.135.61-.299.82-.164.212-.441.317-.832.317-.55 0-.926-.265-1.125-.797-.11-.285-.164-.662-.164-1.13 0-.493.055-.887.164-1.184.207-.559.592-.838 1.154-.838.395 0 .686.129.874.387.128.191.209.406.24.644h1.71c-.093-.91-.395-1.545-.905-1.904-.51-.36-1.165-.54-1.965-.54-.942 0-1.68.306-2.215.915-.535.61-.803 1.463-.803 2.56 0 .973.242 1.764.727 2.373.484.61 1.24.915 2.267.915zm6.914 0c1.098 0 1.916-.333 2.455-1 .54-.666.809-1.467.809-2.405 0-.922-.27-1.72-.809-2.396-.539-.676-1.357-1.014-2.455-1.014-1.097 0-1.916.338-2.455 1.014-.539.676-.808 1.474-.808 2.396 0 .938.27 1.74.808 2.406.54.666 1.358.999 2.455.999zm-.006-1.4c-.488 0-.864-.175-1.128-.522-.263-.348-.395-.842-.395-1.483 0-.64.132-1.134.395-1.48.264-.345.64-.518 1.128-.518.489 0 .864.173 1.125.519.262.345.393.839.393 1.48 0 .64-.13 1.134-.393 1.482-.261.347-.636.521-1.125.521zm6.13 1.177v-3.844c0-.348.044-.61.134-.785.164-.309.484-.463.961-.463.41 0 .686.154.826.463.078.172.117.447.117.826v3.803h1.682v-3.803c0-.285.045-.53.135-.732.176-.383.494-.574.955-.574.398 0 .672.148.82.445.078.156.117.355.117.597v4.067h1.711l.012-4.026c0-.414-.02-.728-.059-.943a1.835 1.835 0 0 0-.363-.82 1.856 1.856 0 0 0-.744-.574 2.223 2.223 0 0 0-.832-.164c-.422 0-.805.087-1.149.263-.324.176-.595.451-.814.826a1.875 1.875 0 0 0-.55-.767c-.302-.215-.696-.322-1.184-.322-.516 0-.936.125-1.26.375-.184.14-.379.376-.586.709v-.932H69.19v6.375h1.693zm10.67 0v-3.844c0-.348.044-.61.134-.785.164-.309.484-.463.96-.463.411 0 .686.154.827.463.078.172.117.447.117.826v3.803h1.682v-3.803c0-.285.045-.53.135-.732.175-.383.494-.574.955-.574.398 0 .672.148.82.445.078.156.117.355.117.597v4.067h1.711l.012-4.026c0-.414-.02-.728-.059-.943a1.835 1.835 0 0 0-.363-.82 1.856 1.856 0 0 0-.744-.574 2.223 2.223 0 0 0-.832-.164c-.422 0-.805.087-1.149.263-.324.176-.595.451-.814.826a1.875 1.875 0 0 0-.55-.767c-.302-.215-.696-.322-1.184-.322-.516 0-.936.125-1.26.375-.184.14-.38.376-.586.709v-.932H79.86v6.375h1.693zm10.722-7.149v-1.54h-1.694v1.54h1.694zm0 7.149V30.47h-1.694v6.387h1.694zm4.166.217c.984 0 1.712-.2 2.182-.6.471-.401.707-.918.707-1.55 0-.481-.165-.882-.493-1.202-.332-.316-.83-.553-1.494-.709-.996-.219-1.576-.373-1.74-.463a.436.436 0 0 1-.246-.416c0-.152.077-.285.231-.398.155-.113.413-.17.777-.17.441 0 .754.113.937.34a.988.988 0 0 1 .182.51h1.67c-.074-.782-.363-1.332-.864-1.65-.502-.318-1.152-.477-1.949-.477-.84 0-1.49.211-1.954.635-.463.424-.694.93-.694 1.52 0 .5.148.884.445 1.15.297.269.807.493 1.53.673 1.003.238 1.583.406 1.74.504.156.098.234.24.234.428 0 .195-.097.341-.29.44-.193.097-.454.146-.782.146-.559 0-.942-.112-1.149-.334-.117-.125-.193-.336-.228-.633H93.5c0 .656.24 1.196.718 1.62.479.424 1.22.636 2.224.636zm6.674 0c.984 0 1.712-.2 2.182-.6.471-.401.706-.918.706-1.55 0-.481-.164-.882-.492-1.202-.332-.316-.83-.553-1.494-.709-.996-.219-1.576-.373-1.74-.463a.436.436 0 0 1-.246-.416c0-.152.077-.285.231-.398.154-.113.413-.17.777-.17.44 0 .753.113.937.34a.988.988 0 0 1 .182.51h1.67c-.075-.782-.363-1.332-.865-1.65-.502-.318-1.151-.477-1.948-.477-.84 0-1.491.211-1.954.635-.463.424-.694.93-.694 1.52 0 .5.148.884.445 1.15.297.269.807.493 1.53.673 1.003.238 1.583.406 1.74.504.156.098.234.24.234.428 0 .195-.097.341-.29.44-.194.097-.454.146-.782.146-.559 0-.942-.112-1.149-.334-.117-.125-.193-.336-.228-.633h-1.694c0 .656.24 1.196.718 1.62.479.424 1.22.636 2.224.636zm5.841-7.366v-1.54h-1.693v1.54h1.693zm0 7.149V30.47h-1.693v6.387h1.693zm4.489.223c1.097 0 1.916-.333 2.455-1 .539-.666.808-1.467.808-2.405 0-.922-.27-1.72-.808-2.396-.54-.676-1.358-1.014-2.455-1.014-1.098 0-1.916.338-2.455 1.014-.54.676-.809 1.474-.809 2.396 0 .938.27 1.74.809 2.406.539.666 1.357.999 2.455.999zm-.006-1.4c-.488 0-.864-.175-1.128-.522-.264-.348-.396-.842-.396-1.483 0-.64.132-1.134.396-1.48.264-.345.64-.518 1.128-.518.488 0 .863.173 1.125.519.262.345.392.839.392 1.48 0 .64-.13 1.134-.392 1.482-.262.347-.637.521-1.125.521zm6.14 1.177V33.4c0-.395.055-.719.165-.973.21-.48.6-.72 1.166-.72.46 0 .773.164.937.492.09.18.135.437.135.773v3.885h1.71v-4.3c0-.802-.21-1.375-.63-1.72-.419-.346-.959-.52-1.62-.52-.527 0-.962.13-1.306.388-.191.144-.394.38-.61.709v-.932h-1.61v6.375h1.664zm8.233.21c.984 0 1.75-.31 2.297-.93.351-.391.549-.776.592-1.155h-1.705c-.09.187-.194.334-.311.44-.215.195-.494.292-.838.292-.324 0-.601-.08-.832-.24-.379-.258-.58-.707-.603-1.348h4.37c.008-.55-.01-.972-.052-1.265-.074-.5-.236-.94-.486-1.319a2.515 2.515 0 0 0-1.055-.943 3.347 3.347 0 0 0-1.436-.299c-.894 0-1.622.295-2.182.885-.56.59-.841 1.438-.841 2.543 0 1.18.31 2.031.932 2.555a3.239 3.239 0 0 0 2.15.785zm1.236-4.042h-2.595c.054-.414.188-.742.401-.985.213-.242.513-.363.9-.363.355 0 .653.114.893.343.24.228.374.563.401 1.005z"/>
    <path stroke="#81BC00" id="underline" stroke-linecap="round" d="M4.394 39.5h127.153"/>
    <path fill="#fff" d="M34.089 7.306h-2.264v7.061h3.91v2.693h2.255v-2.693h1.19V12.46h-1.19V9.767h-2.255v2.692h-1.646zm8.304 2.434H40.01l2.197 3.236-2.235 3.294h2.385l1.06-1.897 1.07 1.897h2.386l-2.225-3.294 2.187-3.236h-2.385l-1.032 1.84z" />
    <path fill="#fff" d="M8.994 6.005c-2.338 0-3.333 3.038-3.333 3.038H7.84c0-.82.273-1.377 1.202-1.377.638 0 1.08.34 1.08 1.057 0 .698-.282 1.17-1.249 1.17h-.854v1.689h.854c1.023 0 1.39.528 1.39 1.312 0 .65-.451 1.245-1.258 1.245-.836 0-1.418-1.623-1.418-1.623v-.01H5.408c0 2.01 1.295 3.389 3.624 3.389 1.793 0 3.398-1.038 3.398-2.84 0-1.209-.685-1.983-1.54-2.294.761-.264 1.39-1.038 1.39-2.105 0-1.774-1.549-2.651-3.286-2.651zm6.516 3.17h-2.385l2.197 3.237-2.235 3.294h2.385l1.061-1.897 1.07 1.897h2.385l-2.225-3.294 2.187-3.237h-2.384l-1.033 1.84z" />
</svg>