<?xml version="1.0" encoding="UTF-8"?>
<svg width="250px" height="35px" viewBox="0 0 500 50" version="1.1" xmlns="http://www.w3.org/2000/svg" xmlns:xlink="http://www.w3.org/1999/xlink">
    <title>Oney3x4x-vertical IT</title>
    <g id="Oney3x4x-vertical-IT" stroke="none" stroke-width="1" fill="none" fill-rule="evenodd">
        <g id="Group-2-Copy-2" transform="translate(56.000000, 0.000000)" fill-rule="nonzero">
            <g id="Group">
                <path d="M79.6843617,0.115384615 C66.0815811,0.115384615 55.444245,10.8461538 55.444245,24.5576923 C55.444245,38.2692308 66.100713,49.0192308 79.6843617,49.0192308 C93.2488785,49.0192308 103.88624,38.2692308 103.88624,24.5576923 C103.905347,10.8461538 93.2488785,0.115384615 79.6843617,0.115384615 M79.6843617,40.6538462 C71.0367431,40.6538462 64.015336,33.5961538 64.015336,24.5769231 C64.015336,15.5576923 71.055875,8.48076923 79.6843617,8.48076923 C88.2745846,8.48076923 95.3342943,15.5576923 95.3342943,24.5769231 C95.3533875,33.5769231 88.2745846,40.6538462 79.6843617,40.6538462 M250.073059,0.115384615 L231.553381,45.5384615 L226.980857,56.7884615 L224.455446,63 L215.32953,63 L222.408333,45.5576923 L203.467752,0.115384615 L213.110229,0.115384615 L226.961725,34.2692308 L240.851484,0.115384615 L250.073059,0.115384615 Z M130.651742,8.19230769 C122.099783,8.19230769 117.73771,12.8076923 117.73771,21.9230769 L117.73771,48.9423077 L108.956168,48.9423077 L108.956168,21.2884615 C109.032696,16.4423077 109.893631,13.0192308 111.864217,9.78846154 C114.198309,6.17307692 119.727428,0.0961538462 130.651742,0.0961538462 C141.556925,0.0961538462 147.105176,6.17307692 149.420136,9.78846154 C151.371589,13 152.251657,16.4423077 152.309053,21.2884615 L152.309053,48.9423077 L143.527511,48.9423077 L143.527511,21.9230769 C143.527511,12.8076923 139.203701,8.19230769 130.651742,8.19230769 M166.504922,20.1346154 C167.671968,14.2307692 173.296746,8.46153846 180.853847,8.46153846 C188.391815,8.46153846 194.016594,14.2307692 195.164508,20.1346154 L166.504922,20.1346154 Z M204.386083,23.9230769 C204.309556,10.8269231 193.787011,0.173076923 180.911242,0.173076923 C167.671968,0.173076923 157.283346,10.8653846 157.283346,24.5192308 C157.283346,30.9230769 159.73223,37 164.113435,41.6538462 C168.590299,46.3461538 174.482924,48.9423077 180.739055,48.9423077 C187.894386,48.9423077 197.938633,45.4807692 202.702476,35.6923077 C202.798136,35.4807692 202.817267,35.3846154 202.817267,35.3846154 L193.213054,35.3846154 L193.155658,35.4423077 C190.572852,38.5384615 185.713349,40.6346154 181.083429,40.6346154 C175.190804,40.6346154 168.131133,36.7307692 166.198812,27.9230769 L204.175632,27.9230769 C204.290424,27 204.386083,25.1730769 204.386083,23.9230769" id="Shape" fill="#B2B2B2"></path>
                <g id="Group-3">
                    <path d="M24.6036229,0 C10.8095233,0 0,10.8846154 0,24.8269231 C0,38.7307692 10.8095233,49.6538462 24.6036229,49.6538462 C38.3785905,49.6538462 49.1689819,38.75 49.1689819,24.8269231 C49.1689819,10.8846154 38.3594587,0 24.6036229,0" id="Path" fill="#B2B2B2"></path>
                    <polygon id="Path" fill="#FFFFFF" points="39.8708787 33.3653846 35.0113762 33.3653846 32.8303397 29.5 30.668435 33.3653846 25.8089325 33.3653846 30.3623246 26.6538462 25.8854601 20.0576923 30.7449626 20.0576923 32.8303397 23.8076923 34.9348486 20.0576923 39.7943511 20.0576923 35.3366185 26.6538462"></polygon>
                    <g id="Group" transform="translate(9.208164, 15.099140)" fill="#FFFFFF">
                        <polygon id="Path" points="7.9682525 14.3892336 0 14.3892336 0 0 4.61319882 0 4.61319882 10.5012336 7.9682525 10.5012336 7.9682525 5.01442991 12.5632173 5.01442991 12.5632173 10.5012336 14.9883377 10.5012336 14.9883377 14.3892336 12.5632173 14.3892336 12.5632173 19.8760374 7.9682525 19.8760374"></polygon>
                    </g>
                </g>
            </g>
        </g>
        <g id="Group" transform="translate(0.400000, 0.000000)" fill-rule="nonzero">
            <path d="M24.6791907,0 C10.8427237,0 0,10.8846154 0,24.8269231 C0,38.7307692 10.8427237,49.6538462 24.6791907,49.6538462 C38.4964669,49.6538462 49.32,38.75 49.32,24.8269231 C49.32,10.8846154 38.4772763,0 24.6791907,0" id="Path" fill="#B2B2B2"></path>
            <path d="M14.5976394,26.8653846 C14.5976394,28.9615385 15.7838172,30.1730769 17.4865562,30.1730769 C19.1318996,30.1730769 20.0502308,28.9615385 20.0502308,27.6346154 C20.0502308,26.0384615 19.3040867,24.9615385 17.2187096,24.9615385 L15.4777068,24.9615385 L15.4777068,21.5192308 L17.2187096,21.5192308 C19.1892953,21.5192308 19.7632523,20.5576923 19.7632523,19.1346154 C19.7632523,17.6730769 18.864053,16.9807692 17.5630838,16.9807692 C15.6690258,16.9807692 15.1142007,18.1153846 15.1142007,19.7884615 L10.6756,19.7884615 C10.6756,16.5 12.7035813,13.5961538 17.4674243,13.5961538 C21.0068257,13.5961538 24.1635892,15.3846154 24.1635892,19 C24.1635892,21.1730769 22.8817519,22.75 21.332068,23.2884615 C23.0730709,23.9230769 24.4696996,25.5 24.4696996,27.9615385 C24.4696996,31.6346154 21.1981447,33.75 17.5439519,33.75 C12.7992408,33.75 10.1590387,30.9423077 10.1590387,26.8461538 L14.5976394,26.8461538 L14.5976394,26.8653846 Z" id="Path" fill="#FFFFFF"></path>
            <polygon id="Path" fill="#FFFFFF" points="39.8708787 33.3653846 35.0113762 33.3653846 32.8303397 29.5 30.668435 33.3653846 25.8089325 33.3653846 30.3623246 26.6538462 25.8854601 20.0576923 30.7449626 20.0576923 32.8303397 23.8076923 34.9348486 20.0576923 39.7943511 20.0576923 35.3366185 26.6538462"></polygon>
        </g>
        <g id="senza-spese" transform="translate(315.353059, 27.079102)" fill="#B2B2B2" fill-rule="nonzero">
            <path d="M8.3203125,16.9628906 C10.78125,16.9628906 12.6000977,16.4624023 13.7768555,15.4614258 C14.9536133,14.4604492 15.5419922,13.1689453 15.5419922,11.5869141 C15.5419922,10.3857422 15.1318359,9.38476562 14.3115234,8.58398437 C13.4814453,7.79296875 12.2363281,7.20214844 10.5761719,6.81152344 C8.0859375,6.26464844 6.63574219,5.87890625 6.22558594,5.65429688 C5.81542969,5.43945312 5.61035156,5.09277344 5.61035156,4.61425781 C5.61035156,4.23339844 5.80322266,3.90136719 6.18896484,3.61816406 C6.57470703,3.33496094 7.22167969,3.19335938 8.12988281,3.19335938 C9.23339844,3.19335938 10.0146484,3.4765625 10.4736328,4.04296875 C10.7177734,4.35546875 10.8691406,4.78027344 10.9277344,5.31738281 L10.9277344,5.31738281 L15.1025391,5.31738281 C14.9169922,3.36425781 14.1967773,1.98974609 12.9418945,1.19384766 C11.6870117,0.397949219 10.0634766,0 8.07128906,0 C5.97167969,0 4.34326172,0.529785156 3.18603516,1.58935547 C2.02880859,2.64892578 1.45019531,3.91601562 1.45019531,5.390625 C1.45019531,6.640625 1.82128906,7.59765625 2.56347656,8.26171875 C3.30566406,8.93554688 4.58007812,9.49707031 6.38671875,9.94628906 C8.89648438,10.5419922 10.3466797,10.9619141 10.7373047,11.2060547 C11.1279297,11.4501953 11.3232422,11.8066406 11.3232422,12.2753906 C11.3232422,12.7636719 11.081543,13.1298828 10.5981445,13.3740234 C10.1147461,13.6181641 9.46289062,13.7402344 8.64257812,13.7402344 C7.24609375,13.7402344 6.2890625,13.4619141 5.77148438,12.9052734 C5.47851562,12.5927734 5.28808594,12.0654297 5.20019531,11.3232422 L5.20019531,11.3232422 L0.966796875,11.3232422 C0.966796875,12.9638672 1.56494141,14.3139648 2.76123047,15.3735352 C3.95751953,16.4331055 5.81054688,16.9628906 8.3203125,16.9628906 Z M25.078125,16.9482422 C27.5390625,16.9482422 29.453125,16.171875 30.8203125,14.6191406 C31.6992188,13.6425781 32.1923828,12.6806641 32.2998047,11.7333984 L32.2998047,11.7333984 L28.0371094,11.7333984 C27.8125,12.2021484 27.5537109,12.5683594 27.2607422,12.8320312 C26.7236328,13.3203125 26.0253906,13.5644531 25.1660156,13.5644531 C24.3554688,13.5644531 23.6621094,13.3642578 23.0859375,12.9638672 C22.1386719,12.3193359 21.6357422,11.1962891 21.5771484,9.59472656 L21.5771484,9.59472656 L32.5048828,9.59472656 C32.5244141,8.21777344 32.4804688,7.16308594 32.3730469,6.43066406 C32.1875,5.18066406 31.7822266,4.08203125 31.1572266,3.13476562 C30.4638672,2.06054688 29.5849609,1.27441406 28.5205078,0.776367188 C27.4560547,0.278320312 26.2597656,0.029296875 24.9316406,0.029296875 C22.6953125,0.029296875 20.8764648,0.766601562 19.4750977,2.24121094 C18.0737305,3.71582031 17.3730469,5.83496094 17.3730469,8.59863281 C17.3730469,11.5478516 18.1494141,13.6767578 19.7021484,14.9853516 C21.2548828,16.2939453 23.046875,16.9482422 25.078125,16.9482422 Z M28.1689453,6.84082031 L21.6796875,6.84082031 C21.8164062,5.80566406 22.1508789,4.98535156 22.6831055,4.37988281 C23.215332,3.77441406 23.9648438,3.47167969 24.9316406,3.47167969 C25.8203125,3.47167969 26.5649414,3.75732422 27.1655273,4.32861328 C27.7661133,4.89990234 28.1005859,5.73730469 28.1689453,6.84082031 L28.1689453,6.84082031 Z M39.5068359,16.4208984 L39.5068359,7.77832031 C39.5068359,6.79199219 39.6435547,5.98144531 39.9169922,5.34667969 C40.4443359,4.14550781 41.4160156,3.54492188 42.8320312,3.54492188 C43.984375,3.54492188 44.765625,3.95507812 45.1757812,4.77539062 C45.4003906,5.22460938 45.5126953,5.86914062 45.5126953,6.70898437 L45.5126953,6.70898437 L45.5126953,16.4208984 L49.7900391,16.4208984 L49.7900391,5.66894531 C49.7900391,3.66699219 49.2651367,2.23388672 48.215332,1.36962891 C47.1655273,0.505371094 45.8154297,0.0732421875 44.1650391,0.0732421875 C42.8466797,0.0732421875 41.7578125,0.395507812 40.8984375,1.04003906 C40.4199219,1.40136719 39.9121094,1.9921875 39.375,2.8125 L39.375,2.8125 L39.375,0.483398438 L35.3466797,0.483398438 L35.3466797,16.4208984 L39.5068359,16.4208984 Z M65.9619141,16.4208984 L65.9619141,12.9931641 L57.5830078,12.9931641 L65.6835938,3.92578125 L65.6835938,0.454101562 L52.734375,0.454101562 L52.734375,3.85253906 L60.3662109,3.85253906 L52.1777344,13.1689453 L52.1777344,16.4208984 L65.9619141,16.4208984 Z M72.5537109,16.9189453 C73.6865234,16.9189453 74.7021484,16.6601562 75.6005859,16.1425781 C76.3525391,15.703125 77.0166016,15.1708984 77.5927734,14.5458984 C77.6220703,14.9072266 77.6611328,15.2294922 77.7099609,15.5126953 C77.7587891,15.7958984 77.8466797,16.0986328 77.9736328,16.4208984 L77.9736328,16.4208984 L82.5146484,16.4208984 L82.5146484,15.8056641 C82.2412109,15.6787109 82.0361328,15.5175781 81.8994141,15.3222656 C81.7626953,15.1269531 81.6796875,14.7558594 81.6503906,14.2089844 C81.6308594,13.4863281 81.6210938,12.8710938 81.6210938,12.3632812 L81.6210938,5.0390625 C81.6210938,3.11523438 80.9423828,1.80664062 79.5849609,1.11328125 C78.2275391,0.419921875 76.6748047,0.0732421875 74.9267578,0.0732421875 C72.2412109,0.0732421875 70.3466797,0.776367188 69.2431641,2.18261719 C68.5498047,3.08105469 68.1591797,4.22851562 68.0712891,5.625 L68.0712891,5.625 L72.0996094,5.625 C72.1972656,5.00976562 72.3925781,4.52148438 72.6855469,4.16015625 C73.0957031,3.671875 73.7939453,3.42773438 74.7802734,3.42773438 C75.6591797,3.42773438 76.3256836,3.55224609 76.7797852,3.80126953 C77.2338867,4.05029297 77.4609375,4.50195312 77.4609375,5.15625 C77.4609375,5.69335938 77.1630859,6.08886719 76.5673828,6.34277344 C76.2353516,6.48925781 75.6835938,6.61132812 74.9121094,6.70898438 L74.9121094,6.70898438 L73.4912109,6.88476562 C71.8798828,7.08984375 70.6591797,7.43164062 69.8291016,7.91015625 C68.3154297,8.7890625 67.5585938,10.2099609 67.5585938,12.1728516 C67.5585938,13.6865234 68.0297852,14.855957 68.972168,15.6811523 C69.9145508,16.5063477 71.1083984,16.9189453 72.5537109,16.9189453 Z M73.7841797,13.8867188 C73.2177734,13.8867188 72.7368164,13.7280273 72.3413086,13.4106445 C71.9458008,13.0932617 71.7480469,12.578125 71.7480469,11.8652344 C71.7480469,11.0644531 72.0703125,10.4736328 72.7148438,10.0927734 C73.0957031,9.86816406 73.7255859,9.67773438 74.6044922,9.52148438 L74.6044922,9.52148438 L75.5419922,9.34570312 C76.0107422,9.2578125 76.3793945,9.16259766 76.6479492,9.06005859 C76.9165039,8.95751953 77.1826172,8.82324219 77.4462891,8.65722656 L77.4462891,8.65722656 L77.4462891,10.2099609 C77.4169922,11.6064453 77.0239258,12.5683594 76.2670898,13.0957031 C75.5102539,13.6230469 74.6826172,13.8867188 73.7841797,13.8867188 Z M100.03418,16.9628906 C102.495117,16.9628906 104.313965,16.4624023 105.490723,15.4614258 C106.66748,14.4604492 107.255859,13.1689453 107.255859,11.5869141 C107.255859,10.3857422 106.845703,9.38476562 106.025391,8.58398437 C105.195312,7.79296875 103.950195,7.20214844 102.290039,6.81152344 C99.7998047,6.26464844 98.3496094,5.87890625 97.9394531,5.65429688 C97.5292969,5.43945312 97.3242188,5.09277344 97.3242188,4.61425781 C97.3242188,4.23339844 97.5170898,3.90136719 97.902832,3.61816406 C98.2885742,3.33496094 98.9355469,3.19335938 99.84375,3.19335938 C100.947266,3.19335938 101.728516,3.4765625 102.1875,4.04296875 C102.431641,4.35546875 102.583008,4.78027344 102.641602,5.31738281 L102.641602,5.31738281 L106.816406,5.31738281 C106.630859,3.36425781 105.910645,1.98974609 104.655762,1.19384766 C103.400879,0.397949219 101.777344,0 99.7851562,0 C97.6855469,0 96.0571289,0.529785156 94.8999023,1.58935547 C93.7426758,2.64892578 93.1640625,3.91601562 93.1640625,5.390625 C93.1640625,6.640625 93.5351562,7.59765625 94.2773438,8.26171875 C95.0195312,8.93554688 96.2939453,9.49707031 98.1005859,9.94628906 C100.610352,10.5419922 102.060547,10.9619141 102.451172,11.2060547 C102.841797,11.4501953 103.037109,11.8066406 103.037109,12.2753906 C103.037109,12.7636719 102.79541,13.1298828 102.312012,13.3740234 C101.828613,13.6181641 101.176758,13.7402344 100.356445,13.7402344 C98.9599609,13.7402344 98.0029297,13.4619141 97.4853516,12.9052734 C97.1923828,12.5927734 97.0019531,12.0654297 96.9140625,11.3232422 L96.9140625,11.3232422 L92.6806641,11.3232422 C92.6806641,12.9638672 93.2788086,14.3139648 94.4750977,15.3735352 C95.6713867,16.4331055 97.5244141,16.9628906 100.03418,16.9628906 Z M114.360352,22.7050781 L114.360352,14.3847656 C114.799805,15.0585938 115.249023,15.5712891 115.708008,15.9228516 C116.547852,16.5576172 117.602539,16.875 118.87207,16.875 C120.864258,16.875 122.492676,16.1376953 123.757324,14.6630859 C125.021973,13.1884766 125.654297,11.0449219 125.654297,8.23242188 C125.654297,5.56640625 125.007324,3.54492188 123.713379,2.16796875 C122.419434,0.791015625 120.839844,0.102539062 118.974609,0.102539062 C117.695312,0.102539062 116.591797,0.458984375 115.664062,1.171875 C115.15625,1.57226562 114.677734,2.11914062 114.228516,2.8125 L114.228516,2.8125 L114.228516,0.454101562 L110.229492,0.454101562 L110.229492,22.7050781 L114.360352,22.7050781 Z M117.773438,13.3740234 C116.972656,13.3740234 116.279297,13.1542969 115.693359,12.7148438 C114.707031,11.9628906 114.213867,10.6591797 114.213867,8.80371094 C114.213867,7.63183594 114.360352,6.66503906 114.65332,5.90332031 C115.219727,4.46777344 116.259766,3.75 117.773438,3.75 C119.033203,3.75 119.943848,4.22363281 120.505371,5.17089844 C121.066895,6.11816406 121.347656,7.20703125 121.347656,8.4375 C121.347656,9.93164062 121.04248,11.1279297 120.432129,12.0263672 C119.821777,12.9248047 118.935547,13.3740234 117.773438,13.3740234 Z M135.117188,16.9482422 C137.578125,16.9482422 139.492188,16.171875 140.859375,14.6191406 C141.738281,13.6425781 142.231445,12.6806641 142.338867,11.7333984 L142.338867,11.7333984 L138.076172,11.7333984 C137.851562,12.2021484 137.592773,12.5683594 137.299805,12.8320312 C136.762695,13.3203125 136.064453,13.5644531 135.205078,13.5644531 C134.394531,13.5644531 133.701172,13.3642578 133.125,12.9638672 C132.177734,12.3193359 131.674805,11.1962891 131.616211,9.59472656 L131.616211,9.59472656 L142.543945,9.59472656 C142.563477,8.21777344 142.519531,7.16308594 142.412109,6.43066406 C142.226562,5.18066406 141.821289,4.08203125 141.196289,3.13476562 C140.50293,2.06054688 139.624023,1.27441406 138.55957,0.776367188 C137.495117,0.278320312 136.298828,0.029296875 134.970703,0.029296875 C132.734375,0.029296875 130.915527,0.766601562 129.51416,2.24121094 C128.112793,3.71582031 127.412109,5.83496094 127.412109,8.59863281 C127.412109,11.5478516 128.188477,13.6767578 129.741211,14.9853516 C131.293945,16.2939453 133.085938,16.9482422 135.117188,16.9482422 Z M138.208008,6.84082031 L131.71875,6.84082031 C131.855469,5.80566406 132.189941,4.98535156 132.722168,4.37988281 C133.254395,3.77441406 134.003906,3.47167969 134.970703,3.47167969 C135.859375,3.47167969 136.604004,3.75732422 137.20459,4.32861328 C137.805176,4.89990234 138.139648,5.73730469 138.208008,6.84082031 L138.208008,6.84082031 Z M151.728516,16.9628906 C154.189453,16.9628906 156.008301,16.4624023 157.185059,15.4614258 C158.361816,14.4604492 158.950195,13.1689453 158.950195,11.5869141 C158.950195,10.3857422 158.540039,9.38476562 157.719727,8.58398437 C156.889648,7.79296875 155.644531,7.20214844 153.984375,6.81152344 C151.494141,6.26464844 150.043945,5.87890625 149.633789,5.65429688 C149.223633,5.43945312 149.018555,5.09277344 149.018555,4.61425781 C149.018555,4.23339844 149.211426,3.90136719 149.597168,3.61816406 C149.98291,3.33496094 150.629883,3.19335938 151.538086,3.19335938 C152.641602,3.19335938 153.422852,3.4765625 153.881836,4.04296875 C154.125977,4.35546875 154.277344,4.78027344 154.335938,5.31738281 L154.335938,5.31738281 L158.510742,5.31738281 C158.325195,3.36425781 157.60498,1.98974609 156.350098,1.19384766 C155.095215,0.397949219 153.47168,0 151.479492,0 C149.379883,0 147.751465,0.529785156 146.594238,1.58935547 C145.437012,2.64892578 144.858398,3.91601562 144.858398,5.390625 C144.858398,6.640625 145.229492,7.59765625 145.97168,8.26171875 C146.713867,8.93554688 147.988281,9.49707031 149.794922,9.94628906 C152.304688,10.5419922 153.754883,10.9619141 154.145508,11.2060547 C154.536133,11.4501953 154.731445,11.8066406 154.731445,12.2753906 C154.731445,12.7636719 154.489746,13.1298828 154.006348,13.3740234 C153.522949,13.6181641 152.871094,13.7402344 152.050781,13.7402344 C150.654297,13.7402344 149.697266,13.4619141 149.179688,12.9052734 C148.886719,12.5927734 148.696289,12.0654297 148.608398,11.3232422 L148.608398,11.3232422 L144.375,11.3232422 C144.375,12.9638672 144.973145,14.3139648 146.169434,15.3735352 C147.365723,16.4331055 149.21875,16.9628906 151.728516,16.9628906 Z M168.486328,16.9482422 C170.947266,16.9482422 172.861328,16.171875 174.228516,14.6191406 C175.107422,13.6425781 175.600586,12.6806641 175.708008,11.7333984 L175.708008,11.7333984 L171.445312,11.7333984 C171.220703,12.2021484 170.961914,12.5683594 170.668945,12.8320312 C170.131836,13.3203125 169.433594,13.5644531 168.574219,13.5644531 C167.763672,13.5644531 167.070312,13.3642578 166.494141,12.9638672 C165.546875,12.3193359 165.043945,11.1962891 164.985352,9.59472656 L164.985352,9.59472656 L175.913086,9.59472656 C175.932617,8.21777344 175.888672,7.16308594 175.78125,6.43066406 C175.595703,5.18066406 175.19043,4.08203125 174.56543,3.13476562 C173.87207,2.06054688 172.993164,1.27441406 171.928711,0.776367188 C170.864258,0.278320312 169.667969,0.029296875 168.339844,0.029296875 C166.103516,0.029296875 164.284668,0.766601562 162.883301,2.24121094 C161.481934,3.71582031 160.78125,5.83496094 160.78125,8.59863281 C160.78125,11.5478516 161.557617,13.6767578 163.110352,14.9853516 C164.663086,16.2939453 166.455078,16.9482422 168.486328,16.9482422 Z M171.577148,6.84082031 L165.087891,6.84082031 C165.224609,5.80566406 165.559082,4.98535156 166.091309,4.37988281 C166.623535,3.77441406 167.373047,3.47167969 168.339844,3.47167969 C169.228516,3.47167969 169.973145,3.75732422 170.57373,4.32861328 C171.174316,4.89990234 171.508789,5.73730469 171.577148,6.84082031 L171.577148,6.84082031 Z" id="senzaspese"></path>
            <path d="M108.749,18.6918984 L108.749,17.2128984 L-2.84217094e-14,17.2119141 L-2.84217094e-14,18.6914062 L108.749,18.6918984 Z M115.839,17.2128984 L115.839,18.6918984 L175.249117,18.6914062 L175.249117,17.2119141 L115.839,17.2128984 Z" id="Decoration"></path>
        </g>
    </g>
</svg>