<svg xmlns="http://www.w3.org/2000/svg" width="292" height="60">
    <path id="logo" fill="#B2B2B2" d="M248.355 22.773C248.281 10.32 238.258.188 225.992.188c-12.625 0-22.527 10.16-22.527 23.148 0 6.086 2.328 11.875 6.515 16.285 4.258 4.477 9.875 6.945 15.852 6.945 6.824 0 16.383-3.296 20.93-12.617.101-.199.117-.297.117-.297h-9.149l-.05.063c-2.453 2.95-7.102 4.941-11.516 4.941-5.61 0-12.336-3.707-14.176-12.09h36.188c.086-.863.18-2.597.18-3.793zm-36.101-3.601c1.113-5.613 6.465-11.094 13.668-11.094 7.187 0 12.539 5.48 13.64 11.094zM178.09 7.812c-8.156 0-12.3 4.391-12.3 13.067v25.7h-8.372V20.272c.074-4.613.89-7.87 2.766-10.933 2.218-3.442 7.492-9.223 17.91-9.223 10.386 0 15.672 5.785 17.89 9.223 1.856 3.062 2.7 6.32 2.746 10.933v26.305h-8.367v-25.7c0-8.675-4.125-13.066-12.273-13.066zM291.895.13l-17.653 43.21-4.363 10.692-2.406 5.914h-8.707l6.754-16.59L247.48.13h9.2l13.207 32.488L283.125.13zM129.52 38.679c-8.235 0-14.938-6.714-14.938-15.288 0-8.578 6.703-15.313 14.938-15.313 8.183 0 14.921 6.738 14.921 15.313 0 8.574-6.738 15.289-14.921 15.289zm0-38.55c-12.954 0-23.102 10.203-23.102 23.254 0 13.039 10.148 23.265 23.102 23.265 12.921 0 23.066-10.222 23.066-23.265 0-13.051-10.145-23.254-23.066-23.254zM23.45.016C10.292.016 0 10.383 0 23.625c0 13.227 10.293 23.61 23.445 23.61 13.125 0 23.418-10.383 23.418-23.614C46.863 10.383 36.57.016 23.445.016"/>
    <path id="number" fill="#fff" d="M13.914 25.582c0 2 1.129 3.148 2.75 3.148 1.566 0 2.434-1.148 2.434-2.41 0-1.523-.707-2.55-2.696-2.55h-1.648v-3.282h1.648c1.883 0 2.434-.925 2.434-2.261 0-1.395-.867-2.047-2.094-2.047-1.808 0-2.332 1.074-2.332 2.68h-4.238c0-3.13 1.937-5.887 6.465-5.887 3.375 0 6.386 1.71 6.386 5.152 0 2.07-1.226 3.57-2.695 4.07 1.649.602 2.98 2.098 2.98 4.434 0 3.496-3.113 5.516-6.597 5.516-4.527 0-7.043-2.676-7.043-6.563zm10.68 6.168 4.347-6.383-4.265-6.273h4.633l1.988 3.57 1.988-3.57h4.64l-4.241 6.273L38 31.75h-4.633l-2.074-3.672-2.063 3.672zm0 0"/>
    <path id="text" fill="#B2B2B2" d="M76.293 0C63.141 0 52.84 10.36 52.84 23.602c0 13.238 10.3 23.613 23.453 23.613 13.117 0 23.418-10.375 23.418-23.613C99.71 10.359 89.41 0 76.293 0"/>
    <path id="number2" fill="#fff" d="m77.441 31.738 4.34-6.383-4.258-6.277h4.63l1.988 3.574 1.992-3.574h4.64l-4.25 6.277 4.325 6.383h-4.641l-2.066-3.683-2.063 3.683zM66.18 23.113h3.242v-5.32h4.426v5.32h2.336v3.778h-2.336v5.324h-4.426V26.89h-7.695V12.91h4.453zm0 0"/>
</svg>