<svg width="150" height="40" xmlns="http://www.w3.org/2000/svg">
    <path id="logo" fill="#81BC00" d="M66.387.057c-6.675 0-11.895 5.265-11.895 11.994 0 6.728 5.229 12.004 11.895 12.004 6.656 0 11.876-5.276 11.876-12.004.01-6.729-5.22-11.994-11.876-11.994m0 19.893c-4.244 0-7.69-3.464-7.69-7.89s3.456-7.898 7.69-7.898c4.215 0 7.68 3.472 7.68 7.898.009 4.417-3.465 7.89-7.68 7.89M150 .057l-9.088 22.29-2.244 5.52-1.24 3.048h-4.477l3.473-8.559-9.294-22.3h4.732l6.797 16.76 6.816-16.76H150zM91.398 4.02c-4.197 0-6.338 2.265-6.338 6.738v13.259h-4.309v-13.57c.038-2.378.46-4.058 1.427-5.644C83.323 3.03 86.037.047 91.398.047c5.35 0 8.074 2.982 9.21 4.756.957 1.576 1.389 3.266 1.417 5.644v13.57h-4.31V10.758c0-4.473-2.12-6.738-6.317-6.738m17.593 5.86c.573-2.897 3.333-5.728 7.042-5.728 3.699 0 6.459 2.831 7.022 5.728h-14.064zm18.59 1.86C127.542 5.313 122.378.085 116.06.085c-6.497 0-11.595 5.247-11.595 11.947 0 3.143 1.202 6.125 3.352 8.408 2.197 2.303 5.088 3.577 8.158 3.577 3.512 0 8.44-1.699 10.778-6.502a.813.813 0 0 0 .057-.151h-4.713l-.029.028c-1.267 1.52-3.652 2.548-5.924 2.548-2.891 0-6.356-1.915-7.304-6.238h18.636c.057-.453.103-1.35.103-1.962M39.358 0c-6.77 0-12.074 5.341-12.074 12.183 0 6.823 5.305 12.183 12.074 12.183 6.76 0 12.054-5.35 12.054-12.183C51.412 5.341 46.108 0 39.358 0" />
    <path fill="#FFF" d="M46.85 16.373h-2.385l-1.07-1.897-1.061 1.897h-2.385l2.234-3.293-2.196-3.237h2.384l1.024 1.84 1.032-1.84h2.385l-2.188 3.237zM35.713 14.47h-3.91V7.41h2.263v5.153h1.647V9.87h2.255v2.693h1.19v1.908h-1.19v2.692h-2.255z"/>
    <path id="text" fill="#81BC00" d="M69.587 37.232c1.063 0 1.849-.217 2.357-.649.508-.432.762-.99.762-1.673 0-.519-.177-.95-.531-1.297-.359-.341-.896-.596-1.613-.765-1.076-.236-1.702-.403-1.88-.5a.47.47 0 0 1-.265-.449c0-.164.083-.308.25-.43.167-.122.446-.184.838-.184.477 0 .814.123 1.012.367.106.135.171.319.196.55h1.803c-.08-.843-.39-1.436-.933-1.78-.542-.344-1.243-.516-2.103-.516-.907 0-1.61.23-2.11.687-.5.457-.75 1.005-.75 1.641 0 .54.16.953.481 1.24.321.291.871.534 1.651.728 1.084.257 1.71.438 1.88.544.168.105.252.259.252.461 0 .211-.104.37-.313.475-.209.105-.49.158-.844.158-.603 0-1.017-.12-1.24-.36-.127-.136-.209-.363-.247-.684h-1.828c0 .709.258 1.292.775 1.75.516.457 1.317.686 2.4.686zm6.143-.02c.489 0 .927-.111 1.315-.335.325-.19.612-.42.86-.69.013.157.03.296.051.418.021.123.06.253.114.393h1.961v-.266a.646.646 0 0 1-.266-.209c-.059-.084-.094-.244-.107-.48a30.198 30.198 0 0 1-.013-.798v-3.162c0-.831-.293-1.396-.879-1.696-.586-.3-1.257-.449-2.012-.449-1.16 0-1.977.304-2.454.911-.3.388-.468.883-.506 1.487h1.74c.042-.266.126-.477.253-.633.177-.21.478-.316.904-.316.38 0 .668.053.864.161.196.108.294.303.294.585 0 .232-.129.403-.386.513-.143.063-.382.115-.715.158l-.613.076c-.696.088-1.223.236-1.582.442-.654.38-.98.993-.98 1.841 0 .654.203 1.159.61 1.515.407.356.923.535 1.547.535zm.531-1.309a.964.964 0 0 1-.623-.205c-.17-.137-.256-.36-.256-.668 0-.346.139-.6.417-.765.165-.097.437-.18.816-.247l.405-.076c.203-.038.362-.079.478-.123a1.96 1.96 0 0 0 .344-.174v.67c-.012.604-.182 1.019-.509 1.247a1.836 1.836 0 0 1-1.072.341zm6.794 1.095v-3.733c0-.426.059-.776.177-1.05.228-.518.647-.778 1.259-.778.497 0 .835.177 1.012.532.097.194.145.472.145.835v4.194h1.847v-4.643c0-.865-.226-1.484-.68-1.857-.453-.373-1.036-.56-1.749-.56-.569 0-1.04.14-1.41.418-.207.156-.426.41-.658.765v-1.006h-1.74v6.883h1.797zm8.856.234c1.063 0 1.848-.217 2.356-.649.508-.432.762-.99.762-1.673 0-.519-.177-.95-.531-1.297-.358-.341-.896-.596-1.613-.765-1.075-.236-1.702-.403-1.879-.5a.47.47 0 0 1-.265-.449c0-.164.083-.308.25-.43.166-.122.445-.184.838-.184.476 0 .813.123 1.012.367.105.135.17.319.196.55h1.803c-.08-.843-.392-1.436-.933-1.78-.542-.344-1.243-.516-2.104-.516-.906 0-1.61.23-2.11.687-.5.457-.749 1.005-.749 1.641 0 .54.16.953.48 1.24.321.291.872.534 1.652.728 1.084.257 1.71.438 1.879.544.168.105.253.259.253.461 0 .211-.105.37-.314.475-.208.105-.49.158-.844.158-.603 0-1.016-.12-1.24-.36-.126-.136-.209-.363-.247-.684h-1.828c0 .709.259 1.292.775 1.75.517.457 1.317.686 2.4.686zm10.146-.234v-5.56h1.183v-1.272h-1.183v-.582c0-.135.046-.258.136-.37.09-.112.255-.165.494-.158.238.006.408.015.509.028v-1.467c-.16-.013-.287-.023-.38-.029a4.59 4.59 0 0 0-.31-.01c-1 0-1.63.207-1.891.62-.249.279-.373.787-.373 1.525v.443h-.987v1.271h1.006v5.56h1.796zm4.017 0v-3.296c0-.553.07-.962.209-1.227.249-.473.736-.709 1.461-.709a4.721 4.721 0 0 1 .519.032V29.95a5.405 5.405 0 0 1-.155-.01.967.967 0 0 0-.086-.003c-.54 0-.978.141-1.315.424-.207.169-.45.483-.728.942v-1.201h-1.72v6.895h1.815zm4.934.215c.49 0 .928-.112 1.316-.336.325-.19.611-.42.86-.69.013.157.03.296.05.418.022.123.06.253.115.393h1.96v-.266a.646.646 0 0 1-.265-.209c-.06-.084-.095-.244-.108-.48a30.198 30.198 0 0 1-.012-.798v-3.162c0-.831-.293-1.396-.88-1.696-.586-.3-1.256-.449-2.011-.449-1.16 0-1.978.304-2.455.911-.299.388-.468.883-.506 1.487h1.74c.042-.266.126-.477.253-.633.177-.21.479-.316.905-.316.38 0 .667.053.863.161.196.108.294.303.294.585 0 .232-.128.403-.386.513-.143.063-.381.115-.714.158l-.614.076c-.696.088-1.223.236-1.581.442-.654.38-.981.993-.981 1.841 0 .654.203 1.159.61 1.515.407.356.923.535 1.547.535zm.531-1.31a.964.964 0 0 1-.623-.205c-.17-.137-.256-.36-.256-.668 0-.346.14-.6.418-.765.164-.097.436-.18.816-.247l.405-.076c.202-.038.361-.079.477-.123a1.96 1.96 0 0 0 .345-.174v.67c-.013.604-.183 1.019-.51 1.247a1.836 1.836 0 0 1-1.072.341zm6.839-6.623v-1.663h-1.829v1.663h1.829zm0 7.718v-6.895h-1.829v6.895h1.829zm4.497.234c1.063 0 1.848-.217 2.356-.649.509-.432.763-.99.763-1.673 0-.519-.177-.95-.532-1.297-.358-.341-.896-.596-1.613-.765-1.075-.236-1.701-.403-1.878-.5a.47.47 0 0 1-.266-.449c0-.164.083-.308.25-.43.166-.122.446-.184.838-.184.476 0 .814.123 1.012.367.105.135.17.319.196.55h1.803c-.08-.843-.391-1.436-.933-1.78-.542-.344-1.243-.516-2.103-.516-.907 0-1.61.23-2.11.687-.5.457-.75 1.005-.75 1.641 0 .54.16.953.481 1.24.32.291.87.534 1.651.728 1.084.257 1.71.438 1.879.544.169.105.253.259.253.461 0 .211-.105.37-.313.475-.209.105-.49.158-.845.158-.603 0-1.016-.12-1.24-.36-.126-.136-.208-.363-.246-.684H119.7c0 .709.258 1.292.774 1.75.517.457 1.317.686 2.401.686z"/>
    <path id="logo_2" fill="#81BC00" d="M12.11 0C5.32 0 0 5.341 0 12.183c0 6.823 5.32 12.183 12.11 12.183 6.781 0 12.092-5.35 12.092-12.183C24.202 5.341 18.882 0 12.111 0" />
    <path fill="#FFF" d="M7.163 13.183c0 1.029.582 1.624 1.418 1.624.807 0 1.258-.595 1.258-1.246 0-.783-.366-1.312-1.39-1.312h-.854v-1.69h.855c.967 0 1.248-.47 1.248-1.17 0-.716-.441-1.056-1.08-1.056-.929 0-1.201.557-1.201 1.378H5.239c0-1.614.995-3.04 3.333-3.04 1.736 0 3.286.879 3.286 2.653 0 1.066-.63 1.84-1.39 2.104.854.312 1.54 1.085 1.54 2.293 0 1.803-1.606 2.84-3.399 2.84-2.328 0-3.624-1.377-3.624-3.387h2.178v.01zM19.565 16.373h-2.384l-1.07-1.897-1.061 1.897h-2.385l2.234-3.293-2.196-3.237h2.384l1.024 1.84 1.032-1.84h2.385L17.34 13.08z" />
    <path id="underline" stroke="#81BC00" stroke-linecap="round" d="M66.5 39.5h60"/>
</svg>