<svg xmlns="http://www.w3.org/2000/svg" width="240" height="60">
    <path fill="#B2B2B2" d="M195.34 22.656C195.262 10.2 185.207.066 172.898.066c-12.66 0-22.593 10.164-22.593 23.149 0 6.09 2.336 11.879 6.535 16.293 4.27 4.469 9.906 6.937 15.902 6.937 6.844 0 16.438-3.293 21-12.613.098-.2.113-.297.113-.297h-9.175l-.055.063c-2.46 2.949-7.117 4.941-11.55 4.941-5.626 0-12.376-3.71-14.223-12.086h36.308c.078-.867.18-2.601.18-3.797zm-36.223-3.605c1.121-5.61 6.488-11.094 13.711-11.094 7.211 0 12.582 5.484 13.684 11.094zm-34.27-11.356c-8.187 0-12.343 4.387-12.343 13.067v25.703h-8.402V20.156c.078-4.61.898-7.87 2.777-10.933C109.109 5.785 114.395 0 124.848 0c10.422 0 15.722 5.785 17.949 9.223 1.863 3.062 2.707 6.324 2.758 10.933v26.309h-8.395V20.762c0-8.68-4.137-13.067-12.312-13.067zM239.017.012l-17.707 43.207-4.38 10.691-2.417 5.914h-8.73l6.777-16.594L194.457.012h9.227L216.938 32.5 230.218.012zM76.117 38.562c-8.262 0-14.984-6.718-14.984-15.292 0-8.579 6.722-15.313 14.984-15.313 8.211 0 14.973 6.734 14.973 15.313 0 8.574-6.762 15.293-14.973 15.293zm0-38.55c-12.996 0-23.176 10.207-23.176 23.258 0 13.035 10.18 23.257 23.176 23.257 12.969 0 23.145-10.222 23.145-23.257C99.262 10.219 89.086.012 76.117.012zM23.527 0C10.332 0 0 10.363 0 23.605c0 13.235 10.332 23.61 23.527 23.61 13.16 0 23.489-10.375 23.489-23.61C47.016 10.363 36.688 0 23.527 0"/>
    <path fill="#fff" d="m31.402 28.059-2.074 3.675h-4.652l4.36-6.382-4.278-6.274h4.648l1.996 3.57 1.996-3.57h4.649l-4.254 6.274 4.332 6.382h-4.648zM8.914 12.914h4.465v10.203h3.254v-5.324h4.441v5.324h2.344v3.778h-2.344v5.32h-4.441v-5.32H8.914zm0 0"/>
</svg>