<svg width="150" height="52" xmlns="http://www.w3.org/2000/svg">
    <path id="logo" fill="#B2B2B2" d="M47.48.069c-8.105 0-14.443 6.394-14.443 14.564s6.35 14.575 14.443 14.575c8.083 0 14.42-6.405 14.42-14.575C61.913 6.463 55.564.069 47.48.069m0 24.155c-5.153 0-9.336-4.206-9.336-9.58s4.195-9.59 9.336-9.59c5.119 0 9.325 4.216 9.325 9.59.012 5.363-4.206 9.58-9.325 9.58M149.007.069l-11.035 27.065-2.725 6.704-1.505 3.7h-5.437l4.218-10.392L121.237.069h5.745l8.254 20.35L143.512.07h5.495zM77.849 4.88c-5.096 0-7.695 2.75-7.695 8.182v16.1h-5.232V12.684c.045-2.888.558-4.927 1.733-6.853C68.045 3.678 71.34.057 77.849.057c6.498 0 9.804 3.621 11.183 5.775 1.163 1.914 1.688 3.965 1.722 6.853v16.477H85.52v-16.1c0-5.43-2.576-8.18-7.672-8.18m21.363 7.115c.696-3.518 4.047-6.955 8.55-6.955 4.492 0 7.843 3.437 8.527 6.955H99.212zm22.572 2.258C121.738 6.45 115.468.103 107.796.103c-7.888 0-14.078 6.371-14.078 14.507 0 3.816 1.459 7.437 4.07 10.21 2.667 2.795 6.178 4.342 9.906 4.342 4.263 0 10.248-2.062 13.087-7.895.057-.126.068-.183.068-.183h-5.723l-.034.034c-1.539 1.845-4.434 3.094-7.193 3.094-3.511 0-7.718-2.326-8.869-7.574h22.629c.068-.55.125-1.639.125-2.383M14.66 0C6.44 0 0 6.486 0 14.793c0 8.285 6.44 14.793 14.66 14.793 8.208 0 14.637-6.497 14.637-14.793C29.297 6.486 22.857 0 14.66 0"/>
    <path fill="#FFF" d="M23.757 19.88h-2.895l-1.3-2.302-1.288 2.303h-2.896l2.713-4-2.667-3.93h2.895l1.243 2.235 1.254-2.235h2.896l-2.657 3.93zM10.235 17.57H5.487V8.998h2.748v6.257h2v-3.27h2.738v3.27h1.445v2.317h-1.445v3.269h-2.738z"/>
    <path id="text" fill="#B2B2B2"  d="M3.052 49.246v-3.991c0-.456.064-.83.19-1.123.243-.555.692-.832 1.346-.832.532 0 .893.189 1.083.568.103.207.155.505.155.893v4.485h1.976v-4.965c0-.925-.243-1.587-.728-1.986-.484-.4-1.108-.599-1.87-.599-.609 0-1.112.149-1.509.447-.22.167-.455.44-.703.818v-1.075h-1.86v7.36h1.92zm9.506.244c1.136 0 2.02-.359 2.652-1.076.406-.45.633-.895.683-1.333h-1.969a1.607 1.607 0 0 1-.358.508c-.248.225-.57.338-.968.338-.374 0-.694-.092-.96-.277-.438-.298-.67-.817-.697-1.556h5.047c.009-.636-.012-1.123-.061-1.462a3.716 3.716 0 0 0-.562-1.522 2.904 2.904 0 0 0-1.217-1.09 3.865 3.865 0 0 0-1.658-.344c-1.033 0-1.873.34-2.52 1.021-.647.681-.97 1.66-.97 2.937 0 1.362.358 2.345 1.075 2.95a3.74 3.74 0 0 0 2.483.906zm1.427-4.668h-2.997c.063-.478.218-.857.464-1.137.245-.28.592-.42 1.038-.42.41 0 .754.133 1.032.397.277.263.432.65.463 1.16zm6.244 4.675c1.137 0 1.977-.232 2.52-.694.544-.462.816-1.059.816-1.79 0-.554-.19-1.016-.569-1.386-.383-.366-.958-.638-1.725-.819-1.15-.252-1.82-.43-2.009-.534a.503.503 0 0 1-.284-.48c0-.176.089-.33.267-.46.178-.131.477-.197.897-.197.51 0 .87.131 1.082.393.113.144.183.34.21.588h1.928c-.086-.902-.419-1.537-.998-1.904-.58-.368-1.33-.552-2.25-.552-.97 0-1.721.245-2.256.734-.534.49-.801 1.075-.801 1.756 0 .577.171 1.02.514 1.326.343.311.931.57 1.765.778 1.16.275 1.83.469 2.01.582.18.113.27.277.27.494 0 .225-.111.394-.335.507-.223.113-.524.17-.903.17-.645 0-1.087-.13-1.326-.386-.135-.145-.223-.388-.264-.731h-1.955c0 .758.277 1.381.83 1.87.552.49 1.407.735 2.566.735zm7.706 0c1.137 0 1.977-.232 2.52-.694.544-.462.815-1.059.815-1.79 0-.554-.189-1.016-.568-1.386-.383-.366-.958-.638-1.725-.819-1.15-.252-1.82-.43-2.01-.534a.503.503 0 0 1-.283-.48c0-.176.089-.33.267-.46.178-.131.477-.197.896-.197.51 0 .87.131 1.083.393.112.144.182.34.21.588h1.927c-.085-.902-.418-1.537-.997-1.904-.58-.368-1.33-.552-2.25-.552-.97 0-1.722.245-2.256.734-.535.49-.802 1.075-.802 1.756 0 .577.172 1.02.514 1.326.343.311.932.57 1.766.778 1.16.275 1.829.469 2.01.582.18.113.27.277.27.494 0 .225-.112.394-.335.507-.223.113-.524.17-.903.17-.645 0-1.087-.13-1.326-.386-.135-.145-.223-.388-.264-.731H24.54c0 .758.276 1.381.829 1.87.552.49 1.408.735 2.567.735zm7.232-.088c.379 0 .71-.05.991-.15.282-.098.574-.283.876-.554.1-.086.185-.185.257-.298.073-.112.118-.18.136-.203v1.042H39.3v-7.374h-1.955v4.012c0 .473-.064.855-.19 1.143-.243.532-.694.799-1.353.799-.514 0-.86-.188-1.035-.562-.1-.212-.149-.528-.149-.947v-4.445h-1.975v4.445c0 .843.106 1.481.318 1.914.379.785 1.114 1.178 2.205 1.178zm7.93-.163v-3.991c0-.456.062-.83.189-1.123.243-.555.692-.832 1.346-.832.532 0 .893.189 1.082.568.104.207.156.505.156.893v4.485h1.975v-4.965c0-.925-.242-1.587-.727-1.986-.485-.4-1.108-.599-1.87-.599-.61 0-1.112.149-1.51.447-.22.167-.455.44-.703.818v-1.075h-1.86v7.36h1.921zm8.334.23c.523 0 .992-.12 1.407-.358.347-.203.654-.45.92-.738.014.167.032.316.054.447.023.13.063.27.122.42h2.097v-.285a.691.691 0 0 1-.284-.223c-.063-.09-.101-.262-.115-.514a32.297 32.297 0 0 1-.013-.853V43.99c0-.889-.314-1.493-.94-1.813-.628-.32-1.345-.48-2.152-.48-1.24 0-2.115.324-2.625.973-.32.415-.5.945-.541 1.59h1.86c.045-.284.135-.51.27-.676.19-.226.513-.339.968-.339.406 0 .714.058.924.173.21.115.314.324.314.626 0 .248-.137.43-.412.548-.154.067-.409.124-.765.169l-.656.081c-.744.095-1.308.253-1.691.474-.7.406-1.05 1.062-1.05 1.968 0 .7.219 1.24.654 1.62.435.382.986.572 1.654.572zm.568-1.4c-.261 0-.484-.073-.666-.22-.183-.147-.274-.385-.274-.714 0-.37.149-.642.446-.818.176-.104.467-.192.873-.264l.433-.081c.216-.041.387-.085.51-.132.125-.048.248-.11.37-.186v.717c-.014.645-.196 1.089-.545 1.333-.35.243-.732.365-1.147.365zm12.218 1.427c1.186 0 2.082-.421 2.686-1.265.379-.523.59-1.078.636-1.664H65.57c-.04.388-.155.704-.345.947-.19.244-.51.365-.96.365-.636 0-1.07-.306-1.3-.92-.126-.329-.189-.764-.189-1.305 0-.569.063-1.024.19-1.367.239-.645.683-.967 1.332-.967.456 0 .792.148 1.008.446.15.221.242.47.278.744h1.975c-.108-1.05-.456-1.783-1.045-2.198-.589-.415-1.345-.623-2.27-.623-1.087 0-1.94.352-2.557 1.056-.618.703-.927 1.689-.927 2.956 0 1.123.28 2.036.84 2.74.558.704 1.431 1.055 2.617 1.055zm7.983 0c1.268 0 2.212-.384 2.835-1.153.622-.77.934-1.695.934-2.777 0-1.065-.312-1.987-.934-2.767-.623-.78-1.567-1.17-2.835-1.17-1.267 0-2.212.39-2.834 1.17-.623.78-.934 1.702-.934 2.767 0 1.082.311 2.008.934 2.777.622.769 1.567 1.153 2.834 1.153zm-.007-1.617c-.563 0-.997-.2-1.302-.602-.304-.401-.456-.972-.456-1.711 0-.74.152-1.31.456-1.709.305-.399.739-.598 1.302-.598.564 0 .997.2 1.3.598.302.4.453.969.453 1.709 0 .74-.151 1.31-.454 1.711-.302.402-.735.602-1.299.602zm7.077 1.36v-4.438c0-.401.052-.703.156-.906.189-.357.559-.535 1.11-.535.473 0 .79.178.953.535.09.198.135.516.135.954v4.39h1.942v-4.39c0-.33.052-.612.155-.846.203-.442.571-.663 1.103-.663.46 0 .776.171.947.514.09.18.136.41.136.69v4.695h1.975l.014-4.648c0-.478-.023-.84-.068-1.089a2.118 2.118 0 0 0-.42-.947c-.257-.316-.543-.537-.859-.663a2.567 2.567 0 0 0-.96-.19c-.487 0-.93.102-1.326.305-.375.203-.688.521-.94.954a2.164 2.164 0 0 0-.637-.886c-.347-.248-.802-.372-1.366-.372-.596 0-1.08.144-1.455.433-.212.162-.437.435-.676.818v-1.075h-1.874v7.36h1.955zm12.32 0v-4.438c0-.401.051-.703.155-.906.19-.357.56-.535 1.11-.535.473 0 .791.178.954.535.09.198.135.516.135.954v4.39h1.941v-4.39c0-.33.052-.612.156-.846.203-.442.57-.663 1.103-.663.46 0 .776.171.947.514.09.18.135.41.135.69v4.695h1.976l.013-4.648c0-.478-.022-.84-.067-1.089a2.118 2.118 0 0 0-.42-.947c-.257-.316-.543-.537-.86-.663a2.567 2.567 0 0 0-.96-.19c-.487 0-.929.102-1.326.305-.374.203-.688.521-.94.954a2.164 2.164 0 0 0-.636-.886c-.347-.248-.803-.372-1.367-.372-.595 0-1.08.144-1.454.433-.212.162-.438.435-.677.818v-1.075h-1.874v7.36h1.955zm12.38-8.253v-1.78h-1.955v1.78h1.955zm0 8.253v-7.374h-1.955v7.374h1.955zm4.81.25c1.137 0 1.977-.23 2.52-.693.544-.462.815-1.059.815-1.79 0-.554-.19-1.016-.568-1.386-.383-.366-.958-.638-1.725-.819-1.15-.252-1.82-.43-2.01-.534a.503.503 0 0 1-.284-.48c0-.176.09-.33.268-.46.178-.131.477-.197.896-.197.51 0 .87.131 1.083.393.112.144.182.34.21.588h1.927c-.085-.902-.418-1.537-.998-1.904-.58-.368-1.329-.552-2.249-.552-.97 0-1.722.245-2.256.734-.535.49-.802 1.075-.802 1.756 0 .577.172 1.02.514 1.326.343.311.932.57 1.766.778 1.16.275 1.829.469 2.01.582.18.113.27.277.27.494 0 .225-.112.394-.335.507-.223.113-.524.17-.903.17-.645 0-1.087-.13-1.326-.386-.135-.145-.223-.388-.264-.731h-1.955c0 .758.276 1.381.829 1.87.552.49 1.408.735 2.567.735zm7.706 0c1.136 0 1.976-.23 2.52-.693.543-.462.815-1.059.815-1.79 0-.554-.19-1.016-.568-1.386-.384-.366-.959-.638-1.725-.819-1.15-.252-1.82-.43-2.01-.534a.503.503 0 0 1-.284-.48c0-.176.09-.33.267-.46.178-.131.477-.197.897-.197.51 0 .87.131 1.082.393.113.144.183.34.21.588h1.928c-.086-.902-.418-1.537-.998-1.904-.58-.368-1.33-.552-2.25-.552-.969 0-1.721.245-2.256.734-.534.49-.801 1.075-.801 1.756 0 .577.171 1.02.514 1.326.343.311.931.57 1.766.778 1.159.275 1.829.469 2.009.582.18.113.27.277.27.494 0 .225-.111.394-.334.507-.224.113-.525.17-.903.17-.645 0-1.087-.13-1.326-.386-.136-.145-.224-.388-.264-.731h-1.955c0 .758.276 1.381.828 1.87.553.49 1.409.735 2.568.735zm6.745-8.503v-1.78h-1.956v1.78h1.956zm0 8.253v-7.374h-1.956v7.374h1.956zm5.182.257c1.267 0 2.212-.384 2.834-1.153.623-.77.934-1.695.934-2.777 0-1.065-.311-1.987-.934-2.767-.622-.78-1.567-1.17-2.834-1.17-1.268 0-2.212.39-2.835 1.17-.622.78-.933 1.702-.933 2.767 0 1.082.31 2.008.933 2.777.623.769 1.567 1.153 2.835 1.153zm-.007-1.617c-.564 0-.998-.2-1.302-.602-.305-.401-.457-.972-.457-1.711 0-.74.152-1.31.457-1.709.304-.399.738-.598 1.302-.598.564 0 .997.2 1.299.598.302.4.453.969.453 1.709 0 .74-.15 1.31-.453 1.711-.302.402-.735.602-1.299.602zm7.09 1.36v-3.991c0-.456.063-.83.19-1.123.243-.555.692-.832 1.346-.832.532 0 .893.189 1.082.568.104.207.156.505.156.893v4.485h1.975v-4.965c0-.925-.242-1.587-.727-1.986-.485-.4-1.108-.599-1.87-.599-.61 0-1.112.149-1.51.447-.22.167-.455.44-.703.818v-1.075h-1.86v7.36h1.921zm9.505.244c1.137 0 2.02-.359 2.652-1.076.406-.45.634-.895.684-1.333h-1.97a1.607 1.607 0 0 1-.358.508c-.248.225-.57.338-.967.338-.374 0-.695-.092-.96-.277-.438-.298-.67-.817-.698-1.556h5.047c.01-.636-.011-1.123-.06-1.462a3.716 3.716 0 0 0-.562-1.522 2.904 2.904 0 0 0-1.218-1.09 3.865 3.865 0 0 0-1.657-.344c-1.033 0-1.873.34-2.52 1.021-.648.681-.971 1.66-.971 2.937 0 1.362.358 2.345 1.075 2.95a3.74 3.74 0 0 0 2.483.906zm1.428-4.668h-2.997c.063-.478.217-.857.463-1.137.246-.28.592-.42 1.039-.42.41 0 .754.133 1.031.397.278.263.432.65.464 1.16z"/>
    <path id="underline" stroke="#B2B2B2" stroke-linecap="round" d="M.5 51.5h149.007"/>
</svg>