<svg width="150" height="22.968" xmlns="http://www.w3.org/2000/svg">
    <path id="logo" fill="#B2B2B2" d="M29.023.042c-4.954 0-8.828 3.912-8.828 8.91 0 5 3.88 8.919 8.828 8.919 4.94 0 8.815-3.92 8.815-8.918.008-5-3.874-8.911-8.815-8.911m0 14.78c-3.15 0-5.708-2.574-5.708-5.862 0-3.288 2.565-5.868 5.708-5.868 3.128 0 5.7 2.58 5.7 5.868.006 3.28-2.572 5.862-5.7 5.862M91.082.042l-6.745 16.56-1.666 4.102-.92 2.264h-3.324l2.58-6.36-6.9-16.566h3.513l5.045 12.452L87.724.042zM47.586 2.986c-3.115 0-4.703 1.684-4.703 5.007v9.85h-3.198V7.762c.026-1.766.34-3.015 1.059-4.192.85-1.318 2.863-3.535 6.842-3.535 3.972 0 5.993 2.217 6.837 3.535.71 1.171 1.03 2.426 1.05 4.192v10.083h-3.197V7.992c0-3.323-1.575-5.006-4.69-5.006M60.645 7.34c.425-2.151 2.473-4.255 5.226-4.255 2.745 0 4.794 2.104 5.213 4.255zm13.797 1.382c-.028-4.775-3.86-8.66-8.55-8.66-4.823 0-8.606 3.899-8.606 8.877a9.09 9.09 0 0 0 2.489 6.247c1.63 1.711 3.775 2.657 6.054 2.657 2.606 0 6.264-1.262 8-4.83a.645.645 0 0 0 .042-.113h-3.5l-.02.02c-.94 1.13-2.71 1.894-4.396 1.894-2.146 0-4.718-1.424-5.42-4.634h13.831c.042-.337.076-1.003.076-1.458M8.962 0C3.936 0 0 3.969 0 9.051c0 5.07 3.937 9.051 8.961 9.051 5.018 0 8.947-3.974 8.947-9.05C17.908 3.968 13.971 0 8.962 0"/>
    <path fill="#fff" d="m11.958 10.755-.788 1.41H9.4l1.658-2.448-1.63-2.405h1.77l.76 1.368.766-1.368h1.77L12.87 9.716l1.651 2.448h-1.769zm-5.701-.004H3.354V5.504h1.68v3.83h1.223V7.333h1.672v2h.885v1.418h-.885v2H6.257zm0 0"/>
    <path id="text" fill="#B2B2B2" d="M97.668 16.259c.985 0 1.713-.2 2.186-.603.47-.4.707-.92.707-1.553 0-.482-.165-.883-.493-1.204-.333-.317-.832-.555-1.497-.712-.997-.219-1.58-.374-1.744-.464a.436.436 0 0 1-.245-.417c0-.152.076-.285.232-.4.154-.113.412-.17.777-.17.442 0 .756.114.94.341a.989.989 0 0 1 .18.512h1.674c-.075-.784-.364-1.336-.866-1.654-.503-.32-1.153-.479-1.951-.479-.843 0-1.494.213-1.958.637-.463.425-.695.934-.695 1.524 0 .503.148.885.445 1.151.298.272.808.497 1.533.677 1.005.239 1.587.408 1.742.505a.476.476 0 0 1 .235.429c0 .196-.097.343-.29.44-.194.099-.455.148-.784.148-.559 0-.943-.112-1.15-.335-.118-.126-.194-.337-.228-.635H94.72c0 .657.241 1.2.72 1.625.48.424 1.221.637 2.228.637zm5.698-.018c.453 0 .86-.103 1.22-.311a3.503 3.503 0 0 0 .8-.64c.011.145.026.273.045.387.02.114.056.235.107.365h1.818v-.247a.596.596 0 0 1-.245-.194c-.056-.078-.088-.228-.1-.447a29.623 29.623 0 0 1-.012-.74v-2.937c0-.772-.273-1.297-.817-1.575-.543-.278-1.165-.417-1.866-.417-1.075 0-1.835.283-2.276.846-.278.36-.435.821-.47 1.38h1.614c.039-.246.117-.442.235-.587.164-.196.444-.293.839-.293.352 0 .619.05.801.149.183.1.272.281.272.544 0 .216-.118.374-.357.476-.133.058-.354.107-.664.146l-.568.07c-.646.083-1.135.22-1.467.412-.607.353-.91.923-.91 1.71 0 .606.187 1.076.566 1.406.377.332.855.497 1.435.497zm.493-1.216a.892.892 0 0 1-.578-.191c-.158-.127-.237-.334-.237-.62 0-.32.128-.557.387-.711.152-.09.405-.166.756-.229l.376-.07a2.676 2.676 0 0 0 .444-.114c.106-.042.214-.096.318-.163v.624c-.01.559-.169.945-.472 1.157-.302.21-.634.317-.994.317zm6.302 1.017v-3.466c0-.397.056-.72.165-.975.212-.483.6-.724 1.167-.724.463 0 .775.165.94.493.09.182.136.44.136.776v3.896h1.713V11.73c0-.804-.21-1.378-.63-1.725-.422-.347-.962-.52-1.623-.52-.53 0-.965.13-1.31.389-.192.145-.394.381-.61.71v-.935h-1.614v6.393zm8.217.217c.986 0 1.715-.2 2.186-.603.471-.4.708-.92.708-1.553 0-.482-.165-.883-.494-1.204-.332-.317-.831-.555-1.495-.712-1-.219-1.58-.374-1.744-.464a.437.437 0 0 1-.247-.417c0-.152.078-.285.232-.4.154-.113.415-.17.778-.17.442 0 .755.114.939.341.097.126.158.297.182.512h1.672c-.073-.784-.362-1.336-.866-1.654-.502-.32-1.153-.479-1.95-.479-.842 0-1.493.213-1.959.637-.463.425-.695.934-.695 1.524 0 .503.15.885.447 1.151.298.272.808.497 1.532.677 1.004.239 1.586.408 1.743.505a.479.479 0 0 1 .235.429c0 .196-.097.343-.292.44-.193.099-.454.148-.783.148-.56 0-.942-.112-1.15-.335-.117-.126-.193-.337-.229-.635h-1.696c0 .657.24 1.2.72 1.625.478.424 1.221.637 2.226.637zm9.413-.217v-5.165h1.098v-1.18h-1.098v-.541c0-.124.043-.24.127-.343.084-.104.236-.154.458-.147.221.005.378.014.472.026V7.33l-.352-.027a4.136 4.136 0 0 0-.288-.009c-.927 0-1.512.192-1.754.576-.232.258-.346.73-.346 1.416v.411h-.915v1.18h.933v5.165zm3.728 0V12.98c0-.513.064-.893.193-1.14.232-.44.683-.658 1.356-.658.051 0 .117.002.2.006.081.003.175.011.282.023V9.497a2.021 2.021 0 0 1-.145-.01 1.1 1.1 0 0 0-.08-.002c-.5 0-.907.131-1.22.395-.191.155-.417.447-.674.875V9.638h-1.597v6.404zm4.577.199c.453 0 .861-.103 1.22-.311a3.44 3.44 0 0 0 .799-.64c.012.145.027.273.046.387a2 2 0 0 0 .106.365h1.82v-.247a.612.612 0 0 1-.246-.194c-.056-.078-.088-.228-.1-.447a29.623 29.623 0 0 1-.012-.74v-2.937c0-.772-.271-1.297-.816-1.575-.544-.278-1.166-.417-1.866-.417-1.077 0-1.834.283-2.277.846-.278.36-.434.821-.47 1.38h1.614c.039-.246.118-.442.235-.587.164-.196.444-.293.84-.293.351 0 .62.05.8.149.182.1.274.281.274.544 0 .216-.12.374-.36.476-.132.058-.352.107-.661.146l-.57.07c-.647.083-1.135.22-1.467.412-.607.353-.91.923-.91 1.71 0 .606.189 1.076.566 1.406.378.332.857.497 1.435.497zm.494-1.216a.896.896 0 0 1-.579-.191c-.158-.127-.238-.334-.238-.62 0-.32.129-.557.387-.711.153-.09.406-.166.757-.229l.377-.07c.187-.035.335-.073.443-.114a1.91 1.91 0 0 0 .32-.163v.624c-.012.559-.17.945-.473 1.157a1.71 1.71 0 0 1-.994.317zm6.343-6.15V7.33h-1.696v1.545zm0 7.167V9.638h-1.696v6.404zm4.173.217c.986 0 1.714-.2 2.187-.603.47-.4.707-.92.707-1.553 0-.482-.165-.883-.494-1.204-.331-.317-.83-.555-1.497-.712-.997-.219-1.578-.374-1.741-.464a.437.437 0 0 1-.247-.417c0-.152.076-.285.232-.4.154-.113.412-.17.777-.17.441 0 .755.114.94.341a.993.993 0 0 1 .18.512h1.673c-.074-.784-.363-1.336-.865-1.654-.503-.32-1.153-.479-1.952-.479-.84 0-1.494.213-1.957.637-.463.425-.695.934-.695 1.524 0 .503.147.885.445 1.151.298.272.81.497 1.533.677 1.005.239 1.586.408 1.742.505a.476.476 0 0 1 .235.429c0 .196-.096.343-.29.44-.193.099-.455.148-.784.148-.559 0-.942-.112-1.15-.335-.118-.126-.194-.337-.228-.635h-1.696c0 .657.239 1.2.717 1.625.48.424 1.222.637 2.228.637zm2.514 1.057v-.592H94.333v.592zm0 0"/>
</svg>